<svg width="200" height="200" viewBox="0 0 200 200" fill="none" xmlns="http://www.w3.org/2000/svg">
<circle cx="100" cy="100" r="100" fill="#E25E52"/>
<path d="M107.742 30.4994C106.677 30.3812 105.74 30.1237 104.93 29.7269C104.134 29.3316 103.478 28.8055 102.964 28.1485C102.463 27.493 102.109 26.7142 101.902 25.8123C101.694 24.9103 101.653 23.9012 101.778 22.785C101.907 21.6274 102.173 20.6244 102.576 19.7762C102.995 18.9158 103.522 18.2069 104.158 17.6497C104.81 17.0802 105.555 16.6815 106.392 16.4536C107.231 16.2118 108.149 16.1462 109.145 16.2567C109.933 16.3442 110.641 16.5274 111.268 16.8062C111.895 17.085 112.422 17.4435 112.849 17.8815C113.276 18.3196 113.591 18.8219 113.794 19.3885C113.996 19.9551 114.06 20.5761 113.985 21.2513L111.126 21.6457C111.206 21.0547 111.143 20.5524 110.937 20.1389C110.732 19.7254 110.433 19.3923 110.041 19.1395C109.663 18.8883 109.239 18.7366 108.768 18.6844C108.367 18.6399 107.957 18.6781 107.537 18.799C107.118 18.9198 106.728 19.1487 106.369 19.4855C106.01 19.8085 105.701 20.2555 105.441 20.8266C105.183 21.3839 105.006 22.0898 104.911 22.9442C104.788 24.0467 104.846 24.9601 105.088 25.6844C105.329 26.4088 105.714 26.9678 106.244 27.3614C106.774 27.7551 107.392 27.9911 108.098 28.0693C108.831 28.1507 109.429 28.0635 109.891 27.8079C110.355 27.5385 110.705 27.1658 110.94 26.6896C111.176 26.2134 111.332 25.6936 111.409 25.1301L113.997 25.8359C113.914 26.5801 113.733 27.2645 113.453 27.8892C113.174 28.5001 112.787 29.0222 112.291 29.4554C111.794 29.8886 111.164 30.2024 110.4 30.3966C109.652 30.5787 108.766 30.6129 107.742 30.4994Z" fill="#FFFDF9"/>
<path d="M121.624 33.5286C120.582 33.18 119.734 32.6696 119.079 31.9974C118.43 31.312 118.015 30.4934 117.837 29.5415C117.663 28.5765 117.78 27.4893 118.187 26.2799C118.594 25.0705 119.157 24.1399 119.876 23.4881C120.608 22.8406 121.436 22.4521 122.361 22.3224C123.303 22.1841 124.282 22.2848 125.298 22.6245C126.327 22.9687 127.168 23.4769 127.823 24.1491C128.49 24.8257 128.911 25.6466 129.085 26.6116C129.277 27.5679 129.169 28.6507 128.761 29.8601C128.345 31.0958 127.764 32.0351 127.019 32.6782C126.287 33.3256 125.453 33.7119 124.515 33.8372C123.591 33.9668 122.627 33.8639 121.624 33.5286ZM122.434 31.4519C122.935 31.6195 123.397 31.6424 123.82 31.5205C124.256 31.403 124.64 31.1363 124.97 30.7205C125.319 30.2959 125.608 29.7418 125.839 29.0582C126.082 28.3352 126.189 27.6909 126.16 27.1252C126.148 26.5507 126.001 26.0703 125.72 25.6838C125.444 25.2842 125.029 24.9918 124.474 24.8065C123.986 24.6432 123.524 24.6203 123.088 24.7378C122.652 24.8553 122.262 25.1198 121.918 25.5312C121.587 25.9471 121.305 26.5034 121.07 27.2001C120.693 28.3175 120.626 29.2382 120.866 29.9622C121.12 30.6906 121.642 31.1871 122.434 31.4519Z" fill="#FFFDF9"/>
<path d="M130.528 36.5745L133.828 30.9077L136.028 27.1298L138.159 28.3615L136.422 31.3015L136.747 31.4894C137.323 30.8602 137.885 30.3918 138.435 30.0841C139.003 29.7714 139.576 29.6299 140.154 29.6595C140.739 29.6771 141.333 29.8599 141.935 30.2078C143.03 30.8411 143.631 31.7016 143.738 32.7893C143.863 33.872 143.455 35.2228 142.512 36.8419L139.61 41.8252L137.01 40.322L139.744 35.6266C140.317 34.6432 140.588 33.846 140.558 33.2353C140.534 32.6125 140.24 32.1376 139.674 31.8105C139.204 31.5391 138.72 31.4594 138.22 31.5713C137.728 31.6713 137.25 31.9244 136.788 32.3307C136.339 32.7439 135.923 33.2649 135.54 33.8936L133.11 38.0673L130.528 36.5745Z" fill="#FFFDF9"/>
<path d="M145.456 46.7974C144.512 46.02 144.019 45.2 143.976 44.3373C143.953 43.4728 144.389 42.5008 145.285 41.4213L148.343 37.7339L147.137 36.7401L148.645 34.9871L149.433 35.6363C149.796 35.9172 150.107 36.065 150.365 36.08C150.634 36.1037 150.91 35.989 151.192 35.7358L152.303 34.7885L153.623 35.8751L152.067 37.7508L154.191 39.4999L152.635 41.3757L150.511 39.6266L147.598 43.1376C147.279 43.5224 147.135 43.8807 147.167 44.2126C147.207 44.5338 147.41 44.8446 147.775 45.1449C147.979 45.3127 148.189 45.4504 148.407 45.5578C148.636 45.674 148.86 45.7415 149.079 45.7601L147.31 47.8924C146.9 47.7343 146.542 47.5564 146.236 47.3588C145.931 47.1612 145.671 46.974 145.456 46.7974Z" fill="#FFFDF9"/>
<path d="M151.161 52.2107C150.756 51.7527 150.487 51.2689 150.352 50.7592C150.217 50.2496 150.23 49.7395 150.391 49.229C150.561 48.729 150.902 48.2545 151.414 47.8057C151.873 47.4027 152.328 47.1516 152.778 47.0525C153.238 46.9639 153.708 47.0037 154.191 47.1719C154.673 47.3402 155.188 47.6087 155.736 47.9777C156.285 48.3466 156.872 48.8016 157.498 49.3425C157.873 49.6415 158.183 49.8773 158.429 50.0502C158.674 50.223 158.895 50.3156 159.091 50.3281C159.288 50.3406 159.485 50.2599 159.683 50.0858C159.986 49.8202 160.146 49.4865 160.162 49.0847C160.187 48.6933 160.002 48.2738 159.607 47.8261C159.349 47.5347 159.053 47.3046 158.719 47.1359C158.394 46.9777 158.039 46.9011 157.654 46.906C157.289 46.9123 156.912 47.0209 156.524 47.232L155.321 44.768C155.871 44.4886 156.41 44.3215 156.936 44.2666C157.472 44.2025 157.992 44.2454 158.495 44.3953C159.018 44.5465 159.52 44.7897 160.002 45.1249C160.483 45.4601 160.944 45.8776 161.386 46.3772C162.084 47.1684 162.524 47.9283 162.704 48.657C162.893 49.3961 162.826 50.1287 162.504 50.8548C162.191 51.5718 161.612 52.3013 160.766 53.0432L159.355 54.2798C159 54.5912 158.634 54.9216 158.256 55.2709C157.899 55.6215 157.536 55.9766 157.168 56.3364C156.81 56.6869 156.467 57.0433 156.138 57.4056L154.373 55.4069C154.627 55.1283 154.908 54.8269 155.214 54.5025C155.532 54.169 155.864 53.8316 156.211 53.4902L155.991 53.2403C155.464 53.4622 154.909 53.5792 154.326 53.5912C153.753 53.6137 153.192 53.5141 152.644 53.2926C152.097 53.071 151.602 52.7104 151.161 52.2107ZM153.634 51.705C153.808 51.9028 154.019 52.0783 154.266 52.2315C154.523 52.3756 154.802 52.4818 155.103 52.5501C155.413 52.6288 155.742 52.6547 156.089 52.6276C156.436 52.6006 156.786 52.5148 157.141 52.3704L158.35 51.2831L158.604 51.6972C158.312 51.6393 158.014 51.522 157.709 51.3455C157.425 51.1702 157.142 50.9655 156.861 50.7315C156.59 50.5079 156.313 50.2888 156.031 50.0744C155.749 49.8599 155.474 49.6852 155.207 49.5503C154.939 49.4154 154.677 49.3496 154.421 49.3529C154.174 49.3471 153.921 49.4586 153.66 49.6876C153.346 49.9624 153.187 50.2864 153.183 50.6594C153.199 51.0338 153.349 51.3823 153.634 51.705Z" fill="#FFFDF9"/>
<path d="M160.616 64.8174C160.133 64.0063 159.831 63.2259 159.708 62.4762C159.586 61.7264 159.619 61.0215 159.809 60.3614C160.006 59.7133 160.337 59.1145 160.803 58.5653C161.281 58.009 161.873 57.5222 162.579 57.1051C163.322 56.6667 164.058 56.3686 164.789 56.2107C165.533 56.0458 166.252 56.0318 166.948 56.1686C167.645 56.3055 168.292 56.5919 168.891 57.0279C169.498 57.4758 170.031 58.0874 170.493 58.8627C170.961 59.6499 171.23 60.4016 171.3 61.1178C171.378 61.8459 171.286 62.5208 171.025 63.1425C170.776 63.7571 170.378 64.2983 169.831 64.7663L167.679 62.8215C168.06 62.5644 168.332 62.2745 168.496 61.9519C168.679 61.6342 168.759 61.3053 168.734 60.9651C168.71 60.6249 168.595 60.2819 168.389 59.936C168.19 59.602 167.951 59.3487 167.67 59.1759C167.389 59.0032 167.064 58.9052 166.694 58.8818C166.343 58.8633 165.96 58.9124 165.544 59.0291C165.135 59.1578 164.697 59.36 164.231 59.6357C163.584 60.0176 163.083 60.4263 162.728 60.862C162.384 61.2906 162.192 61.7426 162.151 62.218C162.129 62.6982 162.268 63.1889 162.566 63.6898C162.85 64.1669 163.169 64.4861 163.524 64.6473C163.885 64.8204 164.249 64.8878 164.614 64.8493C164.992 64.8037 165.353 64.7034 165.697 64.5482L166.572 67.0783C166.083 67.3183 165.573 67.4666 165.041 67.5233C164.508 67.5799 163.98 67.5212 163.456 67.3472C162.931 67.1732 162.427 66.8828 161.942 66.476C161.469 66.0621 161.027 65.5092 160.616 64.8174Z" fill="#FFFDF9"/>
<path d="M165.881 75.638C165.432 74.503 165.397 73.5476 165.778 72.7716C166.177 72.0035 167.03 71.3622 168.337 70.8479L172.803 69.0908L172.228 67.6399L174.398 66.8306L174.774 67.7785C174.956 68.199 175.156 68.478 175.375 68.6154C175.599 68.7658 175.896 68.798 176.266 68.712L177.698 68.4171L178.326 70.0034L176.055 70.8972L177.067 73.4508L174.795 74.3446L173.783 71.791L169.531 73.464C169.065 73.6474 168.766 73.892 168.632 74.1978C168.512 74.4985 168.539 74.8681 168.713 75.3066C168.81 75.5517 168.928 75.7736 169.066 75.9725C169.21 76.1843 169.374 76.3511 169.557 76.4729L166.974 77.489C166.691 77.153 166.464 76.825 166.292 76.5049C166.121 76.1849 165.984 75.8959 165.881 75.638Z" fill="#FFFDF9"/>
<path d="M170.019 93.2409C169.937 92.4129 169.954 91.6589 170.069 90.9789C170.171 90.3141 170.358 89.7247 170.629 89.2106C170.914 88.6951 171.269 88.2564 171.695 87.8943C172.135 87.531 172.637 87.2381 173.203 87.0157C173.77 86.8071 174.399 86.669 175.092 86.6014L183.423 85.7881L183.718 88.7896L175.491 89.5928C174.785 89.6617 174.207 89.8296 173.758 90.0964C173.324 90.3756 173.017 90.7468 172.839 91.21C172.662 91.6871 172.608 92.2706 172.676 92.9606C172.745 93.6644 172.913 94.2332 173.179 94.667C173.446 95.1007 173.818 95.4057 174.297 95.5819C174.79 95.7567 175.389 95.8096 176.095 95.7407L184.323 94.9375L184.616 97.9183L176.285 98.7316C174.484 98.9074 173.036 98.5403 171.939 97.6302C170.857 96.7188 170.217 95.2557 170.019 93.2409Z" fill="#FFFDF9"/>
<path d="M170.004 108.178C170.085 107.448 170.227 106.794 170.432 106.217C170.636 105.639 170.894 105.144 171.205 104.732C171.529 104.336 171.893 104.027 172.295 103.806C172.71 103.601 173.163 103.49 173.655 103.475L174.272 105.865C173.948 105.886 173.634 105.997 173.332 106.201C173.027 106.419 172.776 106.726 172.578 107.123C172.38 107.519 172.248 108.014 172.182 108.607C172.115 109.213 172.152 109.699 172.294 110.063C172.449 110.429 172.7 110.631 173.046 110.669C173.308 110.698 173.527 110.624 173.7 110.448C173.872 110.286 174.034 110.024 174.186 109.665C174.337 109.318 174.49 108.882 174.647 108.355C174.829 107.845 175.02 107.329 175.218 106.807C175.428 106.3 175.683 105.833 175.982 105.405C176.28 104.992 176.645 104.669 177.077 104.438C177.507 104.22 178.033 104.146 178.656 104.214C179.333 104.289 179.901 104.533 180.36 104.946C180.818 105.359 181.147 105.926 181.347 106.645C181.56 107.38 181.612 108.23 181.505 109.195C181.406 110.09 181.194 110.862 180.87 111.51C180.546 112.158 180.132 112.67 179.628 113.047C179.123 113.438 178.531 113.666 177.851 113.73L177.375 111.209C177.726 111.206 178.038 111.107 178.311 110.914C178.583 110.735 178.8 110.48 178.963 110.149C179.14 109.82 179.254 109.421 179.306 108.952C179.37 108.373 179.324 107.908 179.167 107.556C179.008 107.217 178.77 107.031 178.452 106.996C178.189 106.967 177.963 107.047 177.774 107.235C177.585 107.423 177.414 107.704 177.261 108.078C177.121 108.453 176.967 108.897 176.798 109.408C176.628 109.934 176.437 110.45 176.227 110.957C176.031 111.465 175.791 111.92 175.509 112.321C175.226 112.723 174.877 113.026 174.462 113.231C174.048 113.437 173.529 113.505 172.906 113.437C172.187 113.357 171.593 113.097 171.124 112.654C170.654 112.226 170.321 111.631 170.125 110.87C169.929 110.109 169.889 109.212 170.004 108.178Z" fill="#FFFDF9"/>
<path d="M172.76 126.852L175.025 125.348L176.126 128.096L176.278 128.109L177.649 125.49L179.869 127.17L177.534 129.092L177.575 129.219L180.516 129.703L179.52 132.33L176.993 130.756L176.87 130.844L177.37 133.766L174.575 133.604L175.275 130.755L175.146 130.684L172.504 132.003L171.801 129.382L174.778 129.123L174.829 128.987L172.76 126.852Z" fill="#FFFDF9"/>
<path d="M156.559 142.577C157.192 141.716 157.883 141.034 158.632 140.532C159.373 140.042 160.157 139.738 160.985 139.62C161.805 139.514 162.659 139.597 163.547 139.867C164.436 140.137 165.334 140.604 166.243 141.268C167.186 141.957 167.927 142.686 168.464 143.457C169.004 144.247 169.358 145.056 169.526 145.883C169.697 146.73 169.673 147.572 169.454 148.409C169.246 149.255 168.846 150.08 168.254 150.885C167.785 151.523 167.273 152.043 166.718 152.445C166.163 152.848 165.588 153.125 164.994 153.276C164.4 153.426 163.806 153.448 163.212 153.341C162.618 153.234 162.046 152.979 161.496 152.578L162.577 149.912C163.052 150.275 163.52 150.471 163.982 150.499C164.445 150.528 164.884 150.435 165.299 150.223C165.706 150.022 166.049 149.731 166.329 149.35C166.567 149.026 166.739 148.653 166.842 148.23C166.946 147.807 166.941 147.357 166.827 146.878C166.725 146.408 166.49 145.918 166.122 145.409C165.766 144.908 165.24 144.404 164.544 143.895C163.646 143.24 162.822 142.835 162.071 142.683C161.321 142.53 160.642 142.585 160.036 142.847C159.429 143.108 158.916 143.525 158.496 144.095C158.06 144.688 157.838 145.248 157.83 145.775C157.833 146.31 157.983 146.798 158.281 147.238C158.578 147.679 158.952 148.073 159.404 148.42L157.5 150.304C156.894 149.862 156.389 149.364 155.985 148.811C155.592 148.266 155.331 147.671 155.201 147.027C155.071 146.382 155.112 145.681 155.324 144.924C155.538 144.187 155.95 143.405 156.559 142.577Z" fill="#FFFDF9"/>
<path d="M147.005 153.079C147.826 152.35 148.692 151.87 149.603 151.638C150.522 151.416 151.441 151.465 152.359 151.783C153.286 152.112 154.176 152.752 155.027 153.705C155.878 154.658 156.409 155.607 156.62 156.552C156.821 157.507 156.748 158.416 156.402 159.28C156.055 160.163 155.481 160.96 154.681 161.67C153.87 162.389 153.009 162.865 152.099 163.097C151.178 163.338 150.254 163.294 149.327 162.966C148.398 162.657 147.508 162.026 146.657 161.073C145.787 160.099 145.257 159.131 145.067 158.167C144.867 157.213 144.944 156.299 145.301 155.426C145.647 154.562 146.215 153.779 147.005 153.079ZM148.412 154.81C148.017 155.161 147.768 155.549 147.664 155.975C147.55 156.41 147.592 156.874 147.79 157.367C147.987 157.879 148.326 158.405 148.807 158.943C149.316 159.513 149.824 159.925 150.332 160.181C150.838 160.456 151.329 160.567 151.806 160.516C152.291 160.476 152.752 160.262 153.188 159.875C153.573 159.534 153.822 159.145 153.937 158.71C154.051 158.275 154.014 157.806 153.826 157.304C153.628 156.811 153.284 156.29 152.794 155.742C152.007 154.861 151.239 154.345 150.489 154.194C149.728 154.052 149.036 154.257 148.412 154.81Z" fill="#FFFDF9"/>
<path d="M139.934 159.27L143.241 164.933L145.445 168.708L143.316 169.943L141.613 166.984L141.288 167.172C141.551 167.982 141.681 168.701 141.678 169.328C141.669 169.975 141.508 170.541 141.196 171.027C140.891 171.525 140.438 171.948 139.837 172.297C138.742 172.931 137.694 173.025 136.693 172.579C135.686 172.152 134.711 171.129 133.766 169.511L130.858 164.531L133.456 163.025L136.196 167.717C136.77 168.7 137.331 169.33 137.879 169.606C138.433 169.894 138.993 169.874 139.559 169.546C140.028 169.274 140.337 168.894 140.487 168.406C140.644 167.93 140.659 167.392 140.534 166.791C140.396 166.197 140.148 165.579 139.789 164.937L137.354 160.766L139.934 159.27Z" fill="#FFFDF9"/>
<path d="M123.618 167.127C124.764 166.696 125.723 166.676 126.496 167.067C127.261 167.476 127.891 168.336 128.387 169.646L130.082 174.122L131.547 173.571L132.326 175.746L131.369 176.106C130.944 176.28 130.661 176.476 130.52 176.692C130.366 176.913 130.329 177.208 130.41 177.578L130.684 179.009L129.082 179.611L128.22 177.334L125.642 178.303L124.78 176.027L127.358 175.057L125.744 170.796C125.567 170.329 125.326 170.026 125.021 169.889C124.721 169.765 124.35 169.786 123.907 169.952C123.66 170.045 123.435 170.159 123.233 170.294C123.019 170.434 122.849 170.595 122.724 170.775L121.744 168.187C122.085 167.91 122.418 167.689 122.741 167.523C123.065 167.357 123.357 167.224 123.618 167.127Z" fill="#FFFDF9"/>
<path d="M116.028 169.376C116.629 169.255 117.184 169.263 117.695 169.401C118.205 169.538 118.643 169.804 119.007 170.197C119.357 170.594 119.6 171.125 119.735 171.791C119.857 172.389 119.848 172.907 119.71 173.345C119.558 173.786 119.289 174.172 118.902 174.505C118.515 174.838 118.025 175.149 117.43 175.438C116.836 175.728 116.148 176.008 115.365 176.279C114.918 176.455 114.558 176.605 114.285 176.731C114.013 176.856 113.822 177.001 113.713 177.164C113.604 177.328 113.576 177.539 113.629 177.797C113.709 178.191 113.92 178.495 114.261 178.709C114.589 178.926 115.047 178.975 115.633 178.857C116.015 178.78 116.363 178.639 116.676 178.434C116.976 178.232 117.219 177.964 117.407 177.629C117.584 177.31 117.677 176.931 117.687 176.49L120.43 176.68C120.399 177.294 120.276 177.843 120.061 178.324C119.85 178.82 119.553 179.247 119.172 179.607C118.78 179.984 118.318 180.296 117.786 180.545C117.255 180.793 116.661 180.984 116.007 181.116C114.97 181.325 114.09 181.325 113.366 181.118C112.629 180.913 112.025 180.49 111.554 179.849C111.086 179.222 110.74 178.358 110.516 177.257L110.143 175.423C110.049 174.961 109.945 174.48 109.829 173.979C109.702 173.496 109.574 173.005 109.445 172.508C109.318 172.024 109.179 171.55 109.028 171.085L111.647 170.557C111.762 170.916 111.884 171.308 112.014 171.735C112.146 172.175 112.274 172.63 112.398 173.101L112.725 173.035C112.795 172.469 112.969 171.931 113.249 171.422C113.516 170.916 113.882 170.481 114.348 170.118C114.813 169.756 115.374 169.508 116.028 169.376ZM115.236 171.764C114.977 171.817 114.719 171.911 114.463 172.047C114.209 172.198 113.978 172.386 113.768 172.612C113.545 172.841 113.358 173.112 113.209 173.425C113.06 173.738 112.959 174.084 112.908 174.462L113.252 176.048L112.765 176.061C112.961 175.838 113.211 175.639 113.517 175.464C113.811 175.305 114.13 175.163 114.474 175.037C114.804 174.914 115.132 174.784 115.459 174.648C115.787 174.511 116.076 174.361 116.326 174.197C116.577 174.033 116.765 173.84 116.89 173.616C117.018 173.407 117.047 173.132 116.978 172.792C116.895 172.384 116.693 172.086 116.37 171.896C116.037 171.723 115.659 171.679 115.236 171.764Z" fill="#FFFDF9"/>
<path d="M100.351 171.255C101.297 171.242 102.127 171.37 102.84 171.637C103.554 171.905 104.15 172.285 104.63 172.778C105.096 173.271 105.452 173.856 105.698 174.532C105.944 175.222 106.072 175.976 106.083 176.794C106.095 177.654 105.987 178.439 105.76 179.149C105.534 179.873 105.187 180.502 104.721 181.035C104.255 181.568 103.683 181.985 103.005 182.285C102.314 182.586 101.515 182.742 100.611 182.754C99.6924 182.767 98.9041 182.625 98.246 182.328C97.5739 182.032 97.0324 181.617 96.6216 181.081C96.2109 180.56 95.9382 179.947 95.8033 179.241L98.5679 178.351C98.602 178.808 98.7184 179.188 98.9174 179.49C99.1026 179.807 99.3493 180.039 99.6575 180.188C99.9657 180.336 100.322 180.408 100.725 180.402C101.115 180.397 101.455 180.316 101.745 180.16C102.035 180.003 102.282 179.771 102.487 179.463C102.678 179.17 102.826 178.814 102.932 178.396C103.024 177.979 103.066 177.5 103.059 176.96C103.048 176.211 102.942 175.574 102.74 175.05C102.539 174.54 102.241 174.148 101.848 173.876C101.441 173.618 100.945 173.493 100.36 173.501C99.8037 173.509 99.3669 173.625 99.0498 173.852C98.7189 174.078 98.4791 174.359 98.3305 174.693C98.1821 175.042 98.0896 175.404 98.0529 175.779L95.4156 175.273C95.45 174.732 95.5753 174.217 95.7914 173.729C96.0074 173.241 96.3218 172.814 96.7344 172.447C97.1469 172.081 97.651 171.79 98.2466 171.574C98.8423 171.372 99.5437 171.266 100.351 171.255Z" fill="#FFFDF9"/>
<path d="M88.2426 170.418C89.4545 170.593 90.3036 171.039 90.7899 171.754C91.2605 172.481 91.3946 173.537 91.1923 174.923L90.5014 179.657L92.0508 179.881L91.676 182.16L90.6638 182.013C90.2073 181.961 89.8648 181.996 89.6362 182.117C89.3938 182.236 89.218 182.476 89.1089 182.839L88.6537 184.223L86.9598 183.978L87.3112 181.57L84.5844 181.174L84.9359 178.766L87.6627 179.161L88.3205 174.654C88.3926 174.16 88.3286 173.779 88.1286 173.512C87.9265 173.259 87.5913 173.098 87.1231 173.03C86.8614 172.992 86.6095 172.984 86.3674 173.005C86.1115 173.024 85.885 173.082 85.6879 173.179L86.0875 170.442C86.5206 170.365 86.9193 170.331 87.2834 170.342C87.6474 170.353 87.9672 170.378 88.2426 170.418Z" fill="#FFFDF9"/>
<path d="M70.8498 165.238C71.6111 165.58 72.2591 165.97 72.7938 166.407C73.3216 166.827 73.7418 167.281 74.0544 167.772C74.3613 168.274 74.5663 168.8 74.6695 169.348C74.767 169.909 74.7718 170.489 74.684 171.088C74.5835 171.682 74.3903 172.295 74.1045 172.927L70.666 180.531L67.9063 179.292L71.3019 171.783C71.5934 171.138 71.7348 170.555 71.7262 170.034C71.6991 169.52 71.5283 169.071 71.2137 168.686C70.8865 168.296 70.4057 167.959 69.7712 167.674C69.1241 167.383 68.5455 167.245 68.0353 167.26C67.5251 167.274 67.0742 167.444 66.6825 167.77C66.2852 168.109 65.9407 168.601 65.6492 169.245L62.2536 176.755L59.5129 175.525L62.9513 167.92C63.6945 166.277 64.735 165.208 66.0728 164.713C67.4049 164.232 68.9973 164.407 70.8498 165.238Z" fill="#FFFDF9"/>
<path d="M57.9726 157.853C58.5679 158.287 59.0659 158.736 59.4666 159.2C59.8674 159.664 60.1693 160.133 60.3726 160.608C60.5564 161.085 60.644 161.553 60.6355 162.011C60.6076 162.471 60.4779 162.918 60.2464 163.351L57.8587 162.692C58.0028 162.402 58.0615 162.076 58.035 161.713C57.9972 161.341 57.855 160.971 57.6085 160.603C57.362 160.234 56.9972 159.873 56.5143 159.521C56.0201 159.161 55.5793 158.951 55.1916 158.892C54.7958 158.844 54.4952 158.96 54.2897 159.24C54.1336 159.452 54.0889 159.677 54.1557 159.915C54.2113 160.145 54.3579 160.415 54.5954 160.725C54.8216 161.028 55.125 161.378 55.5055 161.776C55.8583 162.187 56.2126 162.609 56.5684 163.04C56.9048 163.474 57.1844 163.927 57.407 164.399C57.6185 164.862 57.7174 165.338 57.7037 165.827C57.6787 166.307 57.4814 166.799 57.1115 167.302C56.7088 167.85 56.2136 168.22 55.6257 168.409C55.0378 168.599 54.3809 168.602 53.655 168.416C52.9097 168.233 52.1439 167.855 51.3577 167.282C50.6277 166.75 50.0615 166.183 49.6591 165.58C49.2568 164.977 49.0171 164.364 48.9401 163.741C48.8519 163.11 48.9489 162.485 49.2311 161.866L51.6628 162.711C51.491 163.015 51.421 163.334 51.4528 163.666C51.4733 163.99 51.587 164.305 51.7938 164.611C51.9924 164.927 52.2826 165.225 52.6644 165.503C53.1361 165.847 53.5643 166.039 53.9489 166.079C54.3223 166.11 54.6035 165.998 54.7925 165.74C54.9486 165.528 54.9918 165.293 54.9219 165.036C54.8521 164.778 54.6928 164.491 54.4441 164.172C54.1871 163.864 53.8782 163.51 53.5171 163.109C53.1449 162.7 52.7905 162.279 52.4542 161.845C52.1096 161.422 51.8331 160.988 51.6246 160.544C51.4162 160.1 51.3259 159.647 51.3539 159.187C51.3818 158.726 51.5807 158.244 51.9505 157.74C52.3779 157.158 52.9008 156.775 53.5194 156.59C54.1267 156.397 54.8101 156.406 55.5697 156.616C56.3293 156.826 57.1303 157.239 57.9726 157.853Z" fill="#FFFDF9"/>
<path d="M40.3357 150.936L40.5222 153.642L37.5811 153.231L37.4951 153.356L39.0964 155.842L36.5313 156.928L36.0145 153.954L35.8837 153.927L34.0031 156.23L32.208 154.066L34.8332 152.66L34.8178 152.511L32.0237 151.493L33.5516 149.155L35.6867 151.175L35.8127 151.098L35.9747 148.159L38.6071 148.852L37.3556 151.555L37.4487 151.667L40.3357 150.936Z" fill="#FFFDF9"/>
<path d="M34.653 129.114C35.0894 130.089 35.3407 131.025 35.4068 131.922C35.4672 132.806 35.3431 133.635 35.0346 134.41C34.7204 135.172 34.2253 135.87 33.5493 136.505C32.8732 137.139 32.0204 137.685 30.9908 138.142C29.9232 138.616 28.9203 138.895 27.9821 138.978C27.0256 139.054 26.1452 138.959 25.3408 138.694C24.5181 138.422 23.7962 137.983 23.1752 137.379C22.5414 136.78 22.0205 136.024 21.6124 135.112C21.2894 134.391 21.09 133.69 21.0143 133.01C20.9386 132.33 20.9823 131.696 21.1455 131.107C21.3087 130.518 21.5843 129.993 21.9724 129.533C22.3604 129.072 22.8658 128.703 23.4886 128.426L25.276 130.684C24.7238 130.914 24.3207 131.222 24.0669 131.608C23.813 131.994 23.6757 132.419 23.6551 132.884C23.6288 133.336 23.712 133.777 23.9047 134.208C24.069 134.575 24.3097 134.909 24.6265 135.208C24.9434 135.508 25.3386 135.727 25.8122 135.865C26.273 136.01 26.8163 136.049 27.4422 135.984C28.0554 135.924 28.756 135.719 29.5441 135.369C30.5609 134.917 31.3219 134.405 31.8271 133.831C32.3322 133.257 32.6212 132.643 32.6938 131.988C32.7665 131.334 32.6583 130.683 32.3693 130.037C32.0689 129.366 31.6911 128.896 31.2358 128.628C30.7677 128.365 30.2681 128.253 29.7368 128.292C29.2056 128.331 28.6766 128.459 28.1498 128.678L27.4514 126.096C28.1378 125.791 28.8222 125.601 29.5046 125.526C30.1743 125.456 30.8222 125.525 31.4484 125.732C32.0747 125.94 32.6651 126.323 33.2196 126.881C33.7558 127.433 34.2336 128.177 34.653 129.114Z" fill="#FFFDF9"/>
<path d="M30.2506 115.611C30.475 116.684 30.4613 117.671 30.2094 118.573C29.9438 119.478 29.4438 120.248 28.7094 120.882C27.9613 121.519 26.9606 121.968 25.7072 122.228C24.4538 122.488 23.3633 122.474 22.4357 122.185C21.5052 121.883 20.7504 121.367 20.1712 120.637C19.5756 119.897 19.1685 119.004 18.9497 117.959C18.7282 116.9 18.7433 115.92 18.9952 115.018C19.2443 114.102 19.7429 113.325 20.491 112.688C21.2226 112.041 22.2151 111.587 23.4685 111.326C24.7491 111.06 25.8561 111.085 26.7894 111.401C27.7198 111.704 28.4761 112.226 29.058 112.97C29.6372 113.699 30.0347 114.58 30.2506 115.611ZM28.0427 115.964C27.9347 115.448 27.7212 115.039 27.4021 114.737C27.0802 114.422 26.6556 114.226 26.1282 114.152C25.5843 114.067 24.9582 114.097 24.2498 114.245C23.5005 114.4 22.8883 114.634 22.4132 114.945C21.9216 115.245 21.5794 115.614 21.3864 116.051C21.1799 116.49 21.1363 116.995 21.2556 117.565C21.3607 118.067 21.5742 118.476 21.8961 118.792C22.218 119.107 22.6441 119.309 23.1743 119.397C23.7017 119.472 24.3264 119.434 25.0485 119.284C26.2065 119.044 27.0383 118.637 27.544 118.065C28.0469 117.478 28.2131 116.778 28.0427 115.964Z" fill="#FFFDF9"/>
<path d="M28.3941 106.407L21.8185 106.442L17.4348 106.465L17.4217 104.011L20.8453 104.014L20.8433 103.639C20.0073 103.463 19.3171 103.217 18.7727 102.901C18.2142 102.572 17.8014 102.151 17.5343 101.639C17.2532 101.128 17.1108 100.525 17.1071 99.832C17.1004 98.5702 17.5406 97.618 18.4279 96.9754C19.3011 96.3191 20.6771 95.9859 22.5559 95.976L28.3382 95.9453L28.3542 98.9403L22.9059 98.9692C21.7647 98.9753 20.9376 99.1461 20.4244 99.4816C19.8974 99.8172 19.6356 100.311 19.6391 100.962C19.642 101.503 19.8184 101.96 20.1683 102.332C20.5043 102.705 20.965 102.987 21.5506 103.178C22.136 103.355 22.7976 103.449 23.5352 103.459L28.3782 103.433L28.3941 106.407Z" fill="#FFFDF9"/>
<path d="M29.6795 88.344C29.4849 89.5487 29.0252 90.3879 28.3003 90.8615C27.5639 91.3193 26.5018 91.4369 25.114 91.2144L20.3738 90.4543L20.125 91.9944L17.844 91.5866L18.0065 90.5803C18.0657 90.1264 18.0363 89.7846 17.9184 89.555C17.8026 89.3117 17.5637 89.133 17.2015 89.0187L15.8193 88.5443L16.0912 86.8604L18.5026 87.2471L18.9404 84.5365L21.3517 84.9231L20.9139 87.6337L25.4275 88.3574C25.9221 88.4367 26.305 88.3788 26.5762 88.1835C26.8336 87.986 26.9999 87.6545 27.0751 87.1891C27.1171 86.929 27.1294 86.6781 27.1121 86.4366C27.0969 86.1814 27.0419 85.9548 26.9469 85.757L29.6881 86.1966C29.7591 86.6293 29.7865 87.0269 29.7702 87.3895C29.754 87.752 29.7237 88.0702 29.6795 88.344Z" fill="#FFFDF9"/>
<path d="M31.4835 80.6893C31.2908 81.2684 31.0077 81.7446 30.6343 82.1179C30.2608 82.4912 29.8123 82.7375 29.2888 82.8567C28.7697 82.9628 28.1865 82.9089 27.5392 82.6951C26.958 82.5031 26.5109 82.2385 26.1979 81.9014C25.8892 81.5511 25.6861 81.1261 25.5885 80.6264C25.4908 80.1267 25.4635 79.5479 25.5064 78.8901C25.5494 78.2323 25.6472 77.4977 25.7999 76.6863C25.8696 76.2126 25.9174 75.8267 25.9433 75.5284C25.9692 75.2302 25.938 74.9935 25.8497 74.8182C25.7614 74.643 25.5918 74.5139 25.3408 74.431C24.9577 74.3045 24.5881 74.3358 24.2319 74.5249C23.8801 74.7008 23.6101 75.0718 23.4218 75.6377C23.2991 76.0063 23.2491 76.3769 23.2717 76.7495C23.2987 77.1091 23.4115 77.4531 23.6101 77.7816C23.7998 78.0927 24.0841 78.3619 24.463 78.5893L22.9352 80.8675C22.4153 80.5351 21.9988 80.1564 21.6857 79.7316C21.3593 79.3024 21.1341 78.8336 21.0101 78.3252C20.8772 77.7992 20.8345 77.2446 20.8819 76.6613C20.9294 76.078 21.0582 75.4705 21.2685 74.8388C21.6013 73.8385 22.0379 73.077 22.5784 72.5544C23.1232 72.0185 23.7917 71.7061 24.5837 71.6172C25.3625 71.5238 26.2869 71.6539 27.3568 72.0073L29.1401 72.5964C29.5893 72.7448 30.0604 72.8931 30.5535 73.0414C31.0378 73.1721 31.5287 73.3051 32.0263 73.4402C32.5106 73.571 32.9926 73.6864 33.4725 73.7865L32.6316 76.3135C32.2618 76.2352 31.859 76.1459 31.4232 76.0458C30.9741 75.9413 30.514 75.8258 30.0429 75.6994L29.9378 76.0153C30.3961 76.3566 30.7774 76.7747 31.0819 77.2697C31.3907 77.7516 31.5874 78.284 31.672 78.8671C31.7566 79.4501 31.6937 80.0575 31.4835 80.6893ZM29.7971 78.8175C29.8804 78.5674 29.9261 78.2976 29.9345 78.0082C29.9296 77.7145 29.8807 77.4207 29.7878 77.1271C29.6993 76.8203 29.5558 76.5246 29.3573 76.2399C29.1588 75.9552 28.9075 75.6969 28.6035 75.465L27.0514 74.9742L27.2817 74.5463C27.379 74.8267 27.4279 75.1424 27.4285 75.4932C27.4202 75.8264 27.3856 76.1729 27.3246 76.5325C27.2679 76.879 27.2179 77.2277 27.1744 77.5786C27.131 77.9294 27.1183 78.2539 27.1364 78.5521C27.1545 78.8502 27.2297 79.1088 27.3621 79.3278C27.4813 79.5425 27.706 79.7044 28.0362 79.8135C28.4325 79.9444 28.7933 79.9175 29.1187 79.7328C29.4352 79.5306 29.6614 79.2255 29.7971 78.8175Z" fill="#FFFDF9"/>
<path d="M37.6454 66.202C37.185 67.0257 36.6606 67.6791 36.0721 68.162C35.4836 68.6449 34.8554 68.9708 34.1875 69.1398C33.5263 69.2967 32.8403 69.3129 32.1294 69.1882C31.4064 69.0569 30.6862 68.7922 29.9689 68.3941C29.215 67.9758 28.5857 67.4917 28.0807 66.9417C27.5635 66.3849 27.1891 65.7724 26.9573 65.1042C26.7255 64.4359 26.6478 63.7342 26.7242 62.9989C26.8075 62.2515 27.0691 61.4841 27.5092 60.6967C27.9561 59.8971 28.4724 59.2869 29.0582 58.866C29.6506 58.4329 30.2822 58.1723 30.9527 58.084C31.6111 57.9891 32.2808 58.0591 32.9618 58.2942L32.3587 61.1259C31.944 60.9275 31.5554 60.8389 31.1932 60.86C30.8255 60.8624 30.5003 60.9597 30.2176 61.152C29.9349 61.3443 29.6954 61.6161 29.499 61.9674C29.3094 62.3066 29.2104 62.6405 29.2019 62.9691C29.1935 63.2977 29.2722 63.6271 29.4382 63.9572C29.5987 64.2685 29.8342 64.5738 30.1448 64.8731C30.4622 65.1603 30.858 65.4354 31.3321 65.6985C31.9887 66.0629 32.5954 66.2884 33.1522 66.3751C33.6968 66.4552 34.1856 66.393 34.6183 66.1888C35.0457 65.9656 35.4016 65.5997 35.6859 65.0909C35.9568 64.6063 36.0728 64.1707 36.034 63.7842C36.002 63.3855 35.8773 63.0385 35.66 62.7434C35.4305 62.4415 35.1618 62.1813 34.8538 61.9628L36.6077 59.9363C37.0616 60.2357 37.4471 60.6004 37.7643 61.0304C38.0815 61.4603 38.2966 61.9447 38.4096 62.4836C38.5226 63.0224 38.5247 63.6029 38.4159 64.225C38.295 64.8403 38.0382 65.4993 37.6454 66.202Z" fill="#FFFDF9"/>
<path d="M44.3643 56.2296C43.6076 57.189 42.797 57.7006 41.9325 57.7644C41.0657 57.8087 40.0797 57.3982 38.9745 56.5329L35.1995 53.577L34.2321 54.8035L32.436 53.3443L33.068 52.543C33.3409 52.1746 33.4816 51.8616 33.4902 51.6038C33.5074 51.3351 33.3855 51.0633 33.1245 50.7883L32.1467 49.7053L33.2044 48.3643L35.1248 49.868L36.8274 47.7093L38.7477 49.2129L37.0451 51.3716L40.6396 54.1861C41.0335 54.4946 41.3966 54.6289 41.7288 54.5892C42.0501 54.541 42.3569 54.3315 42.6492 53.9608C42.8126 53.7537 42.9455 53.5403 43.0479 53.3207C43.1589 53.0902 43.2211 52.8655 43.2344 52.6467L45.4174 54.3559C45.2688 54.7687 45.0992 55.1296 44.9084 55.4388C44.7177 55.748 44.5363 56.0116 44.3643 56.2296Z" fill="#FFFDF9"/>
<path d="M57.5367 43.7513C56.8613 44.2405 56.2003 44.6079 55.5536 44.8535C54.9264 45.1022 54.3216 45.2403 53.7395 45.2677C53.1491 45.2839 52.5894 45.2008 52.0605 45.0182C51.5233 44.8245 51.0154 44.541 50.5366 44.1678C50.069 43.7865 49.6306 43.3154 49.2215 42.7547L44.2988 36.0088L46.747 34.2353L51.6083 40.897C52.0256 41.469 52.4635 41.8804 52.9218 42.1312C53.3833 42.3627 53.8595 42.4377 54.3507 42.3562C54.8531 42.2666 55.3857 42.0179 55.9485 41.6102C56.5225 41.1943 56.9298 40.7621 57.1703 40.3136C57.4108 39.8651 57.4861 39.3905 57.3961 38.89C57.2979 38.3782 57.0402 37.8363 56.6228 37.2643L51.7616 30.6026L54.1928 28.8413L59.1155 35.5871C60.1794 37.0451 60.5951 38.4755 60.3627 39.8782C60.122 41.2697 59.18 42.5607 57.5367 43.7513Z" fill="#FFFDF9"/>
<path d="M70.3587 36.269C69.6852 36.5688 69.047 36.777 68.4438 36.8936C67.8407 37.0102 67.2819 37.0388 66.7674 36.9793C66.26 36.9014 65.8089 36.7453 65.4142 36.511C65.0266 36.2583 64.7016 35.9246 64.4394 35.5098L66.1973 33.7704C66.3787 34.0389 66.6342 34.2517 66.9637 34.4088C67.306 34.5601 67.6989 34.6206 68.1425 34.5902C68.5862 34.5597 69.0812 34.4229 69.6275 34.1797C70.1866 33.9308 70.588 33.6533 70.8319 33.3474C71.0701 33.0287 71.1182 32.7111 70.9762 32.3946C70.8684 32.1541 70.6943 32.0038 70.4539 31.9437C70.2263 31.878 69.9183 31.8709 69.5298 31.9223C69.154 31.9681 68.6985 32.057 68.1632 32.189C67.6293 32.29 67.0862 32.3875 66.5339 32.4815C65.9886 32.5572 65.4552 32.5744 64.9337 32.5332C64.4249 32.4864 63.9612 32.3359 63.5424 32.0819C63.1363 31.8222 62.8056 31.4076 62.5501 30.8379C62.2719 30.2175 62.1958 29.606 62.3218 29.0031C62.4478 28.4003 62.7717 27.8309 63.2934 27.2949C63.8222 26.7405 64.5313 26.2654 65.4207 25.8694C66.2466 25.5017 67.022 25.2933 67.7467 25.244C68.4715 25.1947 69.1245 25.2912 69.7058 25.5337C70.2997 25.7704 70.7965 26.1644 71.196 26.7155L69.2536 28.4003C69.0736 28.1008 68.8308 27.8823 68.5253 27.745C68.2325 27.6019 67.9018 27.5441 67.533 27.5716C67.1586 27.5864 66.7554 27.69 66.3234 27.8823C65.7897 28.1199 65.4102 28.3952 65.1847 28.7082C64.972 29.0155 64.9309 29.3148 65.0614 29.606C65.1693 29.8465 65.3526 30.0003 65.6113 30.0674C65.87 30.1344 66.2 30.1394 66.6012 30.0823C66.9967 30.0126 67.4586 29.9208 67.9868 29.8072C68.5278 29.6878 69.0709 29.5903 69.6162 29.5146C70.1558 29.4263 70.6708 29.402 71.1612 29.4419C71.6516 29.4818 72.0906 29.628 72.4783 29.8807C72.8659 30.1334 73.1875 30.5445 73.443 31.1142C73.7382 31.7725 73.8129 32.4151 73.6672 33.0419C73.5342 33.663 73.1878 34.2501 72.6279 34.8031C72.068 35.3561 71.3116 35.8447 70.3587 36.269Z" fill="#FFFDF9"/>
<path d="M85.155 24.4579L82.7071 23.2701L84.5311 20.9348L84.4654 20.7983L81.5043 20.9425L81.8373 18.1852L84.6827 19.2211L84.7715 19.1217L83.7043 16.349L86.4823 15.8772L86.3972 18.8456L86.5347 18.9066L88.8133 17.0005L90.0854 19.4851L87.264 20.323L87.268 20.47L89.7449 22.0749L87.8302 24.0036L86.1018 21.5753L85.9578 21.5998L85.155 24.4579Z" fill="#FFFDF9"/>
<circle cx="100" cy="100" r="53.3462" stroke="#FFFDF9"/>
<path d="M92.591 93.5811C95.9853 92.3591 97.4261 87.446 95.809 82.6073C94.1919 77.7687 90.1293 74.8368 86.7349 76.0588C83.3406 77.2808 81.8998 82.194 83.5169 87.0326C85.134 91.8713 89.1966 94.8031 92.591 93.5811Z" fill="#FFFDF9"/>
<path d="M81.4025 102.607C83.8092 100.977 84.0109 96.8735 81.8531 93.4418C79.6952 90.0102 75.9949 88.5498 73.5882 90.18C71.1815 91.8103 70.9798 95.9138 73.1376 99.3454C75.2955 102.777 78.9958 104.237 81.4025 102.607Z" fill="#FFFDF9"/>
<path d="M116.482 87.0441C118.099 82.2054 116.658 77.2923 113.264 76.0702C109.869 74.8482 105.807 77.7801 104.19 82.6187C102.573 87.4574 104.013 92.3705 107.408 93.5925C110.802 94.8146 114.865 91.8827 116.482 87.0441Z" fill="#FFFDF9"/>
<path d="M126.862 99.3599C129.02 95.9283 128.818 91.8248 126.411 90.1946C124.005 88.5643 120.304 90.0247 118.146 93.4563C115.989 96.888 116.19 100.991 118.597 102.622C121.004 104.252 124.704 102.792 126.862 99.3599Z" fill="#FFFDF9"/>
<path d="M100.046 97.1221C88.3399 97.1221 78.8516 111.029 78.8516 121.253C78.8516 129.624 85.2148 125.131 93.9495 123.227C93.8103 123.118 93.6683 123.01 93.5262 122.905C82.713 114.904 87.7427 108.026 87.7427 108.026H87.7514C89.0415 105.869 91.3433 104.431 93.9698 104.443C96.5383 104.452 98.785 105.842 100.078 107.93C101.385 105.854 103.644 104.482 106.209 104.491C108.239 104.497 110.074 105.369 111.39 106.765C111.39 106.765 111.552 106.925 111.79 107.226C111.822 107.265 111.851 107.307 111.883 107.346C111.941 107.424 112.001 107.512 112.065 107.605C112.457 108.162 112.775 108.775 113.01 109.434C113.042 109.518 113.071 109.609 113.103 109.699C113.123 109.759 113.144 109.819 113.161 109.883C114.045 112.777 113.738 117.474 106.859 123.079C106.757 123.161 106.659 123.245 106.56 123.326C115.077 125.276 121.24 129.497 121.24 121.259C121.24 111.035 111.752 97.1281 100.046 97.1281V97.1221Z" fill="#FFFDF9"/>
</svg>
