<svg width="167" height="50" viewBox="0 0 167 50" fill="none" xmlns="http://www.w3.org/2000/svg">
<circle cx="25" cy="25" r="25" fill="#E25E52"/>
<path d="M20.6664 21.3186C22.6521 20.6177 23.495 17.7999 22.549 15.0248C21.603 12.2497 19.2263 10.5682 17.2405 11.2691C15.2548 11.9699 14.4119 14.7878 15.3579 17.5629C16.3039 20.338 18.6806 22.0195 20.6664 21.3186Z" fill="#FFFDF9"/>
<path d="M14.1208 26.4959C15.5287 25.5609 15.6467 23.2075 14.3844 21.2393C13.122 19.2712 10.9573 18.4336 9.54932 19.3686C8.14137 20.3036 8.02336 22.657 9.28573 24.6252C10.5481 26.5933 12.7128 27.4309 14.1208 26.4959Z" fill="#FFFDF9"/>
<path d="M34.6422 17.5699C35.5883 14.7948 34.7454 11.977 32.7596 11.2761C30.7739 10.5753 28.3972 12.2568 27.4512 15.0319C26.5052 17.807 27.3481 20.6248 29.3338 21.3257C31.3196 22.0265 33.6962 20.345 34.6422 17.5699Z" fill="#FFFDF9"/>
<path d="M40.7144 24.6318C41.9768 22.6636 41.8588 20.3102 40.4509 19.3752C39.0429 18.4402 36.8782 19.2777 35.6158 21.2459C34.3534 23.2141 34.4714 25.5675 35.8794 26.5025C37.2873 27.4375 39.4521 26.5999 40.7144 24.6318Z" fill="#FFFDF9"/>
<path d="M25.0274 23.3496C18.1792 23.3496 12.6284 31.3256 12.6284 37.1894C12.6284 41.9901 16.351 39.4137 21.4609 38.3214C21.3794 38.2593 21.2963 38.1971 21.2132 38.1367C14.8874 33.5482 17.8299 29.6034 17.8299 29.6034H17.8349C18.5896 28.3661 19.9362 27.5412 21.4727 27.5481C22.9753 27.5533 24.2897 28.3506 25.0461 29.5482C25.8109 28.3575 27.1321 27.5706 28.633 27.5757C29.8201 27.5792 30.8936 28.0796 31.6636 28.8803C31.6636 28.8803 31.7586 28.9718 31.8976 29.1444C31.9163 29.1668 31.9333 29.1909 31.9519 29.2134C31.9858 29.2582 32.0214 29.3083 32.0588 29.3618C32.2877 29.681 32.4743 30.0331 32.6116 30.411C32.6303 30.4593 32.6472 30.5111 32.6659 30.5628C32.6778 30.5974 32.6896 30.6319 32.6998 30.6681C33.2171 32.3282 33.0373 35.0219 29.0129 38.2368C28.9535 38.2834 28.8958 38.3317 28.8382 38.3783C33.8208 39.4966 37.4264 41.9177 37.4264 37.1928C37.4264 31.329 31.8756 23.3531 25.0274 23.3531V23.3496Z" fill="#FFFDF9"/>
<path d="M67.61 29.57V25.85H72.02C73.32 25.85 74.29 25.58 74.93 25.04C75.57 24.5 75.89 23.59 75.89 22.31C75.89 21.19 75.59 20.34 74.99 19.76C74.41 19.18 73.48 18.89 72.2 18.89H67.61V15.2H72.35C73.63 15.2 74.78 15.35 75.8 15.65C76.84 15.95 77.73 16.4 78.47 17C79.21 17.58 79.77 18.33 80.15 19.25C80.55 20.15 80.75 21.21 80.75 22.43C80.75 23.99 80.39 25.3 79.67 26.36C78.97 27.42 77.92 28.22 76.52 28.76C75.14 29.3 73.41 29.57 71.33 29.57H67.61ZM64.07 35V15.2H68.9V35H64.07ZM90.931 35.42C89.611 35.42 88.431 35.25 87.391 34.91C86.351 34.55 85.461 34.03 84.721 33.35C84.001 32.67 83.451 31.83 83.071 30.83C82.691 29.83 82.501 28.68 82.501 27.38C82.501 26.12 82.681 24.96 83.041 23.9C83.421 22.84 83.951 21.93 84.631 21.17C85.331 20.39 86.181 19.79 87.181 19.37C88.201 18.95 89.341 18.74 90.601 18.74C91.881 18.74 93.001 18.95 93.961 19.37C94.941 19.77 95.741 20.37 96.361 21.17C97.001 21.97 97.471 22.95 97.771 24.11C98.071 25.25 98.171 26.56 98.071 28.04L85.681 28.13V25.61L95.311 25.52L93.601 26.69C93.741 25.69 93.681 24.88 93.421 24.26C93.161 23.62 92.781 23.16 92.281 22.88C91.781 22.58 91.241 22.43 90.661 22.43C89.961 22.43 89.341 22.62 88.801 23C88.281 23.38 87.871 23.93 87.571 24.65C87.271 25.37 87.121 26.25 87.121 27.29C87.121 28.93 87.471 30.12 88.171 30.86C88.891 31.6 89.801 31.97 90.901 31.97C91.441 31.97 91.891 31.9 92.251 31.76C92.611 31.6 92.901 31.41 93.121 31.19C93.361 30.95 93.541 30.69 93.661 30.41C93.801 30.13 93.911 29.86 93.991 29.6L98.191 30.5C98.031 31.24 97.771 31.91 97.411 32.51C97.071 33.11 96.601 33.63 96.001 34.07C95.421 34.51 94.711 34.84 93.871 35.06C93.051 35.3 92.071 35.42 90.931 35.42ZM107.188 35.39C105.328 35.39 103.958 34.9 103.078 33.92C102.198 32.92 101.758 31.33 101.758 29.15V22.94H99.5084L99.5984 19.19H101.218C101.858 19.17 102.338 19.07 102.658 18.89C102.998 18.71 103.208 18.37 103.288 17.87L103.678 15.65H106.408V19.16H110.218V23.09H106.408V28.94C106.408 29.62 106.568 30.12 106.888 30.44C107.228 30.76 107.738 30.92 108.418 30.92C108.798 30.92 109.158 30.88 109.498 30.8C109.838 30.72 110.118 30.61 110.338 30.47V34.94C109.698 35.14 109.108 35.26 108.568 35.3C108.048 35.36 107.588 35.39 107.188 35.39ZM120.427 35.42C118.827 35.42 117.407 35.11 116.167 34.49C114.947 33.87 113.987 32.94 113.287 31.7C112.587 30.46 112.237 28.91 112.237 27.05C112.237 25.19 112.587 23.65 113.287 22.43C113.987 21.19 114.957 20.27 116.197 19.67C117.437 19.05 118.857 18.74 120.457 18.74C122.057 18.74 123.477 19.05 124.717 19.67C125.957 20.29 126.927 21.22 127.627 22.46C128.327 23.68 128.677 25.22 128.677 27.08C128.677 28.98 128.317 30.55 127.597 31.79C126.877 33.03 125.887 33.95 124.627 34.55C123.387 35.13 121.987 35.42 120.427 35.42ZM120.577 31.91C121.297 31.91 121.897 31.75 122.377 31.43C122.857 31.09 123.217 30.58 123.457 29.9C123.697 29.22 123.817 28.38 123.817 27.38C123.817 26.32 123.687 25.43 123.427 24.71C123.167 23.97 122.777 23.41 122.257 23.03C121.757 22.63 121.107 22.43 120.307 22.43C119.627 22.43 119.037 22.6 118.537 22.94C118.057 23.26 117.697 23.76 117.457 24.44C117.217 25.12 117.097 25.97 117.097 26.99C117.097 28.63 117.397 29.86 117.997 30.68C118.617 31.5 119.477 31.91 120.577 31.91ZM131.506 35V25.46V19.16H135.406L135.466 23.81H136.066C136.326 22.69 136.696 21.75 137.176 20.99C137.656 20.23 138.266 19.67 139.006 19.31C139.746 18.93 140.616 18.74 141.616 18.74C143.476 18.74 144.886 19.39 145.846 20.69C146.826 21.99 147.316 24.06 147.316 26.9V35H142.456V27.44C142.456 25.8 142.216 24.61 141.736 23.87C141.276 23.11 140.586 22.73 139.666 22.73C138.906 22.73 138.276 22.96 137.776 23.42C137.296 23.88 136.936 24.49 136.696 25.25C136.456 26.01 136.336 26.86 136.336 27.8V35H131.506ZM154.504 35.42C153.624 35.42 152.844 35.25 152.164 34.91C151.484 34.55 150.954 34.04 150.574 33.38C150.194 32.7 150.004 31.88 150.004 30.92C150.004 30.02 150.174 29.28 150.514 28.7C150.874 28.1 151.384 27.63 152.044 27.29C152.724 26.93 153.534 26.64 154.474 26.42C155.414 26.18 156.484 25.97 157.684 25.79C158.264 25.69 158.744 25.6 159.124 25.52C159.524 25.42 159.824 25.27 160.024 25.07C160.224 24.87 160.324 24.58 160.324 24.2C160.324 23.7 160.144 23.27 159.784 22.91C159.424 22.55 158.844 22.37 158.044 22.37C157.484 22.37 156.974 22.47 156.514 22.67C156.074 22.87 155.694 23.16 155.374 23.54C155.054 23.92 154.814 24.38 154.654 24.92L150.394 23.66C150.654 22.82 151.014 22.09 151.474 21.47C151.954 20.85 152.524 20.34 153.184 19.94C153.844 19.52 154.594 19.22 155.434 19.04C156.294 18.84 157.204 18.74 158.164 18.74C159.764 18.74 161.064 19 162.064 19.52C163.084 20.02 163.834 20.81 164.314 21.89C164.814 22.95 165.064 24.32 165.064 26V28.43C165.064 29.15 165.074 29.88 165.094 30.62C165.134 31.34 165.174 32.07 165.214 32.81C165.274 33.53 165.344 34.26 165.424 35H161.164C161.084 34.54 161.004 33.99 160.924 33.35C160.844 32.69 160.784 32.02 160.744 31.34H160.174C159.894 32.1 159.484 32.8 158.944 33.44C158.424 34.06 157.784 34.55 157.024 34.91C156.284 35.25 155.444 35.42 154.504 35.42ZM156.694 32C157.054 32 157.414 31.94 157.774 31.82C158.154 31.68 158.514 31.5 158.854 31.28C159.194 31.04 159.504 30.75 159.784 30.41C160.064 30.07 160.274 29.7 160.414 29.3L160.354 26.93L161.014 27.08C160.634 27.32 160.214 27.51 159.754 27.65C159.294 27.79 158.824 27.9 158.344 27.98C157.884 28.06 157.424 28.15 156.964 28.25C156.524 28.33 156.124 28.44 155.764 28.58C155.424 28.72 155.154 28.91 154.954 29.15C154.754 29.39 154.654 29.72 154.654 30.14C154.654 30.7 154.844 31.15 155.224 31.49C155.604 31.83 156.094 32 156.694 32Z" fill="#FFFDF9"/>
</svg>
