<svg width="50" height="50" viewBox="0 0 50 50" fill="none" xmlns="http://www.w3.org/2000/svg">
<path d="M40.625 45.6055H38.4277V43.8965C38.4272 43.3139 38.1956 42.7553 37.7836 42.3434C37.3716 41.9314 36.8131 41.6997 36.2305 41.6992H30.5332L29.7363 35.0059C33.498 33.968 36.8153 31.7247 39.1791 28.6199C41.5429 25.5152 42.8228 21.7206 42.8223 17.8184C42.8223 7.99512 34.8271 0 25 0C15.1729 0 7.17773 7.99512 7.17773 17.8223C7.17721 21.7245 8.45706 25.5191 10.8209 28.6238C13.1847 31.7286 16.502 33.972 20.2637 35.0098L19.4668 41.6992H13.7695C13.1869 41.6997 12.6284 41.9314 12.2164 42.3434C11.8044 42.7553 11.5728 43.3139 11.5723 43.8965V45.6055H9.375C8.79225 45.6055 8.23337 45.837 7.8213 46.249C7.40923 46.6611 7.17773 47.22 7.17773 47.8027C7.17773 48.3855 7.40923 48.9444 7.8213 49.3564C8.23337 49.7685 8.79225 50 9.375 50H40.625C41.2078 50 41.7666 49.7685 42.1787 49.3564C42.5908 48.9444 42.8223 48.3855 42.8223 47.8027C42.8223 47.22 42.5908 46.6611 42.1787 46.249C41.7666 45.837 41.2078 45.6055 40.625 45.6055ZM20.791 30.5771C19.0317 29.9987 17.4118 29.0609 16.0342 27.8232L21.582 22.2744C21.6406 22.3193 21.7012 22.3633 21.7617 22.4062L20.791 30.5771ZM35 26.7861L29.4521 21.2383C30.0541 20.4579 30.4385 19.5319 30.5664 18.5547H38.4082C38.2425 21.6065 37.0401 24.5104 35 26.7861ZM30.5664 17.0898C30.4388 16.1127 30.0547 15.1868 29.4531 14.4062L34.9951 8.86426C37.0411 11.1349 38.2474 14.0379 38.4131 17.0898H30.5664ZM28.418 13.3701C27.6375 12.7685 26.7115 12.3844 25.7344 12.2568V4.41504C28.7857 4.5794 31.6887 5.78394 33.96 7.82813L28.418 13.3701ZM24.2695 12.2568C23.291 12.3837 22.3637 12.7679 21.582 13.3701L16.042 7.82813C18.3133 5.78394 21.2163 4.5794 24.2676 4.41504L24.2695 12.2568ZM15.0059 8.86426L20.5479 14.4062C19.9459 15.1867 19.5615 16.1126 19.4336 17.0898H11.5918C11.7564 14.0384 12.9613 11.1354 15.0059 8.86426ZM19.4336 18.5547C19.5612 19.5318 19.9453 20.4578 20.5469 21.2383L15 26.7861C12.9602 24.5103 11.7582 21.6064 11.5928 18.5547H19.4336ZM20.8486 17.8223C20.8486 17.0014 21.092 16.199 21.548 15.5165C22.004 14.834 22.6522 14.3021 23.4105 13.9879C24.1688 13.6737 25.0033 13.5915 25.8084 13.7516C26.6134 13.9116 27.353 14.3068 27.9334 14.8872C28.5139 15.4675 28.9093 16.2069 29.0695 17.012C29.2298 17.817 29.1477 18.6515 28.8338 19.4099C28.5198 20.1683 27.988 20.8165 27.3056 21.2727C26.6232 21.7289 25.8208 21.9725 25 21.9727C23.8996 21.9714 22.8447 21.5337 22.0667 20.7556C21.2886 19.9775 20.8509 18.9226 20.8496 17.8223H20.8486ZM28.418 22.2744L33.9678 27.8232C32.5901 29.0609 30.9703 29.9987 29.2109 30.5771L28.2344 22.4062C28.2969 22.3633 28.3574 22.3193 28.418 22.2744ZM8.64258 17.8223C8.64258 8.80273 15.9805 1.46484 25 1.46484C34.0195 1.46484 41.3574 8.80273 41.3574 17.8223C41.3702 21.3684 40.225 24.8217 38.0959 27.6576C35.9669 30.4934 32.9703 32.5568 29.5615 33.5342L29.3857 32.0576C32.4288 31.1197 35.0911 29.2312 36.9821 26.6692C38.873 24.1072 39.8931 21.0066 39.8926 17.8223C39.8926 9.61035 33.2119 2.92969 25 2.92969C16.7881 2.92969 10.1074 9.61035 10.1074 17.8223C10.1069 21.0066 11.127 24.1072 13.0179 26.6692C14.9089 29.2312 17.5712 31.1197 20.6143 32.0576L20.4385 33.5342C17.0297 32.5568 14.0331 30.4934 11.9041 27.6576C9.77501 24.8217 8.62985 21.3684 8.64258 17.8223ZM23.1533 23.124C24.349 23.542 25.651 23.542 26.8467 23.124L29.0576 41.6992H25.7324V34.6191C25.7324 34.4249 25.6553 34.2386 25.5179 34.1012C25.3805 33.9639 25.1943 33.8867 25 33.8867C24.8057 33.8867 24.6195 33.9639 24.4821 34.1012C24.3447 34.2386 24.2676 34.4249 24.2676 34.6191V41.6992H20.9424L23.1533 23.124ZM13.0371 43.8965C13.0371 43.7022 13.1143 43.5159 13.2516 43.3786C13.389 43.2412 13.5753 43.1641 13.7695 43.1641H36.2305C36.4247 43.1641 36.611 43.2412 36.7484 43.3786C36.8857 43.5159 36.9629 43.7022 36.9629 43.8965V45.6055H13.0371V43.8965ZM40.625 48.5352H9.375C9.18075 48.5352 8.99446 48.458 8.8571 48.3206C8.71974 48.1833 8.64258 47.997 8.64258 47.8027C8.64258 47.6085 8.71974 47.4222 8.8571 47.2848C8.99446 47.1475 9.18075 47.0703 9.375 47.0703H40.625C40.8193 47.0703 41.0055 47.1475 41.1429 47.2848C41.2803 47.4222 41.3574 47.6085 41.3574 47.8027C41.3574 47.997 41.2803 48.1833 41.1429 48.3206C41.0055 48.458 40.8193 48.5352 40.625 48.5352Z" fill="#3A1916"/>
<path d="M27.6855 17.8223C27.6855 17.2911 27.528 16.7719 27.233 16.3303C26.9379 15.8886 26.5184 15.5444 26.0277 15.3411C25.537 15.1379 24.997 15.0847 24.4761 15.1883C23.9551 15.2919 23.4766 15.5477 23.101 15.9233C22.7255 16.2989 22.4697 16.7774 22.3661 17.2983C22.2624 17.8193 22.3156 18.3593 22.5189 18.85C22.7221 19.3407 23.0664 19.7601 23.508 20.0552C23.9496 20.3503 24.4688 20.5078 25 20.5078C25.7119 20.5068 26.3944 20.2235 26.8978 19.7201C27.4012 19.2167 27.6845 18.5342 27.6855 17.8223ZM23.7793 17.8223C23.7793 17.5808 23.8509 17.3448 23.985 17.1441C24.1192 16.9433 24.3098 16.7869 24.5329 16.6945C24.7559 16.6021 25.0014 16.5779 25.2381 16.625C25.4749 16.6721 25.6925 16.7884 25.8632 16.9591C26.0339 17.1298 26.1501 17.3473 26.1972 17.5841C26.2444 17.8209 26.2202 18.0664 26.1278 18.2894C26.0354 18.5125 25.8789 18.7031 25.6782 18.8372C25.4774 18.9714 25.2414 19.043 25 19.043C24.6764 19.0425 24.3662 18.9137 24.1374 18.6849C23.9086 18.456 23.7798 18.1459 23.7793 17.8223Z" fill="#E25E52"/>
<path d="M25 32.4219C25.1943 32.4219 25.3805 32.3447 25.5179 32.2074C25.6553 32.07 25.7324 31.8837 25.7324 31.6895V30.7129C25.7324 30.5186 25.6553 30.3323 25.5179 30.195C25.3805 30.0576 25.1943 29.9805 25 29.9805C24.8057 29.9805 24.6195 30.0576 24.4821 30.195C24.3447 30.3323 24.2676 30.5186 24.2676 30.7129V31.6895C24.2676 31.8837 24.3447 32.07 24.4821 32.2074C24.6195 32.3447 24.8057 32.4219 25 32.4219Z" fill="#E25E52"/>
</svg>
