<svg width="50" height="50" viewBox="0 0 50 50" fill="none" xmlns="http://www.w3.org/2000/svg">
<g clip-path="url(#clip0_334_14346)">
<path d="M25.1826 29.2559C25.0702 28.6369 24.7441 28.0771 24.2611 27.6741C23.7782 27.2711 23.169 27.0505 22.54 27.0508H16.6015V15.1367H16.8456C17.0399 15.1367 17.2262 15.0596 17.3635 14.9222C17.5009 14.7848 17.5781 14.5985 17.5781 14.4043V3.17383C17.5781 2.33208 17.2437 1.5248 16.6485 0.929593C16.0533 0.334384 15.246 0 14.4042 0C13.5625 0 12.7552 0.334384 12.16 0.929593C11.5648 1.5248 11.2304 2.33208 11.2304 3.17383V14.4043C11.2304 14.5985 11.3076 14.7848 11.4449 14.9222C11.5823 15.0596 11.7686 15.1367 11.9628 15.1367H12.207V27.0508H6.2685C5.64042 27.0517 5.03257 27.2729 4.55077 27.6758C4.06898 28.0787 3.74377 28.6379 3.63178 29.2559L0.0116589 49.1367C-0.00768568 49.2423 -0.00356135 49.3508 0.0237393 49.4546C0.05104 49.5584 0.100848 49.6549 0.16963 49.7373C0.238412 49.8197 0.324481 49.8859 0.421733 49.9313C0.518985 49.9767 0.625036 50.0002 0.732362 50H28.0761C28.1834 50.0002 28.2895 49.9767 28.3867 49.9313C28.484 49.8859 28.5701 49.8197 28.6388 49.7373C28.7076 49.6549 28.7574 49.5584 28.7847 49.4546C28.812 49.3508 28.8162 49.2423 28.7968 49.1367L25.1826 29.2559ZM12.6953 3.17383C12.6953 2.72058 12.8753 2.28589 13.1958 1.96539C13.5163 1.6449 13.951 1.46484 14.4042 1.46484C14.8575 1.46484 15.2922 1.6449 15.6127 1.96539C15.9332 2.28589 16.1132 2.72058 16.1132 3.17383V13.6719H12.6953V3.17383ZM13.6718 15.1367H15.1367V27.0508H13.6718V15.1367ZM6.3017 44.1406H22.5068L23.2167 48.5352H5.59174L6.3017 44.1406ZM6.54291 42.6758L8.20306 32.4219H20.6132L22.2734 42.6758H6.54291ZM24.707 48.5352L21.9599 31.5723C21.9319 31.4005 21.8437 31.2444 21.7111 31.1317C21.5786 31.019 21.4103 30.9571 21.2363 30.957H7.57221C7.39821 30.9571 7.2299 31.019 7.09734 31.1317C6.96478 31.2444 6.87661 31.4005 6.84857 31.5723L4.10736 48.5352H1.61029L5.06732 29.5176C5.11855 29.2364 5.26684 28.982 5.48634 28.7989C5.70585 28.6158 5.98265 28.5156 6.2685 28.5156H22.54C22.8258 28.5156 23.1026 28.6158 23.3221 28.7989C23.5416 28.982 23.6899 29.2364 23.7412 29.5176L27.1982 48.5352H24.707Z" fill="#3A1916"/>
<path d="M14.4043 2.92969C14.21 2.92969 14.0238 3.00685 13.8864 3.14421C13.749 3.28156 13.6719 3.46786 13.6719 3.66211V4.15039C13.6719 4.34464 13.749 4.53094 13.8864 4.66829C14.0238 4.80565 14.21 4.88281 14.4043 4.88281C14.5985 4.88281 14.7848 4.80565 14.9222 4.66829C15.0596 4.53094 15.1367 4.34464 15.1367 4.15039V3.66211C15.1367 3.46786 15.0596 3.28156 14.9222 3.14421C14.7848 3.00685 14.5985 2.92969 14.4043 2.92969Z" fill="#E25E52"/>
<path d="M47.3145 39.7461H42.6758V33.3984H42.9199C43.1142 33.3984 43.3005 33.3213 43.4378 33.1839C43.5752 33.0466 43.6523 32.8603 43.6523 32.666V25.3418C43.6523 24.5 43.318 23.6928 42.7227 23.0976C42.1275 22.5024 41.3203 22.168 40.4785 22.168C39.6368 22.168 38.8295 22.5024 38.2343 23.0976C37.6391 23.6928 37.3047 24.5 37.3047 25.3418V32.666C37.3047 32.8603 37.3819 33.0466 37.5192 33.1839C37.6566 33.3213 37.8429 33.3984 38.0371 33.3984H38.2812V39.7461H33.6426C32.9306 39.7471 32.2482 40.0304 31.7448 40.5338C31.2413 41.0372 30.9581 41.7197 30.957 42.4316V45.3613C30.957 45.5556 31.0342 45.7419 31.1716 45.8792C31.3089 46.0166 31.4952 46.0938 31.6895 46.0938H32.9102V49.2676C32.9102 49.4618 32.9873 49.6481 33.1247 49.7855C33.262 49.9228 33.4483 50 33.6426 50C33.8368 50 34.0231 49.9228 34.1605 49.7855C34.2978 49.6481 34.375 49.4618 34.375 49.2676V46.0938H35.6445V49.2676C35.6445 49.4618 35.7217 49.6481 35.8591 49.7855C35.9964 49.9228 36.1827 50 36.377 50C36.5712 50 36.7575 49.9228 36.8949 49.7855C37.0322 49.6481 37.1094 49.4618 37.1094 49.2676V46.0938H38.3789V49.2676C38.3789 49.4618 38.4561 49.6481 38.5934 49.7855C38.7308 49.9228 38.9171 50 39.1113 50C39.3056 50 39.4919 49.9228 39.6292 49.7855C39.7666 49.6481 39.8438 49.4618 39.8438 49.2676V46.0938H41.1133V49.2676C41.1133 49.4618 41.1904 49.6481 41.3278 49.7855C41.4652 49.9228 41.6515 50 41.8457 50C42.04 50 42.2262 49.9228 42.3636 49.7855C42.501 49.6481 42.5781 49.4618 42.5781 49.2676V46.0938H43.8477V49.2676C43.8477 49.4618 43.9248 49.6481 44.0622 49.7855C44.1995 49.9228 44.3858 50 44.5801 50C44.7743 50 44.9606 49.9228 45.098 49.7855C45.2353 49.6481 45.3125 49.4618 45.3125 49.2676V46.0938H46.582V49.2676C46.582 49.4618 46.6592 49.6481 46.7966 49.7855C46.9339 49.9228 47.1202 50 47.3145 50C47.5087 50 47.695 49.9228 47.8324 49.7855C47.9697 49.6481 48.0469 49.4618 48.0469 49.2676V46.0938H49.2676C49.4618 46.0938 49.6481 46.0166 49.7855 45.8792C49.9228 45.7419 50 45.5556 50 45.3613V42.4316C49.999 41.7197 49.7157 41.0372 49.2123 40.5338C48.7089 40.0304 48.0264 39.7471 47.3145 39.7461ZM38.7695 25.3418C38.7695 24.8885 38.9496 24.4539 39.2701 24.1334C39.5906 23.8129 40.0253 23.6328 40.4785 23.6328C40.9318 23.6328 41.3665 23.8129 41.6869 24.1334C42.0074 24.4539 42.1875 24.8885 42.1875 25.3418V31.9336H38.7695V25.3418ZM39.7461 33.3984H41.2109V39.7461H39.7461V33.3984ZM48.5352 44.6289H32.4219V42.4316C32.4224 42.108 32.5512 41.7979 32.78 41.569C33.0088 41.3402 33.319 41.2115 33.6426 41.2109H47.3145C47.638 41.2115 47.9482 41.3402 48.1771 41.569C48.4059 41.7979 48.5346 42.108 48.5352 42.4316V44.6289Z" fill="#3A1916"/>
</g>
<defs>
<clipPath id="clip0_334_14346">
<rect width="50" height="50" fill="white"/>
</clipPath>
</defs>
</svg>
