<svg width="31" height="31" viewBox="0 0 31 31" fill="none" xmlns="http://www.w3.org/2000/svg">
<path d="M10.1465 23.3602C10.1465 23.3602 8.35186 24.3517 3.32568 23.167C3.32568 23.167 8.4953 17.4927 12.3681 20.4804C16.2409 23.4682 12.1635 29.9852 12.1635 29.9852C12.1635 29.9852 9.89108 25.5392 10.1465 23.3602Z" fill="#E25E52"/>
<path d="M3.32574 23.1667C8.35191 24.3514 10.1465 23.3599 10.1465 23.3599C10.1329 23.4758 10.1265 23.5981 10.1265 23.7259C10.1265 25.9994 12.1636 29.9849 12.1636 29.9849C12.1636 29.9849 14.0379 26.9892 14.0379 24.1286C14.0379 22.7702 13.615 21.442 12.3681 20.4801C8.49535 17.4924 3.32574 23.1667 3.32574 23.1667ZM2.71912 23.3545L3.08773 22.9499C3.14185 22.8905 4.43362 21.4831 6.23138 20.4255C7.30245 19.7954 8.33036 19.4233 9.28664 19.3194C10.5104 19.1864 11.6133 19.4912 12.5648 20.2252C13.7558 21.1441 14.3598 22.4574 14.3598 24.1286C14.3598 25.3583 14.0359 26.7467 13.3972 28.2551C12.9241 29.3723 12.4561 30.1243 12.4365 30.1557L12.1353 30.637L11.8769 30.1314C11.7935 29.9682 9.86044 26.1605 9.8057 23.8258C8.95617 24.0644 6.95056 24.3519 3.25187 23.48L2.71912 23.3545Z" fill="#E25E52"/>
<path d="M11.6432 22.139L23.3643 6.94593C23.4912 6.78142 23.4607 6.54511 23.2963 6.4182C23.1318 6.2913 22.8955 6.32175 22.7685 6.48626L11.0474 21.6794C10.9205 21.8439 10.951 22.0802 11.1155 22.2071C11.28 22.334 11.5163 22.3035 11.6432 22.139Z" fill="#E25E52"/>
<path d="M10.969 21.9087C10.969 22.0214 11.0194 22.1328 11.1154 22.2069C11.2799 22.3338 11.5162 22.3034 11.6432 22.1388L23.3643 6.94574C23.4171 6.87732 23.4426 6.79643 23.4426 6.71621C23.4426 6.60353 23.3923 6.49212 23.2962 6.41801C23.1318 6.29111 22.8954 6.32156 22.7685 6.48607L11.0474 21.6792C10.9946 21.7476 10.969 21.8285 10.969 21.9087ZM10.6471 21.9087C10.6471 21.7532 10.6974 21.6058 10.7925 21.4826L22.5136 6.28941C22.6275 6.14174 22.7921 6.04728 22.9772 6.02343C23.1621 5.99957 23.3453 6.04916 23.493 6.16311C23.6656 6.29631 23.7646 6.49793 23.7646 6.71621C23.7646 6.87175 23.7144 7.01912 23.6193 7.1424L11.8981 22.3355C11.7842 22.4832 11.6196 22.5776 11.4346 22.6015C11.2497 22.6253 11.0664 22.5757 10.9188 22.4618C10.7461 22.3286 10.6471 22.127 10.6471 21.9087Z" fill="#E25E52"/>
<path d="M24.9017 14.7057C24.9915 14.5893 25.0084 14.426 24.9313 14.29C21.5322 8.29898 15.4614 6.85148 15.2045 6.79269C15.0022 6.74655 14.8008 6.87316 14.754 7.07538C14.7076 7.27785 14.8341 7.47965 15.0366 7.5264C15.0962 7.54008 21.0461 8.96723 24.2767 14.6614C24.3792 14.8421 24.6089 14.9055 24.7896 14.8029C24.8345 14.7776 24.8721 14.7441 24.9017 14.7057Z" fill="#E25E52"/>
<path d="M14.7445 7.15936C14.7445 7.33083 14.8624 7.48583 15.0367 7.52603C15.0963 7.53971 21.0461 8.96687 24.2767 14.661C24.3792 14.8417 24.609 14.9052 24.7897 14.8026C24.8347 14.7771 24.8721 14.7438 24.9018 14.7053C24.9529 14.6391 24.9803 14.5577 24.9803 14.4748C24.9803 14.412 24.9646 14.3483 24.9314 14.2897C21.5323 8.29861 15.4615 6.85112 15.2046 6.79232C15.0023 6.74613 14.8009 6.87279 14.7541 7.07502C14.7476 7.10329 14.7445 7.13157 14.7445 7.15936ZM14.4225 7.15936C14.4225 7.10699 14.4284 7.05443 14.4402 7.00315C14.5269 6.62812 14.9018 6.39308 15.2761 6.47845C15.5387 6.53857 21.7444 8.02015 25.2113 14.1308C25.2708 14.2357 25.3022 14.3546 25.3022 14.4748C25.3022 14.6286 25.2505 14.7803 25.1567 14.902C25.0994 14.9761 25.0293 15.0369 24.948 15.0828C24.7864 15.1746 24.5981 15.198 24.4181 15.1483C24.2383 15.0987 24.0886 14.982 23.9966 14.8197C22.3669 11.9473 20.0146 10.2078 18.3282 9.25428C16.4578 8.19677 14.9787 7.84305 14.964 7.8396C14.6453 7.76616 14.4225 7.48637 14.4225 7.15936Z" fill="#E25E52"/>
<path d="M22.1338 17.1632C22.2133 17.0602 22.2371 16.9186 22.1841 16.7897C19.583 10.4805 13.7445 10.2634 13.6857 10.2618C13.4781 10.2567 13.3049 10.4205 13.3003 10.6286C13.2951 10.8362 13.4591 11.0087 13.6665 11.0141C13.8864 11.0203 19.0793 11.2329 21.4883 17.0764C21.5675 17.2686 21.7874 17.3601 21.9797 17.2809C22.0427 17.2549 22.0949 17.2137 22.1338 17.1632Z" fill="#E25E52"/>
<path d="M13.3001 10.6378C13.3001 10.8412 13.4622 11.0085 13.6664 11.0138C13.8863 11.02 19.0792 11.2327 21.4883 17.0762C21.5675 17.2683 21.7874 17.3598 21.9796 17.2806C22.0427 17.2546 22.0949 17.2133 22.1339 17.1629C22.1845 17.0972 22.2125 17.016 22.2125 16.9324C22.2125 16.8847 22.2034 16.8362 22.1841 16.7893C19.583 10.4802 13.7445 10.263 13.6856 10.2615C13.478 10.2563 13.3049 10.4202 13.3003 10.6283C13.3001 10.6315 13.3001 10.6347 13.3001 10.6378ZM12.9781 10.6378C12.9781 10.632 12.9782 10.6262 12.9784 10.6203C12.9825 10.4348 13.0591 10.2612 13.1941 10.1325C13.3293 10.0035 13.5067 9.93501 13.6937 9.93968C13.7095 9.9401 15.251 9.99011 17.1186 10.8688C18.191 11.3733 19.1584 12.0498 19.994 12.8795C21.0348 13.9129 21.8718 15.1871 22.4818 16.6667C22.5168 16.7517 22.5345 16.8411 22.5345 16.9325C22.5345 17.0861 22.4827 17.2378 22.3888 17.3596C22.3144 17.4561 22.2153 17.5317 22.1024 17.5783C21.7462 17.7249 21.3373 17.5547 21.1906 17.1989C18.8602 11.5461 13.8688 11.3416 13.6574 11.3357C13.2768 11.3257 12.9781 11.0192 12.9781 10.6378Z" fill="#E25E52"/>
<path d="M19.2597 19.145C19.3309 19.0527 19.3583 18.9289 19.3228 18.8085C17.7498 13.4711 12.4563 13.4818 12.4029 13.4824C12.1952 13.4855 12.0292 13.6565 12.032 13.8639C12.0348 14.0715 12.2051 14.2374 12.4127 14.235C12.607 14.2329 17.192 14.2402 18.6012 19.0213C18.6599 19.2206 18.869 19.3346 19.0684 19.2759C19.1473 19.2525 19.2129 19.2056 19.2597 19.145Z" fill="#E25E52"/>
<path d="M12.0318 13.8585C12.0318 13.8602 12.0318 13.8619 12.0319 13.8635C12.0347 14.0712 12.2051 14.2371 12.4127 14.2346C12.607 14.2325 17.192 14.2399 18.6012 19.021C18.6599 19.2203 18.869 19.3343 19.0684 19.2755C19.1474 19.2522 19.2129 19.2053 19.2597 19.1447C19.3099 19.0797 19.3383 18.999 19.3383 18.9149C19.3383 18.8797 19.3332 18.8438 19.3228 18.8082C17.7498 13.4707 12.4563 13.4816 12.4029 13.4822C12.1968 13.4851 12.0318 13.6534 12.0318 13.8585ZM11.7099 13.8585C11.71 13.479 12.0187 13.1657 12.3982 13.1602C12.413 13.16 13.8204 13.1513 15.4214 13.8481C16.3459 14.2504 17.1522 14.8066 17.8179 15.5013C18.6477 16.3673 19.2579 17.4493 19.6316 18.7171C19.6506 18.7814 19.6602 18.848 19.6602 18.9148C19.6602 19.0681 19.6085 19.2195 19.5146 19.3413C19.4244 19.4582 19.3016 19.5422 19.1596 19.5842C18.7901 19.6931 18.4012 19.4811 18.2923 19.1119C16.9505 14.5596 12.6007 14.5545 12.4162 14.5565C12.0321 14.5609 11.7153 14.252 11.71 13.8679L11.7099 13.8585Z" fill="#E25E52"/>
<path d="M16.3247 20.9978C16.3827 20.9226 16.4124 20.8255 16.4005 20.7239C15.8797 16.3131 11.2703 16.7117 11.2238 16.7162C11.0168 16.7362 10.8657 16.9205 10.8859 17.1273C10.9061 17.3341 11.0899 17.4853 11.2966 17.4652C11.4613 17.4498 15.2196 17.1407 15.6531 20.8119C15.6776 21.0185 15.8646 21.1658 16.0709 21.1415C16.1756 21.1293 16.2651 21.075 16.3247 20.9978Z" fill="#E25E52"/>
<path d="M10.8841 17.0896C10.8841 17.1019 10.8847 17.1143 10.8859 17.1267C10.9061 17.3335 11.0899 17.4847 11.2966 17.4646C11.4613 17.4492 15.2195 17.1402 15.6531 20.8114C15.6776 21.0179 15.8645 21.1653 16.0709 21.1409C16.1756 21.1287 16.2651 21.0744 16.3247 20.9971C16.3742 20.9329 16.4031 20.8529 16.4031 20.7677C16.4031 20.753 16.4022 20.7382 16.4005 20.7232C15.8797 16.3125 11.2702 16.7111 11.2237 16.7155C11.0293 16.7345 10.8841 16.8983 10.8841 17.0896ZM10.5621 17.0896C10.5621 16.7286 10.8332 16.43 11.1926 16.3952C11.2049 16.394 12.4421 16.281 13.7456 16.7617C14.9434 17.2034 16.4317 18.2427 16.7201 20.6855C16.7233 20.7129 16.725 20.7405 16.725 20.7677C16.725 20.921 16.6733 21.0723 16.5795 21.1939C16.4637 21.344 16.2963 21.4388 16.1081 21.4608C15.7264 21.5059 15.3786 21.2316 15.3333 20.8493C15.1679 19.4494 14.4707 18.5099 13.2611 18.0571C12.3044 17.699 11.366 17.7815 11.3265 17.7852C10.9448 17.8223 10.6029 17.541 10.5654 17.1581C10.5632 17.1354 10.5621 17.1123 10.5621 17.0896Z" fill="#E25E52"/>
<path d="M19.5726 5.37261L19.2817 5.04445C18.7434 4.4368 18.9145 3.48579 19.6309 3.10386L21.6939 2.0039C22.6937 1.47085 23.7756 1.10866 24.8948 0.932225L26.3531 0.702389C27.1671 0.574151 27.907 1.19421 27.9231 2.01813L27.957 3.77066C27.975 4.69921 27.8686 5.626 27.6401 6.52627L27.045 8.87319C26.8497 9.64341 25.997 10.0409 25.2815 9.69499C23.1113 8.64614 21.1708 7.17691 19.5726 5.37261ZM22.1051 5.15561C22.3236 4.87225 22.2712 4.46544 21.9878 4.24686C21.7045 4.02829 21.2976 4.08066 21.079 4.36402C20.8603 4.64738 20.9128 5.05438 21.1962 5.27295C21.4796 5.49153 21.8865 5.43897 22.1051 5.15561Z" fill="#E25E52"/>
<path d="M18.9658 4.21332C18.9658 4.50618 19.0677 4.8022 19.2817 5.04384L19.5726 5.372C21.1708 7.1763 23.1114 8.64553 25.2816 9.69439C25.997 10.0403 26.8497 9.6428 27.045 8.87258L27.6402 6.52566C27.8521 5.69042 27.959 4.83241 27.959 3.97137C27.959 3.90429 27.9583 3.8372 27.9571 3.77012L27.9231 2.01759C27.907 1.19366 27.1672 0.573604 26.3531 0.701842L24.8948 0.931678C23.7756 1.10811 22.6938 1.4703 21.694 2.00336L19.6309 3.10331C19.1994 3.33327 18.9658 3.76969 18.9658 4.21332ZM22.24 4.75969C22.24 4.89786 22.196 5.03712 22.1051 5.155C21.8865 5.43836 21.4796 5.49092 21.1963 5.27234C21.0308 5.14471 20.944 4.95278 20.9441 4.75879C20.9441 4.62056 20.9881 4.4813 21.0791 4.36341C21.2976 4.08005 21.7046 4.02768 21.9879 4.24626C22.1533 4.37389 22.24 4.5657 22.24 4.75969ZM18.6439 4.21332C18.6439 3.62813 18.964 3.09393 19.4794 2.81917L21.5425 1.71921C22.5764 1.16799 23.6874 0.796053 24.8446 0.613625L26.303 0.383789C26.7829 0.308166 27.2717 0.443791 27.6441 0.75585C28.0165 1.06791 28.2355 1.52552 28.245 2.01129L28.2789 3.76388C28.2803 3.83266 28.2809 3.90247 28.2809 3.97137C28.2809 4.85911 28.1703 5.74515 27.9522 6.60486L27.357 8.95172C27.2401 9.41296 26.9256 9.79284 26.4942 9.99385C26.0629 10.1949 25.5698 10.1914 25.1414 9.98422C22.9213 8.91127 20.9666 7.43132 19.3316 5.58549L19.0407 5.25739C18.7848 4.96834 18.6439 4.59761 18.6439 4.21332ZM21.9181 4.75969C21.9181 4.65761 21.8719 4.5634 21.7912 4.50116C21.6489 4.39133 21.4437 4.41773 21.334 4.56007C21.2895 4.61765 21.266 4.68637 21.266 4.75879C21.266 4.86093 21.3123 4.9552 21.3929 5.01738C21.4619 5.07054 21.5474 5.09373 21.6337 5.08259C21.7201 5.07145 21.797 5.02731 21.8502 4.95835C21.8946 4.90071 21.9181 4.83205 21.9181 4.75969Z" fill="#E25E52"/>
</svg>
