<svg width="50" height="50" viewBox="0 0 50 50" fill="none" xmlns="http://www.w3.org/2000/svg">
<g clip-path="url(#clip0_682_23177)">
<path d="M37.3669 13.71C37.4356 13.7905 37.5209 13.8552 37.617 13.8995C37.7131 13.9439 37.8177 13.9668 37.9235 13.9668C38.0145 13.9668 38.1046 13.9496 38.1891 13.916C39.2053 13.5211 40.2603 13.2347 41.3366 13.0615L42.2819 12.9092C43.4062 12.7281 44.421 12.1303 45.1244 11.2348C45.8278 10.3392 46.1681 9.21164 46.0776 8.07648C45.9871 6.94133 45.4725 5.8819 44.6361 5.10911C43.7997 4.33632 42.7029 3.90687 41.5641 3.90625H39.8542C38.7795 3.90493 37.7394 4.28567 36.9196 4.98047C35.7604 5.96281 34.8275 7.18448 34.1852 8.56153L33.6374 9.7334C33.5627 9.89298 33.5481 10.0741 33.5961 10.2436C33.6442 10.4131 33.7518 10.5596 33.8991 10.6563C35.194 11.5022 36.3611 12.5292 37.3649 13.7061L37.3669 13.71ZM35.5114 9.18653C36.0648 8.00058 36.868 6.94824 37.8659 6.10157C38.4211 5.63 39.1258 5.3711 39.8542 5.3711H41.5641C42.3348 5.37098 43.0773 5.66116 43.6436 6.18385C44.21 6.70654 44.5587 7.42338 44.6202 8.19161C44.6818 8.95983 44.4518 9.72306 43.9759 10.3293C43.5 10.9355 42.8133 11.3403 42.0524 11.4629L41.1061 11.6152C40.0973 11.7772 39.1052 12.0305 38.1423 12.3721C37.7419 11.9297 37.318 11.5068 36.8805 11.1113C36.3579 10.6394 35.8074 10.1992 35.2321 9.79297L35.5114 9.18653Z" fill="#E25E52"/>
<path d="M16.3607 9.7373L15.8129 8.56543C15.1706 7.18838 14.2378 5.96672 13.0785 4.98438C12.2599 4.29081 11.2218 3.91016 10.1488 3.91016H8.43594C7.30095 3.91569 6.20938 4.34706 5.37723 5.11891C4.54508 5.89076 4.03297 6.94686 3.94224 8.07823C3.85151 9.2096 4.18877 10.3338 4.88728 11.2284C5.58579 12.123 6.59466 12.7228 7.71426 12.9092L8.65957 13.0615C9.73888 13.2341 10.7969 13.5205 11.8158 13.916C11.9004 13.9496 11.9905 13.9668 12.0814 13.9668C12.1873 13.9668 12.2919 13.9439 12.388 13.8995C12.4841 13.8552 12.5694 13.7905 12.6381 13.71C13.6419 12.5331 14.809 11.5061 16.1039 10.6602C16.2504 10.5628 16.357 10.416 16.4041 10.2465C16.4513 10.0771 16.4359 9.89634 16.3607 9.7373ZM13.1215 11.1113C12.6799 11.5101 12.2588 11.9308 11.8598 12.3721C10.8968 12.0305 9.90476 11.7772 8.8959 11.6152L7.94961 11.4629C7.18875 11.3402 6.502 10.9355 6.02613 10.3293C5.55027 9.72305 5.32022 8.95982 5.3818 8.1916C5.44337 7.42338 5.79206 6.70654 6.35841 6.18385C6.92476 5.66116 7.66721 5.37098 8.4379 5.37109H10.1459C10.8736 5.37156 11.5776 5.63043 12.1322 6.10156C13.1302 6.94823 13.9333 8.00057 14.4867 9.18652L14.7699 9.79297C14.1948 10.1994 13.6444 10.6396 13.1215 11.1113Z" fill="#E25E52"/>
<path d="M42.4428 29.0303C41.8001 28.8096 41.2338 28.4097 40.8108 27.8778C40.3877 27.346 40.1255 26.7043 40.0551 26.0283L39.7192 22.7598C39.5539 21.1427 39.1234 19.564 38.4448 18.0869C39.5435 17.508 40.7293 17.1121 41.9555 16.915L42.9008 16.7627C44.9906 16.4214 46.8756 15.3067 48.1816 13.64C49.4876 11.9734 50.1191 9.8765 49.9508 7.76576C49.7824 5.65503 48.8265 3.68478 47.2729 2.24616C45.7192 0.807544 43.6813 0.00576368 41.5639 0L39.854 0C37.8504 8.10789e-05 35.912 0.712412 34.3852 2.00977C32.7994 3.35432 31.5238 5.02646 30.6459 6.91113L29.1704 10.0713C26.4477 9.27309 23.5532 9.27309 20.8305 10.0713L19.352 6.91113C18.4742 5.02646 17.1985 3.35432 15.6127 2.00977C14.0867 0.713065 12.1495 0.000775831 10.1469 0L8.43696 0C6.31634 0.00103427 4.27388 0.800655 2.71623 2.23967C1.15857 3.67868 0.199977 5.65152 0.0312882 7.76542C-0.137401 9.87933 0.496192 11.9792 1.80592 13.6471C3.11565 15.3149 5.00545 16.4283 7.09907 16.7656L8.04536 16.918C9.27317 17.1148 10.4606 17.5106 11.561 18.0898C10.8816 19.5667 10.4507 21.1455 10.2856 22.7627L9.94966 26.0312C9.87925 26.7072 9.61707 27.3489 9.19403 27.8808C8.77099 28.4126 8.20472 28.8125 7.56196 29.0332C5.11274 29.8701 1.81978 31.9951 0.0424315 37.3633C-0.00970963 37.5175 -0.00890286 37.6847 0.0447241 37.8385C0.098351 37.9922 0.201732 38.1236 0.338494 38.212C0.475256 38.3003 0.63758 38.3405 0.799757 38.3261C0.961934 38.3118 1.11469 38.2438 1.23384 38.1328C1.28071 38.0898 2.1479 37.3232 3.85981 36.9844C3.31782 37.8467 2.8979 39.1328 3.06782 41.001C3.08257 41.1581 3.1476 41.3062 3.25325 41.4235C3.3589 41.5407 3.49954 41.6207 3.65428 41.6516C3.80901 41.6825 3.9696 41.6627 4.11218 41.5951C4.25477 41.5275 4.37175 41.4157 4.44575 41.2764C4.68726 40.8855 5.0057 40.5477 5.38174 40.2836C5.75778 40.0196 6.18357 39.8347 6.63325 39.7402C8.32433 42.8443 10.8206 45.4353 13.8596 47.2408C16.8986 49.0462 20.3679 49.9994 23.9028 50H26.0981C29.6341 50 33.1046 49.0468 36.1446 47.2408C39.1845 45.4347 41.6814 42.8427 43.3725 39.7373C43.8221 39.8324 44.2477 40.0176 44.6238 40.2816C44.9999 40.5456 45.3187 40.883 45.561 41.2734C45.6347 41.413 45.7516 41.525 45.8942 41.5928C46.0368 41.6605 46.1974 41.6804 46.3522 41.6495C46.507 41.6185 46.6477 41.5384 46.7532 41.421C46.8587 41.3036 46.9235 41.1553 46.9379 40.998C47.1079 39.1299 46.6879 37.8438 46.1469 36.9814C47.8569 37.3203 48.7241 38.0859 48.769 38.126C48.888 38.2366 49.0404 38.3045 49.2023 38.3191C49.3641 38.3336 49.5262 38.2939 49.663 38.2062C49.7998 38.1185 49.9035 37.9878 49.9579 37.8347C50.0123 37.6815 50.0142 37.5147 49.9633 37.3604C48.185 31.9922 44.892 29.8672 42.4428 29.0303ZM31.9751 7.53125C32.7647 5.83705 33.9117 4.33387 35.3374 3.125C36.5984 2.05355 38.1992 1.46515 39.854 1.46484H41.5639C43.3162 1.46588 45.0039 2.12675 46.2909 3.3159C47.578 4.50505 48.37 6.13525 48.5094 7.882C48.6488 9.62876 48.1252 11.3639 47.043 12.7421C45.9609 14.1203 44.3993 15.0404 42.6694 15.3193L41.7231 15.4717C40.3416 15.6926 39.0054 16.1373 37.767 16.7881C36.1175 13.9733 33.5842 11.7823 30.561 10.5557L31.9751 7.53125ZM8.27778 15.4717L7.33149 15.3193C5.60153 15.0404 4.04003 14.1203 2.95783 12.7421C1.87564 11.3639 1.35212 9.62876 1.49149 7.882C1.63087 6.13525 2.42292 4.50505 3.70996 3.3159C4.99701 2.12675 6.68466 1.46588 8.43696 1.46484H10.1469C11.8017 1.46515 13.4025 2.05355 14.6635 3.125C16.0891 4.33358 17.2361 5.83642 18.0258 7.53027L19.4399 10.5576C16.4172 11.785 13.8841 13.9758 12.2338 16.79C10.9956 16.1385 9.65935 15.6932 8.27778 15.4717ZM11.7387 22.9092C12.0749 19.6258 13.6171 16.5839 16.0669 14.3721C18.5167 12.1604 21.6999 10.936 25.0004 10.936C28.301 10.936 31.4841 12.1604 33.9339 14.3721C36.3837 16.5839 37.926 19.6258 38.2622 22.9092L38.5981 26.1777C38.6704 26.8842 38.8928 27.5671 39.2504 28.1807C35.4301 30.6221 31.5551 31.4297 28.6459 31.627C28.6827 31.2971 28.6496 30.9632 28.5486 30.647C28.4476 30.3308 28.2811 30.0394 28.06 29.7919C27.8388 29.5444 27.568 29.3463 27.2651 29.2105C26.9622 29.0747 26.6341 29.0043 26.3022 29.0039H23.7016C23.3697 29.0043 23.0416 29.0747 22.7387 29.2105C22.4358 29.3463 22.165 29.5444 21.9438 29.7919C21.7227 30.0394 21.5562 30.3308 21.4552 30.647C21.3542 30.9632 21.3211 31.2971 21.3579 31.627C18.4487 31.4316 14.5737 30.623 10.7534 28.1807C11.111 27.567 11.3337 26.8842 11.4067 26.1777L11.7387 22.9092ZM25.0004 34.208C24.8528 34.2095 24.7071 34.1738 24.5769 34.1042C24.4466 34.0346 24.336 33.9332 24.2553 33.8096L22.9565 31.8564C22.8675 31.7217 22.8166 31.5654 22.8092 31.404C22.8018 31.2427 22.8383 31.0824 22.9147 30.9401C22.9911 30.7978 23.1046 30.6789 23.2431 30.5959C23.3817 30.5129 23.5401 30.469 23.7016 30.4688H26.2993C26.4614 30.4685 26.6205 30.5123 26.7597 30.5955C26.8988 30.6787 27.0128 30.7981 27.0893 30.941C27.1658 31.084 27.202 31.245 27.1941 31.4069C27.1862 31.5688 27.1345 31.7256 27.0444 31.8604L25.7456 33.8135C25.6644 33.9364 25.5536 34.037 25.4234 34.1059C25.2932 34.1749 25.1478 34.21 25.0004 34.208ZM44.1411 35.3623C43.971 35.3658 43.8074 35.4278 43.6776 35.5376C43.5478 35.6475 43.4597 35.7987 43.4282 35.9658C43.3968 36.1302 43.4241 36.3004 43.5053 36.4467C43.5865 36.593 43.7164 36.7062 43.8725 36.7666C43.9331 36.7939 45.0395 37.3135 45.3989 39.04C44.6948 38.5615 43.8783 38.2745 43.0297 38.207C42.8845 38.1942 42.7387 38.2252 42.6112 38.2958C42.4837 38.3665 42.3801 38.4736 42.3139 38.6035C40.7959 41.5983 38.4759 44.1126 35.6128 45.8662C32.7496 47.6198 29.4556 48.5438 26.0981 48.5352H23.9028C20.5451 48.544 17.2509 47.6201 14.3876 45.8664C11.5242 44.1128 9.20411 41.5984 7.68599 38.6035C7.62455 38.4829 7.53087 38.3817 7.41535 38.3112C7.29984 38.2407 7.16703 38.2036 7.03169 38.2041H6.96724C6.1187 38.2719 5.30233 38.5589 4.5981 39.0371C4.95649 37.3105 6.06294 36.791 6.11567 36.7676C6.27232 36.7067 6.40286 36.5932 6.48485 36.4465C6.56684 36.2998 6.59514 36.1292 6.56489 35.9639C6.5339 35.7981 6.447 35.6479 6.31869 35.5384C6.19038 35.429 6.02842 35.3668 5.85981 35.3623C4.60696 35.3134 3.35679 35.5126 2.1811 35.9482C3.82368 32.5156 6.20161 31.0459 8.03267 30.4209C8.70327 30.1913 9.31743 29.8218 9.83442 29.3369C14.3032 32.2354 18.851 33.0176 22.0415 33.1328L23.0366 34.626C23.3302 35.0672 23.7641 35.3964 24.268 35.5605V37.3857C24.2675 37.8388 24.0873 38.2732 23.7669 38.5936C23.4465 38.914 23.0121 39.0942 22.559 39.0947H22.2416C21.7886 39.0942 21.3542 38.914 21.0338 38.5936C20.7134 38.2732 20.5332 37.8388 20.5327 37.3857C20.5327 37.1915 20.4555 37.0052 20.3181 36.8678C20.1808 36.7305 19.9945 36.6533 19.8002 36.6533C19.606 36.6533 19.4197 36.7305 19.2823 36.8678C19.145 37.0052 19.0678 37.1915 19.0678 37.3857C19.0689 38.2272 19.4036 39.0339 19.9986 39.6288C20.5935 40.2238 21.4002 40.5585 22.2416 40.5596H22.559C23.0254 40.5596 23.486 40.4567 23.9081 40.2582C24.3301 40.0596 24.7031 39.7704 25.0004 39.4111C25.2978 39.7704 25.6708 40.0596 26.0928 40.2582C26.5148 40.4567 26.9755 40.5596 27.4418 40.5596H27.7592C28.6007 40.5585 29.4073 40.2238 30.0023 39.6288C30.5973 39.0339 30.932 38.2272 30.9331 37.3857C30.9331 37.1915 30.8559 37.0052 30.7185 36.8678C30.5812 36.7305 30.3949 36.6533 30.2006 36.6533C30.0064 36.6533 29.8201 36.7305 29.6827 36.8678C29.5454 37.0052 29.4682 37.1915 29.4682 37.3857C29.4677 37.8388 29.2875 38.2732 28.9671 38.5936C28.6467 38.914 28.2123 39.0942 27.7592 39.0947H27.4418C26.9888 39.0942 26.5544 38.914 26.234 38.5936C25.9136 38.2732 25.7334 37.8388 25.7329 37.3857V35.5566C26.2368 35.3925 26.6707 35.0633 26.9643 34.6221L27.9594 33.1289C31.1518 33.0137 35.6987 32.2314 40.1665 29.333C40.6836 29.8177 41.2977 30.1872 41.9682 30.417C43.7993 31.042 46.1772 32.5117 47.8198 35.9434C46.6436 35.5098 45.3936 35.3124 44.1411 35.3623Z" fill="#3A1916"/>
<path d="M31.3477 28.1738C31.9302 28.1733 32.4888 27.9416 32.9008 27.5297C33.3127 27.1177 33.5444 26.5592 33.5449 25.9766V24.0234C33.5449 23.4407 33.3134 22.8818 32.9014 22.4697C32.4893 22.0577 31.9304 21.8262 31.3477 21.8262C30.7649 21.8262 30.206 22.0577 29.794 22.4697C29.3819 22.8818 29.1504 23.4407 29.1504 24.0234V25.9766C29.1509 26.5592 29.3826 27.1177 29.7945 27.5297C30.2065 27.9416 30.7651 28.1733 31.3477 28.1738ZM30.6152 24.0234C30.6152 23.8292 30.6924 23.6429 30.8298 23.5055C30.9671 23.3682 31.1534 23.291 31.3477 23.291C31.5419 23.291 31.7282 23.3682 31.8656 23.5055C32.0029 23.6429 32.0801 23.8292 32.0801 24.0234V25.9766C32.0801 26.1708 32.0029 26.3571 31.8656 26.4945C31.7282 26.6318 31.5419 26.709 31.3477 26.709C31.1534 26.709 30.9671 26.6318 30.8298 26.4945C30.6924 26.3571 30.6152 26.1708 30.6152 25.9766V24.0234Z" fill="#E25E52"/>
<path d="M18.6523 28.1738C19.2349 28.1733 19.7935 27.9416 20.2055 27.5297C20.6174 27.1177 20.8491 26.5592 20.8496 25.9766V24.0234C20.8496 23.4407 20.6181 22.8818 20.206 22.4697C19.794 22.0577 19.2351 21.8262 18.6523 21.8262C18.0696 21.8262 17.5107 22.0577 17.0986 22.4697C16.6866 22.8818 16.4551 23.4407 16.4551 24.0234V25.9766C16.4556 26.5592 16.6873 27.1177 17.0992 27.5297C17.5112 27.9416 18.0698 28.1733 18.6523 28.1738ZM17.9199 24.0234C17.9199 23.8292 17.9971 23.6429 18.1344 23.5055C18.2718 23.3682 18.4581 23.291 18.6523 23.291C18.8466 23.291 19.0329 23.3682 19.1702 23.5055C19.3076 23.6429 19.3848 23.8292 19.3848 24.0234V25.9766C19.3848 26.1708 19.3076 26.3571 19.1702 26.4945C19.0329 26.6318 18.8466 26.709 18.6523 26.709C18.4581 26.709 18.2718 26.6318 18.1344 26.4945C17.9971 26.3571 17.9199 26.1708 17.9199 25.9766V24.0234Z" fill="#E25E52"/>
</g>
<defs>
<clipPath id="clip0_682_23177">
<rect width="50" height="50" fill="white"/>
</clipPath>
</defs>
</svg>
