<svg width="50" height="50" viewBox="0 0 50 50" fill="none" xmlns="http://www.w3.org/2000/svg">
<g clip-path="url(#clip0_353_7102)">
<path d="M37.3663 14.0326C37.4349 14.1124 37.5203 14.1765 37.6164 14.2204C37.7125 14.2644 37.8171 14.2871 37.9229 14.2871C38.0139 14.2871 38.104 14.27 38.1885 14.2368C39.2047 13.8454 40.2597 13.5616 41.336 13.3899L42.2813 13.239C43.4056 13.0595 44.4204 12.4671 45.1238 11.5795C45.8272 10.692 46.1675 9.57442 46.077 8.44941C45.9865 7.32439 45.4718 6.27441 44.6354 5.50853C43.799 4.74264 42.7023 4.31702 41.5635 4.31641H39.8536C38.7789 4.3151 37.7388 4.69244 36.919 5.38104C35.7598 6.35461 34.8269 7.56537 34.1846 8.93012L33.6368 10.0915C33.5621 10.2497 33.5475 10.4292 33.5955 10.5972C33.6436 10.7652 33.7512 10.9104 33.8985 11.0061C35.1934 11.8445 36.3605 12.8624 37.3643 14.0287L37.3663 14.0326ZM35.5108 9.54954C36.0642 8.37418 36.8674 7.33123 37.8653 6.49212C38.4205 6.02477 39.1252 5.76818 39.8536 5.76817H41.5635C42.3342 5.76806 43.0767 6.05565 43.643 6.57367C44.2094 7.0917 44.5581 7.80214 44.6196 8.5635C44.6812 9.32486 44.4512 10.0813 43.9753 10.6821C43.4994 11.2829 42.8127 11.684 42.0518 11.8056L41.1055 11.9566C40.0967 12.117 39.1046 12.3681 38.1417 12.7066C37.7413 12.2682 37.3174 11.8491 36.8799 11.4572C36.3572 10.9894 35.8068 10.5531 35.2315 10.1506L35.5108 9.54954Z" fill="#E25E52"/>
<path d="M16.3612 10.0954L15.8134 8.93402C15.1711 7.56927 14.2382 6.35851 13.079 5.38494C12.2604 4.69757 11.2222 4.32032 10.1493 4.32031H8.43643C7.30144 4.32579 6.20987 4.75331 5.37772 5.51827C4.54557 6.28323 4.03346 7.3299 3.94273 8.45117C3.852 9.57244 4.18925 10.6866 4.88777 11.5732C5.58628 12.4599 6.59515 13.0543 7.71475 13.239L8.66006 13.39C9.73937 13.561 10.7974 13.8449 11.8163 14.2368C11.9009 14.2701 11.991 14.2871 12.0819 14.2872C12.1878 14.2872 12.2924 14.2644 12.3885 14.2205C12.4846 14.1765 12.5699 14.1124 12.6386 14.0326C13.6424 12.8663 14.8095 11.8484 16.1044 11.01C16.2509 10.9136 16.3574 10.7681 16.4046 10.6001C16.4518 10.4322 16.4364 10.253 16.3612 10.0954ZM13.122 11.4572C12.6804 11.8524 12.2593 12.2694 11.8603 12.7067C10.8973 12.3681 9.90524 12.1171 8.89639 11.9566L7.9501 11.8056C7.18924 11.6841 6.50249 11.2829 6.02662 10.6821C5.55076 10.0813 5.32071 9.32489 5.38228 8.56353C5.44386 7.80217 5.79255 7.09173 6.3589 6.5737C6.92524 6.05568 7.6677 5.76809 8.43838 5.76821H10.1464C10.8741 5.76867 11.5781 6.02523 12.1327 6.49215C13.1307 7.33126 13.9338 8.37421 14.4872 9.54957L14.7704 10.1506C14.1953 10.5534 13.6449 10.9897 13.122 11.4572Z" fill="#E25E52"/>
<path d="M42.4423 29.2164C41.7996 28.9977 41.2333 28.6014 40.8103 28.0743C40.3872 27.5471 40.125 26.9111 40.0546 26.2412L39.7187 23.0019C39.5534 21.3993 39.1229 19.8346 38.4443 18.3707C39.543 17.7969 40.7288 17.4047 41.955 17.2093L42.9003 17.0583C44.9901 16.7201 46.8751 15.6154 48.1811 13.9636C49.4871 12.3118 50.1186 10.2336 49.9503 8.14174C49.7819 6.04985 48.826 4.09719 47.2724 2.67142C45.7187 1.24565 43.6809 0.451025 41.5634 0.445312L39.8535 0.445313C37.8499 0.445393 35.9116 1.15136 34.3847 2.43713C32.7989 3.76969 31.5233 5.42689 30.6455 7.29474L29.1699 10.4267C26.4472 9.63561 23.5527 9.63561 20.83 10.4267L19.3515 7.29474C18.4737 5.42689 17.198 3.76969 15.6123 2.43713C14.0862 1.15201 12.149 0.446081 10.1464 0.445313L8.43647 0.445313C6.31585 0.446338 4.2734 1.23882 2.71574 2.66498C1.15808 4.09114 0.199489 6.04637 0.0307999 8.1414C-0.137889 10.2364 0.495704 12.3176 1.80543 13.9705C3.11517 15.6235 5.00496 16.7269 7.09858 17.0612L8.04487 17.2122C9.27268 17.4073 10.4602 17.7996 11.5605 18.3736C10.8812 19.8373 10.4502 21.402 10.2851 23.0048L9.94917 26.2441C9.87876 26.914 9.61658 27.55 9.19354 28.0772C8.7705 28.6043 8.20423 29.0006 7.56147 29.2193C5.11226 30.0487 1.81929 32.1548 0.0419432 37.475C-0.0101979 37.6278 -0.00939114 37.7936 0.0442358 37.9459C0.0978627 38.0983 0.201244 38.2285 0.338006 38.3161C0.474768 38.4036 0.637092 38.4435 0.799269 38.4293C0.961446 38.415 1.1142 38.3476 1.23335 38.2377C1.28022 38.1951 2.14741 37.4353 3.85933 37.0995C3.31733 37.9541 2.89741 39.2287 3.06733 41.0802C3.08209 41.2359 3.14711 41.3827 3.25276 41.4989C3.35841 41.6151 3.49905 41.6944 3.65379 41.725C3.80852 41.7557 3.96911 41.736 4.11169 41.669C4.25428 41.602 4.37126 41.4913 4.44526 41.3531C4.68677 40.9657 5.00521 40.631 5.38125 40.3693C5.75729 40.1076 6.18308 39.9243 6.63276 39.8307C8.32384 42.9071 10.8201 45.475 13.8591 47.2643C16.8981 49.0536 20.3675 49.9983 23.9023 49.9989H26.0976C29.6336 49.9989 33.1041 49.0542 36.1441 47.2643C39.184 45.4744 41.6809 42.9054 43.372 39.8278C43.8216 39.9221 44.2472 40.1056 44.6233 40.3672C44.9994 40.6289 45.3182 40.9633 45.5605 41.3502C45.6342 41.4886 45.7511 41.5996 45.8937 41.6667C46.0363 41.7339 46.1969 41.7536 46.3517 41.7229C46.5065 41.6922 46.6472 41.6128 46.7527 41.4965C46.8583 41.3801 46.9231 41.2331 46.9375 41.0773C47.1074 39.2258 46.6875 37.9512 46.1464 37.0966C47.8564 37.4324 48.7236 38.1912 48.7685 38.2309C48.8875 38.3405 49.0399 38.4078 49.2018 38.4222C49.3636 38.4366 49.5257 38.3973 49.6625 38.3104C49.7993 38.2234 49.903 38.0939 49.9574 37.9422C50.0118 37.7904 50.0137 37.625 49.9628 37.4721C48.1845 32.1519 44.8916 30.0458 42.4423 29.2164ZM31.9746 7.90932C32.7642 6.23024 33.9112 4.74048 35.3369 3.54241C36.5979 2.48053 38.1987 1.89738 39.8535 1.89708H41.5634C43.3157 1.8981 45.0034 2.55307 46.2904 3.7316C47.5775 4.91013 48.3695 6.52579 48.5089 8.25694C48.6483 9.9881 48.1248 11.7078 47.0426 13.0737C45.9604 14.4396 44.3989 15.3515 42.6689 15.6279L41.7226 15.7789C40.3412 15.9978 39.005 16.4385 37.7666 17.0835C36.117 14.2938 33.5837 12.1224 30.5605 10.9067L31.9746 7.90932ZM8.2773 15.7789L7.33101 15.6279C5.60104 15.3515 4.03954 14.4396 2.95734 13.0737C1.87515 11.7078 1.35163 9.9881 1.49101 8.25694C1.63038 6.52579 2.42243 4.91013 3.70947 3.7316C4.99652 2.55307 6.68417 1.8981 8.43647 1.89708H10.1464C11.8012 1.89738 13.402 2.48053 14.663 3.54241C16.0886 4.7402 17.2356 6.22962 18.0253 7.90835L19.4394 10.9087C16.4167 12.1251 13.8836 14.2963 12.2333 17.0854C10.9951 16.4398 9.65886 15.9984 8.2773 15.7789ZM11.7382 23.1499C12.0744 19.8959 13.6166 16.8811 16.0664 14.6891C18.5162 12.4971 21.6994 11.2837 25 11.2837C28.3005 11.2837 31.4837 12.4971 33.9335 14.6891C36.3833 16.8811 37.9255 19.8959 38.2617 23.1499L38.5976 26.3893C38.6699 27.0895 38.8924 27.7663 39.25 28.3744C35.4296 30.794 31.5546 31.5944 28.6455 31.7899C28.6822 31.4629 28.6491 31.132 28.5481 30.8186C28.4472 30.5053 28.2807 30.2165 28.0595 29.9712C27.8383 29.7259 27.5675 29.5296 27.2646 29.395C26.9617 29.2604 26.6336 29.1907 26.3017 29.1903H23.7011C23.3692 29.1907 23.0411 29.2604 22.7382 29.395C22.4353 29.5296 22.1645 29.7259 21.9433 29.9712C21.7222 30.2165 21.5557 30.5053 21.4547 30.8186C21.3538 31.132 21.3206 31.4629 21.3574 31.7899C18.4482 31.5963 14.5732 30.7949 10.7529 28.3744C11.1105 27.7662 11.3332 27.0895 11.4062 26.3893L11.7382 23.1499ZM25 34.3479C24.8523 34.3494 24.7066 34.314 24.5764 34.245C24.4461 34.176 24.3356 34.0756 24.2548 33.953L22.956 32.0173C22.867 31.8838 22.8161 31.7289 22.8087 31.569C22.8014 31.4091 22.8378 31.2502 22.9142 31.1092C22.9906 30.9682 23.1041 30.8503 23.2426 30.768C23.3812 30.6858 23.5396 30.6422 23.7011 30.642H26.2988C26.4609 30.6418 26.62 30.6852 26.7592 30.7676C26.8983 30.8501 27.0123 30.9684 27.0888 31.1101C27.1653 31.2517 27.2016 31.4113 27.1937 31.5718C27.1857 31.7323 27.134 31.8876 27.0439 32.0212L25.7451 33.9569C25.6639 34.0787 25.5531 34.1784 25.4229 34.2467C25.2927 34.315 25.1473 34.3498 25 34.3479ZM44.1406 35.4919C43.9705 35.4954 43.8069 35.5567 43.6771 35.6657C43.5473 35.7746 43.4592 35.9244 43.4277 36.09C43.3963 36.2529 43.4236 36.4216 43.5048 36.5666C43.586 36.7116 43.7159 36.8238 43.872 36.8836C43.9326 36.9107 45.039 37.4256 45.3984 39.1368C44.6943 38.6625 43.8779 38.378 43.0292 38.3112C42.884 38.2985 42.7383 38.3292 42.6107 38.3992C42.4832 38.4692 42.3796 38.5754 42.3134 38.7042C40.7954 41.6722 38.4755 44.164 35.6123 45.902C32.7491 47.6399 29.4551 48.5557 26.0976 48.5471H23.9023C20.5446 48.5559 17.2505 47.6402 14.3871 45.9022C11.5237 44.1643 9.20362 41.6723 7.6855 38.7042C7.62406 38.5846 7.53038 38.4844 7.41486 38.4145C7.29935 38.3446 7.16654 38.3078 7.0312 38.3083H6.96675C6.11822 38.3755 5.30184 38.66 4.59761 39.1339C4.95601 37.4227 6.06245 36.9078 6.11519 36.8846C6.27183 36.8243 6.40237 36.7118 6.48436 36.5664C6.56635 36.421 6.59465 36.2519 6.5644 36.0881C6.53341 35.9238 6.44651 35.7749 6.3182 35.6665C6.18989 35.558 6.02793 35.4963 5.85933 35.4919C4.60647 35.4435 3.3563 35.6408 2.18062 36.0726C3.82319 32.6706 6.20112 31.214 8.03218 30.5946C8.70278 30.3671 9.31694 30.0009 9.83394 29.5203C14.3027 32.3928 18.8505 33.1681 22.041 33.2823L23.0361 34.7621C23.3297 35.1994 23.7636 35.5257 24.2675 35.6884V37.4972C24.267 37.9463 24.0868 38.3768 23.7664 38.6943C23.446 39.0119 23.0116 39.1905 22.5585 39.191H22.2412C21.7881 39.1905 21.3537 39.0119 21.0333 38.6943C20.7129 38.3768 20.5327 37.9463 20.5322 37.4972C20.5322 37.3047 20.455 37.1201 20.3177 36.984C20.1803 36.8478 19.994 36.7714 19.7998 36.7714C19.6055 36.7714 19.4192 36.8478 19.2819 36.984C19.1445 37.1201 19.0673 37.3047 19.0673 37.4972C19.0684 38.3312 19.4031 39.1306 19.9981 39.7203C20.5931 40.31 21.3997 40.6417 22.2412 40.6427H22.5585C23.0249 40.6428 23.4856 40.5408 23.9076 40.344C24.3296 40.1473 24.7026 39.8606 25 39.5046C25.2973 39.8606 25.6703 40.1473 26.0923 40.344C26.5143 40.5408 26.975 40.6428 27.4414 40.6427H27.7587C28.6002 40.6417 29.4068 40.31 30.0018 39.7203C30.5968 39.1306 30.9315 38.3312 30.9326 37.4972C30.9326 37.3047 30.8554 37.1201 30.718 36.984C30.5807 36.8478 30.3944 36.7714 30.2001 36.7714C30.0059 36.7714 29.8196 36.8478 29.6822 36.984C29.5449 37.1201 29.4677 37.3047 29.4677 37.4972C29.4672 37.9463 29.287 38.3768 28.9666 38.6943C28.6462 39.0119 28.2118 39.1905 27.7587 39.191H27.4414C26.9883 39.1905 26.5539 39.0119 26.2335 38.6943C25.9131 38.3768 25.7329 37.9463 25.7324 37.4972V35.6845C26.2363 35.5218 26.6702 35.1955 26.9638 34.7583L27.9589 33.2784C31.1513 33.1642 35.6982 32.389 40.166 29.5164C40.6831 29.9968 41.2972 30.363 41.9677 30.5907C43.7988 31.2101 46.1767 32.6667 47.8193 36.0677C46.6432 35.6381 45.3931 35.4424 44.1406 35.4919Z" fill="#3A1916"/>
<path d="M31.3477 28.3652C31.9302 28.3647 32.4888 28.1351 32.9008 27.7268C33.3127 27.3185 33.5444 26.7649 33.5449 26.1876V24.2519C33.5449 23.6743 33.3134 23.1204 32.9014 22.712C32.4893 22.3036 31.9304 22.0742 31.3477 22.0742C30.7649 22.0742 30.206 22.3036 29.794 22.712C29.3819 23.1204 29.1504 23.6743 29.1504 24.2519V26.1876C29.1509 26.7649 29.3826 27.3185 29.7945 27.7268C30.2065 28.1351 30.7651 28.3647 31.3477 28.3652ZM30.6152 24.2519C30.6152 24.0593 30.6924 23.8747 30.8298 23.7386C30.9671 23.6025 31.1534 23.526 31.3477 23.526C31.5419 23.526 31.7282 23.6025 31.8656 23.7386C32.0029 23.8747 32.0801 24.0593 32.0801 24.2519V26.1876C32.0801 26.3801 32.0029 26.5647 31.8656 26.7008C31.7282 26.837 31.5419 26.9134 31.3477 26.9134C31.1534 26.9134 30.9671 26.837 30.8298 26.7008C30.6924 26.5647 30.6152 26.3801 30.6152 26.1876V24.2519Z" fill="#E25E52"/>
<path d="M18.6523 28.3652C19.2349 28.3647 19.7935 28.1351 20.2055 27.7268C20.6174 27.3185 20.8491 26.7649 20.8496 26.1876V24.2519C20.8496 23.6743 20.6181 23.1204 20.206 22.712C19.794 22.3036 19.2351 22.0742 18.6523 22.0742C18.0696 22.0742 17.5107 22.3036 17.0986 22.712C16.6866 23.1204 16.4551 23.6743 16.4551 24.2519V26.1876C16.4556 26.7649 16.6873 27.3185 17.0992 27.7268C17.5112 28.1351 18.0698 28.3647 18.6523 28.3652ZM17.9199 24.2519C17.9199 24.0593 17.9971 23.8747 18.1344 23.7386C18.2718 23.6025 18.4581 23.526 18.6523 23.526C18.8466 23.526 19.0329 23.6025 19.1702 23.7386C19.3076 23.8747 19.3848 24.0593 19.3848 24.2519V26.1876C19.3848 26.3801 19.3076 26.5647 19.1702 26.7008C19.0329 26.837 18.8466 26.9134 18.6523 26.9134C18.4581 26.9134 18.2718 26.837 18.1344 26.7008C17.9971 26.5647 17.9199 26.3801 17.9199 26.1876V24.2519Z" fill="#E25E52"/>
</g>
<defs>
<clipPath id="clip0_353_7102">
<rect width="50" height="50" fill="white"/>
</clipPath>
</defs>
</svg>
