<svg width="50" height="50" viewBox="0 0 50 50" fill="none" xmlns="http://www.w3.org/2000/svg">
<g clip-path="url(#clip0_334_15981)">
<path d="M30.3711 14.0137C29.7885 14.0142 29.2299 14.2459 28.818 14.6578C28.406 15.0698 28.1743 15.6283 28.1738 16.2109V18.1641C28.1738 18.7468 28.4053 19.3057 28.8174 19.7178C29.2295 20.1298 29.7883 20.3613 30.3711 20.3613C30.9538 20.3613 31.5127 20.1298 31.9248 19.7178C32.3369 19.3057 32.5684 18.7468 32.5684 18.1641V16.2109C32.5678 15.6283 32.3362 15.0698 31.9242 14.6578C31.5123 14.2459 30.9537 14.0142 30.3711 14.0137ZM31.1035 18.1641C31.1035 18.3583 31.0264 18.5446 30.889 18.682C30.7516 18.8193 30.5653 18.8965 30.3711 18.8965C30.1768 18.8965 29.9905 18.8193 29.8532 18.682C29.7158 18.5446 29.6387 18.3583 29.6387 18.1641V16.2109C29.6387 16.0167 29.7158 15.8304 29.8532 15.693C29.9905 15.5557 30.1768 15.4785 30.3711 15.4785C30.5653 15.4785 30.7516 15.5557 30.889 15.693C31.0264 15.8304 31.1035 16.0167 31.1035 16.2109V18.1641Z" fill="#E25E52"/>
<path d="M19.6289 14.0137C19.0463 14.0142 18.4877 14.2459 18.0758 14.6578C17.6638 15.0698 17.4322 15.6283 17.4316 16.2109V18.1641C17.4316 18.7468 17.6631 19.3057 18.0752 19.7178C18.4873 20.1298 19.0462 20.3613 19.6289 20.3613C20.2117 20.3613 20.7705 20.1298 21.1826 19.7178C21.5947 19.3057 21.8262 18.7468 21.8262 18.1641V16.2109C21.8257 15.6283 21.594 15.0698 21.182 14.6578C20.7701 14.2459 20.2115 14.0142 19.6289 14.0137ZM20.3613 18.1641C20.3613 18.3583 20.2842 18.5446 20.1468 18.682C20.0095 18.8193 19.8232 18.8965 19.6289 18.8965C19.4347 18.8965 19.2484 18.8193 19.111 18.682C18.9737 18.5446 18.8965 18.3583 18.8965 18.1641V16.2109C18.8965 16.0167 18.9737 15.8304 19.111 15.693C19.2484 15.5557 19.4347 15.4785 19.6289 15.4785C19.8232 15.4785 20.0095 15.5557 20.1468 15.693C20.2842 15.8304 20.3613 16.0167 20.3613 16.2109V18.1641Z" fill="#E25E52"/>
<path d="M49.6091 16.9522C45.2986 14.6953 44.9822 11.9307 44.6482 9.00392C44.4255 7.0508 44.1941 5.0342 42.6121 3.43752C39.1101 -0.0908047 31.3123 0.724625 29.9597 0.8965C26.7611 -0.298833 23.2384 -0.298833 20.0398 0.8965C18.6873 0.724625 10.8894 -0.0908047 7.38942 3.43556C5.80738 5.03127 5.57594 7.04884 5.35328 9.00197C5.0193 11.9317 4.70289 14.6934 0.392345 16.9502C0.279772 17.0091 0.184465 17.0963 0.115785 17.2032C0.0471064 17.3101 0.00741873 17.4331 0.000621633 17.5599C-0.00617546 17.6868 0.0201518 17.8133 0.077017 17.9269C0.133882 18.0405 0.219329 18.1374 0.324962 18.208C0.483165 18.3135 3.64528 20.3965 7.05543 20.3965C7.72374 20.4003 8.38943 20.3125 9.03395 20.1358C9.36052 20.0438 9.67924 19.9259 9.98707 19.7832C9.60796 20.604 9.11229 21.3658 8.51539 22.0449L6.47731 24.3623C5.09139 25.9383 4.18934 27.8805 3.87927 29.9562C3.5692 32.0318 3.86427 34.1529 4.72911 36.0651C5.59395 37.9773 6.99187 39.5996 8.75533 40.7374C10.5188 41.8753 12.573 42.4805 14.6716 42.4805H18.1941C18.8675 42.9441 19.5953 43.3232 20.3611 43.6094V45.3613C20.3611 46.5916 20.8498 47.7715 21.7197 48.6414C22.5896 49.5113 23.7695 50 24.9998 50C26.23 50 27.4099 49.5113 28.2798 48.6414C29.1497 47.7715 29.6384 46.5916 29.6384 45.3613V43.5899C30.3853 43.3066 31.0952 42.9341 31.7527 42.4805H35.3279C37.4266 42.4805 39.4808 41.8753 41.2442 40.7374C43.0077 39.5996 44.4056 37.9773 45.2704 36.0651C46.1353 34.1529 46.4303 32.0318 46.1203 29.9562C45.8102 27.8805 44.9081 25.9383 43.5222 24.3623L41.4841 22.0449C40.8874 21.3664 40.3917 20.6053 40.0125 19.7852C40.3203 19.9278 40.639 20.0457 40.9656 20.1377C41.6101 20.3145 42.2758 20.4022 42.9441 20.3985C46.3543 20.3985 49.5164 18.3154 49.6746 18.21C49.7802 18.1394 49.8657 18.0425 49.9225 17.9289C49.9794 17.8152 50.0057 17.6888 49.9989 17.5619C49.9921 17.435 49.9524 17.3121 49.8838 17.2052C49.8151 17.0983 49.7198 17.0111 49.6072 16.9522H49.6091ZM27.615 1.73537C27.7667 2.50747 27.8445 3.29226 27.8474 4.07912C27.8601 6.18947 26.7166 7.18654 25.7781 7.64943C26.0115 5.98927 25.4666 4.2881 25.4363 4.19533C25.3856 4.04032 25.2847 3.90666 25.1495 3.81552C25.0142 3.72437 24.8524 3.68097 24.6898 3.69218C24.5271 3.7034 24.3728 3.76858 24.2513 3.87741C24.1299 3.98624 24.0482 4.13249 24.0193 4.29298C23.9089 4.90334 23.3894 5.21974 22.8738 5.38478C23.1433 4.38771 23.2507 3.12111 23.1941 1.59767C24.6648 1.38815 26.1608 1.4364 27.615 1.74025V1.73537ZM8.64332 18.7276C6.29957 19.3867 3.64234 18.3291 2.20387 17.5977C6.13356 15.0781 6.49098 11.9551 6.80836 9.17287C7.02125 7.3174 7.20485 5.70705 8.43043 4.4717C10.615 2.26759 15.0935 2.07814 17.7986 2.19142C14.5623 4.3506 14.2312 6.02541 13.9646 8.69142C13.7976 10.3457 13.5906 12.4024 12.2068 15.3819C11.3709 17.1699 10.1726 18.2959 8.64332 18.7256V18.7276ZM17.2371 39.2559C18.2484 39.5709 19.322 39.6306 20.3621 39.4297V42.0283C18.8474 41.3467 17.7468 40.3662 17.238 39.2578L17.2371 39.2559ZM21.5173 28.1533L22.9226 30.2608C23.1505 30.6026 23.4592 30.8829 23.8214 31.0767C24.1835 31.2706 24.588 31.372 24.9988 31.372C25.4096 31.372 25.814 31.2706 26.1762 31.0767C26.5384 30.8829 26.8471 30.6026 27.075 30.2608L28.4754 28.1611L28.7293 28.2119L33.1238 29.1211C34.7664 29.461 35.9558 30.9766 35.9558 32.7207C35.9558 35.6758 33.6433 38.0811 30.8005 38.0811C29.948 38.076 29.1103 37.8574 28.3641 37.445C27.6179 37.0327 26.987 36.4398 26.5291 35.7207L25.5857 34.2647C25.5193 34.1623 25.4284 34.0781 25.3212 34.0199C25.214 33.9616 25.0939 33.9311 24.9719 33.9311C24.8499 33.9311 24.7299 33.9616 24.6227 34.0199C24.5155 34.0781 24.4245 34.1623 24.3582 34.2647L23.4129 35.7188C22.9548 36.438 22.3238 37.031 21.5774 37.4433C20.831 37.8557 19.9931 38.0743 19.1404 38.0791C16.2986 38.0791 13.9851 35.6738 13.9851 32.7188C13.9851 30.9727 15.1785 29.459 16.8172 29.1192L21.2117 28.21C21.3145 28.1898 21.4168 28.1703 21.5183 28.1514L21.5173 28.1533ZM22.6824 26.2793C22.7691 26.1136 22.8998 25.975 23.0602 25.8788C23.2207 25.7827 23.4045 25.7327 23.5916 25.7344H26.406C26.5926 25.7344 26.7756 25.7851 26.9357 25.8809C27.0958 25.9768 27.2268 26.1142 27.3149 26.2787C27.403 26.4432 27.4448 26.6284 27.4359 26.8148C27.4271 27.0012 27.3678 27.1816 27.2644 27.3369L25.8562 29.4483C25.7621 29.5895 25.6347 29.7052 25.4851 29.7853C25.3355 29.8654 25.1685 29.9073 24.9988 29.9073C24.8291 29.9073 24.6621 29.8654 24.5125 29.7853C24.3629 29.7052 24.2354 29.5895 24.1414 29.4483L22.7341 27.335C22.6292 27.1804 22.569 26.9999 22.56 26.8133C22.5511 26.6267 22.5937 26.4413 22.6834 26.2774L22.6824 26.2793ZM24.9998 48.5352C24.1583 48.5341 23.3517 48.1994 22.7567 47.6044C22.1617 47.0095 21.827 46.2028 21.8259 45.3613V38.959C22.9783 38.4295 23.9559 37.5826 24.6443 36.5176L24.9744 36.0078L25.3054 36.5176C26.0034 37.5987 26.9996 38.4545 28.1736 38.9815V45.3613C28.1726 46.2028 27.8378 47.0095 27.2429 47.6044C26.6479 48.1994 25.8412 48.5341 24.9998 48.5352ZM29.6384 39.4365C30.6631 39.6282 31.7191 39.5669 32.7146 39.2578C32.2097 40.3565 31.1316 41.3281 29.6414 42.0069L29.6384 39.4365ZM42.4216 25.3301C43.6218 26.6944 44.403 28.3758 44.6716 30.1728C44.9402 31.9699 44.6849 33.8063 43.9361 35.4619C43.1874 37.1174 41.9771 38.5219 40.4502 39.507C38.9234 40.4921 37.1449 41.0159 35.3279 41.0156H33.3298C33.9402 40.2667 34.3315 39.3637 34.4607 38.4063C35.3801 37.7698 36.1305 36.919 36.6471 35.9273C37.1637 34.9356 37.4309 33.833 37.4255 32.7149C37.4255 30.2735 35.742 28.1611 33.4216 27.6807L29.0271 26.7715L28.9031 26.7461C28.8997 26.0864 28.6352 25.4549 28.1675 24.9897C27.6997 24.5244 27.0667 24.2634 26.407 24.2637H23.5925C22.9333 24.2626 22.3005 24.5225 21.8322 24.9865C21.364 25.4506 21.0984 26.081 21.0935 26.7402L20.9197 26.7754L16.5252 27.6846C14.2058 28.1651 12.5213 30.2822 12.5213 32.7188C12.5168 33.8363 12.7845 34.9381 13.3012 35.9291C13.818 36.92 14.5682 37.7702 15.4871 38.4063C15.6163 39.3639 16.008 40.267 16.6189 41.0156H14.6716C12.8546 41.0159 11.0761 40.4921 9.54928 39.507C8.02246 38.5219 6.81214 37.1174 6.06341 35.4619C5.31468 33.8063 5.05931 31.9699 5.32793 30.1728C5.59656 28.3758 6.37776 26.6944 7.57789 25.3301L9.61598 23.0127C10.8059 21.6559 11.6416 20.0258 12.0486 18.2676C12.657 17.592 13.1573 16.8264 13.532 15.9981C15.0213 12.7969 15.2429 10.6016 15.4207 8.83693C15.6873 6.18556 15.823 4.84963 20.4324 2.31447C20.8592 2.14917 21.2948 2.00736 21.7371 1.88966C21.78 3.71779 21.5574 5.13088 21.0925 5.91701C21.0275 6.02725 20.9925 6.15261 20.991 6.2806C20.9895 6.40859 21.0215 6.53475 21.084 6.64648C21.1464 6.75822 21.237 6.85165 21.3468 6.91744C21.4566 6.98324 21.5817 7.01912 21.7097 7.0215C22.448 7.03615 23.532 6.86037 24.3543 6.27736C24.4119 7.00783 24.3611 7.80959 24.0281 8.3965C23.9646 8.50784 23.9315 8.63392 23.9321 8.76209C23.9326 8.89026 23.9669 9.01603 24.0314 9.1268C24.0958 9.23757 24.1883 9.32945 24.2995 9.39324C24.4107 9.45702 24.5366 9.49048 24.6648 9.49025C24.6931 9.49025 24.7214 9.49025 24.7507 9.48537C25.5648 9.35894 26.3427 9.06102 27.033 8.61134C28.0808 7.92775 29.3269 6.57814 29.3123 4.06642C29.3087 3.4319 29.2627 2.79833 29.1746 2.16994C29.3054 2.21584 29.4363 2.26759 29.5652 2.31447C34.1746 4.85353 34.3103 6.18556 34.5769 8.83693C34.7547 10.6016 34.9763 12.7969 36.4656 15.9981C36.8402 16.8264 37.3406 17.592 37.949 18.2676C38.356 20.0258 39.1917 21.6559 40.3816 23.0127L42.4216 25.3301ZM41.3562 18.7256C39.8269 18.2959 38.6287 17.1699 37.7957 15.3809C36.4109 12.4024 36.2039 10.3447 36.0349 8.69142C35.7664 6.02638 35.4353 4.35158 32.199 2.19045C34.9041 2.07716 39.3826 2.26662 41.5672 4.47072C42.7927 5.70607 42.9763 7.31252 43.1892 9.17189C43.5066 11.9541 43.864 15.0772 47.7937 17.5967C46.3562 18.3272 43.7019 19.3848 41.3562 18.7256Z" fill="#3A1916"/>
</g>
<defs>
<clipPath id="clip0_334_15981">
<rect width="50" height="50" fill="white"/>
</clipPath>
</defs>
</svg>
