<svg width="60" height="60" viewBox="0 0 60 60" fill="none" xmlns="http://www.w3.org/2000/svg">
<path d="M51.0996 5.84977C51.0091 5.7675 50.9024 5.705 50.7864 5.66626C50.6704 5.62752 50.5476 5.61339 50.4258 5.62477C44.0742 6.22242 39.0234 4.72477 35.9039 3.36188C32.5055 1.88063 30.5965 0.232969 30.5777 0.216563C30.4177 0.0769313 30.2124 0 30 0C29.7876 0 29.5823 0.0769313 29.4223 0.216563C29.4035 0.232969 27.491 1.88063 24.0961 3.36188C19.5249 5.33284 14.5283 6.11145 9.57422 5.62477C9.45239 5.61335 9.32952 5.62749 9.21347 5.66629C9.09742 5.7051 8.99076 5.7677 8.9003 5.85011C8.80984 5.93251 8.73759 6.03289 8.68817 6.14483C8.63874 6.25677 8.61324 6.37779 8.61328 6.50016V29.0705C8.61277 35.7378 10.6229 42.2503 14.3812 47.7574C18.1395 53.2645 23.4713 57.5102 29.6801 59.94C29.8859 60.0197 30.1141 60.0197 30.3199 59.94C36.5287 57.5102 41.8605 53.2645 45.6188 47.7574C49.3771 42.2503 51.3872 35.7378 51.3867 29.0705V6.50016C51.3867 6.37774 51.3612 6.25667 51.3118 6.14468C51.2623 6.03269 51.1901 5.93225 51.0996 5.84977ZM49.6289 29.0705C49.6289 41.9693 41.9355 53.3564 30 58.1752C18.0645 53.3564 10.3711 41.9693 10.3711 29.0705V7.45055C15.3353 7.78581 20.3075 6.92583 24.8707 4.94273C26.6861 4.15917 28.4068 3.1724 30 2.00133C31.5932 3.1724 33.3139 4.15917 35.1293 4.94273C39.6923 6.92663 44.6647 7.78664 49.6289 7.45055V29.0705Z" fill="#3A1916"/>
<path d="M30.4687 4.45184C30.3284 4.36336 30.1659 4.31641 30 4.31641C29.8341 4.31641 29.6716 4.36336 29.5312 4.45184C26.7691 6.20028 20.9484 9.15106 12.9949 9.27411C12.7643 9.2778 12.5443 9.37202 12.3825 9.53645C12.2207 9.70088 12.13 9.92233 12.1301 10.153V29.0694C12.13 34.7856 13.7831 40.3798 16.8901 45.1779C19.9971 49.9759 24.4255 53.7731 29.6414 56.1116C29.7543 56.1618 29.8764 56.1878 30 56.1878C30.1235 56.1878 30.2457 56.1618 30.3586 56.1116C35.5747 53.7732 40.0033 49.9762 43.1105 45.1781C46.2177 40.3801 47.871 34.7857 47.8711 29.0694V10.1518C47.8711 9.92116 47.7804 9.69971 47.6186 9.53528C47.4568 9.37085 47.2369 9.27663 47.0062 9.27294C39.0515 9.14989 33.2308 6.19911 30.4687 4.45184ZM30 54.3444C26.2329 52.5924 22.9059 50.0194 20.2629 46.8139H39.7371C37.094 50.0189 33.7669 52.5916 30 54.3432V54.3444ZM46.1133 29.0694C46.1203 34.6769 44.4293 40.1551 41.2629 44.7831L41.073 45.055H18.9246L18.7348 44.7831C15.5692 40.1549 13.879 34.6767 13.8867 29.0694V11.0061C21.4101 10.7026 27.034 8.02372 30 6.22723C34.8864 9.14375 40.4268 10.7869 46.1133 11.0061V29.0694Z" fill="#3A1916"/>
<path d="M36.6387 29.345L30.443 25.7251C30.3085 25.6467 30.1556 25.6055 30 25.6055C29.8444 25.6055 29.6915 25.6467 29.557 25.7251L23.3613 29.345C22.6188 29.7807 22.0028 30.4026 21.5743 31.1492C21.1458 31.8959 20.9195 32.7415 20.918 33.6024V34.1509C20.9176 35.1297 21.2086 36.0864 21.7539 36.8993C22.2992 37.7121 23.0741 38.3443 23.9799 38.7152C24.8857 39.0861 25.8814 39.1789 26.8402 38.982C27.799 38.785 28.6775 38.307 29.3637 37.6091L30 36.9634L30.6363 37.6102C31.3228 38.3077 32.2014 38.7851 33.1601 38.9818C34.1188 39.1784 35.1143 39.0853 36.0199 38.7144C36.9255 38.3434 37.7003 37.7114 38.2456 36.8987C38.7909 36.086 39.0821 35.1295 39.082 34.1509V33.6024C39.0805 32.7415 38.8542 31.8959 38.4257 31.1492C37.9972 30.4026 37.3812 29.7807 36.6387 29.345ZM37.3242 34.1497C37.3243 34.7795 37.137 35.3951 36.7861 35.9182C36.4352 36.4412 35.9366 36.848 35.3538 37.0868C34.771 37.3255 34.1303 37.3855 33.5133 37.2589C32.8963 37.1324 32.3309 36.8251 31.8891 36.3762L30.627 35.0872C30.5451 35.0041 30.4475 34.9381 30.3398 34.893C30.2322 34.8479 30.1167 34.8247 30 34.8247C29.8833 34.8247 29.7678 34.8479 29.6602 34.893C29.5525 34.9381 29.4549 35.0041 29.373 35.0872L28.1109 36.3762C27.6691 36.8251 27.1037 37.1324 26.4867 37.2589C25.8697 37.3855 25.229 37.3255 24.6462 37.0868C24.0634 36.848 23.5648 36.4412 23.2139 35.9182C22.863 35.3951 22.6757 34.7795 22.6758 34.1497V33.6012C22.6766 33.0472 22.8222 32.5029 23.098 32.0223C23.3739 31.5418 23.7704 31.1416 24.2484 30.8614L30 27.5028L35.7516 30.8626C36.2296 31.1428 36.6261 31.543 36.902 32.0235C37.1778 32.5041 37.3234 33.0483 37.3242 33.6024V34.1497Z" fill="#E25E52"/>
<path d="M26.7773 19.4531C26.7773 21.0023 28.0008 23.8477 30 23.8477C31.9992 23.8477 33.2227 21.0023 33.2227 19.4531C33.2227 18.5984 32.8831 17.7787 32.2788 17.1744C31.6744 16.57 30.8547 16.2305 30 16.2305C29.1453 16.2305 28.3256 16.57 27.7212 17.1744C27.1169 17.7787 26.7773 18.5984 26.7773 19.4531ZM30 17.9883C30.3883 17.9889 30.7605 18.1434 31.0351 18.418C31.3097 18.6926 31.4642 19.0648 31.4648 19.4531C31.4648 20.4879 30.5754 22.0898 30 22.0898C29.4246 22.0898 28.5352 20.4879 28.5352 19.4531C28.5358 19.0648 28.6903 18.6926 28.9649 18.418C29.2395 18.1434 29.6117 17.9889 30 17.9883Z" fill="#E25E52"/>
<path d="M37.0312 27.3633C38.7973 27.3633 41.4258 24.7348 41.4258 22.9688C41.4258 22.114 41.0862 21.2944 40.4819 20.69C39.8775 20.0856 39.0578 19.7461 38.2031 19.7461C37.3484 19.7461 36.5287 20.0856 35.9244 20.69C35.32 21.2944 34.9805 22.114 34.9805 22.9688C34.9805 23.066 34.9805 23.168 34.9805 23.2746C34.9723 24.5016 34.9617 26.0285 35.7762 26.8488C35.94 27.0146 36.1356 27.1456 36.3513 27.234C36.5669 27.3224 36.7982 27.3664 37.0312 27.3633ZM36.7371 23.2875C36.7371 23.1762 36.7371 23.0695 36.7371 22.9688C36.7371 22.5802 36.8914 22.2077 37.1661 21.9329C37.4409 21.6582 37.8134 21.5039 38.2019 21.5039C38.5904 21.5039 38.963 21.6582 39.2377 21.9329C39.5125 22.2077 39.6668 22.5802 39.6668 22.9688C39.6668 23.782 37.8434 25.6055 37.0301 25.6055H37.0148C36.723 25.3348 36.7336 23.7961 36.7371 23.2875Z" fill="#E25E52"/>
<path d="M24.225 26.8488C25.0394 26.0285 25.0289 24.5051 25.0207 23.2746C25.0207 23.168 25.0207 23.066 25.0207 22.9688C25.0207 22.114 24.6812 21.2944 24.0768 20.69C23.4724 20.0856 22.6527 19.7461 21.798 19.7461C20.9433 19.7461 20.1236 20.0856 19.5193 20.69C18.9149 21.2944 18.5754 22.114 18.5754 22.9688C18.5754 24.7348 21.2039 27.3633 22.9699 27.3633C23.203 27.3664 23.4342 27.3224 23.6499 27.234C23.8656 27.1456 24.0612 27.0146 24.225 26.8488ZM20.332 22.9688C20.332 22.5802 20.4864 22.2077 20.7611 21.9329C21.0358 21.6582 21.4084 21.5039 21.7969 21.5039C22.1854 21.5039 22.558 21.6582 22.8327 21.9329C23.1074 22.2077 23.2617 22.5802 23.2617 22.9688C23.2617 23.0695 23.2617 23.1762 23.2617 23.2875C23.2617 23.7961 23.2758 25.3348 22.9828 25.6055H22.9687C22.1555 25.6055 20.332 23.782 20.332 22.9688Z" fill="#E25E52"/>
</svg>
