<svg width="60" height="60" viewBox="0 0 60 60" fill="none" xmlns="http://www.w3.org/2000/svg">
<g clip-path="url(#clip0_371_4752)">
<path d="M25.5785 43.136L20.0707 39.9192C19.9364 39.8404 19.7835 39.7988 19.6277 39.7988C19.472 39.7988 19.3191 39.8404 19.1848 39.9192L13.6769 43.136C13.0014 43.5311 12.4406 44.0956 12.0501 44.7739C11.6596 45.4521 11.4529 46.2205 11.4504 47.0032V47.4907C11.45 48.3801 11.7144 49.2496 12.2099 49.9883C12.7053 50.7269 13.4095 51.3014 14.2326 51.6385C15.0557 51.9756 15.9605 52.06 16.8318 51.8811C17.7031 51.7021 18.5014 51.2679 19.125 50.6336L19.6207 50.1297L20.1164 50.6336C20.74 51.2679 21.5383 51.7021 22.4096 51.8811C23.2808 52.06 24.1857 51.9756 25.0088 51.6385C25.8319 51.3014 26.536 50.7269 27.0315 49.9883C27.527 49.2496 27.7914 48.3801 27.791 47.4907V47.0043C27.7902 46.2229 27.5857 45.4551 27.1977 44.7768C26.8097 44.0984 26.2516 43.5329 25.5785 43.136ZM26.0414 47.4918C26.0413 48.0322 25.8804 48.5604 25.5792 49.009C25.278 49.4577 24.8502 49.8067 24.3501 50.0115C23.85 50.2163 23.3004 50.2677 22.771 50.1592C22.2416 50.0506 21.7565 49.7871 21.3773 49.402L20.2558 48.2618C20.174 48.1786 20.0764 48.1126 19.9687 48.0676C19.8611 48.0225 19.7456 47.9993 19.6289 47.9993C19.5122 47.9993 19.3967 48.0225 19.2891 48.0676C19.1814 48.1126 19.0838 48.1786 19.0019 48.2618L17.8805 49.402C17.5013 49.7871 17.0162 50.0506 16.4868 50.1592C15.9574 50.2677 15.4077 50.2163 14.9077 50.0115C14.4076 49.8067 13.9797 49.4577 13.6786 49.009C13.3774 48.5604 13.2165 48.0322 13.2164 47.4918V47.0043C13.2166 46.5282 13.3411 46.0605 13.5777 45.6473C13.8143 45.2342 14.1547 44.89 14.5652 44.6489L19.6289 41.6957L24.6926 44.6489C25.1024 44.8896 25.4424 45.233 25.6789 45.6453C25.9155 46.0575 26.0404 46.5243 26.0414 46.9996V47.4918Z" fill="#E25E52"/>
<path d="M19.6289 38.4305C21.4664 38.4305 22.5914 35.8383 22.5914 34.4273C22.5914 33.6416 22.2793 32.8881 21.7237 32.3325C21.1681 31.777 20.4146 31.4648 19.6289 31.4648C18.8432 31.4648 18.0897 31.777 17.5341 32.3325C16.9785 32.8881 16.6664 33.6416 16.6664 34.4273C16.6664 35.8383 17.7914 38.4305 19.6289 38.4305ZM19.6289 33.2227C19.9483 33.223 20.2546 33.35 20.4804 33.5758C20.7063 33.8017 20.8333 34.1079 20.8336 34.4273C20.8336 35.3531 20.0543 36.6727 19.6289 36.6727C19.2035 36.6727 18.4242 35.3531 18.4242 34.4273C18.4245 34.1079 18.5516 33.8017 18.7774 33.5758C19.0033 33.35 19.3095 33.223 19.6289 33.2227Z" fill="#E25E52"/>
<path d="M26.9203 34.5898C26.1351 34.5908 25.3823 34.903 24.8269 35.4581C24.2716 36.0133 23.959 36.766 23.9578 37.5512C23.9578 37.6379 23.9578 37.7281 23.9578 37.823C23.9508 38.9316 23.9414 40.3109 24.6937 41.0691C24.8484 41.226 25.0332 41.3499 25.237 41.4335C25.4408 41.5171 25.6594 41.5585 25.8797 41.5555C27.5203 41.5555 29.884 39.1977 29.884 37.5512C29.8827 36.7658 29.57 36.0129 29.0144 35.4577C28.4588 34.9026 27.7057 34.5905 26.9203 34.5898ZM27.2519 38.9258C26.6824 39.4941 26.1492 39.7672 25.9125 39.7965C25.7039 39.4789 25.7121 38.2941 25.7144 37.8359C25.7144 37.7375 25.7144 37.6426 25.7144 37.5523C25.7144 37.2328 25.8414 36.9264 26.0673 36.7005C26.2932 36.4746 26.5996 36.3477 26.9191 36.3477C27.2386 36.3477 27.5451 36.4746 27.771 36.7005C27.9969 36.9264 28.1238 37.2328 28.1238 37.5523C28.125 37.7586 27.8543 38.3199 27.2519 38.9246V38.9258Z" fill="#E25E52"/>
<path d="M14.5652 41.0703C15.3176 40.3121 15.3082 38.9328 15.3012 37.8242C15.3012 37.7293 15.3012 37.6391 15.3012 37.5523C15.3012 36.7666 14.989 36.0131 14.4335 35.4575C13.8779 34.902 13.1244 34.5898 12.3387 34.5898C11.553 34.5898 10.7994 34.902 10.2439 35.4575C9.68828 36.0131 9.37616 36.7666 9.37616 37.5523C9.37616 39.1988 11.734 41.5566 13.3805 41.5566C13.6005 41.5596 13.8189 41.518 14.0225 41.4344C14.2261 41.3508 14.4107 41.227 14.5652 41.0703ZM12.0058 38.9258C11.4035 38.3211 11.1328 37.7598 11.1328 37.5523C11.1328 37.2328 11.2597 36.9264 11.4856 36.7005C11.7116 36.4746 12.018 36.3477 12.3375 36.3477C12.657 36.3477 12.9634 36.4746 13.1893 36.7005C13.4153 36.9264 13.5422 37.2328 13.5422 37.5523C13.5422 37.6426 13.5422 37.7375 13.5422 37.8359C13.5422 38.2941 13.5527 39.4766 13.3441 39.7965C13.1156 39.7707 12.5789 39.493 12.0058 38.9258Z" fill="#E25E52"/>
<path d="M46.2305 32.4609C43.7779 32.4581 41.3697 33.1146 39.2578 34.3617V24.3164C39.2578 24.1801 39.2261 24.0457 39.1652 23.9238L35.7422 17.0777V12.5977C35.7422 12.3646 35.6496 12.141 35.4848 11.9762C35.3199 11.8113 35.0964 11.7188 34.8633 11.7188H33.3984V8.78906H36.0352C36.2683 8.78906 36.4918 8.69646 36.6566 8.53164C36.8215 8.36681 36.9141 8.14326 36.9141 7.91016V3.22266C36.9128 2.36834 36.5729 1.54936 35.9688 0.945264C35.3647 0.341167 34.5457 0.00123995 33.6914 0L5.56641 0C4.71209 0.00123995 3.89311 0.341167 3.28901 0.945264C2.68492 1.54936 2.34499 2.36834 2.34375 3.22266V7.91016C2.34375 8.14326 2.43635 8.36681 2.60118 8.53164C2.766 8.69646 2.98956 8.78906 3.22266 8.78906H5.85938V11.7188H4.39453C4.16143 11.7188 3.93788 11.8113 3.77305 11.9762C3.60822 12.141 3.51562 12.3646 3.51562 12.5977V17.0777L0.0925781 23.9238C0.0317031 24.0457 9.21996e-06 24.1801 0 24.3164L0 56.7773C0.00123995 57.6317 0.341167 58.4506 0.945264 59.0547C1.54936 59.6588 2.36834 59.9988 3.22266 60H36.0352C36.6809 59.9993 37.3116 59.8048 37.8456 59.4417C38.3796 59.0786 38.7924 58.5636 39.0305 57.9633C40.8438 59.0764 42.8904 59.7541 45.0096 59.9432C47.1289 60.1323 49.2631 59.8276 51.2449 59.0532C53.2266 58.2787 55.0019 57.0555 56.4314 55.4796C57.8608 53.9037 58.9056 52.0179 59.4837 49.9702C60.0618 47.9226 60.1575 45.7688 59.7633 43.678C59.369 41.5872 58.4955 39.6162 57.2114 37.9197C55.9273 36.2232 54.2675 34.8474 52.3622 33.9003C50.457 32.9532 48.3581 32.4605 46.2305 32.4609ZM4.10156 3.22266C4.10218 2.83435 4.25671 2.46212 4.53129 2.18754C4.80587 1.91296 5.1781 1.75843 5.56641 1.75781H7.03125V3.80859C7.03125 4.04169 7.12385 4.26525 7.28868 4.43007C7.4535 4.5949 7.67706 4.6875 7.91016 4.6875C8.14326 4.6875 8.36681 4.5949 8.53164 4.43007C8.69646 4.26525 8.78906 4.04169 8.78906 3.80859V1.75781H11.7188V3.80859C11.7188 4.04169 11.8113 4.26525 11.9762 4.43007C12.141 4.5949 12.3646 4.6875 12.5977 4.6875C12.8308 4.6875 13.0543 4.5949 13.2191 4.43007C13.384 4.26525 13.4766 4.04169 13.4766 3.80859V1.75781H16.4062V3.80859C16.4062 4.04169 16.4988 4.26525 16.6637 4.43007C16.8285 4.5949 17.0521 4.6875 17.2852 4.6875C17.5183 4.6875 17.7418 4.5949 17.9066 4.43007C18.0715 4.26525 18.1641 4.04169 18.1641 3.80859V1.75781H21.0938V3.80859C21.0938 4.04169 21.1863 4.26525 21.3512 4.43007C21.516 4.5949 21.7396 4.6875 21.9727 4.6875C22.2058 4.6875 22.4293 4.5949 22.5941 4.43007C22.759 4.26525 22.8516 4.04169 22.8516 3.80859V1.75781H25.7812V3.80859C25.7812 4.04169 25.8738 4.26525 26.0387 4.43007C26.2035 4.5949 26.4271 4.6875 26.6602 4.6875C26.8933 4.6875 27.1168 4.5949 27.2816 4.43007C27.4465 4.26525 27.5391 4.04169 27.5391 3.80859V1.75781H30.4688V3.80859C30.4688 4.04169 30.5613 4.26525 30.7262 4.43007C30.891 4.5949 31.1146 4.6875 31.3477 4.6875C31.5808 4.6875 31.8043 4.5949 31.9691 4.43007C32.134 4.26525 32.2266 4.04169 32.2266 3.80859V1.75781H33.6914C34.0797 1.75843 34.4519 1.91296 34.7265 2.18754C35.0011 2.46212 35.1556 2.83435 35.1562 3.22266V7.03125H4.10156V3.22266ZM7.61719 8.78906H31.6406V11.7188H7.61719V8.78906ZM33.9844 13.4766V16.4062H5.27344V13.4766H33.9844ZM4.93828 18.1641H34.3195L36.9562 23.4375H2.30156L4.93828 18.1641ZM36.0352 58.2422H3.22266C2.83435 58.2416 2.46212 58.087 2.18754 57.8125C1.91296 57.5379 1.75843 57.1657 1.75781 56.7773V25.1953H37.5V35.591C35.9256 36.8809 34.6571 38.5042 33.7861 40.3438C32.9151 42.1834 32.4633 44.1934 32.4633 46.2287C32.4633 48.2641 32.9151 50.274 33.7861 52.1136C34.6571 53.9532 35.9256 55.5765 37.5 56.8664C37.477 57.2392 37.3126 57.5891 37.0404 57.8448C36.7682 58.1005 36.4086 58.2426 36.0352 58.2422ZM46.2305 58.2422C43.8548 58.2422 41.5324 57.5377 39.5571 56.2178C37.5818 54.898 36.0422 53.022 35.1331 50.8272C34.2239 48.6323 33.9861 46.2171 34.4496 43.8871C34.913 41.5571 36.057 39.4168 37.7369 37.7369C39.4168 36.057 41.5571 34.913 43.8871 34.4496C46.2171 33.9861 48.6323 34.2239 50.8272 35.1331C53.022 36.0422 54.898 37.5818 56.2178 39.5571C57.5377 41.5324 58.2422 43.8548 58.2422 46.2305C58.2388 49.4151 56.9722 52.4684 54.7203 54.7203C52.4684 56.9722 49.4151 58.2388 46.2305 58.2422Z" fill="white"/>
<path d="M46.2305 38.3203C45.2207 38.3216 44.2527 38.7232 43.5388 39.4372C42.8248 40.1512 42.4231 41.1192 42.4219 42.1289V50.332C42.4219 51.3421 42.8231 52.3109 43.5374 53.0251C44.2516 53.7394 45.2204 54.1406 46.2305 54.1406C47.2406 54.1406 48.2093 53.7394 48.9235 53.0251C49.6378 52.3109 50.0391 51.3421 50.0391 50.332V42.1289C50.0378 41.1192 49.6362 40.1512 48.9222 39.4372C48.2082 38.7232 47.2402 38.3216 46.2305 38.3203ZM46.2305 40.0781C46.7742 40.0787 47.2954 40.295 47.6799 40.6795C48.0644 41.0639 48.2806 41.5852 48.2812 42.1289V45.3516H44.1797V42.1289C44.1803 41.5852 44.3966 41.0639 44.781 40.6795C45.1655 40.295 45.6868 40.0787 46.2305 40.0781ZM46.2305 52.3828C45.6868 52.3822 45.1655 52.1659 44.781 51.7815C44.3966 51.397 44.1803 50.8757 44.1797 50.332V47.1094H48.2812V50.332C48.2806 50.8757 48.0644 51.397 47.6799 51.7815C47.2954 52.1659 46.7742 52.3822 46.2305 52.3828Z" fill="#E25E52"/>
</g>
<defs>
<clipPath id="clip0_371_4752">
<rect width="60" height="60" fill="white"/>
</clipPath>
</defs>
</svg>
