<svg width="50" height="50" viewBox="0 0 50 50" fill="none" xmlns="http://www.w3.org/2000/svg">
<path d="M47.3145 14.0137H35.498V9.86328C35.497 9.15135 35.2137 8.46887 34.7103 7.96545C34.2069 7.46204 33.5244 7.17877 32.8125 7.17773H17.1875C16.4756 7.17877 15.7931 7.46204 15.2897 7.96545C14.7863 8.46887 14.503 9.15135 14.502 9.86328V14.0137H2.68555C1.97361 14.0147 1.29113 14.298 0.78772 14.8014C0.284306 15.3048 0.00103329 15.9873 0 16.6992L0 40.1367C0.00103329 40.8487 0.284306 41.5311 0.78772 42.0345C1.29113 42.538 1.97361 42.8212 2.68555 42.8223H47.3145C48.0264 42.8212 48.7089 42.538 49.2123 42.0345C49.7157 41.5311 49.999 40.8487 50 40.1367V16.6992C49.999 15.9873 49.7157 15.3048 49.2123 14.8014C48.7089 14.298 48.0264 14.0147 47.3145 14.0137ZM31.1035 14.0137H18.8965V11.5723H31.1035V14.0137ZM42.8223 15.4785V41.3574H7.17773V15.4785H42.8223ZM15.9668 9.86328C15.9673 9.53969 16.0961 9.2295 16.3249 9.00068C16.5537 8.77187 16.8639 8.64309 17.1875 8.64258H32.8125C33.1361 8.64309 33.4463 8.77187 33.6751 9.00068C33.9039 9.2295 34.0327 9.53969 34.0332 9.86328V14.0137H32.5684V10.8398C32.5684 10.6456 32.4912 10.4593 32.3538 10.3219C32.2165 10.1846 32.0302 10.1074 31.8359 10.1074H18.1641C17.9698 10.1074 17.7835 10.1846 17.6462 10.3219C17.5088 10.4593 17.4316 10.6456 17.4316 10.8398V14.0137H15.9668V9.86328ZM1.46484 40.1367V16.6992C1.46536 16.3756 1.59414 16.0654 1.82295 15.8366C2.05176 15.6078 2.36195 15.479 2.68555 15.4785H5.71289V41.3574H2.68555C2.36195 41.3569 2.05176 41.2281 1.82295 40.9993C1.59414 40.7705 1.46536 40.4603 1.46484 40.1367ZM48.5352 40.1367C48.5346 40.4603 48.4059 40.7705 48.1771 40.9993C47.9482 41.2281 47.638 41.3569 47.3145 41.3574H44.2871V15.4785H47.3145C47.638 15.479 47.9482 15.6078 48.1771 15.8366C48.4059 16.0654 48.5346 16.3756 48.5352 16.6992V40.1367Z" fill="#3A1916"/>
<path d="M29.958 29.5986L25.3682 26.9179C25.2562 26.8523 25.1288 26.8176 24.999 26.8176C24.8692 26.8176 24.7418 26.8523 24.6299 26.9179L20.04 29.5986C19.478 29.9284 19.0116 30.3992 18.6871 30.9643C18.3626 31.5295 18.191 32.1695 18.1895 32.8212V33.2275C18.1891 33.9687 18.4095 34.6932 18.8224 35.3088C19.2353 35.9244 19.822 36.4031 20.508 36.684C21.1939 36.9649 21.9479 37.0353 22.674 36.8862C23.4 36.737 24.0653 36.3752 24.585 35.8466L24.998 35.4267L25.4111 35.8466C25.9308 36.3752 26.5961 36.737 27.3221 36.8862C28.0482 37.0353 28.8022 36.9649 29.4881 36.684C30.1741 36.4031 30.7608 35.9244 31.1737 35.3088C31.5866 34.6932 31.807 33.9687 31.8066 33.2275V32.8222C31.8054 32.1705 31.6343 31.5304 31.3101 30.9651C30.9859 30.3998 30.5199 29.9288 29.958 29.5986ZM30.3486 33.2285C30.3485 33.6788 30.2145 34.1189 29.9635 34.4928C29.7125 34.8667 29.356 35.1575 28.9392 35.3282C28.5225 35.4988 28.0644 35.5417 27.6233 35.4512C27.1821 35.3608 26.7779 35.1411 26.4619 34.8203L25.5273 33.8701C25.4591 33.8008 25.3778 33.7458 25.2881 33.7082C25.1984 33.6707 25.1021 33.6514 25.0049 33.6514C24.9076 33.6514 24.8114 33.6707 24.7217 33.7082C24.632 33.7458 24.5507 33.8008 24.4824 33.8701L23.5479 34.8203C23.2319 35.1411 22.8276 35.3608 22.3865 35.4512C21.9453 35.5417 21.4873 35.4988 21.0705 35.3282C20.6538 35.1575 20.2973 34.8667 20.0463 34.4928C19.7953 34.1189 19.6612 33.6788 19.6611 33.2285V32.8222C19.6608 32.4259 19.7638 32.0364 19.9601 31.6922C20.1564 31.3479 20.4391 31.0609 20.7803 30.8593L25 28.3984L29.2197 30.8593C29.5613 31.0599 29.8446 31.3461 30.0417 31.6897C30.2388 32.0332 30.3429 32.4222 30.3438 32.8183L30.3486 33.2285Z" fill="#E25E52"/>
<path d="M25 25.6777C26.5312 25.6777 27.4688 23.5176 27.4688 22.3418C27.4688 21.687 27.2087 21.0591 26.7457 20.5961C26.2827 20.1331 25.6548 19.873 25 19.873C24.3452 19.873 23.7173 20.1331 23.2543 20.5961C22.7913 21.0591 22.5312 21.687 22.5312 22.3418C22.5313 23.5176 23.4687 25.6777 25 25.6777ZM25 21.3379C25.2662 21.3381 25.5214 21.444 25.7096 21.6322C25.8978 21.8204 26.0036 22.0756 26.0039 22.3418C26.0039 23.1133 25.3545 24.2129 25 24.2129C24.6455 24.2129 23.9961 23.1133 23.9961 22.3418C23.9964 22.0756 24.1022 21.8204 24.2904 21.6322C24.4786 21.444 24.7338 21.3381 25 21.3379Z" fill="#E25E52"/>
<path d="M30.208 28.2822C31.5801 28.2822 33.5449 26.3174 33.5449 24.9453C33.5449 24.2906 33.2848 23.6626 32.8219 23.1996C32.3589 22.7367 31.7309 22.4766 31.0762 22.4766C30.4214 22.4766 29.7935 22.7367 29.3305 23.1996C28.8675 23.6626 28.6074 24.2906 28.6074 24.9453C28.6074 25.0176 28.6074 25.0928 28.6074 25.1719C28.6016 26.0957 28.5938 27.2451 29.2207 27.877C29.3495 28.0075 29.5033 28.1107 29.673 28.1804C29.8427 28.25 30.0246 28.2847 30.208 28.2822ZM30.0713 25.1816C30.0713 25.0996 30.0713 25.0205 30.0713 24.9453C30.0713 24.6791 30.1771 24.4237 30.3653 24.2354C30.5536 24.0472 30.809 23.9414 31.0752 23.9414C31.3415 23.9414 31.5968 24.0472 31.7851 24.2354C31.9734 24.4237 32.0791 24.6791 32.0791 24.9453C32.0791 25.1182 31.8535 25.5869 31.3516 26.0898C30.877 26.5635 30.4326 26.791 30.2354 26.8154C30.0625 26.5508 30.0694 25.5635 30.0713 25.1816Z" fill="#E25E52"/>
<path d="M19.792 28.2822C19.9755 28.2848 20.1577 28.2502 20.3275 28.1806C20.4974 28.1109 20.6514 28.0076 20.7803 27.877C21.4072 27.2451 21.3994 26.0957 21.3936 25.1719C21.3936 25.0928 21.3936 25.0176 21.3936 24.9453C21.3936 24.2906 21.1335 23.6626 20.6705 23.1996C20.2075 22.7367 19.5796 22.4766 18.9248 22.4766C18.2701 22.4766 17.6421 22.7367 17.1791 23.1996C16.7162 23.6626 16.4561 24.2906 16.4561 24.9453C16.4551 26.3174 18.4199 28.2822 19.792 28.2822ZM18.9238 23.9424C19.1898 23.9426 19.4449 24.0484 19.6331 24.2364C19.8213 24.4244 19.9272 24.6793 19.9277 24.9453C19.9277 25.0205 19.9277 25.0996 19.9277 25.1816C19.9277 25.5635 19.9365 26.5488 19.7627 26.8154C19.5674 26.7939 19.124 26.5664 18.6465 26.0898C18.1445 25.5869 17.9189 25.1133 17.9189 24.9453C17.9195 24.6791 18.0256 24.424 18.214 24.236C18.4024 24.048 18.6577 23.9424 18.9238 23.9424Z" fill="#E25E52"/>
</svg>
