<svg width="40" height="40" viewBox="0 0 40 40" fill="none" xmlns="http://www.w3.org/2000/svg">
<g clip-path="url(#clip0_353_6777)">
<path d="M29.8929 11.2261C29.9479 11.2899 30.0162 11.3412 30.093 11.3764C30.1699 11.4115 30.2536 11.4297 30.3383 11.4297C30.411 11.4297 30.4831 11.416 30.5508 11.3894C31.3637 11.0764 32.2077 10.8493 33.0687 10.712L33.825 10.5912C34.7244 10.4476 35.5363 9.97365 36.099 9.26361C36.6617 8.55357 36.934 7.65954 36.8616 6.75953C36.7892 5.85951 36.3774 5.01953 35.7083 4.40682C35.0392 3.79411 34.1618 3.45362 33.2508 3.45313H31.8828C31.0231 3.45208 30.191 3.75395 29.5351 4.30483C28.6077 5.08369 27.8615 6.05229 27.3476 7.14409L26.9093 8.07322C26.8496 8.19975 26.8379 8.34337 26.8764 8.47777C26.9148 8.61216 27.0009 8.7283 27.1187 8.80491C28.1547 9.47564 29.0884 10.2899 29.8914 11.223L29.8929 11.2261ZM28.4086 7.63963C28.8513 6.69934 29.4938 5.86498 30.2922 5.1937C30.7363 4.81981 31.3001 4.61454 31.8828 4.61454H33.2508C33.8673 4.61445 34.4613 4.84452 34.9143 5.25894C35.3674 5.67336 35.6464 6.24171 35.6956 6.8508C35.7449 7.45989 35.5609 8.06502 35.1802 8.54567C34.7995 9.02633 34.2501 9.34723 33.6414 9.44446L32.8843 9.56525C32.0773 9.69363 31.2836 9.89448 30.5133 10.1653C30.1929 9.81457 29.8539 9.47931 29.5039 9.16573C29.0857 8.79155 28.6453 8.4425 28.1851 8.12045L28.4086 7.63963Z" fill="#E25E52"/>
<path d="M13.089 8.07713L12.6507 7.148C12.1369 6.0562 11.3906 5.08759 10.4632 4.30873C9.80831 3.75884 8.9778 3.45704 8.11946 3.45703H6.74914C5.84115 3.46142 4.9679 3.80343 4.30218 4.4154C3.63645 5.02737 3.22677 5.8647 3.15418 6.76172C3.0816 7.65874 3.3514 8.55008 3.91021 9.25937C4.46902 9.96866 5.27612 10.4442 6.1718 10.592L6.92805 10.7128C7.79149 10.8496 8.63788 11.0767 9.45305 11.3902C9.52069 11.4168 9.59279 11.4305 9.66555 11.4305C9.75022 11.4305 9.83389 11.4123 9.91077 11.3772C9.98765 11.342 10.0559 11.2907 10.1109 11.2269C10.9139 10.2938 11.8476 9.47954 12.8835 8.80882C13.0007 8.73163 13.086 8.61522 13.1237 8.48088C13.1614 8.34653 13.1491 8.20322 13.089 8.07713ZM10.4976 9.16653C10.1444 9.48267 9.80746 9.81629 9.48821 10.1661C8.71783 9.89529 7.9242 9.69444 7.11711 9.56606L6.36008 9.44527C5.75139 9.34803 5.20199 9.02713 4.8213 8.54648C4.44061 8.06583 4.25657 7.4607 4.30583 6.85161C4.35509 6.24252 4.63404 5.67416 5.08712 5.25974C5.5402 4.84533 6.13416 4.61525 6.75071 4.61535H8.11711C8.69931 4.61572 9.26245 4.82096 9.70617 5.1945C10.5045 5.86579 11.1471 6.70015 11.5898 7.64044L11.8163 8.12126C11.3563 8.4435 10.9159 8.79254 10.4976 9.16653Z" fill="#E25E52"/>
<path d="M33.9539 23.3723C33.4397 23.1973 32.9867 22.8803 32.6483 22.4586C32.3099 22.0369 32.1001 21.5281 32.0438 20.9922L31.775 18.4007C31.6428 17.1186 31.2984 15.8669 30.7555 14.6958C31.6345 14.2368 32.5831 13.9229 33.5641 13.7667L34.3203 13.6459C35.9921 13.3753 37.5001 12.4915 38.5449 11.1701C39.5898 9.84863 40.095 8.18612 39.9603 6.51261C39.8256 4.8391 39.0609 3.27697 37.818 2.13635C36.575 0.995736 34.9448 0.360039 33.2508 0.355469L31.8828 0.355469C30.28 0.355533 28.7293 0.92031 27.5078 1.94893C26.2392 3.01497 25.2187 4.34073 24.5164 5.83501L23.336 8.34056C21.1579 7.70771 18.8422 7.70771 16.6641 8.34056L15.4813 5.83501C14.779 4.34073 13.7585 3.01497 12.4899 1.94893C11.269 0.920827 9.71929 0.356084 8.11722 0.355469L6.74925 0.355469C5.05275 0.356289 3.41879 0.990274 2.17267 2.1312C0.926541 3.27213 0.159664 4.83632 0.0247132 6.51234C-0.110238 8.18836 0.396636 9.85329 1.44442 11.1756C2.49221 12.498 4.00404 13.3808 5.67894 13.6482L6.43597 13.769C7.41822 13.925 8.3682 14.2389 9.24847 14.6981C8.705 15.869 8.36026 17.1208 8.22816 18.403L7.95941 20.9945C7.90308 21.5305 7.69334 22.0392 7.35491 22.4609C7.01648 22.8826 6.56346 23.1997 6.04925 23.3746C4.08988 24.0382 1.4555 25.723 0.0336278 29.9792C-0.00808509 30.1015 -0.00743967 30.2341 0.0354619 30.356C0.0783634 30.4778 0.161069 30.5821 0.270478 30.6521C0.379888 30.7221 0.509747 30.754 0.639488 30.7426C0.76923 30.7313 0.891436 30.6773 0.986753 30.5893C1.02425 30.5553 1.718 29.9475 3.08753 29.6788C2.65394 30.3625 2.318 31.3822 2.45394 32.8634C2.46574 32.9879 2.51777 33.1054 2.60229 33.1983C2.68681 33.2913 2.79931 33.3547 2.9231 33.3792C3.04689 33.4038 3.17536 33.388 3.28943 33.3344C3.4035 33.2809 3.49708 33.1922 3.55628 33.0817C3.74949 32.7718 4.00424 32.504 4.30507 32.2946C4.60591 32.0853 4.94654 31.9387 5.30628 31.8638C6.65915 34.3249 8.65619 36.3792 11.0874 37.8107C13.5186 39.2421 16.294 39.9978 19.1219 39.9983H20.8782C23.7069 39.9983 26.4834 39.2426 28.9153 37.8106C31.3473 36.3787 33.3448 34.3236 34.6977 31.8615C35.0573 31.9369 35.3979 32.0837 35.6987 32.293C35.9996 32.5023 36.2547 32.7698 36.4485 33.0794C36.5075 33.1901 36.601 33.2789 36.715 33.3326C36.8291 33.3863 36.9576 33.4021 37.0815 33.3775C37.2053 33.353 37.3178 33.2895 37.4022 33.1964C37.4867 33.1033 37.5385 32.9857 37.55 32.8611C37.686 31.3799 37.35 30.3602 36.9172 29.6765C38.2852 29.9451 38.9789 30.5522 39.0149 30.5839C39.1101 30.6716 39.232 30.7255 39.3615 30.737C39.491 30.7485 39.6206 30.717 39.7301 30.6475C39.8395 30.578 39.9225 30.4744 39.966 30.353C40.0095 30.2315 40.011 30.0993 39.9703 29.9769C38.5477 25.7207 35.9133 24.0359 33.9539 23.3723ZM25.5797 6.32667C26.2114 4.98341 27.129 3.79161 28.2696 2.83315C29.2784 1.98364 30.559 1.51713 31.8828 1.51688H33.2508C34.6527 1.5177 36.0028 2.04168 37.0324 2.9845C38.0621 3.92733 38.6957 5.21985 38.8072 6.60477C38.9187 7.9897 38.4999 9.36545 37.6341 10.4582C36.7684 11.5509 35.5192 12.2804 34.1352 12.5015L33.3782 12.6223C32.273 12.7975 31.204 13.15 30.2133 13.666C28.8937 11.4343 26.867 9.69711 24.4485 8.7246L25.5797 6.32667ZM6.62191 12.6223L5.86488 12.5015C4.48091 12.2804 3.2317 11.5509 2.36595 10.4582C1.50019 9.36545 1.08138 7.9897 1.19288 6.60477C1.30438 5.21985 1.93801 3.92733 2.96765 2.9845C3.99729 2.04168 5.34741 1.5177 6.74925 1.51688H8.11722C9.44103 1.51713 10.7217 1.98364 11.7305 2.83315C12.8709 3.79138 13.7886 4.98292 14.4203 6.3259L15.5516 8.72615C13.1334 9.69926 11.1069 11.4363 9.78675 13.6676C8.79612 13.151 7.72716 12.798 6.62191 12.6223ZM9.39066 18.5192C9.65961 15.9159 10.8934 13.5041 12.8532 11.7505C14.8131 9.9969 17.3596 9.02616 20 9.02616C22.6405 9.02616 25.187 9.9969 27.1468 11.7505C29.1067 13.5041 30.3405 15.9159 30.6094 18.5192L30.8782 21.1107C30.936 21.6708 31.114 22.2122 31.4 22.6987C28.3438 24.6344 25.2438 25.2747 22.9164 25.4311C22.9459 25.1696 22.9193 24.9048 22.8386 24.6541C22.7578 24.4034 22.6246 24.1724 22.4477 23.9762C22.2708 23.7799 22.0541 23.6229 21.8118 23.5152C21.5695 23.4076 21.307 23.3518 21.0414 23.3514H18.961C18.6954 23.3518 18.433 23.4076 18.1906 23.5152C17.9483 23.6229 17.7317 23.7799 17.5547 23.9762C17.3778 24.1724 17.2446 24.4034 17.1638 24.6541C17.0831 24.9048 17.0565 25.1696 17.086 25.4311C14.7586 25.2763 11.6586 24.6352 8.60238 22.6987C8.88849 22.2122 9.06667 21.6708 9.12503 21.1107L9.39066 18.5192ZM20 27.4775C19.8819 27.4787 19.7654 27.4504 19.6612 27.3952C19.557 27.34 19.4685 27.2597 19.4039 27.1616L18.3649 25.6131C18.2936 25.5062 18.2529 25.3823 18.247 25.2544C18.2412 25.1265 18.2703 24.9994 18.3314 24.8866C18.3926 24.7737 18.4834 24.6794 18.5942 24.6136C18.705 24.5478 18.8318 24.513 18.961 24.5128H21.0391C21.1688 24.5126 21.2961 24.5474 21.4074 24.6133C21.5187 24.6793 21.6099 24.774 21.6711 24.8873C21.7323 25.0006 21.7613 25.1283 21.755 25.2567C21.7487 25.385 21.7073 25.5093 21.6352 25.6162L20.5961 27.1647C20.5312 27.2622 20.4426 27.3419 20.3384 27.3966C20.2342 27.4513 20.1179 27.4791 20 27.4775ZM35.3125 28.3927C35.1765 28.3955 35.0456 28.4446 34.9418 28.5317C34.8379 28.6189 34.7675 28.7387 34.7422 28.8712C34.7171 29.0016 34.7389 29.1365 34.8039 29.2525C34.8689 29.3685 34.9728 29.4583 35.0977 29.5061C35.1461 29.5278 36.0313 29.9397 36.3188 31.3086C35.7555 30.9293 35.1024 30.7016 34.4235 30.6482C34.3073 30.638 34.1907 30.6626 34.0886 30.7186C33.9866 30.7746 33.9038 30.8595 33.8508 30.9625C32.6364 33.3369 30.7804 35.3304 28.4899 36.7208C26.1993 38.1112 23.5642 38.8438 20.8782 38.8369H19.1219C16.4358 38.8439 13.8004 38.1114 11.5097 36.721C9.21903 35.3306 7.36297 33.3371 6.14847 30.9625C6.09932 30.8669 6.02438 30.7867 5.93196 30.7308C5.83955 30.6749 5.7333 30.6455 5.62503 30.6459H5.57347C4.89465 30.6996 4.24155 30.9272 3.67816 31.3063C3.96488 29.9374 4.85003 29.5255 4.89222 29.5069C5.01754 29.4587 5.12197 29.3687 5.18756 29.2524C5.25315 29.1361 5.2758 29.0007 5.2516 28.8697C5.2268 28.7382 5.15728 28.6192 5.05464 28.5324C4.95199 28.4456 4.82242 28.3963 4.68753 28.3927C3.68525 28.354 2.68511 28.5119 1.74457 28.8573C3.05863 26.1357 4.96097 24.9704 6.42582 24.4749C6.9623 24.2929 7.45362 23.9999 7.86722 23.6154C11.4422 25.9135 15.0805 26.5337 17.6328 26.6251L18.4289 27.8089C18.6639 28.1587 19.011 28.4198 19.4141 28.5499V29.997C19.4137 30.3563 19.2695 30.7007 19.0132 30.9547C18.7569 31.2087 18.4094 31.3516 18.0469 31.352H17.793C17.4305 31.3516 17.083 31.2087 16.8267 30.9547C16.5704 30.7007 16.4262 30.3563 16.4258 29.997C16.4258 29.843 16.3641 29.6953 16.2542 29.5864C16.1443 29.4775 15.9953 29.4163 15.8399 29.4163C15.6845 29.4163 15.5354 29.4775 15.4256 29.5864C15.3157 29.6953 15.2539 29.843 15.2539 29.997C15.2548 30.6642 15.5225 31.3037 15.9985 31.7755C16.4745 32.2472 17.1199 32.5126 17.793 32.5134H18.0469C18.42 32.5134 18.7885 32.4318 19.1261 32.2744C19.4637 32.117 19.7621 31.8877 20 31.6029C20.2379 31.8877 20.5363 32.117 20.8739 32.2744C21.2116 32.4318 21.5801 32.5134 21.9532 32.5134H22.2071C22.8802 32.5126 23.5256 32.2472 24.0015 31.7755C24.4775 31.3037 24.7453 30.6642 24.7461 29.997C24.7461 29.843 24.6844 29.6953 24.5745 29.5864C24.4646 29.4775 24.3156 29.4163 24.1602 29.4163C24.0048 29.4163 23.8558 29.4775 23.7459 29.5864C23.636 29.6953 23.5743 29.843 23.5743 29.997C23.5738 30.3563 23.4297 30.7007 23.1734 30.9547C22.917 31.2087 22.5695 31.3516 22.2071 31.352H21.9532C21.5907 31.3516 21.2432 31.2087 20.9869 30.9547C20.7306 30.7007 20.5864 30.3563 20.586 29.997V28.5468C20.9891 28.4167 21.3362 28.1556 21.5711 27.8058L22.3672 26.622C24.9211 26.5306 28.5586 25.9104 32.1328 23.6124C32.5466 23.9967 33.0378 24.2896 33.5743 24.4718C35.0391 24.9673 36.9414 26.1326 38.2555 28.8534C37.3146 28.5097 36.3145 28.3531 35.3125 28.3927Z" fill="#3A1916"/>
<path d="M25.0781 22.6929C25.5442 22.6925 25.9911 22.5089 26.3206 22.1822C26.6502 21.8556 26.8355 21.4127 26.8359 20.9508V19.4023C26.8359 18.9402 26.6507 18.4971 26.3211 18.1704C25.9914 17.8437 25.5443 17.6602 25.0781 17.6602C24.6119 17.6602 24.1648 17.8437 23.8352 18.1704C23.5055 18.4971 23.3203 18.9402 23.3203 19.4023V20.9508C23.3207 21.4127 23.5061 21.8556 23.8356 22.1822C24.1652 22.5089 24.6121 22.6925 25.0781 22.6929ZM24.4922 19.4023C24.4922 19.2483 24.5539 19.1006 24.6638 18.9917C24.7737 18.8827 24.9227 18.8216 25.0781 18.8216C25.2335 18.8216 25.3826 18.8827 25.4924 18.9917C25.6023 19.1006 25.6641 19.2483 25.6641 19.4023V20.9508C25.6641 21.1048 25.6023 21.2525 25.4924 21.3614C25.3826 21.4703 25.2335 21.5315 25.0781 21.5315C24.9227 21.5315 24.7737 21.4703 24.6638 21.3614C24.5539 21.2525 24.4922 21.1048 24.4922 20.9508V19.4023Z" fill="#E25E52"/>
<path d="M14.9219 22.6929C15.3879 22.6925 15.8348 22.5089 16.1644 22.1822C16.4939 21.8556 16.6793 21.4127 16.6797 20.9508V19.4023C16.6797 18.9402 16.4945 18.4971 16.1648 18.1704C15.8352 17.8437 15.3881 17.6602 14.9219 17.6602C14.4557 17.6602 14.0086 17.8437 13.6789 18.1704C13.3493 18.4971 13.1641 18.9402 13.1641 19.4023V20.9508C13.1645 21.4127 13.3498 21.8556 13.6794 22.1822C14.0089 22.5089 14.4558 22.6925 14.9219 22.6929ZM14.3359 19.4023C14.3359 19.2483 14.3977 19.1006 14.5076 18.9917C14.6174 18.8827 14.7665 18.8216 14.9219 18.8216C15.0773 18.8216 15.2263 18.8827 15.3362 18.9917C15.4461 19.1006 15.5078 19.2483 15.5078 19.4023V20.9508C15.5078 21.1048 15.4461 21.2525 15.3362 21.3614C15.2263 21.4703 15.0773 21.5315 14.9219 21.5315C14.7665 21.5315 14.6174 21.4703 14.5076 21.3614C14.3977 21.2525 14.3359 21.1048 14.3359 20.9508V19.4023Z" fill="#E25E52"/>
</g>
<defs>
<clipPath id="clip0_353_6777">
<rect width="40" height="40" fill="white"/>
</clipPath>
</defs>
</svg>
