<svg width="24" height="24" viewBox="0 0 24 24" fill="none" xmlns="http://www.w3.org/2000/svg">
<g clip-path="url(#clip0_368_165)">
<path d="M14.5781 6.72656C14.2985 6.72681 14.0304 6.83801 13.8326 7.03575C13.6349 7.23349 13.5237 7.50161 13.5234 7.78125V8.71875C13.5234 8.99847 13.6346 9.26673 13.8323 9.46453C14.0301 9.66232 14.2984 9.77344 14.5781 9.77344C14.8578 9.77344 15.1261 9.66232 15.3239 9.46453C15.5217 9.26673 15.6328 8.99847 15.6328 8.71875V7.78125C15.6326 7.50161 15.5214 7.23349 15.3236 7.03575C15.1259 6.83801 14.8578 6.72681 14.5781 6.72656ZM14.9297 8.71875C14.9297 8.81199 14.8926 8.90141 14.8267 8.96734C14.7608 9.03327 14.6714 9.07031 14.5781 9.07031C14.4849 9.07031 14.3955 9.03327 14.3295 8.96734C14.2636 8.90141 14.2266 8.81199 14.2266 8.71875V7.78125C14.2266 7.68801 14.2636 7.59859 14.3295 7.53266C14.3955 7.46673 14.4849 7.42969 14.5781 7.42969C14.6714 7.42969 14.7608 7.46673 14.8267 7.53266C14.8926 7.59859 14.9297 7.68801 14.9297 7.78125V8.71875Z" fill="#E25E52"/>
<path d="M9.42188 6.72656C9.14223 6.72681 8.87411 6.83801 8.67637 7.03575C8.47863 7.23349 8.36744 7.50161 8.36719 7.78125V8.71875C8.36719 8.99847 8.47831 9.26673 8.6761 9.46453C8.87389 9.66232 9.14215 9.77344 9.42188 9.77344C9.7016 9.77344 9.96986 9.66232 10.1677 9.46453C10.3654 9.26673 10.4766 8.99847 10.4766 8.71875V7.78125C10.4763 7.50161 10.3651 7.23349 10.1674 7.03575C9.96964 6.83801 9.70152 6.72681 9.42188 6.72656ZM9.77344 8.71875C9.77344 8.81199 9.7364 8.90141 9.67047 8.96734C9.60454 9.03327 9.51512 9.07031 9.42188 9.07031C9.32863 9.07031 9.23921 9.03327 9.17328 8.96734C9.10735 8.90141 9.07031 8.81199 9.07031 8.71875V7.78125C9.07031 7.68801 9.10735 7.59859 9.17328 7.53266C9.23921 7.46673 9.32863 7.42969 9.42188 7.42969C9.51512 7.42969 9.60454 7.46673 9.67047 7.53266C9.7364 7.59859 9.77344 7.68801 9.77344 7.78125V8.71875Z" fill="#E25E52"/>
<path d="M23.8121 8.13704C21.743 7.05376 21.5912 5.72673 21.4309 4.32188C21.324 3.38438 21.2129 2.41641 20.4535 1.65001C18.7726 -0.0435863 15.0296 0.34782 14.3804 0.43032C12.8451 -0.14344 11.1542 -0.14344 9.61882 0.43032C8.96961 0.34782 5.22664 -0.0435863 3.54664 1.64907C2.78726 2.41501 2.67617 3.38345 2.56929 4.32094C2.40898 5.72719 2.2571 7.05282 0.188042 8.1361C0.134007 8.16438 0.0882598 8.20624 0.0552938 8.25755C0.0223279 8.30886 0.00327779 8.36787 1.51807e-05 8.42877C-0.00324743 8.48967 0.00938968 8.55037 0.0366849 8.60492C0.0639802 8.65946 0.104995 8.70596 0.155699 8.73985C0.231636 8.79048 1.74945 9.79032 3.38632 9.79032C3.70711 9.79213 4.02664 9.75002 4.33601 9.66516C4.49277 9.62101 4.64575 9.56442 4.79351 9.49594C4.61154 9.88994 4.37361 10.2556 4.0871 10.5816L3.10882 11.6939C2.44358 12.4504 2.0106 13.3826 1.86177 14.379C1.71293 15.3753 1.85457 16.3934 2.26969 17.3112C2.68481 18.2291 3.35581 19.0078 4.20227 19.554C5.04873 20.1001 6.03473 20.3906 7.0421 20.3906H8.73289C9.05611 20.6132 9.40545 20.7951 9.77304 20.9325V21.7734C9.77304 22.364 10.0076 22.9303 10.4252 23.3479C10.8427 23.7654 11.4091 24 11.9996 24C12.5901 24 13.1565 23.7654 13.574 23.3479C13.9916 22.9303 14.2262 22.364 14.2262 21.7734V20.9231C14.5847 20.7872 14.9254 20.6084 15.241 20.3906H16.9571C17.9645 20.3906 18.9505 20.1001 19.7969 19.554C20.6434 19.0078 21.3144 18.2291 21.7295 17.3112C22.1446 16.3934 22.2863 15.3753 22.1374 14.379C21.9886 13.3826 21.5556 12.4504 20.8904 11.6939L19.9121 10.5816C19.6257 10.2559 19.3878 9.89055 19.2057 9.49688C19.3535 9.56536 19.5064 9.62195 19.6632 9.6661C19.9726 9.75095 20.2921 9.79306 20.6129 9.79126C22.2498 9.79126 23.7676 8.79141 23.8435 8.74079C23.8942 8.70689 23.9352 8.66039 23.9625 8.60585C23.9898 8.55131 24.0025 8.49061 23.9992 8.42971C23.9959 8.3688 23.9769 8.3098 23.9439 8.25849C23.9109 8.20718 23.8652 8.16532 23.8112 8.13704H23.8121ZM13.2549 0.832976C13.3277 1.20358 13.3651 1.58028 13.3665 1.95798C13.3726 2.97095 12.8237 3.44954 12.3732 3.67173C12.4852 2.87485 12.2237 2.05829 12.2091 2.01376C12.1848 1.93935 12.1364 1.8752 12.0715 1.83145C12.0065 1.7877 11.9289 1.76687 11.8508 1.77225C11.7727 1.77763 11.6986 1.80892 11.6404 1.86116C11.5821 1.9134 11.5429 1.9836 11.529 2.06063C11.476 2.3536 11.2266 2.50548 10.9791 2.58469C11.1085 2.1061 11.1601 1.49813 11.1329 0.766883C11.8388 0.666312 12.5569 0.68947 13.2549 0.83532V0.832976ZM4.14851 8.98923C3.02351 9.30563 1.74804 8.79798 1.05757 8.44688C2.94382 7.23751 3.11539 5.73844 3.26773 4.40298C3.36992 3.51235 3.45804 2.73938 4.04632 2.14641C5.09492 1.08845 7.2446 0.997508 8.54304 1.05188C6.9896 2.08829 6.8307 2.89219 6.70273 4.17188C6.62257 4.96595 6.5232 5.95313 5.85898 7.38329C5.45773 8.24157 4.88257 8.78204 4.14851 8.98829V8.98923ZM8.27351 18.8428C8.75896 18.994 9.27429 19.0227 9.77351 18.9263V20.1736C9.04648 19.8464 8.5182 19.3758 8.27398 18.8438L8.27351 18.8428ZM10.328 13.5136L11.0026 14.5252C11.1119 14.6892 11.2601 14.8238 11.434 14.9168C11.6078 15.0099 11.802 15.0586 11.9991 15.0586C12.1963 15.0586 12.3905 15.0099 12.5643 14.9168C12.7381 14.8238 12.8863 14.6892 12.9957 14.5252L13.6679 13.5174L13.7898 13.5417L15.8991 13.9781C16.6876 14.1413 17.2585 14.8688 17.2585 15.7059C17.2585 17.1244 16.1485 18.2789 14.784 18.2789C14.3748 18.2765 13.9727 18.1715 13.6145 17.9736C13.2563 17.7757 12.9535 17.4911 12.7337 17.1459L12.2809 16.447C12.249 16.3979 12.2054 16.3575 12.1539 16.3295C12.1024 16.3016 12.0448 16.2869 11.9862 16.2869C11.9277 16.2869 11.87 16.3016 11.8186 16.3295C11.7671 16.3575 11.7235 16.3979 11.6916 16.447L11.2379 17.145C11.018 17.4903 10.7151 17.7749 10.3569 17.9728C9.99858 18.1707 9.5964 18.2756 9.18711 18.278C7.82304 18.278 6.71257 17.1234 6.71257 15.705C6.71257 14.8669 7.28539 14.1403 8.07195 13.9772L10.1813 13.5408C10.2307 13.5311 10.2798 13.5217 10.3285 13.5127L10.328 13.5136ZM10.8873 12.6141C10.9289 12.5345 10.9916 12.468 11.0686 12.4218C11.1456 12.3757 11.2339 12.3517 11.3237 12.3525H12.6746C12.7642 12.3525 12.852 12.3768 12.9289 12.4228C13.0057 12.4688 13.0686 12.5348 13.1109 12.6138C13.1532 12.6927 13.1732 12.7817 13.169 12.8711C13.1647 12.9606 13.1362 13.0472 13.0866 13.1217L12.4107 14.1352C12.3655 14.2029 12.3044 14.2585 12.2326 14.297C12.1608 14.3354 12.0806 14.3555 11.9991 14.3555C11.9177 14.3555 11.8375 14.3354 11.7657 14.297C11.6939 14.2585 11.6327 14.2029 11.5876 14.1352L10.9121 13.1208C10.8617 13.0466 10.8328 12.96 10.8285 12.8704C10.8242 12.7808 10.8447 12.6918 10.8877 12.6131L10.8873 12.6141ZM11.9996 23.2969C11.5957 23.2964 11.2085 23.1357 10.9229 22.8501C10.6373 22.5645 10.4767 22.1773 10.4762 21.7734V18.7003C11.0293 18.4462 11.4985 18.0397 11.829 17.5284L11.9874 17.2838L12.1463 17.5284C12.4813 18.0474 12.9595 18.4582 13.523 18.7111V21.7734C13.5225 22.1773 13.3619 22.5645 13.0763 22.8501C12.7907 23.1357 12.4035 23.2964 11.9996 23.2969ZM14.2262 18.9295C14.718 19.0216 15.2249 18.9921 15.7027 18.8438C15.4604 19.3711 14.9429 19.8375 14.2276 20.1633L14.2262 18.9295ZM20.3621 12.1584C20.9382 12.8133 21.3131 13.6204 21.4421 14.483C21.571 15.3455 21.4484 16.227 21.0891 17.0217C20.7297 17.8164 20.1487 18.4905 19.4158 18.9634C18.683 19.4362 17.8293 19.6876 16.9571 19.6875H15.998C16.291 19.328 16.4789 18.8946 16.5409 18.435C16.9822 18.1295 17.3424 17.7211 17.5903 17.2451C17.8383 16.7691 17.9666 16.2398 17.964 15.7031C17.964 14.5313 17.1559 13.5174 16.0421 13.2867L13.9327 12.8503L13.8732 12.8381C13.8716 12.5215 13.7446 12.2183 13.5201 11.995C13.2956 11.7717 12.9917 11.6464 12.6751 11.6466H11.3241C11.0077 11.6461 10.7039 11.7708 10.4792 11.9935C10.2544 12.2163 10.127 12.5189 10.1246 12.8353L10.0412 12.8522L7.93179 13.2886C6.81851 13.5192 6.00992 14.5355 6.00992 15.705C6.00778 16.2414 6.13628 16.7703 6.38431 17.246C6.63234 17.7216 6.99244 18.1297 7.43351 18.435C7.49553 18.8946 7.68356 19.3282 7.97679 19.6875H7.0421C6.16994 19.6876 5.31625 19.4362 4.58337 18.9634C3.8505 18.4905 3.26954 17.8164 2.91015 17.0217C2.55076 16.227 2.42819 15.3455 2.55713 14.483C2.68606 13.6204 3.06104 12.8133 3.6371 12.1584L4.61539 11.0461C5.18655 10.3948 5.58769 9.61237 5.78304 8.76845C6.07506 8.44415 6.31524 8.07669 6.49507 7.67907C7.20992 6.14251 7.31632 5.08876 7.40164 4.24173C7.5296 2.96907 7.59476 2.32782 9.80726 1.11095C10.0121 1.0316 10.2212 0.963533 10.4335 0.907039C10.4541 1.78454 10.3473 2.46282 10.1241 2.84016C10.0929 2.89308 10.0761 2.95325 10.0754 3.01469C10.0747 3.07613 10.0901 3.13668 10.12 3.19031C10.15 3.24395 10.1935 3.28879 10.2462 3.32037C10.2989 3.35196 10.359 3.36918 10.4204 3.37032C10.7748 3.37735 11.2951 3.29298 11.6898 3.01313C11.7174 3.36376 11.693 3.7486 11.5332 4.03032C11.5027 4.08377 11.4868 4.14428 11.4871 4.2058C11.4874 4.26732 11.5038 4.32769 11.5348 4.38086C11.5657 4.43403 11.6101 4.47814 11.6635 4.50875C11.7168 4.53937 11.7773 4.55543 11.8388 4.55532C11.8524 4.55532 11.866 4.55532 11.8801 4.55298C12.2708 4.49229 12.6442 4.34929 12.9755 4.13344C13.4785 3.80532 14.0766 3.15751 14.0696 1.95188C14.0679 1.64731 14.0458 1.3432 14.0035 1.04157C14.0663 1.0636 14.1291 1.08845 14.191 1.11095C16.4035 2.3297 16.4687 2.96907 16.5966 4.24173C16.6819 5.08876 16.7884 6.14251 17.5032 7.67907C17.683 8.07669 17.9232 8.44415 18.2152 8.76845C18.4106 9.61237 18.8117 10.3948 19.3829 11.0461L20.3621 12.1584ZM19.8507 8.98829C19.1166 8.78204 18.5415 8.24157 18.1416 7.38282C17.4769 5.95313 17.3776 4.96548 17.2965 4.17188C17.1676 2.89266 17.0087 2.08876 15.4552 1.05141C16.7537 0.997039 18.9034 1.08798 19.9519 2.14595C20.5402 2.73891 20.6284 3.51001 20.7305 4.40251C20.8829 5.73798 21.0544 7.23704 22.9407 8.44641C22.2507 8.79704 20.9766 9.3047 19.8507 8.98829Z" fill="white"/>
</g>
<defs>
<clipPath id="clip0_368_165">
<rect width="24" height="24" fill="white"/>
</clipPath>
</defs>
</svg>
