<svg width="50" height="50" viewBox="0 0 50 50" fill="none" xmlns="http://www.w3.org/2000/svg">
<g clip-path="url(#clip0_407_2)">
<path d="M42.5781 31.9336H20.1172C19.9229 31.9336 19.7366 32.0108 19.5993 32.1481C19.4619 32.2855 19.3848 32.4718 19.3848 32.666V45.3613C19.3848 45.5556 19.4619 45.7419 19.5993 45.8792C19.7366 46.0166 19.9229 46.0938 20.1172 46.0938H42.5781C42.7724 46.0938 42.9587 46.0166 43.096 45.8792C43.2334 45.7419 43.3105 45.5556 43.3105 45.3613V32.666C43.3105 32.4718 43.2334 32.2855 43.096 32.1481C42.9587 32.0108 42.7724 31.9336 42.5781 31.9336ZM41.8457 33.3984V41.6992H20.8496V33.3984H41.8457ZM20.8496 44.6289V43.1641H41.8457V44.6289H20.8496Z" fill="#E25E52"/>
<path d="M50 24.7148V21.9238C50 21.8452 49.9875 21.7671 49.9629 21.6924L48.4541 17.168C48.2762 16.6331 47.9343 16.1678 47.4769 15.8382C47.0195 15.5086 46.47 15.3315 45.9062 15.332H29.6387V11.2305H30.3711C30.9267 11.2297 31.4614 11.0187 31.8679 10.64C32.2744 10.2612 32.5225 9.74265 32.5625 9.18848H34.3828C34.3828 9.21094 34.3828 9.23242 34.3828 9.25488C34.3828 11.4209 36.167 13.1836 38.3594 13.1836C40.5518 13.1836 42.335 11.4258 42.335 9.25488C42.3344 8.26563 41.9577 7.3136 41.2812 6.5918C41.9574 5.86985 42.3337 4.91783 42.334 3.92871C42.334 1.7627 40.5508 0 38.3584 0C36.166 0 34.3818 1.7627 34.3818 3.92871C34.3818 3.95117 34.3818 3.97266 34.3818 3.99512H32.5625C32.5225 3.44095 32.2744 2.92241 31.8679 2.54364C31.4614 2.16487 30.9267 1.95391 30.3711 1.95312H19.6289C19.0733 1.95391 18.5386 2.16487 18.1321 2.54364C17.7256 2.92241 17.4774 3.44095 17.4375 3.99512H15.6172C15.6172 3.97266 15.6172 3.9502 15.6172 3.92871C15.6182 1.7627 13.834 0 11.6416 0C9.44922 0 7.66602 1.7627 7.66602 3.92871C7.66629 4.91783 8.04263 5.86985 8.71875 6.5918C8.04263 7.31375 7.66629 8.26576 7.66602 9.25488C7.66602 11.4258 9.44922 13.1836 11.6416 13.1836C13.834 13.1836 15.6182 11.4258 15.6182 9.25488C15.6182 9.2334 15.6182 9.21094 15.6182 9.18848H17.4385C17.4784 9.74248 17.7264 10.2609 18.1327 10.6396C18.539 11.0184 19.0735 11.2294 19.6289 11.2305H20.3613V15.332H4.09375C3.53002 15.3315 2.98046 15.5086 2.5231 15.8382C2.06574 16.1678 1.72382 16.6331 1.5459 17.168L0.0371094 21.6924C0.0125419 21.7671 1.55171e-05 21.8452 0 21.9238L0 24.7148C0.00122381 25.6284 0.263959 26.5226 0.757157 27.2916C1.25035 28.0607 1.9534 28.6725 2.7832 29.0547V48.5352H0.732422C0.538172 48.5352 0.351877 48.6123 0.214521 48.7497C0.0771656 48.887 0 49.0733 0 49.2676C0 49.4618 0.0771656 49.6481 0.214521 49.7855C0.351877 49.9228 0.538172 50 0.732422 50H49.2676C49.4618 50 49.6481 49.9228 49.7855 49.7855C49.9228 49.6481 50 49.4618 50 49.2676C50 49.0733 49.9228 48.887 49.7855 48.7497C49.6481 48.6123 49.4618 48.5352 49.2676 48.5352H47.2168V29.0547C48.0466 28.6725 48.7496 28.0607 49.2428 27.2916C49.736 26.5226 49.9988 25.6284 50 24.7148ZM45.2227 28.0273C44.3449 28.025 43.5038 27.6753 42.8833 27.0545C42.2627 26.4338 41.9132 25.5926 41.9111 24.7148V22.6562H48.5352V24.7148C48.5331 25.5927 48.1834 26.4341 47.5627 27.0549C46.9419 27.6756 46.1006 28.0253 45.2227 28.0273ZM9.55371 22.6562H16.1787V24.7148C16.1787 25.1498 16.093 25.5806 15.9266 25.9825C15.7601 26.3844 15.5161 26.7495 15.2085 27.0571C14.9009 27.3647 14.5357 27.6087 14.1339 27.7752C13.732 27.9417 13.3012 28.0273 12.8662 28.0273C12.4312 28.0273 12.0005 27.9417 11.5986 27.7752C11.1967 27.6087 10.8315 27.3647 10.5239 27.0571C10.2163 26.7495 9.97233 26.3844 9.80586 25.9825C9.63939 25.5806 9.55371 25.1498 9.55371 24.7148V22.6562ZM17.6436 22.6562H24.2676V24.7148C24.2751 25.1546 24.195 25.5914 24.032 25.9998C23.8689 26.4083 23.6262 26.7802 23.3179 27.0938C23.0096 27.4074 22.6419 27.6566 22.2363 27.8266C21.8307 27.9966 21.3954 28.0842 20.9556 28.0842C20.5158 28.0842 20.0804 27.9966 19.6748 27.8266C19.2692 27.6566 18.9016 27.4074 18.5933 27.0938C18.285 26.7802 18.0422 26.4083 17.8791 25.9998C17.7161 25.5914 17.636 25.1546 17.6436 24.7148V22.6562ZM25.7324 22.6562H32.3564V24.7148C32.364 25.1546 32.2839 25.5914 32.1209 25.9998C31.9578 26.4083 31.715 26.7802 31.4067 27.0938C31.0985 27.4074 30.7308 27.6566 30.3252 27.8266C29.9196 27.9966 29.4842 28.0842 29.0444 28.0842C28.6046 28.0842 28.1693 27.9966 27.7637 27.8266C27.3581 27.6566 26.9904 27.4074 26.6821 27.0938C26.3738 26.7802 26.1311 26.4083 25.968 25.9998C25.805 25.5914 25.7249 25.1546 25.7324 24.7148V22.6562ZM33.8213 22.6562H40.4463V24.7148C40.4463 25.5934 40.0973 26.4359 39.4761 27.0571C38.8549 27.6783 38.0123 28.0273 37.1338 28.0273C36.2553 28.0273 35.4127 27.6783 34.7915 27.0571C34.1703 26.4359 33.8213 25.5934 33.8213 24.7148V22.6562ZM35.2168 5.45996C35.3288 5.46003 35.4394 5.4344 35.54 5.38504C35.6405 5.33568 35.7284 5.2639 35.7969 5.17524C35.8654 5.08657 35.9126 4.98338 35.935 4.8736C35.9573 4.76381 35.9542 4.65037 35.9258 4.54199C35.8731 4.34183 35.8465 4.13569 35.8467 3.92871C35.8467 2.57031 36.9736 1.46484 38.3584 1.46484C39.7432 1.46484 40.8691 2.57031 40.8691 3.92871C40.8678 4.33675 40.7647 4.738 40.5691 5.0961C40.3735 5.45421 40.0916 5.75784 39.749 5.97949C39.6473 6.04599 39.5637 6.13679 39.5058 6.2437C39.448 6.3506 39.4177 6.47024 39.4177 6.5918C39.4177 6.71335 39.448 6.83299 39.5058 6.9399C39.5637 7.0468 39.6473 7.13761 39.749 7.2041C40.0916 7.42575 40.3735 7.72939 40.5691 8.08749C40.7647 8.44559 40.8678 8.84685 40.8691 9.25488C40.8691 10.6133 39.7461 11.7188 38.3584 11.7188C36.9707 11.7188 35.8467 10.6133 35.8467 9.25488C35.8465 9.0479 35.8731 8.84177 35.9258 8.6416C35.9542 8.53322 35.9573 8.41978 35.935 8.31C35.9126 8.20022 35.8654 8.09702 35.7969 8.00836C35.7284 7.91969 35.6405 7.84792 35.54 7.79856C35.4394 7.7492 35.3288 7.72356 35.2168 7.72363H32.5684V5.45996H35.2168ZM14.7832 7.72363C14.6712 7.72356 14.5606 7.7492 14.46 7.79856C14.3595 7.84792 14.2716 7.91969 14.2031 8.00836C14.1346 8.09702 14.0874 8.20022 14.065 8.31C14.0427 8.41978 14.0458 8.53322 14.0742 8.6416C14.1269 8.84177 14.1535 9.0479 14.1533 9.25488C14.1533 10.6133 13.0264 11.7188 11.6416 11.7188C10.2568 11.7188 9.13086 10.6133 9.13086 9.25488C9.1322 8.84685 9.23534 8.44559 9.43093 8.08749C9.62652 7.72939 9.90839 7.42575 10.251 7.2041C10.3527 7.13761 10.4363 7.0468 10.4942 6.9399C10.552 6.83299 10.5823 6.71335 10.5823 6.5918C10.5823 6.47024 10.552 6.3506 10.4942 6.2437C10.4363 6.13679 10.3527 6.04599 10.251 5.97949C9.90839 5.75784 9.62652 5.45421 9.43093 5.0961C9.23534 4.738 9.1322 4.33675 9.13086 3.92871C9.13086 2.57031 10.2539 1.46484 11.6416 1.46484C13.0293 1.46484 14.1533 2.57031 14.1533 3.92871C14.1535 4.13569 14.1269 4.34183 14.0742 4.54199C14.0458 4.65037 14.0427 4.76381 14.065 4.8736C14.0874 4.98338 14.1346 5.08657 14.2031 5.17524C14.2716 5.2639 14.3595 5.33568 14.46 5.38504C14.5606 5.4344 14.6712 5.46003 14.7832 5.45996H17.4316V7.72363H14.7832ZM18.8965 9.0332V4.15039C18.8965 3.95614 18.9736 3.76985 19.111 3.63249C19.2484 3.49513 19.4347 3.41797 19.6289 3.41797H30.3711C30.5653 3.41797 30.7516 3.49513 30.889 3.63249C31.0264 3.76985 31.1035 3.95614 31.1035 4.15039V9.0332C31.1035 9.22745 31.0264 9.41375 30.889 9.5511C30.7516 9.68846 30.5653 9.76562 30.3711 9.76562H19.6289C19.4347 9.76562 19.2484 9.68846 19.111 9.5511C18.9736 9.41375 18.8965 9.22745 18.8965 9.0332ZM21.8262 11.2305H28.1738V15.332H21.8262V11.2305ZM2.93555 17.6318C3.0164 17.3886 3.17181 17.1771 3.37971 17.0272C3.58762 16.8773 3.83745 16.7967 4.09375 16.7969H45.9062C46.1625 16.7967 46.4124 16.8773 46.6203 17.0272C46.8282 17.1771 46.9836 17.3886 47.0645 17.6318L48.251 21.1914H1.74902L2.93555 17.6318ZM1.46484 24.7148V22.6562H8.08887V24.7148C8.09642 25.1546 8.01633 25.5914 7.85328 25.9998C7.69022 26.4083 7.44747 26.7802 7.13917 27.0938C6.83087 27.4074 6.46321 27.6566 6.05762 27.8266C5.65203 27.9966 5.21665 28.0842 4.77686 28.0842C4.33707 28.0842 3.90168 27.9966 3.49609 27.8266C3.0905 27.6566 2.72284 27.4074 2.41454 27.0938C2.10624 26.7802 1.86349 26.4083 1.70043 25.9998C1.53738 25.5914 1.45729 25.1546 1.46484 24.7148ZM15.4785 48.5352H8.1543V33.3984H15.4785V48.5352ZM45.752 48.5352H16.9434V32.666C16.9434 32.4718 16.8662 32.2855 16.7288 32.1481C16.5915 32.0108 16.4052 31.9336 16.2109 31.9336H7.42188C7.22762 31.9336 7.04133 32.0108 6.90397 32.1481C6.76662 32.2855 6.68945 32.4718 6.68945 32.666V48.5352H4.24805V29.4619C5.14092 29.5631 6.04421 29.4096 6.85349 29.019C7.66277 28.6285 8.34499 28.0169 8.82129 27.2549C9.25102 27.9397 9.84757 28.5042 10.555 28.8954C11.2625 29.2867 12.0577 29.492 12.8662 29.492C13.6747 29.492 14.4699 29.2867 15.1774 28.8954C15.8849 28.5042 16.4814 27.9397 16.9111 27.2549C17.3407 27.9397 17.9372 28.5042 18.6446 28.8955C19.352 29.2868 20.1472 29.4921 20.9556 29.4921C21.764 29.4921 22.5591 29.2868 23.2665 28.8955C23.9739 28.5042 24.5704 27.9397 25 27.2549C25.4296 27.9397 26.0261 28.5042 26.7335 28.8955C27.4409 29.2868 28.236 29.4921 29.0444 29.4921C29.8528 29.4921 30.648 29.2868 31.3554 28.8955C32.0628 28.5042 32.6593 27.9397 33.0889 27.2549C33.5186 27.9397 34.1152 28.5042 34.8226 28.8954C35.5301 29.2867 36.3253 29.492 37.1338 29.492C37.9423 29.492 38.7375 29.2867 39.445 28.8954C40.1524 28.5042 40.749 27.9397 41.1787 27.2549C41.655 28.0169 42.3372 28.6285 43.1465 29.019C43.9558 29.4096 44.8591 29.5631 45.752 29.4619V48.5352Z" fill="#3A1916"/>
<path d="M13.2812 42.6758C13.4755 42.6758 13.6618 42.5986 13.7992 42.4613C13.9365 42.3239 14.0137 42.1376 14.0137 41.9434V39.9902C14.0137 39.796 13.9365 39.6097 13.7992 39.4723C13.6618 39.335 13.4755 39.2578 13.2812 39.2578C13.087 39.2578 12.9007 39.335 12.7633 39.4723C12.626 39.6097 12.5488 39.796 12.5488 39.9902V41.9434C12.5488 42.1376 12.626 42.3239 12.7633 42.4613C12.9007 42.5986 13.087 42.6758 13.2812 42.6758Z" fill="#E25E52"/>
</g>
<defs>
<clipPath id="clip0_407_2">
<rect width="50" height="50" fill="white"/>
</clipPath>
</defs>
</svg>
