<svg width="50" height="50" viewBox="0 0 50 50" fill="none" xmlns="http://www.w3.org/2000/svg">
<path d="M49.2676 37.4511H48.0332L43.6582 19.954C43.5226 19.4092 43.2195 18.9206 42.7914 18.5572C42.3634 18.1939 41.8321 17.974 41.2725 17.9286C41.1019 17.0967 40.6892 16.3338 40.0862 15.7357C39.4833 15.1377 38.7171 14.7312 37.8838 14.5673C37.6203 13.5449 37.026 12.6383 36.1935 11.9888C35.361 11.3393 34.3371 10.9834 33.2812 10.9765C33.1348 10.9765 32.9883 10.9824 32.8428 10.996C32.4485 10.2502 31.8318 9.64561 31.0782 9.26637C30.3246 8.88712 29.4716 8.75202 28.6377 8.87982C28.193 8.34702 27.6367 7.91842 27.0081 7.6243C26.3795 7.33018 25.694 7.17773 25 7.17773C24.306 7.17773 23.6205 7.33018 22.9919 7.6243C22.3633 7.91842 21.807 8.34702 21.3623 8.87982C20.5284 8.75202 19.6754 8.88712 18.9218 9.26637C18.1682 9.64561 17.5515 10.2502 17.1572 10.996C17.0117 10.9824 16.8643 10.9765 16.7188 10.9765C15.6629 10.9834 14.639 11.3393 13.8065 11.9888C12.974 12.6383 12.3797 13.5449 12.1162 14.5673C11.2829 14.7312 10.5167 15.1377 9.91376 15.7357C9.31084 16.3338 8.89814 17.0967 8.72754 17.9286C8.1679 17.974 7.6366 18.1939 7.20857 18.5572C6.78054 18.9206 6.47737 19.4092 6.3418 19.954L1.9668 37.4511H0.732422C0.538172 37.4511 0.351877 37.5283 0.214521 37.6656C0.0771656 37.803 0 37.9893 0 38.1835L0 40.1367C0.00103329 40.8486 0.284306 41.5311 0.78772 42.0345C1.29113 42.5379 1.97361 42.8212 2.68555 42.8222H47.3145C48.0264 42.8212 48.7089 42.5379 49.2123 42.0345C49.7157 41.5311 49.999 40.8486 50 40.1367V38.1835C50 37.9893 49.9228 37.803 49.7855 37.6656C49.6481 37.5283 49.4618 37.4511 49.2676 37.4511ZM12.7637 15.9667C12.9353 15.9589 13.0987 15.8911 13.2254 15.775C13.3521 15.659 13.4341 15.5022 13.457 15.332C13.5117 14.8827 13.6586 14.4496 13.8886 14.0598C14.1185 13.67 14.4266 13.3319 14.7933 13.0667C15.1601 12.8015 15.5777 12.615 16.0199 12.5188C16.4622 12.4226 16.9195 12.4189 17.3633 12.5078C17.7382 12.6938 18.0332 13.0094 18.1935 13.3961C18.3538 13.7828 18.3687 14.2145 18.2354 14.6113C18.1737 14.7954 18.1876 14.9965 18.274 15.1704C18.3604 15.3444 18.5123 15.4769 18.6963 15.539C18.7716 15.564 18.8504 15.5768 18.9297 15.5771C19.0832 15.577 19.2329 15.5287 19.3575 15.439C19.4821 15.3493 19.5753 15.2227 19.624 15.0771C19.8369 14.4472 19.8479 13.7666 19.6553 13.1302C19.4627 12.4938 19.0762 11.9334 18.5498 11.5273C18.7831 11.1537 19.1073 10.8453 19.492 10.6308C19.8768 10.4163 20.3095 10.3028 20.75 10.3007C20.9923 10.2993 21.2337 10.3322 21.4668 10.3984C21.6154 10.4411 21.7737 10.4358 21.9191 10.3832C22.0645 10.3306 22.1895 10.2333 22.2764 10.1054C22.5758 9.65581 22.9816 9.28714 23.4577 9.03214C23.9339 8.77714 24.4657 8.64371 25.0059 8.64371C25.546 8.64371 26.0778 8.77714 26.554 9.03214C27.0302 9.28714 27.436 9.65581 27.7354 10.1054C27.8222 10.2333 27.9472 10.3306 28.0926 10.3832C28.238 10.4358 28.3963 10.4411 28.5449 10.3984C28.7781 10.3322 29.0194 10.2993 29.2617 10.3007C29.7008 10.3033 30.1322 10.4168 30.5158 10.6305C30.8994 10.8442 31.2228 11.1513 31.4561 11.5234C30.9296 11.9295 30.5432 12.4899 30.3506 13.1263C30.158 13.7627 30.1689 14.4433 30.3818 15.0732C30.4306 15.2188 30.5238 15.3454 30.6484 15.4351C30.773 15.5248 30.9226 15.5731 31.0762 15.5732C31.1555 15.5729 31.2343 15.5601 31.3096 15.5351C31.4936 15.473 31.6454 15.3404 31.7319 15.1665C31.8183 14.9926 31.8322 14.7915 31.7705 14.6074C31.637 14.2106 31.6518 13.7788 31.8121 13.3921C31.9724 13.0053 32.2675 12.6898 32.6426 12.5038C33.0863 12.415 33.5437 12.4187 33.9859 12.5149C34.4282 12.6111 34.8458 12.7976 35.2125 13.0628C35.5793 13.328 35.8873 13.6661 36.1173 14.0559C36.3472 14.4457 36.4941 14.8788 36.5488 15.3281C36.5718 15.4983 36.6537 15.6551 36.7804 15.7711C36.9072 15.8871 37.0706 15.955 37.2422 15.9628C37.8111 15.9941 38.3571 16.1976 38.8076 16.5465C39.2582 16.8953 39.5919 17.373 39.7646 17.916H10.2412C10.4141 17.3731 10.7479 16.8957 11.1984 16.5471C11.649 16.1984 12.1948 15.995 12.7637 15.9638V15.9667ZM7.7627 20.3124C7.82839 20.0481 7.98076 19.8134 8.19547 19.6457C8.41019 19.4781 8.67487 19.3872 8.94727 19.3876H41.0527C41.3251 19.3872 41.5898 19.4781 41.8045 19.6457C42.0192 19.8134 42.1716 20.0481 42.2373 20.3124L46.5225 37.4511H3.47754L7.7627 20.3124ZM48.5352 40.1367C48.5346 40.4603 48.4059 40.7704 48.1771 40.9993C47.9482 41.2281 47.638 41.3568 47.3145 41.3574H2.68555C2.36195 41.3568 2.05176 41.2281 1.82295 40.9993C1.59414 40.7704 1.46536 40.4603 1.46484 40.1367V38.916H48.5352V40.1367Z" fill="#3A1916"/>
<path d="M29.3848 29.372L25.3691 27.0283C25.2572 26.9626 25.1298 26.928 25 26.928C24.8702 26.928 24.7428 26.9626 24.6309 27.0283L20.6152 29.372C20.1104 29.6693 19.6917 30.0931 19.4006 30.6015C19.1094 31.11 18.9559 31.6855 18.9551 32.2714V32.6279C18.9551 33.2944 19.1535 33.9457 19.5249 34.4991C19.8963 35.0525 20.424 35.4829 21.0408 35.7355C21.6575 35.988 22.3355 36.0514 22.9884 35.9174C23.6413 35.7835 24.2395 35.4584 24.707 34.9833L25 34.6816L25.293 34.9833C25.7605 35.4584 26.3587 35.7835 27.0116 35.9174C27.6645 36.0514 28.3425 35.988 28.9592 35.7355C29.576 35.4829 30.1037 35.0525 30.4751 34.4991C30.8465 33.9457 31.0449 33.2944 31.0449 32.6279V32.2714C31.0441 31.6855 30.8906 31.11 30.5994 30.6015C30.3083 30.0931 29.8896 29.6693 29.3848 29.372ZM29.5801 32.6279C29.5801 33.0037 29.4682 33.371 29.2588 33.683C29.0494 33.995 28.7519 34.2377 28.4041 34.3801C28.0564 34.5225 27.6741 34.5583 27.306 34.4827C26.9378 34.4072 26.6005 34.2238 26.3369 33.956L25.5186 33.124C25.4503 33.0547 25.369 32.9997 25.2793 32.9622C25.1896 32.9246 25.0933 32.9053 24.9961 32.9053C24.8989 32.9053 24.8026 32.9246 24.7129 32.9622C24.6232 32.9997 24.5419 33.0547 24.4736 33.124L23.6553 33.956C23.3917 34.2238 23.0544 34.4072 22.6862 34.4827C22.3181 34.5583 21.9358 34.5225 21.5881 34.3801C21.2403 34.2377 20.9428 33.995 20.7334 33.683C20.524 33.371 20.4121 33.0037 20.4121 32.6279V32.2714C20.4127 31.9408 20.4997 31.6161 20.6642 31.3294C20.8288 31.0427 21.0654 30.8039 21.3506 30.6367L25 28.5068L28.6455 30.6367C28.9307 30.8039 29.1673 31.0427 29.3318 31.3294C29.4964 31.6161 29.5834 31.9408 29.584 32.2714L29.5801 32.6279Z" fill="#E25E52"/>
<path d="M25 26.1123C26.3535 26.1123 27.252 24.2998 27.252 23.1016C27.252 22.5043 27.0147 21.9315 26.5924 21.5092C26.17 21.0869 25.5973 20.8496 25 20.8496C24.4027 20.8496 23.83 21.0869 23.4076 21.5092C22.9853 21.9315 22.748 22.5043 22.748 23.1016C22.748 24.2998 23.6465 26.1123 25 26.1123ZM25 22.3145C25.2087 22.3147 25.4087 22.3977 25.5563 22.5453C25.7038 22.6928 25.7869 22.8929 25.7871 23.1016C25.7871 23.7852 25.2168 24.6475 25 24.6475C24.7832 24.6475 24.2129 23.7881 24.2129 23.1016C24.2131 22.8929 24.2962 22.6928 24.4437 22.5453C24.5913 22.3977 24.7913 22.3147 25 22.3145Z" fill="#E25E52"/>
<path d="M30.3164 23.1279C29.7195 23.1287 29.1472 23.3662 28.7252 23.7884C28.3032 24.2106 28.066 24.783 28.0654 25.3799C28.0654 25.4424 28.0654 25.5088 28.0654 25.5752C28.0596 26.4004 28.0527 27.4307 28.6279 28.0068C28.7494 28.1299 28.8944 28.2271 29.0543 28.2928C29.2142 28.3584 29.3858 28.391 29.5586 28.3887C30.7969 28.3887 32.5694 26.6162 32.5694 25.3779C32.5681 24.7811 32.3302 24.2091 31.9079 23.7873C31.4856 23.3656 30.9133 23.1284 30.3164 23.1279ZM29.6328 26.916C29.5186 26.6377 29.5244 25.8867 29.5264 25.5869C29.5264 25.5146 29.5264 25.4453 29.5264 25.3799C29.5227 25.2743 29.5402 25.1689 29.5781 25.0703C29.616 24.9716 29.6733 24.8815 29.7467 24.8055C29.8201 24.7294 29.9081 24.669 30.0054 24.6276C30.1027 24.5863 30.2073 24.5651 30.313 24.5651C30.4187 24.5651 30.5233 24.5863 30.6206 24.6276C30.7179 24.669 30.8059 24.7294 30.8793 24.8055C30.9527 24.8815 31.01 24.9716 31.0479 25.0703C31.0858 25.1689 31.1033 25.2743 31.0996 25.3799C31.1035 25.7891 30.1113 26.8047 29.6358 26.916H29.6328Z" fill="#E25E52"/>
<path d="M21.373 28.0088C21.9482 27.4297 21.9414 26.4024 21.9355 25.5772C21.9355 25.5088 21.9355 25.4424 21.9355 25.3819C21.9418 25.0822 21.8882 24.7844 21.7778 24.5058C21.6675 24.2272 21.5026 23.9734 21.2929 23.7593C21.0833 23.5452 20.833 23.3751 20.5567 23.2589C20.2804 23.1428 19.9838 23.083 19.6841 23.083C19.3844 23.083 19.0877 23.1428 18.8115 23.2589C18.5352 23.3751 18.2849 23.5452 18.0752 23.7593C17.8655 23.9734 17.7007 24.2272 17.5903 24.5058C17.48 24.7844 17.4264 25.0822 17.4326 25.3819C17.4326 26.6201 19.2051 28.3926 20.4434 28.3926C20.6162 28.3945 20.7876 28.3615 20.9474 28.2956C21.1071 28.2296 21.2519 28.1321 21.373 28.0088ZM18.8965 25.3799C18.8928 25.2743 18.9104 25.169 18.9482 25.0703C18.9861 24.9716 19.0434 24.8815 19.1168 24.8055C19.1902 24.7295 19.2782 24.669 19.3755 24.6277C19.4728 24.5864 19.5774 24.5651 19.6831 24.5651C19.7888 24.5651 19.8934 24.5864 19.9907 24.6277C20.088 24.669 20.176 24.7295 20.2494 24.8055C20.3228 24.8815 20.3801 24.9716 20.418 25.0703C20.4559 25.169 20.4734 25.2743 20.4697 25.3799C20.4697 25.4453 20.4697 25.5147 20.4697 25.5869C20.4697 25.8867 20.4775 26.6377 20.3633 26.916C19.8887 26.8047 18.8965 25.7891 18.8965 25.3799Z" fill="#E25E52"/>
</svg>
