<svg width="40" height="40" viewBox="0 0 40 40" fill="none" xmlns="http://www.w3.org/2000/svg">
<g clip-path="url(#clip0_353_6926)">
<path d="M17.0525 28.758L13.3807 26.6134C13.2911 26.5609 13.1892 26.5332 13.0854 26.5332C12.9815 26.5332 12.8796 26.5609 12.79 26.6134L9.11816 28.758C8.66777 29.0214 8.29393 29.3977 8.03359 29.8499C7.77326 30.3021 7.63545 30.8143 7.63379 31.3361V31.6611C7.63353 32.2541 7.80979 32.8337 8.14011 33.3262C8.47043 33.8186 8.93986 34.2016 9.4886 34.4263C10.0373 34.651 10.6406 34.7073 11.2214 34.588C11.8023 34.4687 12.3345 34.1792 12.7502 33.7564L13.0807 33.4205L13.4111 33.7564C13.8269 34.1792 14.3591 34.4687 14.9399 34.588C15.5208 34.7073 16.124 34.651 16.6727 34.4263C17.2215 34.2016 17.6909 33.8186 18.0212 33.3262C18.3515 32.8337 18.5278 32.2541 18.5275 31.6611V31.3369C18.527 30.8159 18.3906 30.3041 18.132 29.8518C17.8733 29.3996 17.5013 29.0226 17.0525 28.758ZM17.3611 31.6619C17.3611 32.0221 17.2538 32.3742 17.053 32.6733C16.8522 32.9725 16.567 33.2051 16.2336 33.3416C15.9002 33.4782 15.5338 33.5124 15.1809 33.4401C14.8279 33.3677 14.5045 33.192 14.2518 32.9353L13.5041 32.1752C13.4495 32.1197 13.3844 32.0757 13.3127 32.0457C13.2409 32.0157 13.1639 32.0002 13.0861 32.0002C13.0083 32.0002 12.9313 32.0157 12.8596 32.0457C12.7878 32.0757 12.7228 32.1197 12.6682 32.1752L11.9205 32.9353C11.6677 33.192 11.3443 33.3677 10.9914 33.4401C10.6385 33.5124 10.272 33.4782 9.93865 33.3416C9.60526 33.2051 9.32003 32.9725 9.11925 32.6733C8.91847 32.3742 8.81122 32.0221 8.81113 31.6619V31.3369C8.81125 31.0195 8.89428 30.7076 9.052 30.4322C9.20972 30.1568 9.43667 29.9273 9.71035 29.7666L13.0861 27.7978L16.4619 29.7666C16.7351 29.927 16.9618 30.156 17.1195 30.4308C17.2772 30.7057 17.3605 31.0169 17.3611 31.3337V31.6619Z" fill="#E25E52"/>
<path d="M13.086 25.6203C14.311 25.6203 15.061 23.8922 15.061 22.9516C15.061 22.4278 14.8529 21.9254 14.4825 21.555C14.1121 21.1846 13.6098 20.9766 13.086 20.9766C12.5622 20.9766 12.0598 21.1846 11.6894 21.555C11.319 21.9254 11.111 22.4278 11.111 22.9516C11.111 23.8922 11.861 25.6203 13.086 25.6203ZM13.086 22.1484C13.2989 22.1486 13.5031 22.2333 13.6536 22.3839C13.8042 22.5345 13.8889 22.7386 13.8891 22.9516C13.8891 23.5687 13.3696 24.4484 13.086 24.4484C12.8024 24.4484 12.2828 23.5687 12.2828 22.9516C12.283 22.7386 12.3677 22.5345 12.5183 22.3839C12.6689 22.2333 12.873 22.1486 13.086 22.1484Z" fill="#E25E52"/>
<path d="M17.9466 23.0605C17.4232 23.0612 16.9213 23.2693 16.5511 23.6394C16.1808 24.0095 15.9725 24.5113 15.9716 25.0348C15.9716 25.0926 15.9716 25.1527 15.9716 25.216C15.967 25.9551 15.9607 26.8746 16.4623 27.3801C16.5654 27.4846 16.6886 27.5673 16.8245 27.623C16.9603 27.6787 17.1061 27.7063 17.2529 27.7043C18.3466 27.7043 19.9224 26.1324 19.9224 25.0348C19.9216 24.5112 19.7131 24.0092 19.3427 23.6391C18.9723 23.269 18.4703 23.061 17.9466 23.0605ZM18.1677 25.9512C17.7881 26.3301 17.4326 26.5121 17.2748 26.5316C17.1357 26.3199 17.1412 25.5301 17.1427 25.2246C17.1427 25.159 17.1427 25.0957 17.1427 25.0355C17.1427 24.8225 17.2274 24.6183 17.378 24.4677C17.5286 24.317 17.7329 24.2324 17.9459 24.2324C18.1589 24.2324 18.3631 24.317 18.5138 24.4677C18.6644 24.6183 18.749 24.8225 18.749 25.0355C18.7498 25.173 18.5693 25.5473 18.1677 25.9504V25.9512Z" fill="#E25E52"/>
<path d="M9.71035 27.3789C10.2119 26.8734 10.2057 25.9539 10.201 25.2148C10.201 25.1516 10.201 25.0914 10.201 25.0336C10.201 24.5098 9.9929 24.0074 9.62251 23.6371C9.25213 23.2667 8.74978 23.0586 8.22598 23.0586C7.70217 23.0586 7.19982 23.2667 6.82944 23.6371C6.45906 24.0074 6.25098 24.5098 6.25098 25.0336C6.25098 26.1312 7.82285 27.7031 8.92051 27.7031C9.06721 27.7051 9.2128 27.6774 9.34853 27.6216C9.48425 27.5659 9.60733 27.4834 9.71035 27.3789ZM8.0041 25.9492C7.60254 25.5461 7.42207 25.1719 7.42207 25.0336C7.42207 24.8206 7.50668 24.6163 7.6573 24.4657C7.80791 24.3151 8.01219 24.2305 8.2252 24.2305C8.4382 24.2305 8.64248 24.3151 8.79309 24.4657C8.94371 24.6163 9.02832 24.8206 9.02832 25.0336C9.02832 25.0938 9.02832 25.157 9.02832 25.2227C9.02832 25.5281 9.03535 26.3164 8.89629 26.5297C8.74395 26.5125 8.38613 26.3273 8.0041 25.9492Z" fill="#E25E52"/>
<path d="M30.8203 21.6406C29.1853 21.6387 27.5798 22.0764 26.1719 22.9078V16.2109C26.1719 16.1201 26.1507 16.0305 26.1102 15.9492L23.8281 11.3852V8.39844C23.8281 8.24304 23.7664 8.094 23.6565 7.98412C23.5466 7.87423 23.3976 7.8125 23.2422 7.8125H22.2656V5.85938H24.0234C24.1788 5.85938 24.3279 5.79764 24.4378 5.68776C24.5476 5.57787 24.6094 5.42884 24.6094 5.27344V2.14844C24.6085 1.57889 24.3819 1.03291 23.9792 0.630176C23.5765 0.227445 23.0305 0.00082663 22.4609 0L3.71094 0C3.14139 0.00082663 2.59541 0.227445 2.19268 0.630176C1.78994 1.03291 1.56333 1.57889 1.5625 2.14844V5.27344C1.5625 5.42884 1.62423 5.57787 1.73412 5.68776C1.844 5.79764 1.99304 5.85938 2.14844 5.85938H3.90625V7.8125H2.92969C2.77429 7.8125 2.62525 7.87423 2.51537 7.98412C2.40548 8.094 2.34375 8.24304 2.34375 8.39844V11.3852L0.0617188 15.9492C0.0211354 16.0305 6.14664e-06 16.1201 0 16.2109L0 37.8516C0.00082663 38.4211 0.227445 38.9671 0.630176 39.3698C1.03291 39.7726 1.57889 39.9992 2.14844 40H24.0234C24.4539 39.9995 24.8744 39.8699 25.2304 39.6278C25.5864 39.3857 25.8616 39.0424 26.0203 38.6422C27.2292 39.3842 28.5936 39.836 30.0064 39.9621C31.4193 40.0882 32.8421 39.8851 34.1632 39.3688C35.4844 38.8525 36.6679 38.037 37.6209 36.9864C38.5739 35.9358 39.2704 34.6786 39.6558 33.3135C40.0412 31.9484 40.105 30.5126 39.8422 29.1187C39.5793 27.7248 38.997 26.4108 38.1409 25.2798C37.2849 24.1488 36.1783 23.2316 34.9081 22.6002C33.638 21.9688 32.2388 21.6403 30.8203 21.6406ZM2.73438 2.14844C2.73479 1.88956 2.83781 1.64141 3.02086 1.45836C3.20391 1.27531 3.45206 1.17229 3.71094 1.17188H4.6875V2.53906C4.6875 2.69446 4.74923 2.8435 4.85912 2.95338C4.969 3.06327 5.11804 3.125 5.27344 3.125C5.42884 3.125 5.57787 3.06327 5.68776 2.95338C5.79764 2.8435 5.85938 2.69446 5.85938 2.53906V1.17188H7.8125V2.53906C7.8125 2.69446 7.87423 2.8435 7.98412 2.95338C8.094 3.06327 8.24304 3.125 8.39844 3.125C8.55384 3.125 8.70287 3.06327 8.81276 2.95338C8.92264 2.8435 8.98438 2.69446 8.98438 2.53906V1.17188H10.9375V2.53906C10.9375 2.69446 10.9992 2.8435 11.1091 2.95338C11.219 3.06327 11.368 3.125 11.5234 3.125C11.6788 3.125 11.8279 3.06327 11.9378 2.95338C12.0476 2.8435 12.1094 2.69446 12.1094 2.53906V1.17188H14.0625V2.53906C14.0625 2.69446 14.1242 2.8435 14.2341 2.95338C14.344 3.06327 14.493 3.125 14.6484 3.125C14.8038 3.125 14.9529 3.06327 15.0628 2.95338C15.1726 2.8435 15.2344 2.69446 15.2344 2.53906V1.17188H17.1875V2.53906C17.1875 2.69446 17.2492 2.8435 17.3591 2.95338C17.469 3.06327 17.618 3.125 17.7734 3.125C17.9288 3.125 18.0779 3.06327 18.1878 2.95338C18.2976 2.8435 18.3594 2.69446 18.3594 2.53906V1.17188H20.3125V2.53906C20.3125 2.69446 20.3742 2.8435 20.4841 2.95338C20.594 3.06327 20.743 3.125 20.8984 3.125C21.0538 3.125 21.2029 3.06327 21.3128 2.95338C21.4226 2.8435 21.4844 2.69446 21.4844 2.53906V1.17188H22.4609C22.7198 1.17229 22.968 1.27531 23.151 1.45836C23.3341 1.64141 23.4371 1.88956 23.4375 2.14844V4.6875H2.73438V2.14844ZM5.07812 5.85938H21.0938V7.8125H5.07812V5.85938ZM22.6562 8.98438V10.9375H3.51562V8.98438H22.6562ZM3.29219 12.1094H22.8797L24.6375 15.625H1.53437L3.29219 12.1094ZM24.0234 38.8281H2.14844C1.88956 38.8277 1.64141 38.7247 1.45836 38.5416C1.27531 38.3586 1.17229 38.1104 1.17188 37.8516V16.7969H25V23.7273C23.9504 24.5873 23.1047 25.6695 22.5241 26.8959C21.9434 28.1222 21.6422 29.4622 21.6422 30.8191C21.6422 32.176 21.9434 33.516 22.5241 34.7424C23.1047 35.9688 23.9504 37.051 25 37.9109C24.9847 38.1594 24.8751 38.3927 24.6936 38.5632C24.5121 38.7336 24.2724 38.8284 24.0234 38.8281ZM30.8203 38.8281C29.2365 38.8281 27.6883 38.3585 26.3714 37.4786C25.0545 36.5987 24.0282 35.348 23.4221 33.8848C22.816 32.4215 22.6574 30.8114 22.9664 29.2581C23.2754 27.7047 24.038 26.2778 25.1579 25.1579C26.2778 24.038 27.7047 23.2754 29.2581 22.9664C30.8114 22.6574 32.4215 22.816 33.8848 23.4221C35.348 24.0282 36.5987 25.0545 37.4786 26.3714C38.3585 27.6883 38.8281 29.2365 38.8281 30.8203C38.8259 32.9434 37.9814 34.9789 36.4802 36.4802C34.9789 37.9814 32.9434 38.8259 30.8203 38.8281Z" fill="#3A1916"/>
<path d="M30.8203 25.5469C30.1472 25.5477 29.5018 25.8155 29.0258 26.2915C28.5499 26.7675 28.2821 27.4128 28.2812 28.0859V33.5547C28.2813 34.2281 28.5488 34.8739 29.0249 35.3501C29.5011 35.8262 30.1469 36.0938 30.8203 36.0938C31.4937 36.0938 32.1395 35.8262 32.6157 35.3501C33.0919 34.8739 33.3594 34.2281 33.3594 33.5547V28.0859C33.3585 27.4128 33.0908 26.7675 32.6148 26.2915C32.1388 25.8155 31.4935 25.5477 30.8203 25.5469ZM30.8203 26.7188C31.1828 26.7192 31.5303 26.8633 31.7866 27.1196C32.0429 27.376 32.1871 27.7235 32.1875 28.0859V30.2344H29.4531V28.0859C29.4535 27.7235 29.5977 27.376 29.854 27.1196C30.1103 26.8633 30.4578 26.7192 30.8203 26.7188ZM30.8203 34.9219C30.4578 34.9215 30.1103 34.7773 29.854 34.521C29.5977 34.2647 29.4535 33.9172 29.4531 33.5547V31.4062H32.1875V33.5547C32.1871 33.9172 32.0429 34.2647 31.7866 34.521C31.5303 34.7773 31.1828 34.9215 30.8203 34.9219Z" fill="#E25E52"/>
</g>
<defs>
<clipPath id="clip0_353_6926">
<rect width="40" height="40" fill="white"/>
</clipPath>
</defs>
</svg>
