<svg width="50" height="50" viewBox="0 0 50 50" fill="none" xmlns="http://www.w3.org/2000/svg">
<g clip-path="url(#clip0_334_14154)">
<path d="M37.3662 13.71C37.4349 13.7905 37.5202 13.8552 37.6163 13.8995C37.7124 13.9439 37.817 13.9668 37.9228 13.9668C38.0138 13.9668 38.1039 13.9496 38.1885 13.916C39.2046 13.5211 40.2596 13.2347 41.3359 13.0615L42.2812 12.9092C43.4055 12.7281 44.4204 12.1303 45.1238 11.2348C45.8272 10.3392 46.1675 9.21164 46.077 8.07648C45.9865 6.94133 45.4718 5.8819 44.6354 5.10911C43.799 4.33632 42.7022 3.90687 41.5635 3.90625H39.8535C38.7789 3.90493 37.7388 4.28567 36.9189 4.98047C35.7597 5.96281 34.8269 7.18448 34.1846 8.56153L33.6367 9.7334C33.562 9.89298 33.5474 10.0741 33.5955 10.2436C33.6435 10.4131 33.7511 10.5596 33.8984 10.6563C35.1934 11.5022 36.3605 12.5292 37.3643 13.7061L37.3662 13.71ZM35.5107 9.18653C36.0641 8.00058 36.8673 6.94824 37.8652 6.10157C38.4204 5.63 39.1251 5.3711 39.8535 5.3711H41.5635C42.3342 5.37098 43.0766 5.66116 43.643 6.18385C44.2093 6.70654 44.558 7.42338 44.6196 8.19161C44.6811 8.95983 44.4511 9.72306 43.9752 10.3293C43.4994 10.9355 42.8126 11.3403 42.0518 11.4629L41.1055 11.6152C40.0966 11.7772 39.1046 12.0305 38.1416 12.3721C37.7412 11.9297 37.3174 11.5068 36.8799 11.1113C36.3572 10.6394 35.8067 10.1992 35.2314 9.79297L35.5107 9.18653Z" fill="#E25E52"/>
<path d="M16.3614 9.7373L15.8135 8.56543C15.1712 7.18838 14.2384 5.96672 13.0791 4.98438C12.2605 4.29081 11.2224 3.91016 10.1494 3.91016H8.43655C7.30156 3.91569 6.20999 4.34706 5.37784 5.11891C4.54569 5.89076 4.03358 6.94686 3.94285 8.07823C3.85212 9.2096 4.18938 10.3338 4.88789 11.2284C5.5864 12.123 6.59527 12.7228 7.71487 12.9092L8.66018 13.0615C9.73949 13.2341 10.7975 13.5205 11.8164 13.916C11.901 13.9496 11.9911 13.9668 12.0821 13.9668C12.1879 13.9668 12.2925 13.9439 12.3886 13.8995C12.4847 13.8552 12.57 13.7905 12.6387 13.71C13.6425 12.5331 14.8096 11.5061 16.1045 10.6602C16.251 10.5628 16.3576 10.416 16.4047 10.2465C16.4519 10.0771 16.4365 9.89634 16.3614 9.7373ZM13.1221 11.1113C12.6806 11.5101 12.2595 11.9308 11.8604 12.3721C10.8974 12.0305 9.90537 11.7772 8.89651 11.6152L7.95022 11.4629C7.18936 11.3402 6.50261 10.9355 6.02674 10.3293C5.55088 9.72305 5.32083 8.95982 5.38241 8.1916C5.44398 7.42338 5.79267 6.70654 6.35902 6.18385C6.92537 5.66116 7.66782 5.37098 8.43851 5.37109H10.1465C10.8743 5.37156 11.5782 5.63043 12.1328 6.10156C13.1308 6.94823 13.9339 8.00057 14.4873 9.18652L14.7705 9.79297C14.1954 10.1994 13.645 10.6396 13.1221 11.1113Z" fill="#E25E52"/>
<path d="M42.4425 29.0303C41.7998 28.8096 41.2335 28.4097 40.8104 27.8778C40.3874 27.346 40.1252 26.7043 40.0548 26.0283L39.7189 22.7598C39.5536 21.1427 39.1231 19.564 38.4445 18.0869C39.5432 17.508 40.729 17.1121 41.9552 16.915L42.9005 16.7627C44.9903 16.4214 46.8753 15.3067 48.1813 13.64C49.4873 11.9734 50.1188 9.8765 49.9505 7.76576C49.7821 5.65503 48.8262 3.68478 47.2726 2.24616C45.7189 0.807544 43.681 0.00576368 41.5636 0L39.8537 0C37.8501 8.10789e-05 35.9117 0.712412 34.3849 2.00977C32.7991 3.35432 31.5234 5.02646 30.6456 6.91113L29.1701 10.0713C26.4474 9.27309 23.5529 9.27309 20.8302 10.0713L19.3517 6.91113C18.4739 5.02646 17.1982 3.35432 15.6124 2.00977C14.0864 0.713065 12.1492 0.000775831 10.1466 0L8.43666 0C6.31603 0.00103427 4.27358 0.800655 2.71592 2.23967C1.15827 3.67868 0.199672 5.65152 0.030983 7.76542C-0.137706 9.87933 0.495887 11.9792 1.80562 13.6471C3.11535 15.3149 5.00515 16.4283 7.09877 16.7656L8.04506 16.918C9.27287 17.1148 10.4603 17.5106 11.5607 18.0898C10.8813 19.5667 10.4504 21.1455 10.2853 22.7627L9.94935 26.0312C9.87894 26.7072 9.61677 27.3489 9.19373 27.8808C8.77069 28.4126 8.20442 28.8125 7.56166 29.0332C5.11244 29.8701 1.81947 31.9951 0.0421263 37.3633C-0.0100148 37.5175 -0.00920803 37.6847 0.0444189 37.8385C0.0980458 37.9922 0.201427 38.1236 0.338189 38.212C0.474951 38.3003 0.637275 38.3405 0.799452 38.3261C0.961629 38.3118 1.11439 38.2438 1.23353 38.1328C1.28041 38.0898 2.1476 37.3232 3.85951 36.9844C3.31752 37.8467 2.8976 39.1328 3.06752 41.001C3.08227 41.1581 3.1473 41.3062 3.25295 41.4235C3.3586 41.5407 3.49923 41.6207 3.65397 41.6516C3.80871 41.6825 3.96929 41.6627 4.11188 41.5951C4.25446 41.5275 4.37144 41.4157 4.44545 41.2764C4.68695 40.8855 5.00539 40.5477 5.38143 40.2836C5.75747 40.0196 6.18326 39.8347 6.63295 39.7402C8.32402 42.8443 10.8203 45.4353 13.8593 47.2408C16.8983 49.0462 20.3676 49.9994 23.9025 50H26.0978C29.6337 50 33.1043 49.0468 36.1443 47.2408C39.1842 45.4347 41.6811 42.8427 43.3722 39.7373C43.8218 39.8324 44.2474 40.0176 44.6235 40.2816C44.9996 40.5456 45.3184 40.883 45.5607 41.2734C45.6344 41.413 45.7513 41.525 45.8939 41.5928C46.0365 41.6605 46.1971 41.6804 46.3519 41.6495C46.5067 41.6185 46.6473 41.5384 46.7529 41.421C46.8584 41.3036 46.9232 41.1553 46.9376 40.998C47.1076 39.1299 46.6876 37.8438 46.1466 36.9814C47.8566 37.3203 48.7238 38.0859 48.7687 38.126C48.8877 38.2366 49.0401 38.3045 49.202 38.3191C49.3638 38.3336 49.5259 38.2939 49.6627 38.2062C49.7995 38.1185 49.9032 37.9878 49.9576 37.8347C50.012 37.6815 50.0139 37.5147 49.963 37.3604C48.1847 31.9922 44.8917 29.8672 42.4425 29.0303ZM31.9747 7.53125C32.7644 5.83705 33.9114 4.33387 35.3371 3.125C36.5981 2.05355 38.1989 1.46515 39.8537 1.46484H41.5636C43.3159 1.46588 45.0036 2.12675 46.2906 3.3159C47.5777 4.50505 48.3697 6.13525 48.5091 7.882C48.6485 9.62876 48.1249 11.3639 47.0427 12.7421C45.9605 14.1203 44.399 15.0404 42.6691 15.3193L41.7228 15.4717C40.3413 15.6926 39.0051 16.1373 37.7667 16.7881C36.1172 13.9733 33.5839 11.7823 30.5607 10.5557L31.9747 7.53125ZM8.27748 15.4717L7.33119 15.3193C5.60122 15.0404 4.03972 14.1203 2.95753 12.7421C1.87533 11.3639 1.35181 9.62876 1.49119 7.882C1.63056 6.13525 2.42261 4.50505 3.70966 3.3159C4.9967 2.12675 6.68436 1.46588 8.43666 1.46484H10.1466C11.8014 1.46515 13.4022 2.05355 14.6632 3.125C16.0888 4.33358 17.2358 5.83642 18.0255 7.53027L19.4396 10.5576C16.4168 11.785 13.8838 13.9758 12.2335 16.79C10.9952 16.1385 9.65904 15.6932 8.27748 15.4717ZM11.7384 22.9092C12.0746 19.6258 13.6168 16.5839 16.0666 14.3721C18.5164 12.1604 21.6996 10.936 25.0001 10.936C28.3007 10.936 31.4838 12.1604 33.9336 14.3721C36.3834 16.5839 37.9257 19.6258 38.2619 22.9092L38.5978 26.1777C38.6701 26.8842 38.8925 27.5671 39.2501 28.1807C35.4298 30.6221 31.5548 31.4297 28.6456 31.627C28.6824 31.2971 28.6493 30.9632 28.5483 30.647C28.4473 30.3308 28.2808 30.0394 28.0597 29.7919C27.8385 29.5444 27.5677 29.3463 27.2648 29.2105C26.9619 29.0747 26.6338 29.0043 26.3019 29.0039H23.7013C23.3694 29.0043 23.0413 29.0747 22.7384 29.2105C22.4355 29.3463 22.1647 29.5444 21.9435 29.7919C21.7224 30.0394 21.5559 30.3308 21.4549 30.647C21.3539 30.9632 21.3208 31.2971 21.3576 31.627C18.4484 31.4316 14.5734 30.623 10.7531 28.1807C11.1107 27.567 11.3334 26.8842 11.4064 26.1777L11.7384 22.9092ZM25.0001 34.208C24.8525 34.2095 24.7068 34.1738 24.5766 34.1042C24.4463 34.0346 24.3357 33.9332 24.255 33.8096L22.9562 31.8564C22.8672 31.7217 22.8163 31.5654 22.8089 31.404C22.8015 31.2427 22.838 31.0824 22.9144 30.9401C22.9908 30.7978 23.1043 30.6789 23.2428 30.5959C23.3814 30.5129 23.5398 30.469 23.7013 30.4688H26.299C26.4611 30.4685 26.6202 30.5123 26.7594 30.5955C26.8985 30.6787 27.0124 30.7981 27.089 30.941C27.1655 31.084 27.2017 31.245 27.1938 31.4069C27.1859 31.5688 27.1342 31.7256 27.0441 31.8604L25.7453 33.8135C25.6641 33.9364 25.5533 34.037 25.4231 34.1059C25.2929 34.1749 25.1474 34.21 25.0001 34.208ZM44.1408 35.3623C43.9707 35.3658 43.8071 35.4278 43.6773 35.5376C43.5475 35.6475 43.4594 35.7987 43.4279 35.9658C43.3965 36.1302 43.4238 36.3004 43.505 36.4467C43.5862 36.593 43.7161 36.7062 43.8722 36.7666C43.9328 36.7939 45.0392 37.3135 45.3986 39.04C44.6945 38.5615 43.878 38.2745 43.0294 38.207C42.8842 38.1942 42.7384 38.2252 42.6109 38.2958C42.4833 38.3665 42.3798 38.4736 42.3136 38.6035C40.7956 41.5983 38.4756 44.1126 35.6124 45.8662C32.7493 47.6198 29.4553 48.5438 26.0978 48.5352H23.9025C20.5448 48.544 17.2506 47.6201 14.3873 45.8664C11.5239 44.1128 9.2038 41.5984 7.68568 38.6035C7.62425 38.4829 7.53056 38.3817 7.41505 38.3112C7.29953 38.2407 7.16672 38.2036 7.03138 38.2041H6.96693C6.1184 38.2719 5.30203 38.5589 4.59779 39.0371C4.95619 37.3105 6.06263 36.791 6.11537 36.7676C6.27201 36.7067 6.40256 36.5932 6.48454 36.4465C6.56653 36.2998 6.59484 36.1292 6.56459 35.9639C6.5336 35.7981 6.4467 35.6479 6.31839 35.5384C6.19008 35.429 6.02811 35.3668 5.85951 35.3623C4.60665 35.3134 3.35648 35.5126 2.1808 35.9482C3.82338 32.5156 6.20131 31.0459 8.03236 30.4209C8.70297 30.1913 9.31712 29.8218 9.83412 29.3369C14.3029 32.2354 18.8507 33.0176 22.0411 33.1328L23.0363 34.626C23.3299 35.0672 23.7638 35.3964 24.2677 35.5605V37.3857C24.2672 37.8388 24.087 38.2732 23.7666 38.5936C23.4462 38.914 23.0118 39.0942 22.5587 39.0947H22.2413C21.7883 39.0942 21.3539 38.914 21.0335 38.5936C20.7131 38.2732 20.5329 37.8388 20.5324 37.3857C20.5324 37.1915 20.4552 37.0052 20.3178 36.8678C20.1805 36.7305 19.9942 36.6533 19.7999 36.6533C19.6057 36.6533 19.4194 36.7305 19.282 36.8678C19.1447 37.0052 19.0675 37.1915 19.0675 37.3857C19.0686 38.2272 19.4033 39.0339 19.9983 39.6288C20.5932 40.2238 21.3999 40.5585 22.2413 40.5596H22.5587C23.0251 40.5596 23.4857 40.4567 23.9078 40.2582C24.3298 40.0596 24.7028 39.7704 25.0001 39.4111C25.2975 39.7704 25.6705 40.0596 26.0925 40.2582C26.5145 40.4567 26.9752 40.5596 27.4415 40.5596H27.7589C28.6004 40.5585 29.407 40.2238 30.002 39.6288C30.597 39.0339 30.9317 38.2272 30.9328 37.3857C30.9328 37.1915 30.8556 37.0052 30.7182 36.8678C30.5809 36.7305 30.3946 36.6533 30.2003 36.6533C30.0061 36.6533 29.8198 36.7305 29.6824 36.8678C29.5451 37.0052 29.4679 37.1915 29.4679 37.3857C29.4674 37.8388 29.2872 38.2732 28.9668 38.5936C28.6464 38.914 28.212 39.0942 27.7589 39.0947H27.4415C26.9884 39.0942 26.5541 38.914 26.2337 38.5936C25.9133 38.2732 25.7331 37.8388 25.7326 37.3857V35.5566C26.2365 35.3925 26.6703 35.0633 26.964 34.6221L27.9591 33.1289C31.1515 33.0137 35.6984 32.2314 40.1661 29.333C40.6833 29.8177 41.2974 30.1872 41.9679 30.417C43.799 31.042 46.1769 32.5117 47.8195 35.9434C46.6433 35.5098 45.3933 35.3124 44.1408 35.3623Z" fill="#3A1916"/>
<path d="M31.3477 28.1738C31.9302 28.1733 32.4888 27.9416 32.9008 27.5297C33.3127 27.1177 33.5444 26.5592 33.5449 25.9766V24.0234C33.5449 23.4407 33.3134 22.8818 32.9014 22.4697C32.4893 22.0577 31.9304 21.8262 31.3477 21.8262C30.7649 21.8262 30.206 22.0577 29.794 22.4697C29.3819 22.8818 29.1504 23.4407 29.1504 24.0234V25.9766C29.1509 26.5592 29.3826 27.1177 29.7945 27.5297C30.2065 27.9416 30.7651 28.1733 31.3477 28.1738ZM30.6152 24.0234C30.6152 23.8292 30.6924 23.6429 30.8298 23.5055C30.9671 23.3682 31.1534 23.291 31.3477 23.291C31.5419 23.291 31.7282 23.3682 31.8656 23.5055C32.0029 23.6429 32.0801 23.8292 32.0801 24.0234V25.9766C32.0801 26.1708 32.0029 26.3571 31.8656 26.4945C31.7282 26.6318 31.5419 26.709 31.3477 26.709C31.1534 26.709 30.9671 26.6318 30.8298 26.4945C30.6924 26.3571 30.6152 26.1708 30.6152 25.9766V24.0234Z" fill="#E25E52"/>
<path d="M18.6523 28.1738C19.2349 28.1733 19.7935 27.9416 20.2055 27.5297C20.6174 27.1177 20.8491 26.5592 20.8496 25.9766V24.0234C20.8496 23.4407 20.6181 22.8818 20.206 22.4697C19.794 22.0577 19.2351 21.8262 18.6523 21.8262C18.0696 21.8262 17.5107 22.0577 17.0986 22.4697C16.6866 22.8818 16.4551 23.4407 16.4551 24.0234V25.9766C16.4556 26.5592 16.6873 27.1177 17.0992 27.5297C17.5112 27.9416 18.0698 28.1733 18.6523 28.1738ZM17.9199 24.0234C17.9199 23.8292 17.9971 23.6429 18.1344 23.5055C18.2718 23.3682 18.4581 23.291 18.6523 23.291C18.8466 23.291 19.0329 23.3682 19.1702 23.5055C19.3076 23.6429 19.3848 23.8292 19.3848 24.0234V25.9766C19.3848 26.1708 19.3076 26.3571 19.1702 26.4945C19.0329 26.6318 18.8466 26.709 18.6523 26.709C18.4581 26.709 18.2718 26.6318 18.1344 26.4945C17.9971 26.3571 17.9199 26.1708 17.9199 25.9766V24.0234Z" fill="#E25E52"/>
</g>
<defs>
<clipPath id="clip0_334_14154">
<rect width="50" height="50" fill="white"/>
</clipPath>
</defs>
</svg>
