<svg width="50" height="50" viewBox="0 0 50 50" fill="none" xmlns="http://www.w3.org/2000/svg">
<path d="M19.2148 34.6797L24.4375 40.9473C24.5061 41.0298 24.5921 41.0963 24.6893 41.1419C24.7866 41.1875 24.8926 41.2112 25 41.2112C25.1074 41.2112 25.2134 41.1875 25.3107 41.1419C25.4079 41.0963 25.4939 41.0298 25.5625 40.9473L30.7852 34.6797C37.7812 32.2725 42.8223 25.625 42.8223 17.8223C42.8223 7.99512 34.8271 0 25 0C15.1729 0 7.17773 7.99512 7.17773 17.8223C7.17773 25.625 12.2187 32.2725 19.2148 34.6797ZM25 39.334L21.6631 35.3301C23.8679 35.7494 26.1321 35.7494 28.3369 35.3301L25 39.334ZM25 1.46484C34.0195 1.46484 41.3574 8.80273 41.3574 17.8223C41.3574 26.8418 34.0195 34.1797 25 34.1797C15.9805 34.1797 8.64258 26.8418 8.64258 17.8223C8.64258 8.80273 15.9805 1.46484 25 1.46484Z" fill="#3A1916"/>
<path d="M25 32.2266C32.9424 32.2266 39.4043 25.7646 39.4043 17.8223C39.4043 9.87988 32.9424 3.41797 25 3.41797C17.0576 3.41797 10.5957 9.87988 10.5957 17.8223C10.5957 25.7646 17.0576 32.2266 25 32.2266ZM25 4.88281C32.1348 4.88281 37.9395 10.6875 37.9395 17.8223C37.9395 24.957 32.1348 30.7617 25 30.7617C17.8652 30.7617 12.0605 24.957 12.0605 17.8223C12.0605 10.6875 17.8652 4.88281 25 4.88281Z" fill="#E25E52"/>
<path d="M30.5322 19.2294L25.3691 16.2109C25.2571 16.1456 25.1297 16.1112 25 16.1112C24.8703 16.1112 24.7429 16.1456 24.6309 16.2109L19.4678 19.2275C18.849 19.5905 18.3357 20.1088 17.9786 20.731C17.6215 21.3532 17.4329 22.0579 17.4316 22.7753V23.2324C17.4316 24.0479 17.6742 24.845 18.1287 25.5222C18.5831 26.1995 19.2287 26.7261 19.9834 27.0353C20.7381 27.3444 21.5677 27.422 22.3666 27.2581C23.1655 27.0943 23.8976 26.6964 24.4697 26.1152L25 25.5761L25.5303 26.1152C26.1024 26.6964 26.8345 27.0943 27.6334 27.2581C28.4323 27.422 29.2619 27.3444 30.0166 27.0353C30.7713 26.7261 31.4169 26.1995 31.8713 25.5222C32.3258 24.845 32.5684 24.0479 32.5684 23.2324V22.7753C32.5667 22.0582 32.378 21.354 32.021 20.7321C31.6639 20.1103 31.1507 19.5923 30.5322 19.2294ZM31.1035 23.2333C31.1036 23.7582 30.9475 24.2712 30.6551 24.7071C30.3627 25.1429 29.9472 25.4819 29.4615 25.6809C28.9758 25.8799 28.4419 25.9298 27.9277 25.8244C27.4136 25.7189 26.9424 25.4629 26.5742 25.0888L25.5225 24.0146C25.4542 23.9453 25.3729 23.8903 25.2832 23.8528C25.1935 23.8152 25.0972 23.7959 25 23.7959C24.9028 23.7959 24.8065 23.8152 24.7168 23.8528C24.6271 23.8903 24.5458 23.9453 24.4775 24.0146L23.4258 25.0888C23.0576 25.4629 22.5864 25.7189 22.0723 25.8244C21.5581 25.9298 21.0242 25.8799 20.5385 25.6809C20.0528 25.4819 19.6373 25.1429 19.3449 24.7071C19.0525 24.2712 18.8964 23.7582 18.8965 23.2333V22.7763C18.8972 22.3146 19.0185 21.861 19.2484 21.4606C19.4782 21.0601 19.8087 20.7266 20.207 20.4931L25 17.6943L29.793 20.4941C30.1913 20.7276 30.5218 21.0611 30.7516 21.4615C30.9815 21.862 31.1028 22.3155 31.1035 22.7773V23.2333Z" fill="#E25E52"/>
<path d="M25 14.6484C26.666 14.6484 27.6855 12.2773 27.6855 10.9863C27.6855 10.2741 27.4026 9.591 26.899 9.08736C26.3953 8.58372 25.7123 8.30078 25 8.30078C24.2877 8.30078 23.6047 8.58372 23.101 9.08736C22.5974 9.591 22.3145 10.2741 22.3145 10.9863C22.3145 12.2773 23.334 14.6484 25 14.6484ZM25 9.76562C25.3236 9.76614 25.6338 9.89492 25.8626 10.1237C26.0914 10.3525 26.2202 10.6627 26.2207 10.9863C26.2207 11.8486 25.4795 13.1836 25 13.1836C24.5205 13.1836 23.7793 11.8486 23.7793 10.9863C23.7798 10.6627 23.9086 10.3525 24.1374 10.1237C24.3662 9.89492 24.6764 9.76614 25 9.76562Z" fill="#E25E52"/>
<path d="M30.8598 17.5781C32.3315 17.5781 34.5219 15.3877 34.5219 13.916C34.5219 13.2038 34.239 12.5207 33.7354 12.017C33.2317 11.5134 32.5486 11.2305 31.8364 11.2305C31.1241 11.2305 30.4411 11.5134 29.9374 12.017C29.4338 12.5207 29.1508 13.2038 29.1508 13.916C29.1508 13.9971 29.1508 14.082 29.1508 14.1709C29.144 15.1934 29.1352 16.4658 29.8139 17.1494C29.9504 17.2876 30.1134 17.3967 30.2932 17.4704C30.4729 17.5441 30.6656 17.5807 30.8598 17.5781ZM30.6147 14.1816C30.6147 14.0889 30.6147 14 30.6147 13.916C30.6147 13.5923 30.7433 13.2818 30.9722 13.0528C31.2012 12.8239 31.5117 12.6953 31.8354 12.6953C32.1592 12.6953 32.4696 12.8239 32.6986 13.0528C32.9275 13.2818 33.0561 13.5923 33.0561 13.916C33.0561 14.5938 31.5366 16.1133 30.8588 16.1133H30.8461C30.603 15.8877 30.6118 14.6055 30.6147 14.1816Z" fill="#E25E52"/>
<path d="M19.1406 17.5781C19.335 17.5808 19.5279 17.5443 19.7078 17.4706C19.8877 17.3969 20.0509 17.2877 20.1875 17.1494C20.8662 16.4658 20.8574 15.1963 20.8506 14.1709C20.8506 14.082 20.8506 13.9971 20.8506 13.916C20.8506 13.2038 20.5676 12.5207 20.064 12.017C19.5604 11.5134 18.8773 11.2305 18.165 11.2305C17.4528 11.2305 16.7697 11.5134 16.2661 12.017C15.7624 12.5207 15.4795 13.2038 15.4795 13.916C15.4785 15.3877 17.6689 17.5781 19.1406 17.5781ZM18.1641 12.6953C18.4877 12.6958 18.7978 12.8246 19.0267 13.0534C19.2555 13.2822 19.3842 13.5924 19.3848 13.916C19.3848 14 19.3848 14.0889 19.3848 14.1816C19.3848 14.6055 19.3965 15.8877 19.1523 16.1133H19.1406C18.4629 16.1133 16.9434 14.5937 16.9434 13.916C16.9439 13.5924 17.0727 13.2822 17.3015 13.0534C17.5303 12.8246 17.8405 12.6958 18.1641 12.6953Z" fill="#E25E52"/>
<path d="M35.7422 42.6758H14.2578C13.5459 42.6768 12.8634 42.9601 12.36 43.4635C11.8566 43.9669 11.5733 44.6494 11.5723 45.3613V49.2676C11.5723 49.4618 11.6494 49.6481 11.7868 49.7855C11.9241 49.9228 12.1104 50 12.3047 50H37.6953C37.8896 50 38.0759 49.9228 38.2132 49.7855C38.3506 49.6481 38.4277 49.4618 38.4277 49.2676V45.3613C38.4267 44.6494 38.1434 43.9669 37.64 43.4635C37.1366 42.9601 36.4541 42.6768 35.7422 42.6758ZM36.9629 48.5352H13.0371V45.3613C13.0376 45.0377 13.1664 44.7275 13.3952 44.4987C13.624 44.2699 13.9342 44.1411 14.2578 44.1406H35.7422C36.0658 44.1411 36.376 44.2699 36.6048 44.4987C36.8336 44.7275 36.9624 45.0377 36.9629 45.3613V48.5352Z" fill="#3A1916"/>
</svg>
