<svg width="40" height="40" viewBox="0 0 40 40" fill="none" xmlns="http://www.w3.org/2000/svg">
<path d="M32.5 36.4844H30.7422V35.1172C30.7418 34.6511 30.5564 34.2042 30.2269 33.8747C29.8973 33.5451 29.4504 33.3598 28.9844 33.3594H24.4266L23.7891 28.0047C26.7984 27.1744 29.4522 25.3797 31.3433 22.8959C33.2344 20.4121 34.2582 17.3765 34.2578 14.2547C34.2578 6.39609 27.8617 0 20 0C12.1383 0 5.74219 6.39609 5.74219 14.2578C5.74177 17.3796 6.76565 20.4153 8.65672 22.8991C10.5478 25.3829 13.2016 27.1776 16.2109 28.0078L15.5734 33.3594H11.0156C10.5496 33.3598 10.1027 33.5451 9.77312 33.8747C9.44356 34.2042 9.25823 34.6511 9.25781 35.1172V36.4844H7.5C7.0338 36.4844 6.58669 36.6696 6.25704 36.9992C5.92739 37.3289 5.74219 37.776 5.74219 38.2422C5.74219 38.7084 5.92739 39.1555 6.25704 39.4851C6.58669 39.8148 7.0338 40 7.5 40H32.5C32.9662 40 33.4133 39.8148 33.743 39.4851C34.0726 39.1555 34.2578 38.7084 34.2578 38.2422C34.2578 37.776 34.0726 37.3289 33.743 36.9992C33.4133 36.6696 32.9662 36.4844 32.5 36.4844ZM16.6328 24.4617C15.2254 23.999 13.9295 23.2487 12.8273 22.2586L17.2656 17.8195C17.3125 17.8555 17.3609 17.8906 17.4094 17.925L16.6328 24.4617ZM28 21.4289L23.5617 16.9906C24.0433 16.3663 24.3508 15.6255 24.4531 14.8438H30.7266C30.594 17.2852 29.6321 19.6083 28 21.4289ZM24.4531 13.6719C24.3511 12.8902 24.0438 12.1494 23.5625 11.525L27.9961 7.09141C29.6329 8.90791 30.5979 11.2303 30.7305 13.6719H24.4531ZM22.7344 10.6961C22.11 10.2148 21.3692 9.90753 20.5875 9.80547V3.53203C23.0285 3.66352 25.3509 4.62716 27.168 6.2625L22.7344 10.6961ZM19.4156 9.80547C18.6328 9.907 17.8909 10.2143 17.2656 10.6961L12.8336 6.2625C14.6506 4.62716 16.973 3.66352 19.4141 3.53203L19.4156 9.80547ZM12.0047 7.09141L16.4383 11.525C15.9567 12.1493 15.6492 12.8901 15.5469 13.6719H9.27344C9.40514 11.2307 10.3691 8.90835 12.0047 7.09141ZM15.5469 14.8438C15.6489 15.6255 15.9562 16.3662 16.4375 16.9906L12 21.4289C10.3682 19.6082 9.40659 17.2851 9.27422 14.8438H15.5469ZM16.6789 14.2578C16.6789 13.6011 16.8736 12.9592 17.2384 12.4132C17.6032 11.8672 18.1217 11.4416 18.7284 11.1903C19.3351 10.939 20.0026 10.8732 20.6467 11.0012C21.2907 11.1293 21.8824 11.4454 22.3468 11.9097C22.8111 12.374 23.1274 12.9655 23.2556 13.6096C23.3838 14.2536 23.3182 14.9212 23.067 15.5279C22.8158 16.1346 22.3904 16.6532 21.8445 17.0182C21.2985 17.3831 20.6567 17.578 20 17.5781C19.1197 17.5771 18.2758 17.2269 17.6533 16.6045C17.0309 15.982 16.6807 15.1381 16.6797 14.2578H16.6789ZM22.7344 17.8195L27.1742 22.2586C26.0721 23.2487 24.7762 23.999 23.3687 24.4617L22.5875 17.925C22.6375 17.8906 22.6859 17.8555 22.7344 17.8195ZM6.91406 14.2578C6.91406 7.04219 12.7844 1.17188 20 1.17188C27.2156 1.17188 33.0859 7.04219 33.0859 14.2578C33.0961 17.0947 32.18 19.8574 30.4767 22.1261C28.7735 24.3948 26.3762 26.0455 23.6492 26.8273L23.5086 25.6461C25.943 24.8958 28.0729 23.385 29.5857 21.3354C31.0984 19.2857 31.9145 16.8052 31.9141 14.2578C31.9141 7.68828 26.5695 2.34375 20 2.34375C13.4305 2.34375 8.08594 7.68828 8.08594 14.2578C8.08551 16.8052 8.90156 19.2857 10.4143 21.3354C11.9271 23.385 14.057 24.8958 16.4914 25.6461L16.3508 26.8273C13.6238 26.0455 11.2265 24.3948 9.52326 22.1261C7.82001 19.8574 6.90388 17.0947 6.91406 14.2578ZM18.5227 18.4992C19.4792 18.8336 20.5208 18.8336 21.4773 18.4992L23.2461 33.3594H20.5859V27.6953C20.5859 27.5399 20.5242 27.3909 20.4143 27.281C20.3044 27.1711 20.1554 27.1094 20 27.1094C19.8446 27.1094 19.6956 27.1711 19.5857 27.281C19.4758 27.3909 19.4141 27.5399 19.4141 27.6953V33.3594H16.7539L18.5227 18.4992ZM10.4297 35.1172C10.4297 34.9618 10.4914 34.8128 10.6013 34.7029C10.7112 34.593 10.8602 34.5312 11.0156 34.5312H28.9844C29.1398 34.5312 29.2888 34.593 29.3987 34.7029C29.5086 34.8128 29.5703 34.9618 29.5703 35.1172V36.4844H10.4297V35.1172ZM32.5 38.8281H7.5C7.3446 38.8281 7.19556 38.7664 7.08568 38.6565C6.9758 38.5466 6.91406 38.3976 6.91406 38.2422C6.91406 38.0868 6.9758 37.9378 7.08568 37.8279C7.19556 37.718 7.3446 37.6562 7.5 37.6562H32.5C32.6554 37.6562 32.8044 37.718 32.9143 37.8279C33.0242 37.9378 33.0859 38.0868 33.0859 38.2422C33.0859 38.3976 33.0242 38.5466 32.9143 38.6565C32.8044 38.7664 32.6554 38.8281 32.5 38.8281Z" fill="#3A1916"/>
<path d="M22.1484 14.2578C22.1484 13.8329 22.0224 13.4175 21.7864 13.0642C21.5503 12.7109 21.2147 12.4355 20.8222 12.2729C20.4296 12.1103 19.9976 12.0678 19.5809 12.1507C19.1641 12.2336 18.7813 12.4382 18.4808 12.7386C18.1804 13.0391 17.9757 13.4219 17.8928 13.8387C17.8099 14.2554 17.8525 14.6874 18.0151 15.08C18.1777 15.4726 18.4531 15.8081 18.8064 16.0442C19.1597 16.2802 19.5751 16.4063 20 16.4063C20.5695 16.4054 21.1155 16.1788 21.5183 15.7761C21.921 15.3733 22.1476 14.8274 22.1484 14.2578ZM19.0234 14.2578C19.0234 14.0647 19.0807 13.8759 19.188 13.7153C19.2953 13.5547 19.4478 13.4295 19.6263 13.3556C19.8047 13.2817 20.0011 13.2623 20.1905 13.3C20.38 13.3377 20.554 13.4307 20.6905 13.5673C20.8271 13.7039 20.9201 13.8779 20.9578 14.0673C20.9955 14.2567 20.9761 14.4531 20.9022 14.6315C20.8283 14.81 20.7031 14.9625 20.5426 15.0698C20.382 15.1771 20.1931 15.2344 20 15.2344C19.7411 15.234 19.493 15.1309 19.3099 14.9479C19.1269 14.7648 19.0239 14.5167 19.0234 14.2578Z" fill="#E25E52"/>
<path d="M20 25.9375C20.1554 25.9375 20.3044 25.8758 20.4143 25.7659C20.5242 25.656 20.5859 25.507 20.5859 25.3516V24.5703C20.5859 24.4149 20.5242 24.2659 20.4143 24.156C20.3044 24.0461 20.1554 23.9844 20 23.9844C19.8446 23.9844 19.6956 24.0461 19.5857 24.156C19.4758 24.2659 19.4141 24.4149 19.4141 24.5703V25.3516C19.4141 25.507 19.4758 25.656 19.5857 25.7659C19.6956 25.8758 19.8446 25.9375 20 25.9375Z" fill="#E25E52"/>
</svg>
