<svg width="50" height="50" viewBox="0 0 50 50" fill="none" xmlns="http://www.w3.org/2000/svg">
<g clip-path="url(#clip0_566_280)">
<path d="M22.2168 0.976562H20.0195V0.732422C20.0195 0.538172 19.9424 0.351877 19.805 0.214521C19.6677 0.0771657 19.4814 0 19.2871 0L2.68555 0C1.97361 0.00103329 1.29113 0.284306 0.78772 0.78772C0.284306 1.29113 0.00103329 1.97361 0 2.68555L0 10.498C0.00103329 11.21 0.284306 11.8925 0.78772 12.3959C1.29113 12.8993 1.97361 13.1826 2.68555 13.1836H3.66211V16.6016H2.19727C2.00302 16.6016 1.81672 16.6787 1.67937 16.8161C1.54201 16.9534 1.46484 17.1397 1.46484 17.334V19.6572C1.03682 19.8092 0.666267 20.0898 0.404011 20.4606C0.141755 20.8314 0.000634274 21.2743 0 21.7285L0 47.3145C0.00103329 48.0264 0.284306 48.7089 0.78772 49.2123C1.29113 49.7157 1.97361 49.999 2.68555 50H17.334C18.0459 49.999 18.7284 49.7157 19.2318 49.2123C19.7352 48.7089 20.0185 48.0264 20.0195 47.3145V34.9961C20.0178 34.4499 19.8503 33.917 19.5392 33.468C19.2282 33.019 18.7881 32.675 18.2773 32.4814L12.207 30.2051V21.7285C12.2064 21.2743 12.0653 20.8314 11.803 20.4606C11.5408 20.0898 11.1702 19.8092 10.7422 19.6572V17.334C10.7422 17.1397 10.665 16.9534 10.5277 16.8161C10.3903 16.6787 10.204 16.6016 10.0098 16.6016H8.54492V13.1836H10.498C10.6669 13.1838 10.8307 13.1256 10.9615 13.0188C11.0924 12.912 11.1822 12.7632 11.2158 12.5977L11.5088 11.1523C14.3838 13.6699 17.7275 13.7451 17.8848 13.7471H17.8945C18.0499 13.747 18.2012 13.6974 18.3266 13.6057C18.452 13.5139 18.5449 13.3846 18.592 13.2366C18.6391 13.0885 18.6378 12.9293 18.5885 12.7819C18.5391 12.6346 18.4442 12.5068 18.3174 12.417C16.5439 11.1611 15.6406 9.11035 15.1807 7.40039L19.4688 6.32617C19.6265 6.28563 19.7662 6.19375 19.8659 6.06503C19.9656 5.93631 20.0197 5.77806 20.0195 5.61523V5.37109H22.2168C22.411 5.37109 22.5973 5.29393 22.7347 5.15657C22.8721 5.01922 22.9492 4.83292 22.9492 4.63867V1.70898C22.9492 1.51473 22.8721 1.32844 22.7347 1.19108C22.5973 1.05373 22.411 0.976562 22.2168 0.976562ZM2.19727 20.9961H10.0098C10.204 20.9961 10.3903 21.0733 10.5277 21.2106C10.665 21.348 10.7422 21.5343 10.7422 21.7285V28.1738H1.46484V21.7285C1.46484 21.5343 1.54201 21.348 1.67937 21.2106C1.81672 21.0733 2.00302 20.9961 2.19727 20.9961ZM17.334 48.5352H2.68555C2.36195 48.5346 2.05176 48.4059 1.82295 48.1771C1.59414 47.9482 1.46536 47.638 1.46484 47.3145V41.3574H18.5547V47.3145C18.5542 47.638 18.4254 47.9482 18.1966 48.1771C17.9678 48.4059 17.6576 48.5346 17.334 48.5352ZM17.7627 33.8535C17.9948 33.9415 18.1948 34.0978 18.3362 34.3018C18.4776 34.5058 18.5538 34.7479 18.5547 34.9961V39.8926H1.46484V29.6387H10.7422V30.7129C10.7425 30.8617 10.7882 31.0068 10.8732 31.129C10.9582 31.2511 11.0784 31.3444 11.2178 31.3965L17.7627 33.8535ZM9.27734 19.5312H2.92969V18.0664H9.27734V19.5312ZM7.08008 16.6016H5.12695V13.1836H7.08008V16.6016ZM15.6611 11.8369C14.2089 11.3719 12.8971 10.5488 11.8467 9.44336L12.1016 8.16602L13.7559 7.75293C14.1816 9.35156 14.8252 10.7275 15.6611 11.8369ZM18.5547 5.04297L11.2969 6.85742C11.1628 6.89095 11.0409 6.96176 10.9453 7.06164C10.8498 7.16153 10.7844 7.28642 10.7568 7.42188L9.89746 11.7188H2.68555C2.36195 11.7182 2.05176 11.5895 1.82295 11.3606C1.59414 11.1318 1.46536 10.8216 1.46484 10.498V2.68555C1.46536 2.36195 1.59414 2.05176 1.82295 1.82295C2.05176 1.59414 2.36195 1.46536 2.68555 1.46484H18.5547V5.04297ZM21.4844 3.90625H20.0195V2.44141H21.4844V3.90625Z" fill="#3A1916"/>
<path d="M36.5723 23.1445C29.168 23.1445 23.1445 29.168 23.1445 36.5723C23.1445 43.9766 29.168 50 36.5723 50C43.9766 50 50 43.9766 50 36.5723C50 29.168 43.9766 23.1445 36.5723 23.1445ZM36.5723 48.5352C34.2062 48.5352 31.8933 47.8335 29.926 46.519C27.9588 45.2045 26.4254 43.3362 25.52 41.1503C24.6146 38.9643 24.3776 36.559 24.8392 34.2384C25.3008 31.9178 26.4402 29.7863 28.1132 28.1132C29.7863 26.4402 31.9178 25.3008 34.2384 24.8392C36.559 24.3776 38.9643 24.6146 41.1503 25.52C43.3362 26.4254 45.2045 27.9588 46.519 29.926C47.8335 31.8933 48.5352 34.2062 48.5352 36.5723C48.5318 39.744 47.2703 42.7848 45.0276 45.0276C42.7848 47.2703 39.744 48.5318 36.5723 48.5352Z" fill="#3A1916"/>
<path d="M25.707 3.77637C26.4141 4.26465 28.8164 5.85938 30.0293 5.85938C30.7415 5.85937 31.4246 5.57643 31.9283 5.0728C32.4319 4.56916 32.7148 3.88608 32.7148 3.17383C32.7148 2.46158 32.4319 1.7785 31.9283 1.27486C31.4246 0.771222 30.7415 0.488281 30.0293 0.488281C28.8164 0.488281 26.416 2.08301 25.707 2.57129C25.6093 2.63852 25.5295 2.7285 25.4743 2.83346C25.4191 2.93843 25.3903 3.05524 25.3903 3.17383C25.3903 3.29242 25.4191 3.40923 25.4743 3.51419C25.5295 3.61916 25.6093 3.70914 25.707 3.77637ZM30.0293 1.95312C30.353 1.95312 30.6635 2.08173 30.8925 2.31066C31.1214 2.53959 31.25 2.85008 31.25 3.17383C31.25 3.49758 31.1214 3.80807 30.8925 4.037C30.6635 4.26592 30.353 4.39453 30.0293 4.39453C29.6387 4.39453 28.5332 3.83398 27.4639 3.17383C28.5332 2.51367 29.6377 1.95312 30.0293 1.95312Z" fill="#E25E52"/>
<path d="M40.957 37.5263L36.9414 35.1826C36.8295 35.1169 36.702 35.0823 36.5723 35.0823C36.4425 35.0823 36.3151 35.1169 36.2031 35.1826L32.1875 37.5263C31.6826 37.8236 31.264 38.2474 30.9728 38.7558C30.6817 39.2643 30.5282 39.8398 30.5273 40.4257V40.7822C30.5274 41.4487 30.7258 42.1 31.0972 42.6534C31.4686 43.2068 31.9963 43.6372 32.613 43.8898C33.2298 44.1423 33.9078 44.2057 34.5606 44.0717C35.2135 43.9378 35.8118 43.6126 36.2793 43.1376L36.5723 42.8359L36.8652 43.1376C37.3327 43.6126 37.931 43.9378 38.5839 44.0717C39.2368 44.2057 39.9147 44.1423 40.5315 43.8898C41.1483 43.6372 41.6759 43.2068 42.0473 42.6534C42.4188 42.1 42.6171 41.4487 42.6172 40.7822V40.4296C42.6171 39.8431 42.4638 39.2667 42.1727 38.7575C41.8815 38.2483 41.4625 37.8239 40.957 37.5263ZM41.1523 40.7822C41.1523 41.158 41.0405 41.5253 40.8311 41.8373C40.6217 42.1493 40.3242 42.392 39.9764 42.5344C39.6286 42.6768 39.2464 42.7126 38.8782 42.637C38.5101 42.5615 38.1728 42.3781 37.9092 42.1103L37.0908 41.2783C37.0226 41.209 36.9412 41.154 36.8516 41.1164C36.7619 41.0789 36.6656 41.0596 36.5684 41.0596C36.4711 41.0596 36.3749 41.0789 36.2852 41.1164C36.1955 41.154 36.1141 41.209 36.0459 41.2783L35.2275 42.1103C34.9639 42.3781 34.6266 42.5615 34.2585 42.637C33.8904 42.7126 33.5081 42.6768 33.1603 42.5344C32.8126 42.392 32.515 42.1493 32.3056 41.8373C32.0962 41.5253 31.9844 41.158 31.9844 40.7822V40.4296C31.985 40.099 32.0719 39.7743 32.2365 39.4876C32.4011 39.2009 32.6377 38.9621 32.9229 38.7949L36.5684 36.665L40.2139 38.7949C40.4998 38.9616 40.7371 39.2002 40.9024 39.487C41.0677 39.7737 41.1552 40.0987 41.1562 40.4296L41.1523 40.7822Z" fill="#E25E52"/>
<path d="M36.5723 34.2666C37.9258 34.2666 38.8242 32.4541 38.8242 31.2559C38.8242 30.9601 38.766 30.6673 38.6528 30.3941C38.5396 30.1209 38.3737 29.8726 38.1646 29.6635C37.9555 29.4544 37.7073 29.2885 37.4341 29.1753C37.1608 29.0622 36.868 29.0039 36.5723 29.0039C36.2765 29.0039 35.9837 29.0622 35.7105 29.1753C35.4373 29.2885 35.189 29.4544 34.9799 29.6635C34.7708 29.8726 34.6049 30.1209 34.4917 30.3941C34.3786 30.6673 34.3203 30.9601 34.3203 31.2559C34.3203 32.4541 35.2187 34.2666 36.5723 34.2666ZM36.5723 30.4688C36.7809 30.469 36.981 30.552 37.1285 30.6996C37.2761 30.8471 37.3591 31.0472 37.3594 31.2559C37.3594 31.9395 36.7891 32.8018 36.5723 32.8018C36.3555 32.8018 35.7852 31.9424 35.7852 31.2559C35.7854 31.0472 35.8684 30.8471 36.016 30.6996C36.1635 30.552 36.3636 30.469 36.5723 30.4688Z" fill="#E25E52"/>
<path d="M41.8887 31.2822C41.2917 31.283 40.7195 31.5205 40.2975 31.9427C39.8755 32.3649 39.6382 32.9373 39.6377 33.5342C39.6377 33.5967 39.6377 33.6631 39.6377 33.7295C39.6318 34.5547 39.625 35.585 40.2002 36.1611C40.3216 36.2842 40.4666 36.3814 40.6265 36.447C40.7865 36.5127 40.958 36.5453 41.1308 36.543C42.3691 36.543 44.1416 34.7705 44.1416 33.5322C44.1403 32.9354 43.9024 32.3634 43.4801 31.9416C43.0578 31.5199 42.4855 31.2827 41.8887 31.2822ZM41.2051 35.0703C41.0908 34.792 41.0967 34.041 41.0986 33.7412C41.0986 33.6689 41.0986 33.5996 41.0986 33.5342C41.0949 33.4285 41.1125 33.3232 41.1503 33.2246C41.1882 33.1259 41.2455 33.0358 41.319 32.9598C41.3924 32.8837 41.4803 32.8233 41.5776 32.7819C41.6749 32.7406 41.7795 32.7194 41.8852 32.7194C41.9909 32.7194 42.0955 32.7406 42.1928 32.7819C42.2901 32.8233 42.3781 32.8837 42.4515 32.9598C42.5249 33.0358 42.5823 33.1259 42.6201 33.2246C42.658 33.3232 42.6756 33.4285 42.6719 33.5342C42.6758 33.9434 41.6836 34.9609 41.2109 35.0703H41.2051Z" fill="#E25E52"/>
<path d="M32.9453 36.1631C33.5205 35.584 33.5137 34.5567 33.5078 33.7315C33.5078 33.6631 33.5078 33.5967 33.5078 33.5362C33.5141 33.2365 33.4604 32.9387 33.3501 32.6601C33.2397 32.3814 33.0749 32.1277 32.8652 31.9136C32.6555 31.6995 32.4052 31.5294 32.129 31.4132C31.8527 31.2971 31.556 31.2373 31.2563 31.2373C30.9567 31.2373 30.66 31.2971 30.3837 31.4132C30.1075 31.5294 29.8572 31.6995 29.6475 31.9136C29.4378 32.1277 29.273 32.3814 29.1626 32.6601C29.0523 32.9387 28.9986 33.2365 29.0049 33.5362C29.0049 34.7744 30.7773 36.5469 32.0156 36.5469C32.1884 36.5488 32.3599 36.5158 32.5196 36.4499C32.6794 36.3839 32.8242 36.2864 32.9453 36.1631ZM30.4687 33.5342C30.465 33.4286 30.4826 33.3233 30.5205 33.2246C30.5583 33.1259 30.6157 33.0358 30.6891 32.9598C30.7625 32.8838 30.8505 32.8233 30.9478 32.782C31.0451 32.7407 31.1497 32.7194 31.2554 32.7194C31.3611 32.7194 31.4657 32.7407 31.563 32.782C31.6603 32.8233 31.7482 32.8838 31.8217 32.9598C31.8951 33.0358 31.9524 33.1259 31.9903 33.2246C32.0281 33.3233 32.0457 33.4286 32.042 33.5342C32.042 33.5996 32.042 33.669 32.042 33.7412C32.042 34.041 32.0498 34.792 31.9355 35.0703C31.4609 34.961 30.4687 33.9434 30.4687 33.5342Z" fill="#E25E52"/>
</g>
<defs>
<clipPath id="clip0_566_280">
<rect width="50" height="50" fill="white"/>
</clipPath>
</defs>
</svg>
