<svg width="50" height="50" viewBox="0 0 50 50" fill="none" xmlns="http://www.w3.org/2000/svg">
<path d="M42.0898 5.37109C42.2841 5.37109 42.4704 5.29393 42.6077 5.15657C42.7451 5.01922 42.8223 4.83292 42.8223 4.63867V2.19727C42.8217 1.61467 42.5901 1.05609 42.1781 0.644135C41.7662 0.23218 41.2076 0.000517171 40.625 0L9.375 0C8.79241 0.000517171 8.23382 0.23218 7.82187 0.644135C7.40991 1.05609 7.17825 1.61467 7.17773 2.19727V4.63867C7.17773 4.83292 7.2549 5.01922 7.39226 5.15657C7.52961 5.29393 7.71591 5.37109 7.91016 5.37109H8.64258V44.6289H7.91016C7.71591 44.6289 7.52961 44.7061 7.39226 44.8434C7.2549 44.9808 7.17773 45.1671 7.17773 45.3613V47.8027C7.17825 48.3853 7.40991 48.9439 7.82187 49.3559C8.23382 49.7678 8.79241 49.9995 9.375 50H40.625C41.2076 49.9995 41.7662 49.7678 42.1781 49.3559C42.5901 48.9439 42.8217 48.3853 42.8223 47.8027V45.3613C42.8223 45.1671 42.7451 44.9808 42.6077 44.8434C42.4704 44.7061 42.2841 44.6289 42.0898 44.6289H41.3574V5.37109H42.0898ZM8.64258 2.19727C8.64258 2.00302 8.71974 1.81672 8.8571 1.67937C8.99446 1.54201 9.18075 1.46484 9.375 1.46484H40.625C40.8193 1.46484 41.0055 1.54201 41.1429 1.67937C41.2803 1.81672 41.3574 2.00302 41.3574 2.19727V3.90625H8.64258V2.19727ZM39.8926 40.8691H10.1074V9.13086H39.8926V40.8691ZM41.3574 47.8027C41.3574 47.997 41.2803 48.1833 41.1429 48.3206C41.0055 48.458 40.8193 48.5352 40.625 48.5352H9.375C9.18075 48.5352 8.99446 48.458 8.8571 48.3206C8.71974 48.1833 8.64258 47.997 8.64258 47.8027V46.0938H41.3574V47.8027ZM10.1074 44.6289V42.334H39.8926V44.6289H10.1074ZM39.8926 7.66602H10.1074V5.37109H39.8926V7.66602Z" fill="#3A1916"/>
<path d="M25 38.4277C32.4043 38.4277 38.4277 32.4043 38.4277 25C38.4277 17.5957 32.4043 11.5723 25 11.5723C17.5957 11.5723 11.5723 17.5957 11.5723 25C11.5723 32.4043 17.5957 38.4277 25 38.4277ZM25 13.0371C27.366 13.0371 29.6789 13.7387 31.6462 15.0532C33.6135 16.3677 35.1468 18.2361 36.0523 20.422C36.9577 22.6079 37.1946 25.0133 36.733 27.3338C36.2714 29.6544 35.1321 31.786 33.459 33.459C31.786 35.1321 29.6544 36.2714 27.3338 36.733C25.0133 37.1946 22.6079 36.9577 20.422 36.0523C18.2361 35.1468 16.3677 33.6135 15.0532 31.6462C13.7387 29.6789 13.0371 27.366 13.0371 25C13.0405 21.8283 14.3019 18.7874 16.5447 16.5447C18.7874 14.3019 21.8283 13.0405 25 13.0371Z" fill="#E25E52"/>
<path d="M29.3848 25.954L25.3691 23.6103C25.2572 23.5446 25.1298 23.51 25 23.51C24.8702 23.51 24.7428 23.5446 24.6309 23.6103L20.6152 25.954C20.1104 26.2513 19.6917 26.6751 19.4006 27.1835C19.1094 27.692 18.9559 28.2676 18.9551 28.8535V29.2099C18.9551 29.8764 19.1535 30.5278 19.5249 31.0812C19.8963 31.6346 20.424 32.0649 21.0408 32.3175C21.6575 32.5701 22.3355 32.6334 22.9884 32.4995C23.6413 32.3655 24.2395 32.0404 24.707 31.5654L25 31.2636L25.293 31.5654C25.7605 32.0404 26.3587 32.3655 27.0116 32.4995C27.6645 32.6334 28.3425 32.5701 28.9592 32.3175C29.576 32.0649 30.1037 31.6346 30.4751 31.0812C30.8465 30.5278 31.0449 29.8764 31.0449 29.2099V28.8535C31.0441 28.2676 30.8906 27.692 30.5994 27.1835C30.3083 26.6751 29.8896 26.2513 29.3848 25.954ZM29.5801 29.2099C29.5801 29.5857 29.4682 29.953 29.2588 30.265C29.0494 30.5771 28.7519 30.8197 28.4041 30.9622C28.0564 31.1046 27.6741 31.1403 27.306 31.0648C26.9378 30.9892 26.6005 30.8059 26.3369 30.538L25.5186 29.706C25.4503 29.6367 25.369 29.5817 25.2793 29.5442C25.1896 29.5066 25.0933 29.4873 24.9961 29.4873C24.8989 29.4873 24.8026 29.5066 24.7129 29.5442C24.6232 29.5817 24.5419 29.6367 24.4736 29.706L23.6553 30.538C23.3917 30.8059 23.0544 30.9892 22.6862 31.0648C22.3181 31.1403 21.9358 31.1046 21.5881 30.9622C21.2403 30.8197 20.9428 30.5771 20.7334 30.265C20.524 29.953 20.4121 29.5857 20.4121 29.2099V28.8535C20.4127 28.5229 20.4997 28.1982 20.6642 27.9115C20.8288 27.6247 21.0654 27.386 21.3506 27.2187L25 25.0888L28.6455 27.2187C28.9307 27.386 29.1673 27.6247 29.3318 27.9115C29.4964 28.1982 29.5834 28.5229 29.584 28.8535L29.5801 29.2099Z" fill="#E25E52"/>
<path d="M25 22.6943C26.3535 22.6943 27.252 20.8818 27.252 19.6836C27.252 19.0863 27.0147 18.5135 26.5924 18.0912C26.17 17.6689 25.5973 17.4316 25 17.4316C24.4027 17.4316 23.83 17.6689 23.4076 18.0912C22.9853 18.5135 22.748 19.0863 22.748 19.6836C22.748 20.8818 23.6465 22.6943 25 22.6943ZM25 18.8965C25.2087 18.8967 25.4087 18.9798 25.5563 19.1273C25.7038 19.2749 25.7869 19.4749 25.7871 19.6836C25.7871 20.3672 25.2158 21.2295 25 21.2295C24.7842 21.2295 24.2129 20.3701 24.2129 19.6836C24.2131 19.4749 24.2962 19.2749 24.4437 19.1273C24.5913 18.9798 24.7913 18.8967 25 18.8965Z" fill="#E25E52"/>
<path d="M29.5576 24.9727C30.7959 24.9727 32.5683 23.2002 32.5683 21.9619C32.5746 21.6623 32.521 21.3645 32.4106 21.0859C32.3003 20.8072 32.1354 20.5534 31.9257 20.3393C31.7161 20.1252 31.4657 19.9551 31.1895 19.839C30.9132 19.7229 30.6166 19.6631 30.3169 19.6631C30.0172 19.6631 29.7205 19.7229 29.4443 19.839C29.168 19.9551 28.9177 20.1252 28.708 20.3393C28.4983 20.5534 28.3335 20.8072 28.2231 21.0859C28.1128 21.3645 28.0592 21.6623 28.0654 21.9619C28.0654 22.0244 28.0654 22.0908 28.0654 22.1572C28.0596 22.9824 28.0527 24.0127 28.6279 24.5889C28.749 24.7122 28.8938 24.8097 29.0536 24.8757C29.2133 24.9416 29.3848 24.9746 29.5576 24.9727ZM29.5293 22.168C29.5293 22.0957 29.5293 22.0264 29.5293 21.961C29.5256 21.8553 29.5431 21.75 29.581 21.6513C29.6189 21.5526 29.6762 21.4626 29.7496 21.3866C29.823 21.3105 29.911 21.25 30.0083 21.2087C30.1056 21.1674 30.2102 21.1461 30.3159 21.1461C30.4216 21.1461 30.5262 21.1674 30.6235 21.2087C30.7208 21.25 30.8088 21.3105 30.8822 21.3866C30.9556 21.4626 31.0129 21.5526 31.0508 21.6513C31.0887 21.75 31.1062 21.8553 31.1025 21.961C31.1025 22.3701 30.1103 23.3858 29.6377 23.4971C29.5215 23.2197 29.5273 22.4688 29.5293 22.168Z" fill="#E25E52"/>
<path d="M20.4424 24.9727C20.6152 24.975 20.7868 24.9424 20.9467 24.8768C21.1066 24.8111 21.2516 24.7139 21.373 24.5908C21.9482 24.0117 21.9414 22.9844 21.9355 22.1592C21.9355 22.0908 21.9355 22.0244 21.9355 21.9639C21.9418 21.6643 21.8882 21.3664 21.7778 21.0878C21.6675 20.8092 21.5026 20.5554 21.2929 20.3413C21.0833 20.1272 20.833 19.9571 20.5567 19.841C20.2804 19.7249 19.9838 19.665 19.6841 19.665C19.3844 19.665 19.0877 19.7249 18.8115 19.841C18.5352 19.9571 18.2849 20.1272 18.0752 20.3413C17.8655 20.5554 17.7007 20.8092 17.5903 21.0878C17.48 21.3664 17.4264 21.6643 17.4326 21.9639C17.4316 23.2002 19.2041 24.9727 20.4424 24.9727ZM19.6836 21.1748C19.8921 21.1753 20.0919 21.2585 20.2392 21.406C20.3866 21.5535 20.4695 21.7534 20.4697 21.9619C20.4697 22.0274 20.4697 22.0967 20.4697 22.169C20.4697 22.4688 20.4775 23.2197 20.3633 23.4981C19.8877 23.3867 18.8984 22.3711 18.8984 21.9619C18.8987 21.7536 18.9814 21.5538 19.1286 21.4063C19.2757 21.2588 19.4753 21.1756 19.6836 21.1748Z" fill="#E25E52"/>
</svg>
