<svg width="50" height="50" viewBox="0 0 50 50" fill="none" xmlns="http://www.w3.org/2000/svg">
<g clip-path="url(#clip0_682_23088)">
<path d="M49.2676 0H0.732422C0.538172 0 0.351877 0.0771656 0.214521 0.214521C0.0771656 0.351877 0 0.538172 0 0.732422L0 34.9121C0 35.1064 0.0771656 35.2927 0.214521 35.43C0.351877 35.5674 0.538172 35.6445 0.732422 35.6445H16.4863C16.5451 36.3342 16.6881 37.014 16.9121 37.6689L12.6816 44.9932C12.6139 45.1111 12.5802 45.2455 12.5844 45.3815C12.5886 45.5174 12.6306 45.6495 12.7056 45.763C12.7805 45.8764 12.8856 45.9668 13.009 46.024C13.1324 46.0812 13.2692 46.103 13.4043 46.0869L17.7061 45.5684L19.4082 49.5537C19.4618 49.6787 19.5491 49.7863 19.6604 49.8646C19.7716 49.9429 19.9023 49.9887 20.0381 49.9971H20.082C20.2107 49.9971 20.337 49.9632 20.4484 49.8989C20.5598 49.8347 20.6524 49.7422 20.7168 49.6309L24.2988 43.4248C24.5306 43.4443 24.7643 43.4541 25 43.4541C25.2357 43.4541 25.4694 43.4443 25.7012 43.4248L29.2832 49.6309C29.3476 49.7422 29.4402 49.8347 29.5516 49.8989C29.663 49.9632 29.7893 49.9971 29.918 49.9971H29.9619C30.0977 49.9887 30.2284 49.9429 30.3396 49.8646C30.4509 49.7863 30.5382 49.6787 30.5918 49.5537L32.2939 45.5684L36.5957 46.0938C36.7308 46.1099 36.8676 46.0881 36.991 46.0309C37.1144 45.9737 37.2195 45.8833 37.2944 45.7698C37.3694 45.6563 37.4114 45.5242 37.4156 45.3883C37.4198 45.2523 37.3861 45.1179 37.3184 45L33.0879 37.6758C33.3124 37.0187 33.4554 36.3365 33.5137 35.6445H49.2676C49.4618 35.6445 49.6481 35.5674 49.7855 35.43C49.9228 35.2927 50 35.1064 50 34.9121V0.732422C50 0.538172 49.9228 0.351877 49.7855 0.214521C49.6481 0.0771656 49.4618 0 49.2676 0ZM25 26.3672C23.3842 26.3694 21.802 26.8292 20.4367 27.6933C19.0714 28.5575 17.9787 29.7906 17.2852 31.25H7.25098C7.10591 30.5469 6.75809 29.9017 6.25046 29.3941C5.74282 28.8864 5.09762 28.5386 4.39453 28.3936V7.25098C5.09762 7.10591 5.74282 6.75809 6.25046 6.25046C6.75809 5.74282 7.10591 5.09762 7.25098 4.39453H42.749C42.8941 5.09762 43.2419 5.74282 43.7495 6.25046C44.2572 6.75809 44.9024 7.10591 45.6055 7.25098V28.3936C44.9024 28.5386 44.2572 28.8864 43.7495 29.3941C43.2419 29.9017 42.8941 30.5469 42.749 31.25H32.7197C32.0258 29.7899 30.9324 28.5562 29.5661 27.692C28.1998 26.8278 26.6166 26.3685 25 26.3672ZM20.1807 47.6328L18.8379 44.4893C18.7752 44.3437 18.6672 44.2223 18.53 44.1431C18.3927 44.0639 18.2335 44.0312 18.0762 44.0498L14.6826 44.459L17.666 39.292C18.8017 41.1919 20.6279 42.5793 22.7627 43.1641L20.1807 47.6328ZM17.9199 34.9121C17.9199 33.5118 18.3352 32.1429 19.1131 30.9786C19.8911 29.8143 20.9969 28.9068 22.2906 28.371C23.5843 27.8351 25.0079 27.6949 26.3813 27.9681C27.7547 28.2413 29.0162 28.9156 30.0064 29.9057C30.9965 30.8959 31.6709 32.1575 31.944 33.5309C32.2172 34.9043 32.077 36.3278 31.5411 37.6215C31.0053 38.9153 30.0978 40.021 28.9335 40.799C27.7692 41.577 26.4003 41.9922 25 41.9922C23.1229 41.9901 21.3232 41.2435 19.9959 39.9162C18.6686 38.5889 17.922 36.7892 17.9199 34.9121ZM35.3174 44.459L31.9238 44.0498C31.7664 44.0309 31.6071 44.0635 31.4698 44.1427C31.3325 44.2219 31.2245 44.3435 31.1621 44.4893L29.8193 47.6328L27.2373 43.1641C29.3713 42.5805 31.1973 41.1949 32.334 39.2969L35.3174 44.459ZM48.5352 34.1797H33.5137C33.4712 33.6849 33.3856 33.1947 33.2578 32.7148H43.4082C43.6025 32.7148 43.7887 32.6377 43.9261 32.5003C44.0635 32.363 44.1406 32.1767 44.1406 31.9824C44.1411 31.3998 44.3728 30.8412 44.7848 30.4293C45.1967 30.0173 45.7553 29.7857 46.3379 29.7852C46.5321 29.7852 46.7184 29.708 46.8558 29.5706C46.9931 29.4333 47.0703 29.247 47.0703 29.0527V6.5918C47.0703 6.39755 46.9931 6.21125 46.8558 6.0739C46.7184 5.93654 46.5321 5.85938 46.3379 5.85938C45.7553 5.85886 45.1967 5.62719 44.7848 5.21524C44.3728 4.80328 44.1411 4.2447 44.1406 3.66211C44.1406 3.46786 44.0635 3.28156 43.9261 3.14421C43.7887 3.00685 43.6025 2.92969 43.4082 2.92969H6.5918C6.39755 2.92969 6.21125 3.00685 6.0739 3.14421C5.93654 3.28156 5.85938 3.46786 5.85938 3.66211C5.85886 4.2447 5.62719 4.80328 5.21524 5.21524C4.80328 5.62719 4.2447 5.85886 3.66211 5.85938C3.46786 5.85938 3.28156 5.93654 3.14421 6.0739C3.00685 6.21125 2.92969 6.39755 2.92969 6.5918V29.0527C2.92969 29.247 3.00685 29.4333 3.14421 29.5706C3.28156 29.708 3.46786 29.7852 3.66211 29.7852C4.2447 29.7857 4.80328 30.0173 5.21524 30.4293C5.62719 30.8412 5.85886 31.3998 5.85938 31.9824C5.85938 32.1767 5.93654 32.363 6.0739 32.5003C6.21125 32.6377 6.39755 32.7148 6.5918 32.7148H16.7422C16.6144 33.1947 16.5288 33.6849 16.4863 34.1797H1.46484V1.46484H48.5352V34.1797Z" fill="#3A1916"/>
<path d="M25 29.2969C23.8894 29.2969 22.8038 29.6262 21.8803 30.2432C20.9569 30.8602 20.2372 31.7372 19.8122 32.7633C19.3872 33.7893 19.276 34.9183 19.4927 36.0076C19.7093 37.0968 20.2441 38.0974 21.0294 38.8827C21.8147 39.668 22.8153 40.2028 23.9045 40.4194C24.9938 40.6361 26.1228 40.5249 27.1489 40.0999C28.1749 39.6749 29.0519 38.9552 29.6689 38.0318C30.2859 37.1083 30.6152 36.0227 30.6152 34.9121C30.6137 33.4233 30.0216 31.996 28.9689 30.9433C27.9161 29.8905 26.4888 29.2984 25 29.2969ZM25 39.0625C24.1791 39.0625 23.3767 38.8191 22.6942 38.363C22.0116 37.907 21.4797 37.2588 21.1655 36.5004C20.8514 35.742 20.7692 34.9075 20.9294 34.1024C21.0895 33.2973 21.4848 32.5578 22.0652 31.9773C22.6457 31.3969 23.3852 31.0016 24.1903 30.8415C24.9954 30.6813 25.8299 30.7635 26.5883 31.0776C27.3467 31.3918 27.9949 31.9237 28.4509 32.6063C28.907 33.2888 29.1504 34.0912 29.1504 34.9121C29.1491 36.0125 28.7114 37.0674 27.9333 37.8455C27.1553 38.6235 26.1004 39.0612 25 39.0625Z" fill="#3A1916"/>
<path d="M20.3398 16.562L15.75 13.8813C15.6381 13.8156 15.5106 13.781 15.3809 13.781C15.2511 13.781 15.1237 13.8156 15.0117 13.8813L10.4219 16.562C9.85882 16.8911 9.39146 17.3616 9.06603 17.9268C8.74061 18.492 8.56838 19.1324 8.56641 19.7846V20.1909C8.56609 20.9321 8.78641 21.6566 9.19931 22.2722C9.61221 22.8878 10.199 23.3665 10.8849 23.6474C11.5709 23.9283 12.3249 23.9987 13.0509 23.8495C13.777 23.7004 14.4422 23.3385 14.9619 22.81L15.375 22.3901L15.7881 22.81C16.3078 23.3385 16.973 23.7004 17.6991 23.8495C18.4251 23.9987 19.1791 23.9283 19.8651 23.6474C20.551 23.3665 21.1378 22.8878 21.5507 22.2722C21.9636 21.6566 22.1839 20.9321 22.1836 20.1909V19.7856C22.1829 19.1344 22.0125 18.4946 21.6892 17.9293C21.3659 17.364 20.9008 16.8927 20.3398 16.562ZM20.7256 20.1918C20.7255 20.6422 20.5914 21.0823 20.3404 21.4562C20.0895 21.8301 19.7329 22.1209 19.3162 22.2915C18.8995 22.4622 18.4414 22.5051 18.0002 22.4146C17.5591 22.3242 17.1548 22.1045 16.8389 21.7836L15.9043 20.8334C15.8361 20.7642 15.7547 20.7092 15.665 20.6716C15.5753 20.6341 15.4791 20.6147 15.3818 20.6147C15.2846 20.6147 15.1883 20.6341 15.0986 20.6716C15.0089 20.7092 14.9276 20.7642 14.8594 20.8334L13.9248 21.7836C13.6089 22.1045 13.2046 22.3242 12.7634 22.4146C12.3223 22.5051 11.8642 22.4622 11.4475 22.2915C11.0307 22.1209 10.6742 21.8301 10.4232 21.4562C10.1723 21.0823 10.0382 20.6422 10.0381 20.1918V19.7856C10.0389 19.3895 10.143 19.0005 10.3401 18.6569C10.5373 18.3134 10.8206 18.0272 11.1621 17.8266L15.3818 15.3618L19.6016 17.8266C19.9431 18.0272 20.2264 18.3134 20.4235 18.6569C20.6207 19.0005 20.7248 19.3895 20.7256 19.7856V20.1918Z" fill="#E25E52"/>
<path d="M15.3809 12.6406C16.9121 12.6406 17.8496 10.4805 17.8496 9.30469C17.8496 8.64993 17.5895 8.022 17.1265 7.55902C16.6635 7.09604 16.0356 6.83594 15.3809 6.83594C14.7261 6.83594 14.0982 7.09604 13.6352 7.55902C13.1722 8.022 12.9121 8.64993 12.9121 9.30469C12.9121 10.4805 13.8496 12.6406 15.3809 12.6406ZM15.3809 8.30078C15.647 8.30104 15.9022 8.40689 16.0904 8.5951C16.2787 8.78332 16.3845 9.03851 16.3848 9.30469C16.3848 10.0762 15.7354 11.1758 15.3809 11.1758C15.0264 11.1758 14.377 10.0762 14.377 9.30469C14.3772 9.03851 14.4831 8.78332 14.6713 8.5951C14.8595 8.40689 15.1147 8.30104 15.3809 8.30078Z" fill="#E25E52"/>
<path d="M21.4563 9.44165C20.8019 9.44243 20.1746 9.70264 19.7118 10.1652C19.249 10.6278 18.9885 11.2551 18.9875 11.9094C18.9875 11.9817 18.9875 12.0579 18.9875 12.136C18.9816 13.0598 18.9738 14.2092 19.6008 14.8411C19.7297 14.9718 19.8837 15.075 20.0535 15.1447C20.2234 15.2143 20.4055 15.2489 20.5891 15.2463C21.9563 15.2463 23.926 13.2815 23.926 11.9094C23.925 11.2549 23.6644 10.6275 23.2014 10.1649C22.7384 9.70227 22.1108 9.44217 21.4563 9.44165ZM21.7316 13.0549C21.258 13.5286 20.8137 13.7561 20.6164 13.7805C20.4426 13.5159 20.4494 12.5286 20.4514 12.1467C20.4514 12.0647 20.4514 11.9856 20.4514 11.9104C20.4514 11.6441 20.5571 11.3888 20.7454 11.2005C20.9337 11.0123 21.189 10.9065 21.4553 10.9065C21.7215 10.9065 21.9769 11.0123 22.1652 11.2005C22.3534 11.3888 22.4592 11.6441 22.4592 11.9104C22.4602 12.0823 22.2346 12.551 21.7316 13.054V13.0549Z" fill="#E25E52"/>
<path d="M11.1602 14.8438C11.7871 14.2119 11.7793 13.0625 11.7734 12.1387C11.7734 12.0605 11.7734 11.9844 11.7734 11.9121C11.7734 11.2574 11.5133 10.6294 11.0504 10.1664C10.5874 9.70346 9.95944 9.44336 9.30469 9.44336C8.64993 9.44336 8.022 9.70346 7.55902 10.1664C7.09604 10.6294 6.83594 11.2574 6.83594 11.9121C6.83594 13.2842 8.80078 15.249 10.1729 15.249C10.3562 15.2515 10.5382 15.2168 10.7079 15.1472C10.8775 15.0775 11.0314 14.9743 11.1602 14.8438ZM9.02832 13.0566C8.52539 12.5537 8.2998 12.0801 8.2998 11.9121C8.2998 11.6459 8.40557 11.3905 8.59384 11.2022C8.78211 11.014 9.03746 10.9082 9.30371 10.9082C9.56996 10.9082 9.82531 11.014 10.0136 11.2022C10.2018 11.3905 10.3076 11.6459 10.3076 11.9121C10.3076 11.9873 10.3076 12.0664 10.3076 12.1484C10.3076 12.5303 10.3164 13.5156 10.1426 13.7822C9.95215 13.7568 9.50488 13.5293 9.02832 13.0527V13.0566Z" fill="#E25E52"/>
<path d="M27.7832 12.207H42.4316C42.6259 12.207 42.8122 12.1299 42.9495 11.9925C43.0869 11.8552 43.1641 11.6689 43.1641 11.4746C43.1641 11.2804 43.0869 11.0941 42.9495 10.9567C42.8122 10.8194 42.6259 10.7422 42.4316 10.7422H27.7832C27.589 10.7422 27.4027 10.8194 27.2653 10.9567C27.1279 11.0941 27.0508 11.2804 27.0508 11.4746C27.0508 11.6689 27.1279 11.8552 27.2653 11.9925C27.4027 12.1299 27.589 12.207 27.7832 12.207Z" fill="#3A1916"/>
<path d="M43.1641 14.4043C43.1641 14.21 43.0869 14.0238 42.9495 13.8864C42.8122 13.749 42.6259 13.6719 42.4316 13.6719H27.7832C27.589 13.6719 27.4027 13.749 27.2653 13.8864C27.1279 14.0238 27.0508 14.21 27.0508 14.4043C27.0508 14.5985 27.1279 14.7848 27.2653 14.9222C27.4027 15.0596 27.589 15.1367 27.7832 15.1367H42.4316C42.6259 15.1367 42.8122 15.0596 42.9495 14.9222C43.0869 14.7848 43.1641 14.5985 43.1641 14.4043Z" fill="#3A1916"/>
<path d="M42.4316 17.5781H37.5684C37.3741 17.5781 37.1878 17.6553 37.0505 17.7926C36.9131 17.93 36.8359 18.1163 36.8359 18.3105C36.8359 18.5048 36.9131 18.6911 37.0505 18.8284C37.1878 18.9658 37.3741 19.043 37.5684 19.043H42.4316C42.6259 19.043 42.8122 18.9658 42.9495 18.8284C43.0869 18.6911 43.1641 18.5048 43.1641 18.3105C43.1641 18.1163 43.0869 17.93 42.9495 17.7926C42.8122 17.6553 42.6259 17.5781 42.4316 17.5781Z" fill="#3A1916"/>
<path d="M33.6426 17.5781C33.4483 17.5781 33.262 17.6553 33.1247 17.7926C32.9873 17.93 32.9102 18.1163 32.9102 18.3105C32.9102 18.5048 32.9873 18.6911 33.1247 18.8284C33.262 18.9658 33.4483 19.043 33.6426 19.043H34.6191C34.8134 19.043 34.9997 18.9658 35.137 18.8284C35.2744 18.6911 35.3516 18.5048 35.3516 18.3105C35.3516 18.1163 35.2744 17.93 35.137 17.7926C34.9997 17.6553 34.8134 17.5781 34.6191 17.5781H33.6426Z" fill="#3A1916"/>
<path d="M43.1641 21.2402C43.1641 21.046 43.0869 20.8597 42.9495 20.7223C42.8122 20.585 42.6259 20.5078 42.4316 20.5078H33.6426C33.4483 20.5078 33.262 20.585 33.1247 20.7223C32.9873 20.8597 32.9102 21.046 32.9102 21.2402C32.9102 21.4345 32.9873 21.6208 33.1247 21.7581C33.262 21.8955 33.4483 21.9727 33.6426 21.9727H42.4316C42.6259 21.9727 42.8122 21.8955 42.9495 21.7581C43.0869 21.6208 43.1641 21.4345 43.1641 21.2402Z" fill="#3A1916"/>
</g>
<defs>
<clipPath id="clip0_682_23088">
<rect width="50" height="50" fill="white"/>
</clipPath>
</defs>
</svg>
