<svg width="60" height="60" viewBox="0 0 60 60" fill="none" xmlns="http://www.w3.org/2000/svg">
<path d="M23.0578 41.6156L29.325 49.1367C29.4074 49.2358 29.5105 49.3156 29.6272 49.3703C29.7439 49.425 29.8711 49.4534 30 49.4534C30.1289 49.4534 30.2561 49.425 30.3728 49.3703C30.4895 49.3156 30.5926 49.2358 30.675 49.1367L36.9422 41.6156C45.3375 38.727 51.3867 30.75 51.3867 21.3867C51.3867 9.59414 41.7926 0 30 0C18.2074 0 8.61328 9.59414 8.61328 21.3867C8.61328 30.75 14.6625 38.727 23.0578 41.6156ZM30 47.2008L25.9957 42.3961C28.6415 42.8992 31.3585 42.8992 34.0043 42.3961L30 47.2008ZM30 1.75781C40.8234 1.75781 49.6289 10.5633 49.6289 21.3867C49.6289 32.2102 40.8234 41.0156 30 41.0156C19.1766 41.0156 10.3711 32.2102 10.3711 21.3867C10.3711 10.5633 19.1766 1.75781 30 1.75781Z" fill="#3A1916"/>
<path d="M30 38.6719C39.5309 38.6719 47.2852 30.9176 47.2852 21.3867C47.2852 11.8559 39.5309 4.10156 30 4.10156C20.4691 4.10156 12.7148 11.8559 12.7148 21.3867C12.7148 30.9176 20.4691 38.6719 30 38.6719ZM30 5.85938C38.5617 5.85938 45.5273 12.825 45.5273 21.3867C45.5273 29.9484 38.5617 36.9141 30 36.9141C21.4383 36.9141 14.4727 29.9484 14.4727 21.3867C14.4727 12.825 21.4383 5.85938 30 5.85938Z" fill="#E25E52"/>
<path d="M36.6387 23.0739L30.443 19.4516C30.3085 19.3733 30.1556 19.332 30 19.332C29.8444 19.332 29.6915 19.3733 29.557 19.4516L23.3613 23.0716C22.6188 23.5072 22.0028 24.1291 21.5743 24.8758C21.1458 25.6225 20.9195 26.4681 20.918 27.329V27.8774C20.9179 28.8561 21.2091 29.8126 21.7544 30.6253C22.2997 31.4379 23.0745 32.07 23.9801 32.4409C24.8857 32.8119 25.8812 32.9049 26.8399 32.7083C27.7986 32.5117 28.6772 32.0343 29.3637 31.3368L30 30.6899L30.6363 31.3368C31.3228 32.0343 32.2014 32.5117 33.1601 32.7083C34.1188 32.9049 35.1143 32.8119 36.0199 32.4409C36.9255 32.07 37.7003 31.4379 38.2456 30.6253C38.7909 29.8126 39.0821 28.8561 39.082 27.8774V27.329C39.0801 26.4685 38.8536 25.6234 38.4251 24.8771C37.9966 24.1309 37.3809 23.5094 36.6387 23.0739ZM37.3242 27.8786C37.3243 28.5084 37.137 29.124 36.7861 29.6471C36.4352 30.1701 35.9366 30.5769 35.3538 30.8157C34.771 31.0544 34.1303 31.1144 33.5133 30.9878C32.8963 30.8613 32.3309 30.554 31.8891 30.1052L30.627 28.8161C30.5451 28.733 30.4475 28.667 30.3398 28.6219C30.2322 28.5768 30.1167 28.5536 30 28.5536C29.8833 28.5536 29.7678 28.5768 29.6602 28.6219C29.5525 28.667 29.4549 28.733 29.373 28.8161L28.1109 30.1052C27.6691 30.554 27.1037 30.8613 26.4867 30.9878C25.8697 31.1144 25.229 31.0544 24.6462 30.8157C24.0634 30.5769 23.5648 30.1701 23.2139 29.6471C22.863 29.124 22.6757 28.5084 22.6758 27.8786V27.3302C22.6766 26.7761 22.8222 26.2318 23.098 25.7513C23.3739 25.2707 23.7704 24.8705 24.2484 24.5903L30 21.2317L35.7516 24.5915C36.2296 24.8717 36.6261 25.2719 36.902 25.7524C37.1778 26.233 37.3234 26.7772 37.3242 27.3313V27.8786Z" fill="#E25E52"/>
<path d="M30 17.5781C31.9992 17.5781 33.2227 14.7328 33.2227 13.1836C33.2227 12.3289 32.8831 11.5092 32.2788 10.9048C31.6744 10.3005 30.8547 9.96094 30 9.96094C29.1453 9.96094 28.3256 10.3005 27.7212 10.9048C27.1169 11.5092 26.7773 12.3289 26.7773 13.1836C26.7773 14.7328 28.0008 17.5781 30 17.5781ZM30 11.7188C30.3883 11.7194 30.7605 11.8739 31.0351 12.1485C31.3097 12.4231 31.4642 12.7953 31.4648 13.1836C31.4648 14.2184 30.5754 15.8203 30 15.8203C29.4246 15.8203 28.5352 14.2184 28.5352 13.1836C28.5358 12.7953 28.6903 12.4231 28.9649 12.1485C29.2395 11.8739 29.6117 11.7194 30 11.7188Z" fill="#E25E52"/>
<path d="M37.0312 21.0938C38.7973 21.0938 41.4258 18.4652 41.4258 16.6992C41.4258 15.8445 41.0862 15.0248 40.4819 14.4205C39.8775 13.8161 39.0578 13.4766 38.2031 13.4766C37.3484 13.4766 36.5287 13.8161 35.9244 14.4205C35.32 15.0248 34.9805 15.8445 34.9805 16.6992C34.9805 16.7965 34.9805 16.8984 34.9805 17.0051C34.9723 18.232 34.9617 19.759 35.7762 20.5793C35.94 20.7451 36.1356 20.8761 36.3513 20.9645C36.5669 21.0529 36.7982 21.0969 37.0312 21.0938ZM36.7371 17.018C36.7371 16.9066 36.7371 16.8 36.7371 16.6992C36.7371 16.3107 36.8914 15.9381 37.1661 15.6634C37.4409 15.3887 37.8134 15.2344 38.2019 15.2344C38.5904 15.2344 38.963 15.3887 39.2377 15.6634C39.5125 15.9381 39.6668 16.3107 39.6668 16.6992C39.6668 17.5125 37.8434 19.3359 37.0301 19.3359H37.0148C36.723 19.0652 36.7336 17.5266 36.7371 17.018Z" fill="#E25E52"/>
<path d="M22.9688 21.0937C23.202 21.097 23.4336 21.0531 23.6494 20.9647C23.8653 20.8763 24.0611 20.7452 24.225 20.5793C25.0395 19.759 25.029 18.2355 25.0208 17.0051C25.0208 16.8984 25.0208 16.7965 25.0208 16.6992C25.0208 15.8445 24.6812 15.0248 24.0769 14.4205C23.4725 13.8161 22.6528 13.4766 21.7981 13.4766C20.9434 13.4766 20.1237 13.8161 19.5193 14.4205C18.915 15.0248 18.5754 15.8445 18.5754 16.6992C18.5743 18.4652 21.2028 21.0937 22.9688 21.0937ZM21.7969 15.2344C22.1852 15.235 22.5575 15.3895 22.832 15.6641C23.1066 15.9387 23.2611 16.3109 23.2618 16.6992C23.2618 16.8 23.2618 16.9066 23.2618 17.018C23.2618 17.5266 23.2758 19.0652 22.9829 19.3359H22.9688C22.1555 19.3359 20.3321 17.5125 20.3321 16.6992C20.3327 16.3109 20.4872 15.9387 20.7618 15.6641C21.0364 15.3895 21.4086 15.235 21.7969 15.2344Z" fill="#E25E52"/>
<path d="M42.8906 51.2109H17.1094C16.2551 51.2122 15.4361 51.5521 14.832 52.1562C14.2279 52.7603 13.888 53.5793 13.8867 54.4336V59.1211C13.8867 59.3542 13.9793 59.5777 14.1441 59.7426C14.309 59.9074 14.5325 60 14.7656 60H45.2344C45.4675 60 45.691 59.9074 45.8559 59.7426C46.0207 59.5777 46.1133 59.3542 46.1133 59.1211V54.4336C46.112 53.5793 45.7721 52.7603 45.168 52.1562C44.5639 51.5521 43.7449 51.2122 42.8906 51.2109ZM44.3555 58.2422H15.6445V54.4336C15.6452 54.0453 15.7997 53.6731 16.0743 53.3985C16.3488 53.1239 16.7211 52.9694 17.1094 52.9688H42.8906C43.2789 52.9694 43.6512 53.1239 43.9257 53.3985C44.2003 53.6731 44.3548 54.0453 44.3555 54.4336V58.2422Z" fill="#3A1916"/>
</svg>
