<svg width="50" height="50" viewBox="0 0 50 50" fill="none" xmlns="http://www.w3.org/2000/svg">
<g clip-path="url(#clip0_701_63)">
<path d="M30.3711 14.0137C29.7885 14.0142 29.2299 14.2459 28.818 14.6578C28.406 15.0698 28.1743 15.6283 28.1738 16.2109V18.1641C28.1738 18.7468 28.4053 19.3057 28.8174 19.7178C29.2295 20.1298 29.7883 20.3613 30.3711 20.3613C30.9538 20.3613 31.5127 20.1298 31.9248 19.7178C32.3369 19.3057 32.5684 18.7468 32.5684 18.1641V16.2109C32.5678 15.6283 32.3362 15.0698 31.9242 14.6578C31.5123 14.2459 30.9537 14.0142 30.3711 14.0137ZM31.1035 18.1641C31.1035 18.3583 31.0264 18.5446 30.889 18.682C30.7516 18.8193 30.5653 18.8965 30.3711 18.8965C30.1768 18.8965 29.9905 18.8193 29.8532 18.682C29.7158 18.5446 29.6387 18.3583 29.6387 18.1641V16.2109C29.6387 16.0167 29.7158 15.8304 29.8532 15.693C29.9905 15.5557 30.1768 15.4785 30.3711 15.4785C30.5653 15.4785 30.7516 15.5557 30.889 15.693C31.0264 15.8304 31.1035 16.0167 31.1035 16.2109V18.1641Z" fill="#E25E52"/>
<path d="M19.6289 14.0137C19.0463 14.0142 18.4877 14.2459 18.0758 14.6578C17.6638 15.0698 17.4322 15.6283 17.4316 16.2109V18.1641C17.4316 18.7468 17.6631 19.3057 18.0752 19.7178C18.4873 20.1298 19.0462 20.3613 19.6289 20.3613C20.2117 20.3613 20.7705 20.1298 21.1826 19.7178C21.5947 19.3057 21.8262 18.7468 21.8262 18.1641V16.2109C21.8257 15.6283 21.594 15.0698 21.182 14.6578C20.7701 14.2459 20.2115 14.0142 19.6289 14.0137ZM20.3613 18.1641C20.3613 18.3583 20.2842 18.5446 20.1468 18.682C20.0095 18.8193 19.8232 18.8965 19.6289 18.8965C19.4347 18.8965 19.2484 18.8193 19.111 18.682C18.9737 18.5446 18.8965 18.3583 18.8965 18.1641V16.2109C18.8965 16.0167 18.9737 15.8304 19.111 15.693C19.2484 15.5557 19.4347 15.4785 19.6289 15.4785C19.8232 15.4785 20.0095 15.5557 20.1468 15.693C20.2842 15.8304 20.3613 16.0167 20.3613 16.2109V18.1641Z" fill="#E25E52"/>
<path d="M49.6091 16.9522C45.2985 14.6953 44.9821 11.9307 44.6481 9.00392C44.4255 7.0508 44.194 5.0342 42.612 3.43752C39.1101 -0.0908047 31.3122 0.724625 29.9597 0.8965C26.7611 -0.298833 23.2384 -0.298833 20.0397 0.8965C18.6872 0.724625 10.8894 -0.0908047 7.38935 3.43556C5.80732 5.03127 5.57588 7.04884 5.35322 9.00197C5.01924 11.9317 4.70283 14.6934 0.392284 16.9502C0.279711 17.0091 0.184403 17.0963 0.115724 17.2032C0.0470454 17.3101 0.0073577 17.4331 0.000560598 17.5599C-0.0062365 17.6868 0.0200908 17.8133 0.0769559 17.9269C0.133821 18.0405 0.219268 18.1374 0.324901 18.208C0.483104 18.3135 3.64521 20.3965 7.05537 20.3965C7.72368 20.4003 8.38937 20.3125 9.03389 20.1358C9.36046 20.0438 9.67918 19.9259 9.98701 19.7832C9.6079 20.604 9.11222 21.3658 8.51533 22.0449L6.47725 24.3623C5.09133 25.9383 4.18928 27.8805 3.87921 29.9562C3.56914 32.0318 3.86421 34.1529 4.72905 36.0651C5.59389 37.9773 6.99181 39.5996 8.75526 40.7374C10.5187 41.8753 12.5729 42.4805 14.6716 42.4805H18.194C18.8674 42.9441 19.5952 43.3232 20.361 43.6094V45.3613C20.361 46.5916 20.8497 47.7715 21.7197 48.6414C22.5896 49.5113 23.7695 50 24.9997 50C26.23 50 27.4098 49.5113 28.2797 48.6414C29.1497 47.7715 29.6384 46.5916 29.6384 45.3613V43.5899C30.3853 43.3066 31.0952 42.9341 31.7526 42.4805H35.3278C37.4265 42.4805 39.4807 41.8753 41.2441 40.7374C43.0076 39.5996 44.4055 37.9773 45.2704 36.0651C46.1352 34.1529 46.4303 32.0318 46.1202 29.9562C45.8101 27.8805 44.9081 25.9383 43.5222 24.3623L41.4841 22.0449C40.8873 21.3664 40.3917 20.6053 40.0124 19.7852C40.3202 19.9278 40.639 20.0457 40.9655 20.1377C41.61 20.3145 42.2757 20.4022 42.944 20.3985C46.3542 20.3985 49.5163 18.3154 49.6745 18.21C49.7801 18.1394 49.8656 18.0425 49.9225 17.9289C49.9793 17.8152 50.0056 17.6888 49.9989 17.5619C49.9921 17.435 49.9524 17.3121 49.8837 17.2052C49.815 17.0983 49.7197 17.0111 49.6071 16.9522H49.6091ZM27.6149 1.73537C27.7667 2.50747 27.8445 3.29226 27.8474 4.07912C27.8601 6.18947 26.7165 7.18654 25.778 7.64943C26.0114 5.98927 25.4665 4.2881 25.4362 4.19533C25.3856 4.04032 25.2846 3.90666 25.1494 3.81552C25.0142 3.72437 24.8524 3.68097 24.6897 3.69218C24.527 3.7034 24.3727 3.76858 24.2513 3.87741C24.1298 3.98624 24.0482 4.13249 24.0192 4.29298C23.9089 4.90334 23.3894 5.21974 22.8737 5.38478C23.1433 4.38771 23.2507 3.12111 23.194 1.59767C24.6648 1.38815 26.1608 1.4364 27.6149 1.74025V1.73537ZM8.64326 18.7276C6.29951 19.3867 3.64228 18.3291 2.20381 17.5977C6.13349 15.0781 6.49092 11.9551 6.8083 9.17287C7.02119 7.3174 7.20478 5.70705 8.43037 4.4717C10.6149 2.26759 15.0935 2.07814 17.7985 2.19142C14.5622 4.3506 14.2312 6.02541 13.9645 8.69142C13.7976 10.3457 13.5905 12.4024 12.2067 15.3819C11.3708 17.1699 10.1726 18.2959 8.64326 18.7256V18.7276ZM17.237 39.2559C18.2484 39.5709 19.322 39.6306 20.362 39.4297V42.0283C18.8474 41.3467 17.7468 40.3662 17.238 39.2578L17.237 39.2559ZM21.5173 28.1533L22.9226 30.2608C23.1504 30.6026 23.4591 30.8829 23.8213 31.0767C24.1835 31.2706 24.5879 31.372 24.9987 31.372C25.4095 31.372 25.814 31.2706 26.1762 31.0767C26.5383 30.8829 26.8471 30.6026 27.0749 30.2608L28.4753 28.1611L28.7292 28.2119L33.1237 29.1211C34.7663 29.461 35.9558 30.9766 35.9558 32.7207C35.9558 35.6758 33.6433 38.0811 30.8005 38.0811C29.9479 38.076 29.1103 37.8574 28.3641 37.445C27.6179 37.0327 26.9869 36.4398 26.529 35.7207L25.5856 34.2647C25.5193 34.1623 25.4284 34.0781 25.3212 34.0199C25.214 33.9616 25.0939 33.9311 24.9719 33.9311C24.8499 33.9311 24.7298 33.9616 24.6226 34.0199C24.5154 34.0781 24.4245 34.1623 24.3581 34.2647L23.4128 35.7188C22.9548 36.438 22.3237 37.031 21.5773 37.4433C20.8309 37.8557 19.993 38.0743 19.1403 38.0791C16.2985 38.0791 13.9851 35.6738 13.9851 32.7188C13.9851 30.9727 15.1784 29.459 16.8171 29.1192L21.2116 28.21C21.3145 28.1898 21.4167 28.1703 21.5183 28.1514L21.5173 28.1533ZM22.6823 26.2793C22.769 26.1136 22.8998 25.975 23.0602 25.8788C23.2206 25.7827 23.4045 25.7327 23.5915 25.7344H26.406C26.5925 25.7344 26.7756 25.7851 26.9356 25.8809C27.0957 25.9768 27.2268 26.1142 27.3149 26.2787C27.403 26.4432 27.4448 26.6284 27.4359 26.8148C27.427 27.0012 27.3677 27.1816 27.2644 27.3369L25.8561 29.4483C25.7621 29.5895 25.6346 29.7052 25.485 29.7853C25.3354 29.8654 25.1684 29.9073 24.9987 29.9073C24.8291 29.9073 24.662 29.8654 24.5124 29.7853C24.3629 29.7052 24.2354 29.5895 24.1413 29.4483L22.7341 27.335C22.6292 27.1804 22.5689 26.9999 22.56 26.8133C22.551 26.6267 22.5937 26.4413 22.6833 26.2774L22.6823 26.2793ZM24.9997 48.5352C24.1583 48.5341 23.3516 48.1994 22.7566 47.6044C22.1616 47.0095 21.8269 46.2028 21.8259 45.3613V38.959C22.9782 38.4295 23.9558 37.5826 24.6442 36.5176L24.9743 36.0078L25.3054 36.5176C26.0033 37.5987 26.9995 38.4545 28.1735 38.9815V45.3613C28.1725 46.2028 27.8378 47.0095 27.2428 47.6044C26.6478 48.1994 25.8411 48.5341 24.9997 48.5352ZM29.6384 39.4365C30.663 39.6282 31.719 39.5669 32.7146 39.2578C32.2097 40.3565 31.1315 41.3281 29.6413 42.0069L29.6384 39.4365ZM42.4216 25.3301C43.6217 26.6944 44.4029 28.3758 44.6715 30.1728C44.9402 31.9699 44.6848 33.8063 43.9361 35.4619C43.1873 37.1174 41.977 38.5219 40.4502 39.507C38.9234 40.4921 37.1448 41.0159 35.3278 41.0156H33.3298C33.9401 40.2667 34.3315 39.3637 34.4606 38.4063C35.38 37.7698 36.1305 36.919 36.6471 35.9273C37.1637 34.9356 37.4308 33.833 37.4255 32.7149C37.4255 30.2735 35.7419 28.1611 33.4216 27.6807L29.027 26.7715L28.903 26.7461C28.8997 26.0864 28.6352 25.4549 28.1674 24.9897C27.6996 24.5244 27.0667 24.2634 26.4069 24.2637H23.5925C22.9333 24.2626 22.3004 24.5225 21.8322 24.9865C21.3639 25.4506 21.0984 26.081 21.0935 26.7402L20.9196 26.7754L16.5251 27.6846C14.2058 28.1651 12.5212 30.2822 12.5212 32.7188C12.5167 33.8363 12.7844 34.9381 13.3012 35.9291C13.8179 36.92 14.5681 37.7702 15.487 38.4063C15.6162 39.3639 16.008 40.267 16.6188 41.0156H14.6716C12.8546 41.0159 11.076 40.4921 9.54922 39.507C8.0224 38.5219 6.81208 37.1174 6.06334 35.4619C5.31461 33.8063 5.05925 31.9699 5.32787 30.1728C5.59649 28.3758 6.3777 26.6944 7.57783 25.3301L9.61592 23.0127C10.8058 21.6559 11.6415 20.0258 12.0485 18.2676C12.6569 17.592 13.1573 16.8264 13.5319 15.9981C15.0212 12.7969 15.2429 10.6016 15.4206 8.83693C15.6872 6.18556 15.8229 4.84963 20.4323 2.31447C20.8591 2.14917 21.2947 2.00736 21.737 1.88966C21.78 3.71779 21.5573 5.13088 21.0925 5.91701C21.0274 6.02725 20.9924 6.15261 20.9909 6.2806C20.9894 6.40859 21.0215 6.53475 21.0839 6.64648C21.1464 6.75822 21.237 6.85165 21.3468 6.91744C21.4566 6.98324 21.5817 7.01912 21.7097 7.0215C22.4479 7.03615 23.5319 6.86037 24.3542 6.27736C24.4118 7.00783 24.361 7.80959 24.028 8.3965C23.9645 8.50784 23.9314 8.63392 23.932 8.76209C23.9326 8.89026 23.9668 9.01603 24.0313 9.1268C24.0958 9.23757 24.1882 9.32945 24.2994 9.39324C24.4106 9.45702 24.5366 9.49048 24.6647 9.49025C24.6931 9.49025 24.7214 9.49025 24.7507 9.48537C25.5647 9.35894 26.3426 9.06102 27.0329 8.61134C28.0808 7.92775 29.3269 6.57814 29.3122 4.06642C29.3086 3.4319 29.2626 2.79833 29.1745 2.16994C29.3054 2.21584 29.4362 2.26759 29.5651 2.31447C34.1745 4.85353 34.3103 6.18556 34.5769 8.83693C34.7546 10.6016 34.9763 12.7969 36.4655 15.9981C36.8402 16.8264 37.3405 17.592 37.9489 18.2676C38.3559 20.0258 39.1916 21.6559 40.3815 23.0127L42.4216 25.3301ZM41.3562 18.7256C39.8269 18.2959 38.6286 17.1699 37.7956 15.3809C36.4108 12.4024 36.2038 10.3447 36.0349 8.69142C35.7663 6.02638 35.4353 4.35158 32.1989 2.19045C34.904 2.07716 39.3825 2.26662 41.5671 4.47072C42.7927 5.70607 42.9763 7.31252 43.1892 9.17189C43.5065 11.9541 43.864 15.0772 47.7937 17.5967C46.3562 18.3272 43.7019 19.3848 41.3562 18.7256Z" fill="#3A1916"/>
</g>
<defs>
<clipPath id="clip0_701_63">
<rect width="50" height="50" fill="white"/>
</clipPath>
</defs>
</svg>
