<svg width="59" height="60" viewBox="0 0 59 60" fill="none" xmlns="http://www.w3.org/2000/svg">
<g clip-path="url(#clip0_371_4799)">
<path d="M50.2422 38.3203H23.7383C23.5091 38.3203 23.2892 38.4129 23.1272 38.5777C22.9651 38.7426 22.874 38.9661 22.874 39.1992V54.4336C22.874 54.6667 22.9651 54.8902 23.1272 55.0551C23.2892 55.2199 23.5091 55.3125 23.7383 55.3125H50.2422C50.4714 55.3125 50.6912 55.2199 50.8533 55.0551C51.0154 54.8902 51.1064 54.6667 51.1064 54.4336V39.1992C51.1064 38.9661 51.0154 38.7426 50.8533 38.5777C50.6912 38.4129 50.4714 38.3203 50.2422 38.3203ZM49.3779 40.0781V50.0391H24.6025V40.0781H49.3779ZM24.6025 53.5547V51.7969H49.3779V53.5547H24.6025Z" fill="#E25E52"/>
<path d="M59 29.6578V26.3086C59 26.2142 58.9852 26.1205 58.9562 26.0309L57.1758 20.6016C56.9659 19.9597 56.5624 19.4013 56.0227 19.0059C55.4831 18.6104 54.8346 18.3978 54.1694 18.3984H34.9736V13.4766H35.8379C36.4935 13.4756 37.1245 13.2225 37.6042 12.7679C38.0838 12.3134 38.3766 11.6912 38.4238 11.0262H40.5717C40.5717 11.0531 40.5717 11.0789 40.5717 11.1059C40.5717 13.7051 42.677 15.8203 45.2641 15.8203C47.8511 15.8203 49.9553 13.7109 49.9553 11.1059C49.9546 9.91876 49.5101 8.77632 48.7119 7.91016C49.5097 7.04382 49.9538 5.9014 49.9541 4.71445C49.9541 2.11523 47.8499 0 45.2629 0C42.6759 0 40.5706 2.11523 40.5706 4.71445C40.5706 4.74141 40.5706 4.76719 40.5706 4.79414H38.4238C38.3766 4.12914 38.0838 3.50689 37.6042 3.05237C37.1245 2.59784 36.4935 2.34469 35.8379 2.34375H23.1621C22.5065 2.34469 21.8755 2.59784 21.3958 3.05237C20.9162 3.50689 20.6234 4.12914 20.5763 4.79414H18.4283C18.4283 4.76719 18.4283 4.74023 18.4283 4.71445C18.4294 2.11523 16.3241 0 13.7371 0C11.1501 0 9.0459 2.11523 9.0459 4.71445C9.04622 5.9014 9.4903 7.04382 10.2881 7.91016C9.4903 8.7765 9.04622 9.91892 9.0459 11.1059C9.0459 13.7109 11.1501 15.8203 13.7371 15.8203C16.3241 15.8203 18.4294 13.7109 18.4294 11.1059C18.4294 11.0801 18.4294 11.0531 18.4294 11.0262H20.5774C20.6245 11.691 20.9172 12.3131 21.3966 12.7675C21.876 13.222 22.5067 13.4753 23.1621 13.4766H24.0264V18.3984H4.83062C4.16542 18.3978 3.51694 18.6104 2.97726 19.0059C2.43757 19.4013 2.03411 19.9597 1.82416 20.6016L0.0437891 26.0309C0.0147995 26.1205 1.83102e-05 26.2142 0 26.3086L0 29.6578C0.0014441 30.7541 0.311472 31.8271 0.893445 32.75C1.47542 33.6728 2.30501 34.407 3.28418 34.8656V58.2422H0.864258C0.635042 58.2422 0.415215 58.3348 0.253135 58.4996C0.0910555 58.6644 0 58.888 0 59.1211C0 59.3542 0.0910555 59.5777 0.253135 59.7426C0.415215 59.9074 0.635042 60 0.864258 60H58.1357C58.365 60 58.5848 59.9074 58.7469 59.7426C58.9089 59.5777 59 59.3542 59 59.1211C59 58.888 58.9089 58.6644 58.7469 58.4996C58.5848 58.3348 58.365 58.2422 58.1357 58.2422H55.7158V34.8656C56.695 34.407 57.5246 33.6728 58.1066 32.75C58.6885 31.8271 58.9986 30.7541 59 29.6578ZM53.3627 33.6328C52.327 33.63 51.3345 33.2103 50.6023 32.4654C49.87 31.7205 49.4576 30.7111 49.4551 29.6578V27.1875H57.2715V29.6578C57.2691 30.7113 56.8565 31.7209 56.1239 32.4658C55.3914 33.2107 54.3987 33.6303 53.3627 33.6328ZM11.2734 27.1875H19.0909V29.6578C19.0909 30.1798 18.9898 30.6967 18.7933 31.179C18.5969 31.6612 18.309 32.0994 17.946 32.4686C17.5831 32.8377 17.1522 33.1305 16.6779 33.3302C16.2037 33.53 15.6954 33.6328 15.1821 33.6328C14.6688 33.6328 14.1605 33.53 13.6863 33.3302C13.2121 33.1305 12.7812 32.8377 12.4182 32.4686C12.0553 32.0994 11.7673 31.6612 11.5709 31.179C11.3745 30.6967 11.2734 30.1798 11.2734 29.6578V27.1875ZM20.8194 27.1875H28.6357V29.6578C28.6447 30.1855 28.5501 30.7097 28.3577 31.1998C28.1653 31.6899 27.8789 32.1362 27.5151 32.5126C27.1513 32.8889 26.7175 33.1879 26.2389 33.3919C25.7603 33.596 25.2465 33.7011 24.7276 33.7011C24.2086 33.7011 23.6949 33.596 23.2163 33.3919C22.7377 33.1879 22.3038 32.8889 21.94 32.5126C21.5762 32.1362 21.2898 31.6899 21.0974 31.1998C20.905 30.7097 20.8105 30.1855 20.8194 29.6578V27.1875ZM30.3643 27.1875H38.1806V29.6578C38.1895 30.1855 38.095 30.7097 37.9026 31.1998C37.7102 31.6899 37.4238 32.1362 37.06 32.5126C36.6962 32.8889 36.2623 33.1879 35.7837 33.3919C35.3051 33.596 34.7914 33.7011 34.2724 33.7011C33.7535 33.7011 33.2397 33.596 32.7611 33.3919C32.2825 33.1879 31.8487 32.8889 31.4849 32.5126C31.1211 32.1362 30.8347 31.6899 30.6423 31.1998C30.4499 30.7097 30.3553 30.1855 30.3643 29.6578V27.1875ZM39.9091 27.1875H47.7266V29.6578C47.7266 30.712 47.3148 31.7231 46.5818 32.4686C45.8487 33.214 44.8545 33.6328 43.8179 33.6328C42.7812 33.6328 41.787 33.214 41.054 32.4686C40.3209 31.7231 39.9091 30.712 39.9091 29.6578V27.1875ZM41.5558 6.55195C41.688 6.55204 41.8185 6.52128 41.9371 6.46205C42.0558 6.40281 42.1595 6.31668 42.2404 6.21028C42.3212 6.10388 42.3769 5.98005 42.4033 5.84831C42.4296 5.71658 42.4259 5.58044 42.3924 5.45039C42.3302 5.21019 42.2989 4.96283 42.2991 4.71445C42.2991 3.08437 43.6289 1.75781 45.2629 1.75781C46.8969 1.75781 48.2256 3.08437 48.2256 4.71445C48.224 5.2041 48.1023 5.6856 47.8715 6.11533C47.6407 6.54505 47.3081 6.90941 46.9038 7.17539C46.7838 7.25518 46.6852 7.36415 46.6169 7.49244C46.5486 7.62072 46.5129 7.76429 46.5129 7.91016C46.5129 8.05602 46.5486 8.19959 46.6169 8.32788C46.6852 8.45616 46.7838 8.56513 46.9038 8.64492C47.3081 8.9109 47.6407 9.27526 47.8715 9.70499C48.1023 10.1347 48.224 10.6162 48.2256 11.1059C48.2256 12.7359 46.9004 14.0625 45.2629 14.0625C43.6254 14.0625 42.2991 12.7359 42.2991 11.1059C42.2989 10.8575 42.3302 10.6101 42.3924 10.3699C42.4259 10.2399 42.4296 10.1037 42.4033 9.972C42.3769 9.84026 42.3212 9.71643 42.2404 9.61003C42.1595 9.50363 42.0558 9.4175 41.9371 9.35827C41.8185 9.29903 41.688 9.26828 41.5558 9.26836H38.4307V6.55195H41.5558ZM17.4442 9.26836C17.312 9.26828 17.1815 9.29903 17.0629 9.35827C16.9442 9.4175 16.8404 9.50363 16.7596 9.61003C16.6788 9.71643 16.6231 9.84026 16.5967 9.972C16.5704 10.1037 16.5741 10.2399 16.6076 10.3699C16.6697 10.6101 16.7011 10.8575 16.7009 11.1059C16.7009 12.7359 15.3711 14.0625 13.7371 14.0625C12.1031 14.0625 10.7744 12.7359 10.7744 11.1059C10.776 10.6162 10.8977 10.1347 11.1285 9.70499C11.3593 9.27526 11.6919 8.9109 12.0962 8.64492C12.2162 8.56513 12.3148 8.45616 12.3831 8.32788C12.4514 8.19959 12.4871 8.05602 12.4871 7.91016C12.4871 7.76429 12.4514 7.62072 12.3831 7.49244C12.3148 7.36415 12.2162 7.25518 12.0962 7.17539C11.6919 6.90941 11.3593 6.54505 11.1285 6.11533C10.8977 5.6856 10.776 5.2041 10.7744 4.71445C10.7744 3.08437 12.0996 1.75781 13.7371 1.75781C15.3746 1.75781 16.7009 3.08437 16.7009 4.71445C16.7011 4.96283 16.6697 5.21019 16.6076 5.45039C16.5741 5.58044 16.5704 5.71658 16.5967 5.84831C16.6231 5.98005 16.6788 6.10388 16.7596 6.21028C16.8404 6.31668 16.9442 6.40281 17.0629 6.46205C17.1815 6.52128 17.312 6.55204 17.4442 6.55195H20.5693V9.26836H17.4442ZM22.2979 10.8398V4.98047C22.2979 4.74737 22.3889 4.52381 22.551 4.35899C22.7131 4.19416 22.9329 4.10156 23.1621 4.10156H35.8379C36.0671 4.10156 36.2869 4.19416 36.449 4.35899C36.6111 4.52381 36.7021 4.74737 36.7021 4.98047V10.8398C36.7021 11.0729 36.6111 11.2965 36.449 11.4613C36.2869 11.6262 36.0671 11.7188 35.8379 11.7188H23.1621C22.9329 11.7188 22.7131 11.6262 22.551 11.4613C22.3889 11.2965 22.2979 11.0729 22.2979 10.8398ZM25.7549 13.4766H33.2451V18.3984H25.7549V13.4766ZM3.46395 21.1582C3.55935 20.8663 3.74273 20.6125 3.98806 20.4326C4.23339 20.2528 4.52819 20.1561 4.83062 20.1562H54.1694C54.4718 20.1561 54.7666 20.2528 55.0119 20.4326C55.2573 20.6125 55.4407 20.8663 55.5361 21.1582L56.9362 25.4297H2.06385L3.46395 21.1582ZM1.72852 29.6578V27.1875H9.54486V29.6578C9.55377 30.1855 9.45927 30.7097 9.26687 31.1998C9.07446 31.6899 8.78801 32.1362 8.42422 32.5126C8.06043 32.8889 7.62658 33.1879 7.14799 33.3919C6.6694 33.596 6.15564 33.7011 5.63669 33.7011C5.11774 33.7011 4.60398 33.596 4.12539 33.3919C3.6468 33.1879 3.21295 32.8889 2.84916 32.5126C2.48537 32.1362 2.19892 31.6899 2.00651 31.1998C1.81411 30.7097 1.71961 30.1855 1.72852 29.6578ZM18.2646 58.2422H9.62207V40.0781H18.2646V58.2422ZM53.9873 58.2422H19.9932V39.1992C19.9932 38.9661 19.9021 38.7426 19.74 38.5777C19.5779 38.4129 19.3581 38.3203 19.1289 38.3203H8.75781C8.5286 38.3203 8.30877 38.4129 8.14669 38.5777C7.98461 38.7426 7.89355 38.9661 7.89355 39.1992V58.2422H5.0127V35.3543C6.06629 35.4758 7.13217 35.2915 8.08712 34.8228C9.04207 34.3542 9.84709 33.6202 10.4091 32.7059C10.9162 33.5276 11.6201 34.205 12.455 34.6745C13.2898 35.1441 14.2281 35.3904 15.1821 35.3904C16.1361 35.3904 17.0745 35.1441 17.9093 34.6745C18.7441 34.205 19.4481 33.5276 19.9551 32.7059C20.4621 33.5276 21.1659 34.205 22.0006 34.6746C22.8353 35.1441 23.7736 35.3905 24.7276 35.3905C25.6815 35.3905 26.6198 35.1441 27.4545 34.6746C28.2892 34.205 28.9931 33.5276 29.5 32.7059C30.0069 33.5276 30.7108 34.205 31.5455 34.6746C32.3802 35.1441 33.3185 35.3905 34.2724 35.3905C35.2264 35.3905 36.1647 35.1441 36.9994 34.6746C37.8341 34.205 38.5379 33.5276 39.0449 32.7059C39.5519 33.5276 40.2559 34.205 41.0907 34.6745C41.9255 35.1441 42.8639 35.3904 43.8179 35.3904C44.7719 35.3904 45.7102 35.1441 46.545 34.6745C47.3799 34.205 48.0838 33.5276 48.5909 32.7059C49.1529 33.6202 49.9579 34.3542 50.9129 34.8228C51.8678 35.2915 52.9337 35.4758 53.9873 35.3543V58.2422Z" fill="white"/>
<path d="M15.6719 51.2109C15.9011 51.2109 16.1209 51.1183 16.283 50.9535C16.4451 50.7887 16.5361 50.5651 16.5361 50.332V47.9883C16.5361 47.7552 16.4451 47.5316 16.283 47.3668C16.1209 47.202 15.9011 47.1094 15.6719 47.1094C15.4427 47.1094 15.2228 47.202 15.0608 47.3668C14.8987 47.5316 14.8076 47.7552 14.8076 47.9883V50.332C14.8076 50.5651 14.8987 50.7887 15.0608 50.9535C15.2228 51.1183 15.4427 51.2109 15.6719 51.2109Z" fill="#E25E52"/>
</g>
<defs>
<clipPath id="clip0_371_4799">
<rect width="59" height="60" fill="white"/>
</clipPath>
</defs>
</svg>
