<svg width="50" height="50" viewBox="0 0 50 50" fill="none" xmlns="http://www.w3.org/2000/svg">
<g clip-path="url(#clip0_334_15989)">
<path d="M28.7334 5.07219C28.5959 4.93527 28.4098 4.8584 28.2158 4.8584C28.0218 4.8584 27.8357 4.93527 27.6982 5.07219L19.9531 12.8173C19.885 12.8853 19.831 12.9661 19.7942 13.055C19.7574 13.1439 19.7384 13.2392 19.7384 13.3354C19.7384 13.4316 19.7574 13.5269 19.7942 13.6158C19.831 13.7047 19.885 13.7854 19.9531 13.8534L36.1465 30.0468C36.2145 30.1149 36.2952 30.1689 36.3841 30.2057C36.473 30.2425 36.5683 30.2615 36.6645 30.2615C36.7607 30.2615 36.856 30.2425 36.9449 30.2057C37.0338 30.1689 37.1146 30.1149 37.1826 30.0468L44.9277 22.3017C45.0646 22.1642 45.1415 21.9781 45.1415 21.7841C45.1415 21.5901 45.0646 21.404 44.9277 21.2665L28.7334 5.07219ZM36.665 28.4931L21.5068 13.3349L28.2158 6.62591L43.374 21.7841L36.665 28.4931Z" fill="#E25E52"/>
<path d="M49.4922 12.4766C49.2778 12.2595 49.0093 12.1038 48.7145 12.0255C48.4197 11.9472 48.1092 11.9492 47.8154 12.0312L42.1621 13.5742L36.4258 7.83788L37.9688 2.18456C38.0488 1.89063 38.0498 1.58076 37.9716 1.28633C37.8933 0.991911 37.7387 0.723393 37.5233 0.50798C37.3079 0.292566 37.0393 0.13791 36.7449 0.0596773C36.4505 -0.0185555 36.1406 -0.0175862 35.8467 0.0624873L30.1934 1.60448L29.79 1.20018C29.2791 0.689415 28.5862 0.402483 27.8638 0.402483C27.1413 0.402483 26.4484 0.689415 25.9375 1.20018L16.0811 11.0576C15.8281 11.3104 15.6274 11.6107 15.4904 11.9411C15.3535 12.2715 15.283 12.6257 15.283 12.9834C15.283 13.3411 15.3535 13.6952 15.4904 14.0257C15.6274 14.3561 15.8281 14.6563 16.0811 14.9092L21.5498 20.3779L18.5449 23.3779C18.4079 23.5155 18.331 23.7018 18.331 23.896C18.331 24.0902 18.4079 24.2764 18.5449 24.4141L20.3125 26.1846L11.4902 35.0058L11.4815 34.9971C11.4134 34.929 11.3327 34.875 11.2438 34.8382C11.1549 34.8013 11.0596 34.7824 10.9634 34.7824C10.8672 34.7824 10.7719 34.8013 10.683 34.8382C10.5941 34.875 10.5133 34.929 10.4453 34.9971L0.943367 44.5019C0.363518 45.1111 0.0447712 45.9228 0.0551787 46.7637C0.0655862 47.6047 0.404323 48.4082 0.99907 49.0029C1.59382 49.5975 2.39745 49.9361 3.2384 49.9463C4.07935 49.9565 4.89098 49.6376 5.50001 49.0576L15.0049 39.5508C15.1418 39.4133 15.2187 39.2272 15.2187 39.0332C15.2187 38.8392 15.1418 38.6531 15.0049 38.5156L14.9941 38.5039L23.8154 29.6875L25.5859 31.4551C25.7236 31.592 25.9098 31.6689 26.104 31.6689C26.2982 31.6689 26.4845 31.592 26.6221 31.4551L29.624 28.4521L35.0928 33.9209C35.3456 34.1739 35.6458 34.3746 35.9763 34.5115C36.3067 34.6484 36.6609 34.7189 37.0186 34.7189C37.3762 34.7189 37.7304 34.6484 38.0609 34.5115C38.3913 34.3746 38.6915 34.1739 38.9443 33.9209L48.7998 24.0625C49.3106 23.5515 49.5975 22.8587 49.5975 22.1362C49.5975 21.4138 49.3106 20.7209 48.7998 20.2099L48.3955 19.8057L49.9375 14.1533C50.0197 13.8595 50.0217 13.5491 49.9434 13.2542C49.8651 12.9594 49.7093 12.6909 49.4922 12.4766ZM36.2305 1.47557C36.2752 1.4635 36.3224 1.46344 36.3672 1.4754C36.412 1.48736 36.4528 1.51092 36.4856 1.5437C36.5184 1.57648 36.5419 1.61733 36.5539 1.66212C36.5659 1.70691 36.5658 1.75406 36.5537 1.79882L35.2344 6.64061L31.3867 2.79296L36.2305 1.47557ZM4.46387 48.0224C4.30295 48.1952 4.10888 48.3337 3.89326 48.4297C3.67764 48.5258 3.44487 48.5775 3.20885 48.5816C2.97283 48.5858 2.73838 48.5424 2.51951 48.454C2.30063 48.3656 2.1018 48.234 1.93488 48.0671C1.76796 47.9002 1.63637 47.7013 1.54796 47.4824C1.45955 47.2636 1.41614 47.0291 1.4203 46.7931C1.42447 46.5571 1.47613 46.3243 1.5722 46.1087C1.66828 45.8931 1.8068 45.699 1.9795 45.5381L3.22266 44.2949L5.70704 46.7773L4.46387 48.0224ZM6.74317 45.7432L4.25782 43.2617L10.9668 36.5537L13.4512 39.0381L6.74317 45.7432ZM13.958 37.4707L12.5293 36.042L21.3516 27.2207L22.7793 28.6484L13.958 37.4707ZM26.1035 29.9014L20.0986 23.8965L22.583 21.4121L28.5879 27.417L26.1035 29.9014ZM47.7637 23.0264L37.9072 32.8828C37.7904 32.9998 37.6517 33.0927 37.4989 33.156C37.3462 33.2193 37.1824 33.2519 37.0171 33.2519C36.8517 33.2519 36.688 33.2193 36.5353 33.156C36.3825 33.0927 36.2438 32.9998 36.127 32.8828L17.1172 13.873C17.0002 13.7562 16.9073 13.6175 16.844 13.4647C16.7807 13.312 16.7481 13.1483 16.7481 12.9829C16.7481 12.8175 16.7807 12.6538 16.844 12.5011C16.9073 12.3483 17.0002 12.2096 17.1172 12.0928L26.9736 2.23632C27.0905 2.1193 27.2292 2.02646 27.382 1.96312C27.5347 1.89978 27.6984 1.86718 27.8638 1.86718C28.0291 1.86718 28.1929 1.89978 28.3456 1.96312C28.4983 2.02646 28.6371 2.1193 28.7539 2.23632L47.7637 21.2461C47.8807 21.3629 47.9735 21.5017 48.0369 21.6544C48.1002 21.8071 48.1328 21.9709 48.1328 22.1362C48.1328 22.3016 48.1002 22.4653 48.0369 22.618C47.9735 22.7708 47.8807 22.9095 47.7637 23.0264ZM48.5244 13.7695L47.2022 18.6133L43.3594 14.7656L48.2051 13.4443C48.2498 13.4323 48.297 13.4322 48.3418 13.4442C48.3866 13.4561 48.4274 13.4797 48.4602 13.5125C48.493 13.5452 48.5165 13.5861 48.5285 13.6309C48.5405 13.6757 48.5404 13.7228 48.5283 13.7676L48.5244 13.7695Z" fill="#3A1916"/>
<path d="M27.6982 9.29683L26.9941 10.0009C26.9189 10.067 26.8581 10.1478 26.8153 10.2384C26.7726 10.3289 26.7489 10.4273 26.7456 10.5273C26.7424 10.6274 26.7597 10.7271 26.7965 10.8202C26.8333 10.9133 26.8888 10.9979 26.9595 11.0687C27.0303 11.1395 27.1148 11.1951 27.2079 11.232C27.301 11.2689 27.4006 11.2863 27.5007 11.2831C27.6008 11.28 27.6991 11.2563 27.7897 11.2137C27.8803 11.171 27.9611 11.1103 28.0273 11.0351L28.7304 10.331C28.8004 10.2635 28.8563 10.1827 28.8947 10.0934C28.9331 10.004 28.9534 9.90791 28.9543 9.81066C28.9551 9.71341 28.9367 9.61696 28.8999 9.52693C28.8631 9.4369 28.8087 9.3551 28.74 9.2863C28.6713 9.2175 28.5895 9.16307 28.4995 9.12621C28.4095 9.08934 28.3131 9.07076 28.2158 9.07156C28.1186 9.07236 28.0225 9.09252 27.9331 9.13086C27.8437 9.1692 27.7629 9.22496 27.6953 9.29488L27.6982 9.29683Z" fill="#E25E52"/>
<path d="M30.504 14.2441C30.6984 14.244 30.8849 14.1667 31.0225 14.0293L31.7266 13.3252C31.7947 13.2572 31.8486 13.1764 31.8854 13.0875C31.9223 12.9986 31.9412 12.9033 31.9412 12.8071C31.9412 12.7109 31.9223 12.6156 31.8854 12.5267C31.8486 12.4379 31.7947 12.3571 31.7266 12.2891C31.6586 12.221 31.5778 12.1671 31.4889 12.1302C31.4 12.0934 31.3048 12.0745 31.2086 12.0745C31.1123 12.0745 31.0171 12.0934 30.9282 12.1302C30.8393 12.1671 30.7585 12.221 30.6905 12.2891L29.9864 12.9932C29.8842 13.0957 29.8147 13.2262 29.7866 13.3682C29.7584 13.5102 29.773 13.6574 29.8283 13.7911C29.8836 13.9249 29.9773 14.0393 30.0976 14.1199C30.2178 14.2005 30.3592 14.2437 30.504 14.2441Z" fill="#E25E52"/>
<path d="M33.4961 17.2363C33.6906 17.2362 33.8771 17.1589 34.0147 17.0215L34.7188 16.3174C34.7868 16.2493 34.8408 16.1686 34.8776 16.0797C34.9144 15.9908 34.9334 15.8955 34.9334 15.7993C34.9334 15.7031 34.9144 15.6078 34.8776 15.5189C34.8408 15.43 34.7868 15.3493 34.7188 15.2812C34.6508 15.2132 34.57 15.1592 34.4811 15.1224C34.3922 15.0856 34.297 15.0667 34.2007 15.0667C34.1045 15.0667 34.0093 15.0856 33.9204 15.1224C33.8315 15.1592 33.7507 15.2132 33.6827 15.2812L32.9786 15.9853C32.8764 16.0879 32.8069 16.2184 32.7788 16.3604C32.7506 16.5024 32.7651 16.6495 32.8205 16.7833C32.8758 16.9171 32.9695 17.0315 33.0898 17.1121C33.21 17.1927 33.3514 17.2359 33.4961 17.2363Z" fill="#E25E52"/>
<path d="M36.4883 20.2285C36.5847 20.2287 36.6801 20.2098 36.7691 20.1729C36.8581 20.136 36.9389 20.0819 37.0069 20.0137L37.711 19.3096C37.8484 19.1722 37.9256 18.9858 37.9256 18.7915C37.9256 18.5972 37.8484 18.4108 37.711 18.2734C37.5736 18.136 37.3872 18.0588 37.1929 18.0588C36.9986 18.0588 36.8123 18.136 36.6749 18.2734L35.9708 18.9775C35.8686 19.0801 35.7991 19.2106 35.7709 19.3526C35.7428 19.4946 35.7573 19.6417 35.8127 19.7755C35.868 19.9093 35.9617 20.0237 36.0819 20.1043C36.2022 20.1849 36.3436 20.2281 36.4883 20.2285Z" fill="#E25E52"/>
<path d="M39.4805 23.2207C39.5769 23.2208 39.6723 23.2019 39.7613 23.165C39.8503 23.1282 39.9311 23.0741 39.9991 23.0058L40.7032 22.3017C40.7731 22.2341 40.8289 22.1533 40.8672 22.0639C40.9055 21.9745 40.9257 21.8784 40.9265 21.7812C40.9273 21.6839 40.9087 21.5875 40.8719 21.4975C40.835 21.4075 40.7806 21.3257 40.7118 21.257C40.643 21.1883 40.5612 21.1339 40.4711 21.0971C40.3811 21.0603 40.2846 21.0419 40.1874 21.0428C40.0901 21.0436 39.9941 21.0639 39.9047 21.1023C39.8154 21.1407 39.7346 21.1966 39.667 21.2666L38.9649 21.9726C38.8627 22.0752 38.7932 22.2057 38.7651 22.3477C38.7369 22.4897 38.7515 22.6368 38.8068 22.7706C38.8622 22.9044 38.9558 23.0187 39.0761 23.0994C39.1963 23.18 39.3377 23.2232 39.4825 23.2236L39.4805 23.2207Z" fill="#E25E52"/>
<path d="M24.8818 12.1094L24.1777 12.8135C24.0403 12.9509 23.9631 13.1372 23.9631 13.3315C23.9631 13.5258 24.0403 13.7122 24.1777 13.8496C24.3151 13.987 24.5015 14.0642 24.6958 14.0642C24.8901 14.0642 25.0765 13.987 25.2139 13.8496L25.918 13.1455C25.986 13.0775 26.04 12.9967 26.0768 12.9078C26.1136 12.8189 26.1326 12.7236 26.1326 12.6274C26.1326 12.5312 26.1136 12.4359 26.0768 12.3471C26.04 12.2582 25.986 12.1774 25.918 12.1094C25.8499 12.0413 25.7692 11.9874 25.6803 11.9505C25.5914 11.9137 25.4961 11.8948 25.3999 11.8948C25.3037 11.8948 25.2084 11.9137 25.1195 11.9505C25.0306 11.9874 24.9499 12.0413 24.8818 12.1094Z" fill="#E25E52"/>
<path d="M27.874 15.1055L27.1699 15.8096C27.0325 15.947 26.9553 16.1333 26.9553 16.3276C26.9553 16.5219 27.0325 16.7083 27.1699 16.8457C27.3073 16.9831 27.4937 17.0603 27.688 17.0603C27.8823 17.0603 28.0686 16.9831 28.206 16.8457L28.9101 16.1416C28.9782 16.0736 29.0321 15.9928 29.069 15.9039C29.1058 15.815 29.1247 15.7197 29.1247 15.6235C29.1247 15.5273 29.1058 15.432 29.069 15.3432C29.0321 15.2543 28.9782 15.1735 28.9101 15.1055C28.8421 15.0374 28.7613 14.9835 28.6725 14.9466C28.5836 14.9098 28.4883 14.8909 28.3921 14.8909C28.2959 14.8909 28.2006 14.9098 28.1117 14.9466C28.0228 14.9835 27.942 15.0374 27.874 15.1055Z" fill="#E25E52"/>
<path d="M30.8662 18.0976L30.1621 18.8017C30.0247 18.9391 29.9475 19.1255 29.9475 19.3198C29.9475 19.5141 30.0247 19.7005 30.1621 19.8379C30.2995 19.9753 30.4859 20.0525 30.6802 20.0525C30.8745 20.0525 31.0608 19.9753 31.1982 19.8379L31.9023 19.1338C31.9704 19.0657 32.0243 18.985 32.0612 18.8961C32.098 18.8072 32.1169 18.7119 32.1169 18.6157C32.1169 18.5195 32.098 18.4242 32.0612 18.3353C32.0243 18.2464 31.9704 18.1657 31.9023 18.0976C31.8343 18.0296 31.7535 17.9756 31.6646 17.9388C31.5758 17.902 31.4805 17.8831 31.3843 17.8831C31.2881 17.8831 31.1928 17.902 31.1039 17.9388C31.015 17.9756 30.9342 18.0296 30.8662 18.0976Z" fill="#E25E52"/>
<path d="M33.8584 21.0937L33.1543 21.7978C33.0169 21.9352 32.9397 22.1216 32.9397 22.3159C32.9397 22.5102 33.0169 22.6966 33.1543 22.834C33.2917 22.9714 33.478 23.0486 33.6724 23.0486C33.8667 23.0486 34.053 22.9714 34.1904 22.834L34.8945 22.1299C34.9626 22.0618 35.0165 21.9811 35.0533 21.8922C35.0902 21.8033 35.1091 21.708 35.1091 21.6118C35.1091 21.5156 35.0902 21.4203 35.0533 21.3314C35.0165 21.2425 34.9626 21.1618 34.8945 21.0937C34.8265 21.0257 34.7457 20.9717 34.6568 20.9349C34.5679 20.8981 34.4727 20.8792 34.3765 20.8792C34.2802 20.8792 34.185 20.8981 34.0961 20.9349C34.0072 20.9717 33.9264 21.0257 33.8584 21.0937Z" fill="#E25E52"/>
<path d="M36.8506 24.082L36.1465 24.7861C36.0784 24.8542 36.0245 24.9349 35.9877 25.0238C35.9508 25.1127 35.9319 25.208 35.9319 25.3042C35.9319 25.4004 35.9508 25.4957 35.9877 25.5846C36.0245 25.6735 36.0784 25.7542 36.1465 25.8223C36.2145 25.8903 36.2953 25.9443 36.3842 25.9811C36.4731 26.0179 36.5683 26.0368 36.6645 26.0368C36.7608 26.0368 36.856 26.0179 36.9449 25.9811C37.0338 25.9443 37.1146 25.8903 37.1826 25.8223L37.8867 25.1182C38.0241 24.9808 38.1013 24.7944 38.1013 24.6001C38.1013 24.4058 38.0241 24.2194 37.8867 24.082C37.7493 23.9446 37.563 23.8674 37.3686 23.8674C37.1743 23.8674 36.988 23.9446 36.8506 24.082Z" fill="#E25E52"/>
</g>
<defs>
<clipPath id="clip0_334_15989">
<rect width="50" height="50" fill="white"/>
</clipPath>
</defs>
</svg>
