<svg width="30" height="30" viewBox="0 0 30 30" fill="none" xmlns="http://www.w3.org/2000/svg">
<path d="M15 13.2422C9.66908 13.2422 5.33203 17.5792 5.33203 22.9102C5.33203 25.3332 7.30354 27.3047 9.72656 27.3047H20.2734C22.6965 27.3047 24.668 25.3332 24.668 22.9102C24.668 17.5792 20.3309 13.2422 15 13.2422ZM17.6367 22.0312H15.8789V23.7891H14.1211V22.0312H12.3633V20.2734H14.1211V18.5156H15.8789V20.2734H17.6367V22.0312Z" fill="#E25E52"/>
<path d="M3.51562 17.6367C1.5767 17.6367 0 15.6652 0 13.2422C0 10.8192 1.5767 8.84766 3.51562 8.84766C5.45455 8.84766 7.03125 10.8192 7.03125 13.2422C7.03125 15.6652 5.45455 17.6367 3.51562 17.6367Z" fill="#E25E52"/>
<path d="M10.6055 11.4844C8.66654 11.4844 7.08984 9.51287 7.08984 7.08984C7.08984 4.66682 8.66654 2.69531 10.6055 2.69531C12.5444 2.69531 14.1211 4.66682 14.1211 7.08984C14.1211 9.51287 12.5444 11.4844 10.6055 11.4844Z" fill="#E25E52"/>
<path d="M19.3945 11.4844C17.4556 11.4844 15.8789 9.51287 15.8789 7.08984C15.8789 4.66682 17.4556 2.69531 19.3945 2.69531C21.3335 2.69531 22.9102 4.66682 22.9102 7.08984C22.9102 9.51287 21.3335 11.4844 19.3945 11.4844Z" fill="#E25E52"/>
<path d="M26.4844 17.6367C24.5454 17.6367 22.9688 15.6652 22.9688 13.2422C22.9688 10.8192 24.5454 8.84766 26.4844 8.84766C28.4233 8.84766 30 10.8192 30 13.2422C30 15.6652 28.4233 17.6367 26.4844 17.6367Z" fill="#E25E52"/>
</svg>
