<svg width="40" height="40" viewBox="0 0 40 40" fill="none" xmlns="http://www.w3.org/2000/svg">
<g clip-path="url(#clip0_368_97)">
<path d="M20.146 23.4047C20.0561 22.9096 19.7952 22.4617 19.4088 22.1393C19.0224 21.8169 18.5351 21.6404 18.0319 21.6406H13.2811V12.1094H13.4764C13.6318 12.1094 13.7809 12.0476 13.8908 11.9378C14.0006 11.8279 14.0624 11.6788 14.0624 11.5234V2.53906C14.0624 1.86566 13.7949 1.21984 13.3187 0.743674C12.8425 0.267508 12.1967 0 11.5233 0C10.8499 0 10.2041 0.267508 9.72792 0.743674C9.25176 1.21984 8.98425 1.86566 8.98425 2.53906V11.5234C8.98425 11.6788 9.04598 11.8279 9.15586 11.9378C9.26575 12.0476 9.41479 12.1094 9.57019 12.1094H9.7655V21.6406H5.01472C4.51226 21.6413 4.02597 21.8183 3.64054 22.1406C3.2551 22.463 2.99494 22.9103 2.90534 23.4047L0.00924781 39.3094C-0.00622789 39.3938 -0.00292843 39.4807 0.0189121 39.5637C0.0407526 39.6467 0.0805991 39.7239 0.135624 39.7899C0.19065 39.8558 0.259506 39.9088 0.337307 39.9451C0.415109 39.9814 0.49995 40.0001 0.58581 40H22.4608C22.5467 40.0001 22.6315 39.9814 22.7093 39.9451C22.7871 39.9088 22.856 39.8558 22.911 39.7899C22.966 39.7239 23.0059 39.6467 23.0277 39.5637C23.0495 39.4807 23.0528 39.3938 23.0374 39.3094L20.146 23.4047ZM10.1561 2.53906C10.1561 2.17646 10.3002 1.82871 10.5566 1.57231C10.813 1.31592 11.1607 1.17187 11.5233 1.17187C11.8859 1.17187 12.2337 1.31592 12.4901 1.57231C12.7465 1.82871 12.8905 2.17646 12.8905 2.53906V10.9375H10.1561V2.53906ZM10.9374 12.1094H12.1092V21.6406H10.9374V12.1094ZM5.04128 35.3125H18.0053L18.5733 38.8281H4.47331L5.04128 35.3125ZM5.23425 34.1406L6.56237 25.9375H16.4905L17.8186 34.1406H5.23425ZM19.7655 38.8281L17.5678 25.2578C17.5454 25.1204 17.4749 24.9955 17.3688 24.9053C17.2628 24.8152 17.1281 24.7657 16.9889 24.7656H6.05769C5.91849 24.7657 5.78384 24.8152 5.67779 24.9053C5.57174 24.9955 5.50121 25.1204 5.47878 25.2578L3.28581 38.8281H1.28815L4.05378 23.6141C4.09476 23.3891 4.21339 23.1856 4.38899 23.0391C4.5646 22.8927 4.78604 22.8125 5.01472 22.8125H18.0319C18.2606 22.8125 18.482 22.8927 18.6576 23.0391C18.8332 23.1856 18.9519 23.3891 18.9928 23.6141L21.7585 38.8281H19.7655Z" fill="white"/>
<path d="M11.5234 2.34375C11.368 2.34375 11.219 2.40548 11.1091 2.51537C10.9992 2.62525 10.9375 2.77429 10.9375 2.92969V3.32031C10.9375 3.47571 10.9992 3.62475 11.1091 3.73463C11.219 3.84452 11.368 3.90625 11.5234 3.90625C11.6788 3.90625 11.8279 3.84452 11.9378 3.73463C12.0476 3.62475 12.1094 3.47571 12.1094 3.32031V2.92969C12.1094 2.77429 12.0476 2.62525 11.9378 2.51537C11.8279 2.40548 11.6788 2.34375 11.5234 2.34375Z" fill="#E25E52"/>
<path d="M37.8516 31.7969H34.1406V26.7188H34.3359C34.4913 26.7188 34.6404 26.657 34.7503 26.5471C34.8601 26.4372 34.9219 26.2882 34.9219 26.1328V20.2734C34.9219 19.6 34.6544 18.9542 34.1782 18.478C33.702 18.0019 33.0562 17.7344 32.3828 17.7344C31.7094 17.7344 31.0636 18.0019 30.5874 18.478C30.1113 18.9542 29.8438 19.6 29.8438 20.2734V26.1328C29.8438 26.2882 29.9055 26.4372 30.0154 26.5471C30.1253 26.657 30.2743 26.7188 30.4297 26.7188H30.625V31.7969H26.9141C26.3445 31.7977 25.7985 32.0243 25.3958 32.4271C24.9931 32.8298 24.7665 33.3758 24.7656 33.9453V36.2891C24.7656 36.4445 24.8274 36.5935 24.9372 36.7034C25.0471 36.8133 25.1962 36.875 25.3516 36.875H26.3281V39.4141C26.3281 39.5695 26.3899 39.7185 26.4997 39.8284C26.6096 39.9383 26.7587 40 26.9141 40C27.0695 40 27.2185 39.9383 27.3284 39.8284C27.4383 39.7185 27.5 39.5695 27.5 39.4141V36.875H28.5156V39.4141C28.5156 39.5695 28.5774 39.7185 28.6872 39.8284C28.7971 39.9383 28.9462 40 29.1016 40C29.257 40 29.406 39.9383 29.5159 39.8284C29.6258 39.7185 29.6875 39.5695 29.6875 39.4141V36.875H30.7031V39.4141C30.7031 39.5695 30.7649 39.7185 30.8747 39.8284C30.9846 39.9383 31.1337 40 31.2891 40C31.4445 40 31.5935 39.9383 31.7034 39.8284C31.8133 39.7185 31.875 39.5695 31.875 39.4141V36.875H32.8906V39.4141C32.8906 39.5695 32.9524 39.7185 33.0622 39.8284C33.1721 39.9383 33.3212 40 33.4766 40C33.632 40 33.781 39.9383 33.8909 39.8284C34.0008 39.7185 34.0625 39.5695 34.0625 39.4141V36.875H35.0781V39.4141C35.0781 39.5695 35.1399 39.7185 35.2497 39.8284C35.3596 39.9383 35.5087 40 35.6641 40C35.8195 40 35.9685 39.9383 36.0784 39.8284C36.1883 39.7185 36.25 39.5695 36.25 39.4141V36.875H37.2656V39.4141C37.2656 39.5695 37.3274 39.7185 37.4372 39.8284C37.5471 39.9383 37.6962 40 37.8516 40C38.007 40 38.156 39.9383 38.2659 39.8284C38.3758 39.7185 38.4375 39.5695 38.4375 39.4141V36.875H39.4141C39.5695 36.875 39.7185 36.8133 39.8284 36.7034C39.9383 36.5935 40 36.4445 40 36.2891V33.9453C39.9992 33.3758 39.7726 32.8298 39.3698 32.4271C38.9671 32.0243 38.4211 31.7977 37.8516 31.7969ZM31.0156 20.2734C31.0156 19.9108 31.1597 19.5631 31.4161 19.3067C31.6725 19.0503 32.0202 18.9062 32.3828 18.9062C32.7454 18.9062 33.0932 19.0503 33.3496 19.3067C33.606 19.5631 33.75 19.9108 33.75 20.2734V25.5469H31.0156V20.2734ZM31.7969 26.7188H32.9688V31.7969H31.7969V26.7188ZM38.8281 35.7031H25.9375V33.9453C25.9379 33.6864 26.0409 33.4383 26.224 33.2552C26.407 33.0722 26.6552 32.9692 26.9141 32.9688H37.8516C38.1104 32.9692 38.3586 33.0722 38.5416 33.2552C38.7247 33.4383 38.8277 33.6864 38.8281 33.9453V35.7031Z" fill="white"/>
</g>
<defs>
<clipPath id="clip0_368_97">
<rect width="40" height="40" fill="white"/>
</clipPath>
</defs>
</svg>
