<svg width="24" height="24" viewBox="0 0 24 24" fill="none" xmlns="http://www.w3.org/2000/svg">
<path d="M23.6484 17.9765H23.0559L20.9559 9.57794C20.8909 9.3164 20.7453 9.08189 20.5399 8.90747C20.3344 8.73305 20.0794 8.62752 19.8108 8.60575C19.7289 8.20643 19.5308 7.84022 19.2414 7.55315C18.952 7.26609 18.5842 7.07096 18.1842 6.99231C18.0577 6.50153 17.7725 6.06637 17.3729 5.75462C16.9733 5.44286 16.4818 5.27202 15.975 5.26872C15.9047 5.26872 15.8344 5.27153 15.7645 5.2781C15.5753 4.92008 15.2793 4.62989 14.9175 4.44786C14.5558 4.26582 14.1464 4.20097 13.7461 4.26231C13.5326 4.00657 13.2656 3.80084 12.9639 3.65966C12.6622 3.51849 12.3331 3.44531 12 3.44531C11.6669 3.44531 11.3378 3.51849 11.0361 3.65966C10.7344 3.80084 10.4674 4.00657 10.2539 4.26231C9.85363 4.20097 9.44419 4.26582 9.08247 4.44786C8.72074 4.62989 8.4247 4.92008 8.23547 5.2781C8.16563 5.27153 8.09484 5.26872 8.025 5.26872C7.51819 5.27202 7.02671 5.44286 6.62712 5.75462C6.22753 6.06637 5.94227 6.50153 5.81578 6.99231C5.41581 7.07096 5.04801 7.26609 4.75861 7.55315C4.4692 7.84022 4.27111 8.20643 4.18922 8.60575C3.92059 8.62752 3.66557 8.73305 3.46011 8.90747C3.25466 9.08189 3.10914 9.3164 3.04406 9.57794L0.944062 17.9765H0.351562C0.258322 17.9765 0.168901 18.0136 0.10297 18.0795C0.0370395 18.1454 0 18.2349 0 18.3281L0 19.2656C0.000495978 19.6073 0.136467 19.9349 0.378105 20.1766C0.619744 20.4182 0.947334 20.5542 1.28906 20.5547H22.7109C23.0527 20.5542 23.3803 20.4182 23.6219 20.1766C23.8635 19.9349 23.9995 19.6073 24 19.2656V18.3281C24 18.2349 23.963 18.1454 23.897 18.0795C23.8311 18.0136 23.7417 17.9765 23.6484 17.9765ZM6.12656 7.66403C6.20894 7.66027 6.28738 7.6277 6.3482 7.57202C6.40903 7.51634 6.44837 7.44107 6.45938 7.35935C6.48563 7.1437 6.55615 6.9358 6.66653 6.74869C6.7769 6.56158 6.92475 6.3993 7.1008 6.27202C7.27684 6.14474 7.47729 6.05521 7.68956 6.00904C7.90184 5.96287 8.12137 5.96106 8.33438 6.00372C8.51436 6.09305 8.65591 6.24452 8.73286 6.43013C8.80981 6.61574 8.81696 6.82294 8.75297 7.01341C8.72337 7.1018 8.73005 7.19833 8.77152 7.28181C8.813 7.36529 8.8859 7.42891 8.97422 7.45872C9.01036 7.47072 9.04817 7.47689 9.08625 7.477C9.15995 7.47698 9.23178 7.45379 9.29158 7.41073C9.35139 7.36766 9.39614 7.30689 9.41953 7.237C9.52173 6.93466 9.52697 6.60796 9.43453 6.30249C9.3421 5.99703 9.15659 5.72805 8.90391 5.5331C9.01591 5.35377 9.1715 5.20573 9.35617 5.10278C9.54084 4.99984 9.74857 4.94533 9.96 4.94435C10.0763 4.94368 10.1922 4.95947 10.3041 4.99122C10.3754 5.01174 10.4514 5.00918 10.5212 4.98393C10.591 4.95867 10.651 4.91201 10.6927 4.8506C10.8364 4.63479 11.0312 4.45783 11.2597 4.33543C11.4883 4.21302 11.7435 4.14898 12.0028 4.14898C12.2621 4.14898 12.5173 4.21302 12.7459 4.33543C12.9745 4.45783 13.1693 4.63479 13.313 4.8506C13.3546 4.91201 13.4147 4.95867 13.4845 4.98393C13.5542 5.00918 13.6302 5.01174 13.7016 4.99122C13.8135 4.95947 13.9293 4.94368 14.0456 4.94435C14.2564 4.9456 14.4634 5.00005 14.6476 5.10264C14.8317 5.20523 14.9869 5.35265 15.0989 5.53122C14.8462 5.72617 14.6607 5.99515 14.5683 6.30062C14.4758 6.60608 14.4811 6.93279 14.5833 7.23513C14.6067 7.30502 14.6514 7.36579 14.7112 7.40885C14.771 7.45192 14.8429 7.4751 14.9166 7.47513C14.9546 7.47501 14.9925 7.46884 15.0286 7.45685C15.1169 7.42704 15.1898 7.36341 15.2313 7.27993C15.2728 7.19645 15.2794 7.09993 15.2498 7.01153C15.1858 6.82107 15.1928 6.61383 15.2698 6.4282C15.3468 6.24256 15.4884 6.09109 15.6684 6.00184C15.8814 5.95918 16.101 5.96099 16.3132 6.00716C16.5255 6.05333 16.726 6.14286 16.902 6.27014C17.0781 6.39743 17.2259 6.55971 17.3363 6.74682C17.4467 6.93393 17.5172 7.14182 17.5434 7.35747C17.5544 7.4392 17.5938 7.51446 17.6546 7.57015C17.7154 7.62583 17.7939 7.65839 17.8762 7.66216C18.1493 7.67716 18.4114 7.77487 18.6277 7.94231C18.8439 8.10976 19.0041 8.33902 19.087 8.59966H4.91578C4.99875 8.33911 5.159 8.10995 5.37525 7.94259C5.5915 7.77523 5.85353 7.67759 6.12656 7.66263V7.66403ZM3.72609 9.74997C3.75763 9.62308 3.83077 9.51041 3.93383 9.42995C4.03689 9.34949 4.16394 9.30587 4.29469 9.30606H19.7053C19.8361 9.30587 19.9631 9.34949 20.0662 9.42995C20.1692 9.51041 20.2424 9.62308 20.2739 9.74997L22.3308 17.9765H1.66922L3.72609 9.74997ZM23.2969 19.2656C23.2966 19.4209 23.2348 19.5698 23.125 19.6796C23.0152 19.7895 22.8663 19.8513 22.7109 19.8515H1.28906C1.13374 19.8513 0.984847 19.7895 0.875016 19.6796C0.765185 19.5698 0.703373 19.4209 0.703125 19.2656V18.6797H23.2969V19.2656Z" fill="white"/>
<path d="M14.1047 14.0989L12.1772 12.9739C12.1235 12.9424 12.0623 12.9258 12 12.9258C11.9377 12.9258 11.8766 12.9424 11.8228 12.9739L9.89532 14.0989C9.65298 14.2416 9.45203 14.445 9.31228 14.6891C9.17254 14.9331 9.09884 15.2094 9.09845 15.4906V15.6617C9.09848 15.9816 9.19369 16.2943 9.37197 16.5599C9.55025 16.8256 9.80353 17.0321 10.0996 17.1534C10.3956 17.2746 10.7211 17.305 11.0344 17.2407C11.3478 17.1764 11.635 17.0204 11.8594 16.7924L12 16.6475L12.1406 16.7924C12.365 17.0204 12.6522 17.1764 12.9656 17.2407C13.279 17.305 13.6044 17.2746 13.9004 17.1534C14.1965 17.0321 14.4498 16.8256 14.6281 16.5599C14.8063 16.2943 14.9015 15.9816 14.9016 15.6617V15.4906C14.9012 15.2094 14.8275 14.9331 14.6877 14.6891C14.548 14.445 14.347 14.2416 14.1047 14.0989ZM14.1984 15.6617C14.1984 15.8421 14.1448 16.0184 14.0442 16.1682C13.9437 16.318 13.8009 16.4345 13.634 16.5028C13.4671 16.5712 13.2836 16.5883 13.1069 16.5521C12.9302 16.5158 12.7683 16.4278 12.6417 16.2992L12.2489 15.8999C12.2162 15.8666 12.1771 15.8402 12.1341 15.8222C12.091 15.8042 12.0448 15.7949 11.9981 15.7949C11.9515 15.7949 11.9053 15.8042 11.8622 15.8222C11.8192 15.8402 11.7801 15.8666 11.7474 15.8999L11.3545 16.2992C11.228 16.4278 11.0661 16.5158 10.8894 16.5521C10.7127 16.5883 10.5292 16.5712 10.3623 16.5028C10.1954 16.4345 10.0525 16.318 9.95203 16.1682C9.85151 16.0184 9.79783 15.8421 9.79782 15.6617V15.4906C9.79813 15.332 9.83985 15.1761 9.91885 15.0385C9.99786 14.9009 10.1114 14.7862 10.2483 14.706L12 13.6836L13.7499 14.706C13.8867 14.7862 14.0003 14.9009 14.0793 15.0385C14.1583 15.1761 14.2 15.332 14.2003 15.4906L14.1984 15.6617Z" fill="#E25E52"/>
<path d="M12 12.5339C12.6497 12.5339 13.0809 11.6639 13.0809 11.0887C13.0809 10.8021 12.9671 10.5271 12.7643 10.3244C12.5616 10.1217 12.2867 10.0078 12 10.0078C11.7133 10.0078 11.4384 10.1217 11.2357 10.3244C11.033 10.5271 10.9191 10.8021 10.9191 11.0887C10.9191 11.6639 11.3503 12.5339 12 12.5339ZM12 10.7109C12.1002 10.7111 12.1962 10.7509 12.267 10.8217C12.3378 10.8926 12.3777 10.9886 12.3778 11.0887C12.3778 11.4169 12.1041 11.8308 12 11.8308C11.8959 11.8308 11.6222 11.4183 11.6222 11.0887C11.6223 10.9886 11.6622 10.8926 11.733 10.8217C11.8038 10.7509 11.8998 10.7111 12 10.7109Z" fill="#E25E52"/>
<path d="M14.5519 11.1016C14.2653 11.1019 13.9907 11.216 13.7881 11.4186C13.5856 11.6212 13.4717 11.896 13.4714 12.1825C13.4714 12.2125 13.4714 12.2444 13.4714 12.2763C13.4686 12.6723 13.4653 13.1669 13.7414 13.4434C13.7997 13.5025 13.8693 13.5492 13.9461 13.5807C14.0228 13.6122 14.1052 13.6278 14.1881 13.6267C14.7825 13.6267 15.6333 12.7759 15.6333 12.1816C15.6327 11.8951 15.5185 11.6205 15.3158 11.4181C15.1131 11.2156 14.8384 11.1018 14.5519 11.1016ZM14.2237 12.9198C14.1689 12.7862 14.1717 12.4258 14.1727 12.2819C14.1727 12.2472 14.1727 12.2139 14.1727 12.1825C14.1709 12.1318 14.1793 12.0813 14.1975 12.0339C14.2157 11.9865 14.2432 11.9433 14.2784 11.9068C14.3137 11.8703 14.3559 11.8413 14.4026 11.8214C14.4493 11.8016 14.4995 11.7914 14.5502 11.7914C14.601 11.7914 14.6512 11.8016 14.6979 11.8214C14.7446 11.8413 14.7868 11.8703 14.822 11.9068C14.8573 11.9433 14.8848 11.9865 14.903 12.0339C14.9212 12.0813 14.9296 12.1318 14.9278 12.1825C14.9297 12.3789 14.4534 12.8664 14.2252 12.9198H14.2237Z" fill="#E25E52"/>
<path d="M10.2591 13.4425C10.5352 13.1645 10.5319 12.6714 10.5291 12.2753C10.5291 12.2425 10.5291 12.2106 10.5291 12.1816C10.5321 12.0378 10.5063 11.8948 10.4534 11.7611C10.4004 11.6273 10.3213 11.5055 10.2206 11.4027C10.12 11.3 9.99983 11.2183 9.86722 11.1626C9.73461 11.1068 9.59221 11.0781 9.44837 11.0781C9.30452 11.0781 9.16213 11.1068 9.02952 11.1626C8.89691 11.2183 8.77676 11.3 8.67611 11.4027C8.57547 11.5055 8.49634 11.6273 8.44337 11.7611C8.39041 11.8948 8.36467 12.0378 8.36767 12.1816C8.36767 12.7759 9.21845 13.6267 9.81282 13.6267C9.89578 13.6277 9.97807 13.6118 10.0547 13.5802C10.1314 13.5485 10.2009 13.5017 10.2591 13.4425ZM9.07032 12.1806C9.06854 12.1299 9.07698 12.0794 9.09515 12.032C9.11332 11.9846 9.14085 11.9414 9.17608 11.9049C9.21132 11.8684 9.25355 11.8394 9.30025 11.8196C9.34695 11.7997 9.39717 11.7895 9.4479 11.7895C9.49864 11.7895 9.54885 11.7997 9.59555 11.8196C9.64225 11.8394 9.68448 11.8684 9.71972 11.9049C9.75496 11.9414 9.78248 11.9846 9.80065 12.032C9.81882 12.0794 9.82727 12.1299 9.82548 12.1806C9.82548 12.212 9.82548 12.2453 9.82548 12.28C9.82548 12.4239 9.82923 12.7844 9.77439 12.918C9.54657 12.8645 9.07032 12.377 9.07032 12.1806Z" fill="#E25E52"/>
</svg>
