<svg width="60" height="60" viewBox="0 0 60 60" fill="none" xmlns="http://www.w3.org/2000/svg">
<path d="M59.1211 44.9413H57.6398L52.3898 23.9448C52.2272 23.291 51.8633 22.7047 51.3497 22.2687C50.8361 21.8326 50.1985 21.5688 49.527 21.5144C49.3222 20.5161 48.827 19.6006 48.1035 18.8829C47.38 18.1652 46.4605 17.6774 45.4605 17.4808C45.1443 16.2538 44.4312 15.1659 43.4322 14.3865C42.4332 13.6072 41.2045 13.1801 39.9375 13.1718C39.7617 13.1718 39.5859 13.1788 39.4113 13.1952C38.9383 12.3002 38.1981 11.5747 37.2938 11.1196C36.3895 10.6645 35.3659 10.5024 34.3652 10.6558C33.8316 10.0164 33.164 9.5021 32.4097 9.14916C31.6554 8.79622 30.8328 8.61328 30 8.61328C29.1672 8.61328 28.3446 8.79622 27.5903 9.14916C26.836 9.5021 26.1684 10.0164 25.6348 10.6558C24.6341 10.5024 23.6105 10.6645 22.7062 11.1196C21.8019 11.5747 21.0617 12.3002 20.5887 13.1952C20.4141 13.1788 20.2371 13.1718 20.0625 13.1718C18.7955 13.1801 17.5668 13.6072 16.5678 14.3865C15.5688 15.1659 14.8557 16.2538 14.5395 17.4808C13.5395 17.6774 12.62 18.1652 11.8965 18.8829C11.173 19.6006 10.6778 20.5161 10.473 21.5144C9.80148 21.5688 9.16393 21.8326 8.65029 22.2687C8.13665 22.7047 7.77284 23.291 7.61016 23.9448L2.36016 44.9413H0.878906C0.645806 44.9413 0.422253 45.0339 0.257426 45.1988C0.0925988 45.3636 0 45.5871 0 45.8202L0 48.164C0.00123995 49.0183 0.341167 49.8373 0.945264 50.4414C1.54936 51.0455 2.36834 51.3854 3.22266 51.3866H56.7773C57.6317 51.3854 58.4506 51.0455 59.0547 50.4414C59.6588 49.8373 59.9988 49.0183 60 48.164V45.8202C60 45.5871 59.9074 45.3636 59.7426 45.1988C59.5777 45.0339 59.3542 44.9413 59.1211 44.9413ZM15.3164 19.1601C15.5223 19.1507 15.7184 19.0693 15.8705 18.9301C16.0226 18.7908 16.1209 18.6027 16.1484 18.3984C16.2141 17.8592 16.3904 17.3395 16.6663 16.8717C16.9423 16.404 17.3119 15.9983 17.752 15.68C18.1921 15.3618 18.6932 15.138 19.2239 15.0226C19.7546 14.9072 20.3034 14.9026 20.8359 15.0093C21.2859 15.2326 21.6398 15.6113 21.8322 16.0753C22.0245 16.5394 22.0424 17.0573 21.8824 17.5335C21.8084 17.7545 21.8251 17.9958 21.9288 18.2045C22.0325 18.4132 22.2147 18.5723 22.4355 18.6468C22.5259 18.6768 22.6204 18.6922 22.7156 18.6925C22.8999 18.6924 23.0794 18.6345 23.229 18.5268C23.3785 18.4192 23.4904 18.2672 23.5488 18.0925C23.8043 17.3367 23.8174 16.5199 23.5863 15.7562C23.3552 14.9926 22.8915 14.3201 22.2598 13.8327C22.5398 13.3844 22.9288 13.0143 23.3904 12.757C23.8521 12.4996 24.3714 12.3633 24.9 12.3609C25.1908 12.3592 25.4804 12.3987 25.7602 12.4781C25.9385 12.5293 26.1284 12.523 26.3029 12.4598C26.4774 12.3967 26.6274 12.28 26.7316 12.1265C27.0909 11.587 27.5779 11.1446 28.1493 10.8386C28.7207 10.5326 29.3588 10.3724 30.007 10.3724C30.6552 10.3724 31.2934 10.5326 31.8648 10.8386C32.4362 11.1446 32.9232 11.587 33.2824 12.1265C33.3866 12.28 33.5367 12.3967 33.7111 12.4598C33.8856 12.523 34.0756 12.5293 34.2539 12.4781C34.5337 12.3987 34.8233 12.3592 35.1141 12.3609C35.641 12.364 36.1586 12.5001 36.6189 12.7566C37.0792 13.0131 37.4673 13.3816 37.7473 13.8281C37.1156 14.3154 36.6518 14.9879 36.4207 15.7515C36.1896 16.5152 36.2027 17.332 36.4582 18.0878C36.5167 18.2625 36.6286 18.4145 36.7781 18.5221C36.9276 18.6298 37.1072 18.6878 37.2914 18.6878C37.3866 18.6875 37.4811 18.6721 37.5715 18.6421C37.7923 18.5676 37.9745 18.4085 38.0782 18.1998C38.1819 17.9911 38.1986 17.7498 38.1246 17.5288C37.9644 17.0527 37.9821 16.5346 38.1745 16.0705C38.3669 15.6064 38.721 15.2277 39.1711 15.0046C39.7036 14.898 40.2524 14.9025 40.7831 15.0179C41.3138 15.1333 41.8149 15.3572 42.255 15.6754C42.6952 15.9936 43.0648 16.3993 43.3407 16.867C43.6167 17.3348 43.793 17.8546 43.8586 18.3937C43.8861 18.598 43.9845 18.7862 44.1365 18.9254C44.2886 19.0646 44.4847 19.146 44.6906 19.1554C45.3734 19.1929 46.0285 19.4372 46.5692 19.8558C47.1098 20.2744 47.5103 20.8475 47.7176 21.4991H12.2895C12.4969 20.8478 12.8975 20.2749 13.4381 19.8565C13.9787 19.4381 14.6338 19.194 15.3164 19.1566V19.1601ZM9.31523 24.3749C9.39407 24.0577 9.57691 23.776 9.83457 23.5749C10.0922 23.3737 10.4098 23.2647 10.7367 23.2652H49.2633C49.5902 23.2647 49.9078 23.3737 50.1654 23.5749C50.4231 23.776 50.6059 24.0577 50.6848 24.3749L55.827 44.9413H4.17305L9.31523 24.3749ZM58.2422 48.164C58.2416 48.5523 58.087 48.9245 57.8125 49.1991C57.5379 49.4737 57.1657 49.6282 56.7773 49.6288H3.22266C2.83435 49.6282 2.46212 49.4737 2.18754 49.1991C1.91296 48.9245 1.75843 48.5523 1.75781 48.164V46.6991H58.2422V48.164Z" fill="white"/>
<path d="M35.2617 35.2473L30.443 32.4348C30.3086 32.356 30.1557 32.3145 30 32.3145C29.8443 32.3145 29.6914 32.356 29.557 32.4348L24.7383 35.2473C24.1324 35.604 23.63 36.1126 23.2807 36.7227C22.9313 37.3328 22.7471 38.0235 22.7461 38.7266V39.1543C22.7462 39.9541 22.9842 40.7358 23.4299 41.3998C23.8756 42.0639 24.5088 42.5803 25.2489 42.8834C25.989 43.1865 26.8026 43.2625 27.5861 43.1018C28.3695 42.9411 29.0874 42.5509 29.6484 41.9809L30 41.6188L30.3516 41.9809C30.9126 42.5509 31.6305 42.9411 32.4139 43.1018C33.1974 43.2625 34.011 43.1865 34.7511 42.8834C35.4912 42.5803 36.1244 42.0639 36.5701 41.3998C37.0158 40.7358 37.2538 39.9541 37.2539 39.1543V38.7266C37.2529 38.0235 37.0687 37.3328 36.7193 36.7227C36.37 36.1126 35.8676 35.604 35.2617 35.2473ZM35.4961 39.1543C35.4961 39.6053 35.3619 40.046 35.1106 40.4205C34.8593 40.7949 34.5023 41.0861 34.0849 41.257C33.6676 41.4279 33.2089 41.4708 32.7672 41.3802C32.3254 41.2895 31.9206 41.0695 31.6043 40.7481L30.6223 39.7496C30.5404 39.6665 30.4428 39.6005 30.3351 39.5555C30.2275 39.5104 30.112 39.4872 29.9953 39.4872C29.8786 39.4872 29.7631 39.5104 29.6555 39.5555C29.5478 39.6005 29.4502 39.6665 29.3684 39.7496L28.3863 40.7481C28.07 41.0695 27.6652 41.2895 27.2235 41.3802C26.7817 41.4708 26.323 41.4279 25.9057 41.257C25.4884 41.0861 25.1313 40.7949 24.88 40.4205C24.6287 40.046 24.4945 39.6053 24.4945 39.1543V38.7266C24.4953 38.3299 24.5996 37.9402 24.7971 37.5962C24.9946 37.2521 25.2785 36.9656 25.6207 36.7649L30 34.209L34.3746 36.7649C34.7168 36.9656 35.0007 37.2521 35.1982 37.5962C35.3957 37.9402 35.5 38.3299 35.5008 38.7266L35.4961 39.1543Z" fill="#E25E52"/>
<path d="M30 31.3348C31.6242 31.3348 32.7023 29.1598 32.7023 27.7219C32.7023 27.0052 32.4176 26.3178 31.9108 25.811C31.404 25.3042 30.7167 25.0195 30 25.0195C29.2832 25.0195 28.5959 25.3042 28.0891 25.811C27.5823 26.3178 27.2976 27.0052 27.2976 27.7219C27.2976 29.1598 28.3757 31.3348 30 31.3348ZM30 26.7773C30.2504 26.7777 30.4904 26.8773 30.6675 27.0543C30.8446 27.2314 30.9442 27.4715 30.9445 27.7219C30.9445 28.5422 30.2601 29.577 30 29.577C29.7398 29.577 29.0554 28.5457 29.0554 27.7219C29.0557 27.4715 29.1553 27.2314 29.3324 27.0543C29.5095 26.8773 29.7495 26.7777 30 26.7773Z" fill="#E25E52"/>
<path d="M36.3797 27.7539C35.6634 27.7548 34.9767 28.0399 34.4703 28.5465C33.9639 29.0531 33.6792 29.7399 33.6786 30.4563C33.6786 30.5313 33.6786 30.6109 33.6786 30.6906C33.6715 31.6809 33.6633 32.9172 34.3536 33.6086C34.4993 33.7563 34.6733 33.873 34.8652 33.9517C35.0571 34.0304 35.2629 34.0696 35.4704 34.0668C36.9563 34.0668 39.0833 31.9398 39.0833 30.4539C39.0817 29.7377 38.7963 29.0513 38.2895 28.5452C37.7827 28.0391 37.096 27.7545 36.3797 27.7539ZM35.5594 32.2996C35.4223 31.9656 35.4294 31.0645 35.4317 30.7047C35.4317 30.618 35.4317 30.5348 35.4317 30.4563C35.4272 30.3295 35.4483 30.2031 35.4938 30.0847C35.5392 29.9663 35.608 29.8582 35.6961 29.767C35.7842 29.6757 35.8898 29.6031 36.0065 29.5536C36.1233 29.504 36.2488 29.4785 36.3756 29.4785C36.5025 29.4785 36.628 29.504 36.7448 29.5536C36.8615 29.6031 36.9671 29.6757 37.0552 29.767C37.1433 29.8582 37.2121 29.9663 37.2575 30.0847C37.3029 30.2031 37.324 30.3295 37.3196 30.4563C37.3243 30.9473 36.1336 32.166 35.5629 32.2996H35.5594Z" fill="#E25E52"/>
<path d="M25.6477 33.6102C26.3379 32.9153 26.3297 31.6824 26.3227 30.6922C26.3227 30.6102 26.3227 30.5305 26.3227 30.4578C26.3302 30.0983 26.2658 29.7409 26.1334 29.4065C26.001 29.0722 25.8032 28.7676 25.5516 28.5107C25.2999 28.2538 24.9996 28.0497 24.668 27.9103C24.3365 27.771 23.9805 27.6992 23.6209 27.6992C23.2613 27.6992 22.9053 27.771 22.5738 27.9103C22.2423 28.0497 21.9419 28.2538 21.6903 28.5107C21.4387 28.7676 21.2408 29.0722 21.1084 29.4065C20.976 29.7409 20.9117 30.0983 20.9192 30.4578C20.9192 31.9438 23.0461 34.0707 24.5321 34.0707C24.7394 34.073 24.9452 34.0334 25.1369 33.9543C25.3286 33.8752 25.5023 33.7581 25.6477 33.6102ZM22.6758 30.4555C22.6713 30.3287 22.6924 30.2024 22.7379 30.0839C22.7833 29.9655 22.8521 29.8575 22.9402 29.7662C23.0283 29.675 23.1339 29.6024 23.2506 29.5528C23.3674 29.5032 23.4929 29.4777 23.6198 29.4777C23.7466 29.4777 23.8721 29.5032 23.9889 29.5528C24.1056 29.6024 24.2112 29.675 24.2993 29.7662C24.3874 29.8575 24.4562 29.9655 24.5016 30.0839C24.5471 30.2024 24.5682 30.3287 24.5637 30.4555C24.5637 30.534 24.5637 30.6172 24.5637 30.7039C24.5637 31.0637 24.5731 31.9649 24.436 32.2989C23.8664 32.1653 22.6758 30.9465 22.6758 30.4555Z" fill="#E25E52"/>
</svg>
