<svg width="50" height="50" viewBox="0 0 50 50" fill="none" xmlns="http://www.w3.org/2000/svg">
<g clip-path="url(#clip0_334_14376)">
<path d="M18.1641 18.7363C17.5678 18.7368 16.9819 18.8932 16.4648 19.1901C15.9476 19.4871 15.5171 19.9141 15.2161 20.4289C14.9151 20.9437 14.754 21.5283 14.7488 22.1246C14.7436 22.7209 14.8945 23.3082 15.1866 23.8281C15.2353 23.915 15.3013 23.991 15.3805 24.0514C15.4597 24.1119 15.5504 24.1555 15.6471 24.1796C15.7437 24.2038 15.8443 24.2079 15.9426 24.1918C16.0409 24.1757 16.1349 24.1397 16.2188 24.0859C16.4426 23.9432 16.6933 23.8476 16.9553 23.805C17.2174 23.7623 17.4853 23.7736 17.7429 23.838C18.0005 23.9025 18.2422 24.0187 18.4533 24.1797C18.6644 24.3407 18.8405 24.5431 18.9707 24.7744C19.0198 24.8611 19.086 24.9369 19.1653 24.9972C19.2447 25.0575 19.3354 25.101 19.4321 25.125C19.5288 25.149 19.6294 25.1531 19.7277 25.137C19.826 25.1209 19.92 25.0849 20.0039 25.0313C20.6253 24.6326 21.101 24.0436 21.3597 23.3521C21.6184 22.6607 21.6463 21.904 21.4392 21.1954C21.2321 20.4868 20.8011 19.8643 20.2108 19.421C19.6204 18.9777 18.9024 18.7375 18.1641 18.7363ZM19.7119 23.3457C19.27 22.8934 18.7112 22.5727 18.0978 22.419C17.4843 22.2654 16.8403 22.285 16.2373 22.4756C16.1841 22.1559 16.2113 21.8279 16.3164 21.5213C16.4215 21.2147 16.6013 20.9391 16.8395 20.7193C17.0777 20.4995 17.3668 20.3425 17.6809 20.2623C17.9949 20.1822 18.324 20.1814 18.6384 20.2601C18.9528 20.3389 19.2427 20.4946 19.4819 20.7133C19.7211 20.932 19.9021 21.2068 20.0086 21.5129C20.1151 21.8191 20.1438 22.1469 20.092 22.4668C20.0402 22.7868 19.9096 23.0888 19.7119 23.3457Z" fill="#E25E52"/>
<path d="M14.0137 27.666C13.4311 27.6665 12.8725 27.8982 12.4605 28.3102C12.0486 28.7221 11.8169 29.2807 11.8164 29.8633V30.8398C11.8164 31.4226 12.0479 31.9815 12.46 32.3935C12.872 32.8056 13.4309 33.0371 14.0137 33.0371C14.5964 33.0371 15.1553 32.8056 15.5674 32.3935C15.9794 31.9815 16.2109 31.4226 16.2109 30.8398V29.8633C16.2104 29.2807 15.9788 28.7221 15.5668 28.3102C15.1548 27.8982 14.5963 27.6665 14.0137 27.666ZM14.7461 30.8398C14.7461 31.0341 14.6689 31.2204 14.5316 31.3577C14.3942 31.4951 14.2079 31.5723 14.0137 31.5723C13.8194 31.5723 13.6331 31.4951 13.4958 31.3577C13.3584 31.2204 13.2812 31.0341 13.2812 30.8398V29.8633C13.2812 29.669 13.3584 29.4827 13.4958 29.3454C13.6331 29.208 13.8194 29.1309 14.0137 29.1309C14.2079 29.1309 14.3942 29.208 14.5316 29.3454C14.6689 29.4827 14.7461 29.669 14.7461 29.8633V30.8398Z" fill="#E25E52"/>
<path d="M43.5049 18.2529L44.2588 16.1826C44.8308 16.5396 45.4884 16.7359 46.1625 16.7509C46.8365 16.7658 47.5022 16.5989 48.0895 16.2677C48.6768 15.9365 49.164 15.4532 49.4999 14.8685C49.8358 14.2839 50.008 13.6196 49.9984 12.9454C49.9888 12.2712 49.7977 11.6121 49.4453 11.0373C49.0929 10.4625 48.5921 9.9932 47.9957 9.67883C47.3992 9.36446 46.729 9.21658 46.0557 9.25075C45.3823 9.28492 44.7305 9.49987 44.1689 9.87301C43.9874 9.25842 43.6515 8.70056 43.1932 8.25258C42.7349 7.80461 42.1696 7.48145 41.551 7.3139C40.9325 7.14634 40.2813 7.13997 39.6596 7.2954C39.0379 7.45082 38.4663 7.76287 37.9994 8.20179C37.5324 8.64072 37.1857 9.1919 36.9921 9.80282C36.7986 10.4137 36.7647 11.0641 36.8937 11.6918C37.0227 12.3195 37.3103 12.9038 37.7291 13.3888C38.1479 13.8739 38.6839 14.2437 39.2861 14.4629C39.5317 14.5525 39.786 14.616 40.0449 14.6523L39.1914 16.9961C38.8359 16.9638 38.4756 16.9462 38.1113 16.9462C36.3342 16.9447 34.5797 17.3449 32.979 18.1171C31.3784 18.8893 29.9731 20.0133 28.8682 21.4052L26.499 24.3652C26.1936 24.7502 25.8051 25.0613 25.3625 25.275C24.92 25.4888 24.4348 25.5997 23.9434 25.5996C23.8955 25.5996 23.8457 25.5996 23.7998 25.5996C24.3612 24.6728 24.6853 23.6218 24.7435 22.5398C24.8018 21.4578 24.5923 20.3782 24.1337 19.3965C23.6751 18.4148 22.9815 17.5613 22.1143 16.9116C21.2471 16.2619 20.233 15.8361 19.162 15.6719C18.091 15.5077 16.9959 15.6101 15.9739 15.9701C14.9519 16.3301 14.0344 16.9365 13.3027 17.7357C12.5711 18.5349 12.0477 19.5022 11.7791 20.5519C11.5105 21.6017 11.5048 22.7014 11.7627 23.7539C9.58106 24.6955 7.82434 26.4102 6.83008 28.5683L4.52539 33.5839C4.40183 33.5628 4.27672 33.552 4.15137 33.5517H2.19824C1.61549 33.5517 1.05661 33.7832 0.644541 34.1953C0.232474 34.6074 0.000976562 35.1662 0.000976562 35.749C0.000976562 36.3317 0.232474 36.8906 0.644541 37.3027C1.05661 37.7148 1.61549 37.9463 2.19824 37.9463H8.83887C9.01469 39.2982 9.67654 40.54 10.7009 41.4397C11.7252 42.3394 13.0419 42.8356 14.4053 42.8356C15.7686 42.8356 17.0854 42.3394 18.1097 41.4397C19.134 40.54 19.7959 39.2982 19.9717 37.9463H33.9365C34.1123 39.2982 34.7742 40.54 35.7985 41.4397C36.8228 42.3394 38.1396 42.8356 39.5029 42.8356C40.8663 42.8356 42.183 42.3394 43.2073 41.4397C44.2317 40.54 44.8935 39.2982 45.0693 37.9463H49.2686C49.3652 37.9461 49.4609 37.9269 49.5501 37.8896C49.6393 37.8523 49.7203 37.7977 49.7883 37.729C49.8563 37.6602 49.91 37.5787 49.9463 37.4892C49.9827 37.3996 50.0009 37.3037 50 37.207V28.9589C50.0032 26.7504 49.399 24.5835 48.2535 22.6953C47.1079 20.807 45.4652 19.2702 43.5049 18.2529ZM41.6543 13.4355C41.5716 13.337 41.4645 13.262 41.3436 13.2181C41.2227 13.1742 41.0924 13.163 40.9658 13.1855C40.5025 13.2672 40.0252 13.2041 39.599 13.0048C39.1728 12.8054 38.8185 12.4795 38.5842 12.0715C38.3499 11.6635 38.2471 11.1932 38.2898 10.7246C38.3325 10.2561 38.5186 9.81206 38.8227 9.45309C39.1269 9.09411 39.5343 8.83763 39.9895 8.71857C40.4446 8.59951 40.9255 8.62367 41.3664 8.78775C41.8074 8.95184 42.187 9.24787 42.4537 9.63552C42.7203 10.0232 42.8609 10.4836 42.8564 10.9541C42.8549 11.1055 42.9006 11.2537 42.987 11.3781C43.0734 11.5025 43.1964 11.597 43.3389 11.6484L43.6631 11.7666C43.8053 11.8186 43.9602 11.8251 44.1063 11.7852C44.2524 11.7453 44.3824 11.661 44.4785 11.5439C44.7777 11.1812 45.1815 10.9195 45.6347 10.7944C46.088 10.6692 46.5688 10.6868 47.0117 10.8447C47.4546 11.0026 47.8382 11.2931 48.1101 11.6766C48.3821 12.0602 48.5292 12.5183 48.5316 12.9885C48.5339 13.4587 48.3914 13.9182 48.1233 14.3045C47.8552 14.6908 47.4745 14.9852 47.0332 15.1474C46.5919 15.3097 46.1113 15.3321 45.6568 15.2115C45.2023 15.091 44.796 14.8333 44.4932 14.4736C44.4106 14.3749 44.3035 14.2997 44.1826 14.2556C44.0618 14.2115 43.9314 14.2 43.8047 14.2223C43.678 14.2446 43.5593 14.2998 43.4608 14.3825C43.3622 14.4652 43.2871 14.5724 43.2432 14.6933L42.1611 17.666C41.6732 17.4863 41.1737 17.3398 40.666 17.2275L41.7812 14.1601C41.8259 14.0389 41.8376 13.908 41.8153 13.7807C41.793 13.6535 41.7375 13.5344 41.6543 13.4355ZM4.88281 36.4746H2.19727C2.00302 36.4746 1.81672 36.3974 1.67937 36.2601C1.54201 36.1227 1.46484 35.9364 1.46484 35.7421C1.46484 35.5479 1.54201 35.3616 1.67937 35.2242C1.81672 35.0869 2.00302 35.0097 2.19727 35.0097H4.15039C4.34464 35.0097 4.53094 35.0869 4.66829 35.2242C4.80565 35.3616 4.88281 35.5479 4.88281 35.7421V36.4746ZM14.4043 41.3574C13.4311 41.3559 12.4893 41.013 11.743 40.3884C10.9966 39.7638 10.4932 38.8971 10.3203 37.9394H18.4883C18.3154 38.8971 17.8119 39.7638 17.0656 40.3884C16.3193 41.013 15.3775 41.3559 14.4043 41.3574ZM29.5098 35.2539C29.5103 34.9303 29.6391 34.6201 29.8679 34.3913C30.0967 34.1625 30.4069 34.0337 30.7305 34.0332H36.5723C36.7665 34.0332 36.9528 33.956 37.0902 33.8186C37.2275 33.6813 37.3047 33.495 37.3047 33.3007C37.3057 32.4593 37.6404 31.6526 38.2354 31.0576C38.8304 30.4627 39.6371 30.1279 40.4785 30.1269C41.5789 30.1282 42.6338 30.5659 43.4119 31.344C44.1899 32.122 44.6276 33.177 44.6289 34.2773V36.4746H30.7305C30.4069 36.4741 30.0967 36.3453 29.8679 36.1165C29.6391 35.8877 29.5103 35.5775 29.5098 35.2539ZM39.502 41.3574C38.5288 41.3559 37.5869 41.013 36.8406 40.3884C36.0943 39.7638 35.5908 38.8971 35.418 37.9394H43.5859C43.4131 38.8971 42.9096 39.7638 42.1633 40.3884C41.417 41.013 40.4751 41.3559 39.502 41.3574ZM48.5352 36.4746H46.0938V34.2773C46.0922 32.7885 45.5001 31.3612 44.4474 30.3084C43.3946 29.2557 41.9673 28.6636 40.4785 28.6621C39.3755 28.6635 38.3091 29.0573 37.4698 29.7729C36.6305 30.4886 36.0732 31.4794 35.8975 32.5683H30.7305C30.0185 32.5694 29.3361 32.8526 28.8326 33.356C28.3292 33.8595 28.046 34.5419 28.0449 35.2539C28.0438 35.6783 28.1442 36.0969 28.3379 36.4746H6.34766V35.7421C6.34788 35.2111 6.15488 34.698 5.80469 34.2988L8.16016 29.1738C8.61906 28.1752 9.27523 27.2797 10.0892 26.5413C10.9031 25.8029 11.8581 25.2367 12.8965 24.8769C12.9886 24.8453 13.0736 24.7956 13.1463 24.7308C13.219 24.6659 13.278 24.5873 13.3199 24.4993C13.3619 24.4114 13.3858 24.316 13.3904 24.2186C13.395 24.1213 13.3801 24.0241 13.3467 23.9326C13.0356 23.0807 12.956 22.1616 13.116 21.2689C13.276 20.3763 13.6698 19.542 14.2574 18.8512C14.8449 18.1604 15.6052 17.6378 16.4606 17.3366C17.316 17.0355 18.236 16.9666 19.1268 17.1369C20.0175 17.3073 20.8471 17.7108 21.531 18.3064C22.215 18.9019 22.7287 19.6682 23.0199 20.5271C23.3111 21.386 23.3693 22.3067 23.1886 23.1954C23.0079 24.0841 22.5947 24.909 21.9912 25.5859C21.9123 25.6746 21.8561 25.7812 21.8275 25.8965C21.7989 26.0118 21.7988 26.1322 21.8272 26.2476C21.8555 26.3629 21.9115 26.4696 21.9903 26.5585C22.069 26.6474 22.1682 26.7158 22.2793 26.7578C23.2145 27.1113 24.2379 27.1586 25.2018 26.8926C26.1656 26.6267 27.02 26.0614 27.6416 25.2783L30.0107 22.3193C30.9791 21.0998 32.2106 20.115 33.6132 19.4386C35.0158 18.7622 36.5532 18.4116 38.1104 18.413C43.8584 18.4082 48.5352 23.1445 48.5352 28.9589V36.4746Z" fill="#3A1916"/>
</g>
<defs>
<clipPath id="clip0_334_14376">
<rect width="50" height="50" fill="white"/>
</clipPath>
</defs>
</svg>
