<svg width="50" height="50" viewBox="0 0 50 50" fill="none" xmlns="http://www.w3.org/2000/svg">
<g clip-path="url(#clip0_631_36)">
<path d="M37.3661 13.71C37.4348 13.7905 37.5202 13.8552 37.6163 13.8995C37.7124 13.9439 37.8169 13.9668 37.9228 13.9668C38.0137 13.9668 38.1039 13.9496 38.1884 13.916C39.2045 13.5211 40.2596 13.2347 41.3359 13.0615L42.2812 12.9092C43.4055 12.7281 44.4203 12.1303 45.1237 11.2348C45.8271 10.3392 46.1674 9.21164 46.0769 8.07648C45.9864 6.94133 45.4717 5.8819 44.6353 5.10911C43.7989 4.33632 42.7022 3.90687 41.5634 3.90625H39.8535C38.7788 3.90493 37.7387 4.28567 36.9189 4.98047C35.7596 5.96281 34.8268 7.18448 34.1845 8.56153L33.6367 9.7334C33.562 9.89298 33.5473 10.0741 33.5954 10.2436C33.6435 10.4131 33.751 10.5596 33.8984 10.6563C35.1933 11.5022 36.3604 12.5292 37.3642 13.7061L37.3661 13.71ZM35.5107 9.18653C36.0641 8.00058 36.8672 6.94824 37.8652 6.10157C38.4203 5.63 39.125 5.3711 39.8535 5.3711H41.5634C42.3341 5.37098 43.0766 5.66116 43.6429 6.18385C44.2092 6.70654 44.5579 7.42338 44.6195 8.19161C44.6811 8.95983 44.451 9.72306 43.9752 10.3293C43.4993 10.9355 42.8126 11.3403 42.0517 11.4629L41.1054 11.6152C40.0966 11.7772 39.1045 12.0305 38.1415 12.3721C37.7411 11.9297 37.3173 11.5068 36.8798 11.1113C36.3571 10.6394 35.8067 10.1992 35.2314 9.79297L35.5107 9.18653Z" fill="#E25E52"/>
<path d="M16.3612 9.7373L15.8134 8.56543C15.1711 7.18838 14.2382 5.96672 13.079 4.98438C12.2604 4.29081 11.2222 3.91016 10.1493 3.91016H8.43643C7.30144 3.91569 6.20987 4.34706 5.37772 5.11891C4.54557 5.89076 4.03346 6.94686 3.94273 8.07823C3.852 9.2096 4.18925 10.3338 4.88777 11.2284C5.58628 12.123 6.59515 12.7228 7.71475 12.9092L8.66006 13.0615C9.73937 13.2341 10.7974 13.5205 11.8163 13.916C11.9009 13.9496 11.991 13.9668 12.0819 13.9668C12.1878 13.9668 12.2924 13.9439 12.3885 13.8995C12.4846 13.8552 12.5699 13.7905 12.6386 13.71C13.6424 12.5331 14.8095 11.5061 16.1044 10.6602C16.2509 10.5628 16.3574 10.416 16.4046 10.2465C16.4518 10.0771 16.4364 9.89634 16.3612 9.7373ZM13.122 11.1113C12.6804 11.5101 12.2593 11.9308 11.8603 12.3721C10.8973 12.0305 9.90524 11.7772 8.89639 11.6152L7.9501 11.4629C7.18924 11.3402 6.50249 10.9355 6.02662 10.3293C5.55076 9.72305 5.32071 8.95982 5.38228 8.1916C5.44386 7.42338 5.79255 6.70654 6.3589 6.18385C6.92524 5.66116 7.6677 5.37098 8.43838 5.37109H10.1464C10.8741 5.37156 11.5781 5.63043 12.1327 6.10156C13.1307 6.94823 13.9338 8.00057 14.4872 9.18652L14.7704 9.79297C14.1953 10.1994 13.6449 10.6396 13.122 11.1113Z" fill="#E25E52"/>
<path d="M42.4426 29.0303C41.7998 28.8096 41.2336 28.4097 40.8105 27.8778C40.3875 27.346 40.1253 26.7043 40.0549 26.0283L39.7189 22.7598C39.5537 21.1427 39.1231 19.564 38.4445 18.0869C39.5433 17.508 40.7291 17.1121 41.9553 16.915L42.9006 16.7627C44.9903 16.4214 46.8753 15.3067 48.1813 13.64C49.4873 11.9734 50.1189 9.8765 49.9505 7.76576C49.7822 5.65503 48.8263 3.68478 47.2726 2.24616C45.7189 0.807544 43.6811 0.00576368 41.5637 0L39.8537 0C37.8501 8.10789e-05 35.9118 0.712412 34.385 2.00977C32.7992 3.35432 31.5235 5.02646 30.6457 6.91113L29.1701 10.0713C26.4475 9.27309 23.5529 9.27309 20.8303 10.0713L19.3518 6.91113C18.474 5.02646 17.1983 3.35432 15.6125 2.00977C14.0864 0.713065 12.1493 0.000775831 10.1467 0L8.43672 0C6.3161 0.00103427 4.27364 0.800655 2.71598 2.23967C1.15833 3.67868 0.199733 5.65152 0.031044 7.76542C-0.137645 9.87933 0.495948 11.9792 1.80568 13.6471C3.11541 15.3149 5.00521 16.4283 7.09883 16.7656L8.04512 16.918C9.27293 17.1148 10.4604 17.5106 11.5607 18.0898C10.8814 19.5667 10.4505 21.1455 10.2854 22.7627L9.94941 26.0312C9.879 26.7072 9.61683 27.3489 9.19379 27.8808C8.77075 28.4126 8.20448 28.8125 7.56172 29.0332C5.1125 29.8701 1.81953 31.9951 0.0421874 37.3633C-0.00995377 37.5175 -0.009147 37.6847 0.0444799 37.8385C0.0981068 37.9922 0.201488 38.1236 0.33825 38.212C0.475012 38.3003 0.637336 38.3405 0.799513 38.3261C0.96169 38.3118 1.11445 38.2438 1.23359 38.1328C1.28047 38.0898 2.14766 37.3232 3.85957 36.9844C3.31758 37.8467 2.89766 39.1328 3.06758 41.001C3.08233 41.1581 3.14736 41.3062 3.25301 41.4235C3.35866 41.5407 3.49929 41.6207 3.65403 41.6516C3.80877 41.6825 3.96935 41.6627 4.11194 41.5951C4.25452 41.5275 4.3715 41.4157 4.44551 41.2764C4.68701 40.8855 5.00546 40.5477 5.3815 40.2836C5.75754 40.0196 6.18333 39.8347 6.63301 39.7402C8.32408 42.8443 10.8204 45.4353 13.8594 47.2408C16.8984 49.0462 20.3677 49.9994 23.9025 50H26.0979C29.6338 50 33.1044 49.0468 36.1443 47.2408C39.1843 45.4347 41.6812 42.8427 43.3723 39.7373C43.8218 39.8324 44.2475 40.0176 44.6236 40.2816C44.9997 40.5456 45.3185 40.883 45.5607 41.2734C45.6345 41.413 45.7514 41.525 45.8939 41.5928C46.0365 41.6605 46.1972 41.6804 46.352 41.6495C46.5068 41.6185 46.6474 41.5384 46.753 41.421C46.8585 41.3036 46.9233 41.1553 46.9377 40.998C47.1076 39.1299 46.6877 37.8438 46.1467 36.9814C47.8566 37.3203 48.7238 38.0859 48.7688 38.126C48.8878 38.2366 49.0402 38.3045 49.202 38.3191C49.3639 38.3336 49.5259 38.2939 49.6627 38.2062C49.7995 38.1185 49.9033 37.9878 49.9577 37.8347C50.012 37.6815 50.0139 37.5147 49.9631 37.3604C48.1848 31.9922 44.8918 29.8672 42.4426 29.0303ZM31.9748 7.53125C32.7644 5.83705 33.9115 4.33387 35.3371 3.125C36.5982 2.05355 38.199 1.46515 39.8537 1.46484H41.5637C43.316 1.46588 45.0036 2.12675 46.2907 3.3159C47.5777 4.50505 48.3698 6.13525 48.5091 7.882C48.6485 9.62876 48.125 11.3639 47.0428 12.7421C45.9606 14.1203 44.3991 15.0404 42.6691 15.3193L41.7229 15.4717C40.3414 15.6926 39.0052 16.1373 37.7668 16.7881C36.1172 13.9733 33.5839 11.7823 30.5607 10.5557L31.9748 7.53125ZM8.27754 15.4717L7.33125 15.3193C5.60128 15.0404 4.03978 14.1203 2.95759 12.7421C1.87539 11.3639 1.35187 9.62876 1.49125 7.882C1.63062 6.13525 2.42267 4.50505 3.70972 3.3159C4.99677 2.12675 6.68442 1.46588 8.43672 1.46484H10.1467C11.8014 1.46515 13.4022 2.05355 14.6633 3.125C16.0888 4.33358 17.2358 5.83642 18.0256 7.53027L19.4396 10.5576C16.4169 11.785 13.8838 13.9758 12.2336 16.79C10.9953 16.1385 9.6591 15.6932 8.27754 15.4717ZM11.7385 22.9092C12.0747 19.6258 13.6169 16.5839 16.0667 14.3721C18.5165 12.1604 21.6997 10.936 25.0002 10.936C28.3007 10.936 31.4839 12.1604 33.9337 14.3721C36.3835 16.5839 37.9257 19.6258 38.2619 22.9092L38.5979 26.1777C38.6702 26.8842 38.8926 27.5671 39.2502 28.1807C35.4299 30.6221 31.5549 31.4297 28.6457 31.627C28.6825 31.2971 28.6493 30.9632 28.5484 30.647C28.4474 30.3308 28.2809 30.0394 28.0597 29.7919C27.8386 29.5444 27.5677 29.3463 27.2649 29.2105C26.962 29.0747 26.6339 29.0043 26.302 29.0039H23.7014C23.3694 29.0043 23.0413 29.0747 22.7385 29.2105C22.4356 29.3463 22.1647 29.5444 21.9436 29.7919C21.7224 30.0394 21.5559 30.3308 21.455 30.647C21.354 30.9632 21.3208 31.2971 21.3576 31.627C18.4484 31.4316 14.5734 30.623 10.7531 28.1807C11.1108 27.567 11.3335 26.8842 11.4064 26.1777L11.7385 22.9092ZM25.0002 34.208C24.8525 34.2095 24.7068 34.1738 24.5766 34.1042C24.4464 34.0346 24.3358 33.9332 24.2551 33.8096L22.9562 31.8564C22.8672 31.7217 22.8163 31.5654 22.809 31.404C22.8016 31.2427 22.838 31.0824 22.9144 30.9401C22.9908 30.7978 23.1043 30.6789 23.2429 30.5959C23.3814 30.5129 23.5399 30.469 23.7014 30.4688H26.299C26.4611 30.4685 26.6203 30.5123 26.7594 30.5955C26.8986 30.6787 27.0125 30.7981 27.089 30.941C27.1656 31.084 27.2018 31.245 27.1939 31.4069C27.186 31.5688 27.1342 31.7256 27.0441 31.8604L25.7453 33.8135C25.6641 33.9364 25.5534 34.037 25.4232 34.1059C25.2929 34.1749 25.1475 34.21 25.0002 34.208ZM44.1408 35.3623C43.9708 35.3658 43.8072 35.4278 43.6773 35.5376C43.5476 35.6475 43.4595 35.7987 43.4279 35.9658C43.3965 36.1302 43.4238 36.3004 43.505 36.4467C43.5862 36.593 43.7162 36.7062 43.8723 36.7666C43.9328 36.7939 45.0393 37.3135 45.3986 39.04C44.6946 38.5615 43.8781 38.2745 43.0295 38.207C42.8842 38.1942 42.7385 38.2252 42.611 38.2958C42.4834 38.3665 42.3799 38.4736 42.3137 38.6035C40.7956 41.5983 38.4757 44.1126 35.6125 45.8662C32.7493 47.6198 29.4554 48.5438 26.0979 48.5352H23.9025C20.5449 48.544 17.2507 47.6201 14.3873 45.8664C11.5239 44.1128 9.20387 41.5984 7.68574 38.6035C7.62431 38.4829 7.53062 38.3817 7.41511 38.3112C7.29959 38.2407 7.16678 38.2036 7.03145 38.2041H6.96699C6.11846 38.2719 5.30209 38.5589 4.59785 39.0371C4.95625 37.3105 6.0627 36.791 6.11543 36.7676C6.27207 36.7067 6.40262 36.5932 6.4846 36.4465C6.56659 36.2998 6.5949 36.1292 6.56465 35.9639C6.53366 35.7981 6.44676 35.6479 6.31845 35.5384C6.19014 35.429 6.02817 35.3668 5.85957 35.3623C4.60671 35.3134 3.35654 35.5126 2.18086 35.9482C3.82344 32.5156 6.20137 31.0459 8.03242 30.4209C8.70303 30.1913 9.31718 29.8218 9.83418 29.3369C14.3029 32.2354 18.8508 33.0176 22.0412 33.1328L23.0363 34.626C23.33 35.0672 23.7638 35.3964 24.2678 35.5605V37.3857C24.2673 37.8388 24.087 38.2732 23.7667 38.5936C23.4463 38.914 23.0119 39.0942 22.5588 39.0947H22.2414C21.7883 39.0942 21.3539 38.914 21.0335 38.5936C20.7132 38.2732 20.5329 37.8388 20.5324 37.3857C20.5324 37.1915 20.4553 37.0052 20.3179 36.8678C20.1805 36.7305 19.9942 36.6533 19.8 36.6533C19.6057 36.6533 19.4195 36.7305 19.2821 36.8678C19.1447 37.0052 19.0676 37.1915 19.0676 37.3857C19.0686 38.2272 19.4033 39.0339 19.9983 39.6288C20.5933 40.2238 21.4 40.5585 22.2414 40.5596H22.5588C23.0252 40.5596 23.4858 40.4567 23.9078 40.2582C24.3298 40.0596 24.7028 39.7704 25.0002 39.4111C25.2976 39.7704 25.6706 40.0596 26.0926 40.2582C26.5146 40.4567 26.9752 40.5596 27.4416 40.5596H27.759C28.6004 40.5585 29.4071 40.2238 30.0021 39.6288C30.5971 39.0339 30.9318 38.2272 30.9328 37.3857C30.9328 37.1915 30.8556 37.0052 30.7183 36.8678C30.5809 36.7305 30.3946 36.6533 30.2004 36.6533C30.0061 36.6533 29.8198 36.7305 29.6825 36.8678C29.5451 37.0052 29.468 37.1915 29.468 37.3857C29.4675 37.8388 29.2872 38.2732 28.9669 38.5936C28.6465 38.914 28.2121 39.0942 27.759 39.0947H27.4416C26.9885 39.0942 26.5541 38.914 26.2337 38.5936C25.9134 38.2732 25.7331 37.8388 25.7326 37.3857V35.5566C26.2365 35.3925 26.6704 35.0633 26.9641 34.6221L27.9592 33.1289C31.1516 33.0137 35.6984 32.2314 40.1662 29.333C40.6834 29.8177 41.2975 30.1872 41.968 30.417C43.799 31.042 46.177 32.5117 47.8195 35.9434C46.6434 35.5098 45.3933 35.3124 44.1408 35.3623Z" fill="#3A1916"/>
<path d="M31.3477 28.1738C31.9302 28.1733 32.4888 27.9416 32.9008 27.5297C33.3127 27.1177 33.5444 26.5592 33.5449 25.9766V24.0234C33.5449 23.4407 33.3134 22.8818 32.9014 22.4697C32.4893 22.0577 31.9304 21.8262 31.3477 21.8262C30.7649 21.8262 30.206 22.0577 29.794 22.4697C29.3819 22.8818 29.1504 23.4407 29.1504 24.0234V25.9766C29.1509 26.5592 29.3826 27.1177 29.7945 27.5297C30.2065 27.9416 30.7651 28.1733 31.3477 28.1738ZM30.6152 24.0234C30.6152 23.8292 30.6924 23.6429 30.8298 23.5055C30.9671 23.3682 31.1534 23.291 31.3477 23.291C31.5419 23.291 31.7282 23.3682 31.8656 23.5055C32.0029 23.6429 32.0801 23.8292 32.0801 24.0234V25.9766C32.0801 26.1708 32.0029 26.3571 31.8656 26.4945C31.7282 26.6318 31.5419 26.709 31.3477 26.709C31.1534 26.709 30.9671 26.6318 30.8298 26.4945C30.6924 26.3571 30.6152 26.1708 30.6152 25.9766V24.0234Z" fill="#E25E52"/>
<path d="M18.6523 28.1738C19.2349 28.1733 19.7935 27.9416 20.2055 27.5297C20.6174 27.1177 20.8491 26.5592 20.8496 25.9766V24.0234C20.8496 23.4407 20.6181 22.8818 20.206 22.4697C19.794 22.0577 19.2351 21.8262 18.6523 21.8262C18.0696 21.8262 17.5107 22.0577 17.0986 22.4697C16.6866 22.8818 16.4551 23.4407 16.4551 24.0234V25.9766C16.4556 26.5592 16.6873 27.1177 17.0992 27.5297C17.5112 27.9416 18.0698 28.1733 18.6523 28.1738ZM17.9199 24.0234C17.9199 23.8292 17.9971 23.6429 18.1344 23.5055C18.2718 23.3682 18.4581 23.291 18.6523 23.291C18.8466 23.291 19.0329 23.3682 19.1702 23.5055C19.3076 23.6429 19.3848 23.8292 19.3848 24.0234V25.9766C19.3848 26.1708 19.3076 26.3571 19.1702 26.4945C19.0329 26.6318 18.8466 26.709 18.6523 26.709C18.4581 26.709 18.2718 26.6318 18.1344 26.4945C17.9971 26.3571 17.9199 26.1708 17.9199 25.9766V24.0234Z" fill="#E25E52"/>
</g>
<defs>
<clipPath id="clip0_631_36">
<rect width="50" height="50" fill="white"/>
</clipPath>
</defs>
</svg>
