<svg width="50" height="50" viewBox="0 0 50 50" fill="none" xmlns="http://www.w3.org/2000/svg">
<g clip-path="url(#clip0_334_14391)">
<path d="M21.3154 35.9462L16.7256 33.2656C16.6137 33.1999 16.4862 33.1653 16.3564 33.1653C16.2267 33.1653 16.0992 33.1999 15.9873 33.2656L11.3975 35.9462C10.8345 36.2755 10.3672 36.746 10.0417 37.3112C9.71633 37.8764 9.54407 38.5167 9.54199 39.1689V39.5751C9.54167 40.3164 9.76199 41.0409 10.1749 41.6565C10.5878 42.272 11.1746 42.7508 11.8605 43.0317C12.5464 43.3126 13.3005 43.3829 14.0265 43.2338C14.7526 43.0847 15.4178 42.7228 15.9375 42.1943L16.3506 41.7744L16.7637 42.1943C17.2833 42.7228 17.9486 43.0847 18.6747 43.2338C19.4007 43.3829 20.1547 43.3126 20.8407 43.0317C21.5266 42.7508 22.1134 42.272 22.5263 41.6565C22.9392 41.0409 23.1595 40.3164 23.1592 39.5751V39.1699C23.1585 38.5187 22.9881 37.8789 22.6648 37.3136C22.3414 36.7483 21.8764 36.277 21.3154 35.9462ZM21.7012 39.5761C21.7011 40.0264 21.567 40.4666 21.316 40.8405C21.065 41.2144 20.7085 41.5052 20.2918 41.6758C19.8751 41.8465 19.417 41.8893 18.9758 41.7989C18.5347 41.7084 18.1304 41.4888 17.8145 41.1679L16.8799 40.2177C16.8116 40.1485 16.7303 40.0934 16.6406 40.0559C16.5509 40.0184 16.4547 39.999 16.3574 39.999C16.2602 39.999 16.1639 40.0184 16.0742 40.0559C15.9845 40.0934 15.9032 40.1485 15.835 40.2177L14.9004 41.1679C14.5844 41.4888 14.1802 41.7084 13.739 41.7989C13.2979 41.8893 12.8398 41.8465 12.4231 41.6758C12.0063 41.5052 11.6498 41.2144 11.3988 40.8405C11.1478 40.4666 11.0138 40.0264 11.0137 39.5761V39.1699C11.0138 38.7731 11.1176 38.3833 11.3148 38.039C11.5119 37.6947 11.7956 37.4079 12.1377 37.207L16.3574 34.746L20.5771 37.207C20.9187 37.4076 21.202 37.6938 21.3991 38.0373C21.5962 38.3809 21.7003 38.7699 21.7012 39.166V39.5761Z" fill="#E25E52"/>
<path d="M16.3574 32.0254C17.8887 32.0254 18.8262 29.8652 18.8262 28.6895C18.8262 28.0347 18.5661 27.4068 18.1031 26.9438C17.6401 26.4808 17.0122 26.2207 16.3574 26.2207C15.7027 26.2207 15.0747 26.4808 14.6118 26.9438C14.1488 27.4068 13.8887 28.0347 13.8887 28.6895C13.8887 29.8652 14.8262 32.0254 16.3574 32.0254ZM16.3574 27.6855C16.6236 27.6858 16.8788 27.7917 17.067 27.9799C17.2552 28.1681 17.3611 28.4233 17.3613 28.6895C17.3613 29.4609 16.7119 30.5605 16.3574 30.5605C16.0029 30.5605 15.3535 29.4609 15.3535 28.6895C15.3538 28.4233 15.4596 28.1681 15.6478 27.9799C15.8361 27.7917 16.0912 27.6858 16.3574 27.6855Z" fill="#E25E52"/>
<path d="M22.4336 28.8252C21.7792 28.826 21.1519 29.0862 20.6891 29.5488C20.2263 30.0114 19.9658 30.6386 19.9648 31.293C19.9648 31.3652 19.9648 31.4404 19.9648 31.5195C19.9589 32.4434 19.9511 33.5928 20.5781 34.2246C20.707 34.3553 20.861 34.4586 21.0308 34.5282C21.2007 34.5979 21.3828 34.6324 21.5664 34.6299C22.9336 34.6299 24.9033 32.665 24.9033 31.293C24.9022 30.6385 24.6416 30.0111 24.1787 29.5484C23.7157 29.0858 23.0881 28.8257 22.4336 28.8252ZM22.7099 32.4385C22.2353 32.9121 21.791 33.1396 21.5937 33.1641C21.4199 32.8994 21.4267 31.9121 21.4287 31.5303C21.4287 31.4482 21.4287 31.3691 21.4287 31.2939C21.4287 31.0277 21.5344 30.7723 21.7227 30.5841C21.911 30.3958 22.1663 30.29 22.4326 30.29C22.6988 30.29 22.9542 30.3958 23.1424 30.5841C23.3307 30.7723 23.4365 31.0277 23.4365 31.2939C23.4375 31.4658 23.2119 31.9336 22.7099 32.4375V32.4385Z" fill="#E25E52"/>
<path d="M12.1377 34.2246C12.7646 33.5928 12.7568 32.4434 12.751 31.5195C12.751 31.4404 12.751 31.3652 12.751 31.293C12.751 30.6382 12.4909 30.0103 12.0279 29.5473C11.5649 29.0843 10.937 28.8242 10.2822 28.8242C9.62747 28.8242 8.99954 29.0843 8.53656 29.5473C8.07358 30.0103 7.81348 30.6382 7.81348 31.293C7.81348 32.665 9.77832 34.6299 11.1504 34.6299C11.3338 34.6323 11.5158 34.5977 11.6854 34.528C11.8551 34.4584 12.0089 34.3552 12.1377 34.2246ZM10.0049 32.4375C9.50293 31.9336 9.27734 31.4658 9.27734 31.293C9.27734 31.0267 9.38311 30.7714 9.57138 30.5831C9.75965 30.3948 10.015 30.2891 10.2812 30.2891C10.5475 30.2891 10.8028 30.3948 10.9911 30.5831C11.1794 30.7714 11.2852 31.0267 11.2852 31.293C11.2852 31.3682 11.2852 31.4473 11.2852 31.5293C11.2852 31.9111 11.2939 32.8965 11.1201 33.1631C10.9297 33.1416 10.4824 32.9102 10.0049 32.4375Z" fill="#E25E52"/>
<path d="M38.5254 27.0508C36.4816 27.0484 34.4747 27.5955 32.7148 28.6348V20.2637C32.7148 20.1501 32.6884 20.0381 32.6377 19.9365L29.7852 14.2314V10.498C29.7852 10.3038 29.708 10.1175 29.5706 9.98015C29.4333 9.84279 29.247 9.76562 29.0527 9.76562H27.832V7.32422H30.0293C30.2235 7.32422 30.4098 7.24705 30.5472 7.1097C30.6846 6.97234 30.7617 6.78605 30.7617 6.5918V2.68555C30.7607 1.97361 30.4774 1.29113 29.974 0.78772C29.4706 0.284306 28.7881 0.00103329 28.0762 0L4.63867 0C3.92674 0.00103329 3.24426 0.284306 2.74084 0.78772C2.23743 1.29113 1.95416 1.97361 1.95312 2.68555V6.5918C1.95312 6.78605 2.03029 6.97234 2.16765 7.1097C2.305 7.24705 2.4913 7.32422 2.68555 7.32422H4.88281V9.76562H3.66211C3.46786 9.76562 3.28156 9.84279 3.14421 9.98015C3.00685 10.1175 2.92969 10.3038 2.92969 10.498V14.2314L0.0771484 19.9365C0.0264193 20.0381 7.6833e-06 20.1501 0 20.2637L0 47.3145C0.00103329 48.0264 0.284306 48.7089 0.78772 49.2123C1.29113 49.7157 1.97361 49.999 2.68555 50H30.0293C30.5674 49.9994 31.093 49.8373 31.538 49.5347C31.983 49.2321 32.327 48.803 32.5254 48.3027C34.0365 49.2303 35.742 49.7951 37.508 49.9526C39.2741 50.1102 41.0526 49.8564 42.704 49.211C44.3555 48.5656 45.8349 47.5463 47.0261 46.233C48.2174 44.9197 49.088 43.3482 49.5698 41.6419C50.0515 39.9355 50.1313 38.1407 49.8027 36.3983C49.4742 34.656 48.7463 33.0135 47.6762 31.5997C46.6061 30.186 45.2229 29.0395 43.6352 28.2502C42.0475 27.461 40.2985 27.0504 38.5254 27.0508ZM3.41797 2.68555C3.41849 2.36195 3.54726 2.05176 3.77607 1.82295C4.00489 1.59414 4.31508 1.46536 4.63867 1.46484H5.85938V3.17383C5.85938 3.36808 5.93654 3.55437 6.0739 3.69173C6.21125 3.82908 6.39755 3.90625 6.5918 3.90625C6.78605 3.90625 6.97234 3.82908 7.1097 3.69173C7.24705 3.55437 7.32422 3.36808 7.32422 3.17383V1.46484H9.76562V3.17383C9.76562 3.36808 9.84279 3.55437 9.98015 3.69173C10.1175 3.82908 10.3038 3.90625 10.498 3.90625C10.6923 3.90625 10.8786 3.82908 11.0159 3.69173C11.1533 3.55437 11.2305 3.36808 11.2305 3.17383V1.46484H13.6719V3.17383C13.6719 3.36808 13.749 3.55437 13.8864 3.69173C14.0238 3.82908 14.21 3.90625 14.4043 3.90625C14.5985 3.90625 14.7848 3.82908 14.9222 3.69173C15.0596 3.55437 15.1367 3.36808 15.1367 3.17383V1.46484H17.5781V3.17383C17.5781 3.36808 17.6553 3.55437 17.7926 3.69173C17.93 3.82908 18.1163 3.90625 18.3105 3.90625C18.5048 3.90625 18.6911 3.82908 18.8284 3.69173C18.9658 3.55437 19.043 3.36808 19.043 3.17383V1.46484H21.4844V3.17383C21.4844 3.36808 21.5615 3.55437 21.6989 3.69173C21.8363 3.82908 22.0225 3.90625 22.2168 3.90625C22.411 3.90625 22.5973 3.82908 22.7347 3.69173C22.8721 3.55437 22.9492 3.36808 22.9492 3.17383V1.46484H25.3906V3.17383C25.3906 3.36808 25.4678 3.55437 25.6051 3.69173C25.7425 3.82908 25.9288 3.90625 26.123 3.90625C26.3173 3.90625 26.5036 3.82908 26.6409 3.69173C26.7783 3.55437 26.8555 3.36808 26.8555 3.17383V1.46484H28.0762C28.3998 1.46536 28.71 1.59414 28.9388 1.82295C29.1676 2.05176 29.2964 2.36195 29.2969 2.68555V5.85938H3.41797V2.68555ZM6.34766 7.32422H26.3672V9.76562H6.34766V7.32422ZM28.3203 11.2305V13.6719H4.39453V11.2305H28.3203ZM4.11523 15.1367H28.5996L30.7969 19.5312H1.91797L4.11523 15.1367ZM30.0293 48.5352H2.68555C2.36195 48.5346 2.05176 48.4059 1.82295 48.1771C1.59414 47.9482 1.46536 47.638 1.46484 47.3145V20.9961H31.25V29.6592C29.938 30.7341 28.8809 32.0868 28.1551 33.6198C27.4292 35.1528 27.0528 36.8278 27.0528 38.5239C27.0528 40.2201 27.4292 41.895 28.1551 43.428C28.8809 44.961 29.938 46.3138 31.25 47.3887C31.2308 47.6993 31.0939 47.9909 30.867 48.204C30.6401 48.417 30.3405 48.5355 30.0293 48.5352ZM38.5254 48.5352C36.5456 48.5352 34.6104 47.9481 32.9643 46.8482C31.3182 45.7483 30.0352 44.185 29.2776 42.356C28.52 40.5269 28.3217 38.5143 28.708 36.5726C29.0942 34.6309 30.0475 32.8473 31.4474 31.4474C32.8473 30.0475 34.6309 29.0942 36.5726 28.708C38.5143 28.3217 40.5269 28.52 42.356 29.2776C44.185 30.0352 45.7483 31.3182 46.8482 32.9643C47.9481 34.6104 48.5352 36.5456 48.5352 38.5254C48.5323 41.1793 47.4768 43.7236 45.6002 45.6002C43.7236 47.4768 41.1793 48.5323 38.5254 48.5352Z" fill="#3A1916"/>
<path d="M38.5254 31.9336C37.684 31.9346 36.8773 32.2693 36.2823 32.8643C35.6873 33.4593 35.3526 34.266 35.3516 35.1074V41.9434C35.3516 42.7851 35.6859 43.5924 36.2812 44.1876C36.8764 44.7828 37.6836 45.1172 38.5254 45.1172C39.3671 45.1172 40.1744 44.7828 40.7696 44.1876C41.3648 43.5924 41.6992 42.7851 41.6992 41.9434V35.1074C41.6982 34.266 41.3635 33.4593 40.7685 32.8643C40.1735 32.2693 39.3668 31.9346 38.5254 31.9336ZM38.5254 33.3984C38.9785 33.399 39.4129 33.5792 39.7333 33.8996C40.0536 34.2199 40.2339 34.6543 40.2344 35.1074V37.793H36.8164V35.1074C36.8169 34.6543 36.9971 34.2199 37.3175 33.8996C37.6379 33.5792 38.0723 33.399 38.5254 33.3984ZM38.5254 43.6523C38.0723 43.6518 37.6379 43.4716 37.3175 43.1512C36.9971 42.8308 36.8169 42.3965 36.8164 41.9434V39.2578H40.2344V41.9434C40.2339 42.3965 40.0536 42.8308 39.7333 43.1512C39.4129 43.4716 38.9785 43.6518 38.5254 43.6523Z" fill="#E25E52"/>
</g>
<defs>
<clipPath id="clip0_334_14391">
<rect width="50" height="50" fill="white"/>
</clipPath>
</defs>
</svg>
