<svg width="30" height="30" viewBox="0 0 30 30" fill="none" xmlns="http://www.w3.org/2000/svg">
<path d="M23.3571 10.7662C23.3571 15.6169 14.6786 27.3247 14.6786 27.3247C14.6786 27.3247 6 15.6169 6 10.7662C6 8.44128 6.91435 6.21156 8.54189 4.56757C10.1694 2.92358 12.3769 2 14.6786 2C16.9803 2 19.1877 2.92358 20.8152 4.56757C22.4428 6.21156 23.3571 8.44128 23.3571 10.7662V10.7662Z" stroke="#E25E52" stroke-width="1.5" stroke-linecap="round" stroke-linejoin="round"/>
<path d="M14.68 13.6871C16.2776 13.6871 17.5728 12.3789 17.5728 10.765C17.5728 9.15122 16.2776 7.84296 14.68 7.84296C13.0823 7.84296 11.7871 9.15122 11.7871 10.765C11.7871 12.3789 13.0823 13.6871 14.68 13.6871Z" stroke="#E25E52" stroke-width="1.5" stroke-linecap="round" stroke-linejoin="round"/>
</svg>
