<svg width="50" height="50" viewBox="0 0 50 50" fill="none" xmlns="http://www.w3.org/2000/svg">
<g clip-path="url(#clip0_566_294)">
<path d="M42.583 4.87505C42.5076 4.80649 42.4187 4.75441 42.322 4.72212C42.2253 4.68984 42.123 4.67807 42.0215 4.68755C36.7285 5.1856 32.5195 3.93755 29.9199 2.80181C27.0879 1.56743 25.4971 0.194385 25.4814 0.180713C25.348 0.0643535 25.177 0.000244141 25 0.000244141C24.823 0.000244141 24.652 0.0643535 24.5186 0.180713C24.5029 0.194385 22.9092 1.56743 20.0801 2.80181C16.2708 4.44428 12.107 5.09312 7.97852 4.68755C7.87699 4.67803 7.7746 4.68982 7.67789 4.72215C7.58119 4.75449 7.4923 4.80666 7.41692 4.87533C7.34154 4.944 7.28133 5.02766 7.24014 5.12094C7.19895 5.21422 7.1777 5.31507 7.17773 5.41704V24.2256C7.17731 29.7817 8.85245 35.2088 11.9844 39.7981C15.1163 44.3873 19.5594 47.9254 24.7334 49.9502C24.9049 50.0167 25.0951 50.0167 25.2666 49.9502C30.4406 47.9254 34.8837 44.3873 38.0156 39.7981C41.1476 35.2088 42.8227 29.7817 42.8223 24.2256V5.41704C42.8223 5.31503 42.801 5.21413 42.7598 5.12081C42.7186 5.02749 42.6584 4.94378 42.583 4.87505ZM41.3574 24.2256C41.3574 34.9747 34.9463 44.4639 25 48.4795C15.0537 44.4639 8.64258 34.9747 8.64258 24.2256V6.20903C12.7794 6.48842 16.9229 5.77177 20.7256 4.11919C22.2384 3.46622 23.6724 2.64391 25 1.66802C26.3276 2.64391 27.7616 3.46622 29.2744 4.11919C33.0769 5.77243 37.2206 6.48911 41.3574 6.20903V24.2256Z" fill="black"/>
<path d="M25.3906 3.71088C25.2737 3.63715 25.1383 3.59802 25 3.59802C24.8617 3.59802 24.7263 3.63715 24.6094 3.71088C22.3076 5.16792 17.457 7.6269 10.8291 7.72944C10.6369 7.73252 10.4536 7.81104 10.3188 7.94806C10.1839 8.08508 10.1084 8.26962 10.1084 8.46186V24.2255C10.1084 28.989 11.4859 33.6509 14.0751 37.6493C16.6643 41.6476 20.3546 44.8119 24.7012 46.7607C24.7952 46.8025 24.897 46.8241 25 46.8241C25.103 46.8241 25.2048 46.8025 25.2988 46.7607C29.6456 44.812 33.3361 41.6478 35.9254 37.6494C38.5148 33.6511 39.8925 28.9891 39.8926 24.2255V8.46088C39.8926 8.26865 39.817 8.08411 39.6822 7.94708C39.5474 7.81006 39.3641 7.73154 39.1719 7.72846C32.543 7.62592 27.6924 5.16694 25.3906 3.71088ZM25 45.288C21.8608 43.828 19.0882 41.6838 16.8857 39.0126H33.1143C30.9116 41.6835 28.1391 43.8273 25 45.2871V45.288ZM38.4277 24.2255C38.4336 28.8985 37.0244 33.4636 34.3857 37.3203L34.2275 37.5468H15.7705L15.6123 37.3203C12.9743 33.4634 11.5659 28.8982 11.5723 24.2255V9.1728C17.8418 8.91987 22.5283 6.68745 25 5.19038C29.072 7.62081 33.689 8.99013 38.4277 9.1728V24.2255Z" fill="black"/>
<path d="M30.5322 24.454L25.3691 21.4374C25.2571 21.3722 25.1297 21.3378 25 21.3378C24.8703 21.3378 24.7429 21.3722 24.6309 21.4374L19.4678 24.454C18.849 24.8171 18.3357 25.3353 17.9786 25.9576C17.6215 26.5798 17.4329 27.2845 17.4316 28.0019V28.4589C17.4313 29.2746 17.6738 30.0719 18.1282 30.7493C18.5826 31.4267 19.2284 31.9534 19.9833 32.2625C20.7381 32.5716 21.5679 32.649 22.3669 32.4848C23.1658 32.3207 23.8979 31.9224 24.4697 31.3408L25 30.8027L25.5303 31.3417C26.1024 31.923 26.8345 32.3208 27.6334 32.4847C28.4323 32.6485 29.2619 32.571 30.0166 32.2618C30.7713 31.9527 31.4169 31.426 31.8713 30.7488C32.3258 30.0716 32.5684 29.2745 32.5684 28.4589V28.0019C32.5671 27.2845 32.3785 26.5798 32.0214 25.9576C31.6643 25.3353 31.151 24.8171 30.5322 24.454ZM31.1035 28.4579C31.1036 28.9828 30.9475 29.4958 30.6551 29.9317C30.3627 30.3676 29.9472 30.7066 29.4615 30.9055C28.9758 31.1045 28.4419 31.1544 27.9277 31.049C27.4136 30.9435 26.9424 30.6875 26.5742 30.3134L25.5225 29.2392C25.4542 29.1699 25.3729 29.1149 25.2832 29.0774C25.1935 29.0398 25.0972 29.0205 25 29.0205C24.9028 29.0205 24.8065 29.0398 24.7168 29.0774C24.6271 29.1149 24.5458 29.1699 24.4775 29.2392L23.4258 30.3134C23.0576 30.6875 22.5864 30.9435 22.0723 31.049C21.5581 31.1544 21.0242 31.1045 20.5385 30.9055C20.0528 30.7066 19.6373 30.3676 19.3449 29.9317C19.0525 29.4958 18.8964 28.9828 18.8965 28.4579V28.0009C18.8972 27.5392 19.0185 27.0856 19.2484 26.6852C19.4782 26.2847 19.8087 25.9512 20.207 25.7177L25 22.9189L29.793 25.7187C30.1913 25.9522 30.5218 26.2857 30.7516 26.6861C30.9815 27.0866 31.1028 27.5402 31.1035 28.0019V28.4579Z" fill="#E25E52"/>
<path d="M22.3145 16.2109C22.3145 17.502 23.334 19.873 25 19.873C26.666 19.873 27.6855 17.502 27.6855 16.2109C27.6855 15.4987 27.4026 14.8156 26.899 14.312C26.3953 13.8083 25.7123 13.5254 25 13.5254C24.2877 13.5254 23.6047 13.8083 23.101 14.312C22.5974 14.8156 22.3145 15.4987 22.3145 16.2109ZM25 14.9902C25.3236 14.9908 25.6338 15.1195 25.8626 15.3483C26.0914 15.5772 26.2202 15.8873 26.2207 16.2109C26.2207 17.0732 25.4795 18.4082 25 18.4082C24.5205 18.4082 23.7793 17.0732 23.7793 16.2109C23.7798 15.8873 23.9086 15.5772 24.1374 15.3483C24.3662 15.1195 24.6764 14.9908 25 14.9902Z" fill="#E25E52"/>
<path d="M30.8594 22.8027C32.3311 22.8027 34.5215 20.6123 34.5215 19.1406C34.5215 18.4284 34.2386 17.7453 33.7349 17.2417C33.2313 16.738 32.5482 16.4551 31.836 16.4551C31.1237 16.4551 30.4406 16.738 29.937 17.2417C29.4333 17.7453 29.1504 18.4284 29.1504 19.1406C29.1504 19.2217 29.1504 19.3066 29.1504 19.3955C29.1436 20.418 29.1348 21.6904 29.8135 22.374C29.95 22.5122 30.113 22.6214 30.2927 22.695C30.4724 22.7687 30.6652 22.8053 30.8594 22.8027ZM30.6143 19.4063C30.6143 19.3135 30.6143 19.2246 30.6143 19.1406C30.6143 18.8169 30.7429 18.5064 30.9718 18.2775C31.2007 18.0485 31.5112 17.9199 31.835 17.9199C32.1587 17.9199 32.4692 18.0485 32.6981 18.2775C32.9271 18.5064 33.0557 18.8169 33.0557 19.1406C33.0557 19.8184 31.5361 21.3379 30.8584 21.3379H30.8457C30.6026 21.1123 30.6113 19.8301 30.6143 19.4063Z" fill="#E25E52"/>
<path d="M20.1875 22.374C20.8662 21.6904 20.8574 20.4209 20.8506 19.3955C20.8506 19.3066 20.8506 19.2217 20.8506 19.1406C20.8506 18.4284 20.5676 17.7453 20.064 17.2417C19.5604 16.738 18.8773 16.4551 18.165 16.4551C17.4528 16.4551 16.7697 16.738 16.2661 17.2417C15.7624 17.7453 15.4795 18.4284 15.4795 19.1406C15.4795 20.6123 17.6699 22.8027 19.1416 22.8027C19.3358 22.8053 19.5285 22.7687 19.7083 22.695C19.888 22.6214 20.051 22.5122 20.1875 22.374ZM16.9434 19.1406C16.9434 18.8169 17.072 18.5064 17.3009 18.2775C17.5298 18.0485 17.8403 17.9199 18.1641 17.9199C18.4878 17.9199 18.7983 18.0485 19.0272 18.2775C19.2562 18.5064 19.3848 18.8169 19.3848 19.1406C19.3848 19.2246 19.3848 19.3135 19.3848 19.4063C19.3848 19.8301 19.3965 21.1123 19.1523 21.3379H19.1406C18.4629 21.3379 16.9434 19.8184 16.9434 19.1406Z" fill="#E25E52"/>
</g>
<defs>
<clipPath id="clip0_566_294">
<rect width="50" height="50" fill="white"/>
</clipPath>
</defs>
</svg>
