<svg width="24" height="24" viewBox="0 0 24 24" fill="none" xmlns="http://www.w3.org/2000/svg">
<g clip-path="url(#clip0_368_151)">
<path d="M13.792 2.43465C13.726 2.36893 13.6367 2.33203 13.5436 2.33203C13.4504 2.33203 13.3611 2.36893 13.2951 2.43465L9.57748 6.15231C9.54481 6.18496 9.51889 6.22372 9.50121 6.26639C9.48353 6.30906 9.47443 6.35479 9.47443 6.40098C9.47443 6.44717 9.48353 6.4929 9.50121 6.53557C9.51889 6.57824 9.54481 6.617 9.57748 6.64965L17.3503 14.4225C17.3829 14.4551 17.4217 14.4811 17.4644 14.4987C17.507 14.5164 17.5528 14.5255 17.599 14.5255C17.6451 14.5255 17.6909 14.5164 17.7335 14.4987C17.7762 14.4811 17.815 14.4551 17.8476 14.4225L21.5653 10.7048C21.631 10.6388 21.6679 10.5495 21.6679 10.4564C21.6679 10.3632 21.631 10.2739 21.5653 10.2079L13.792 2.43465ZM17.5992 13.6767L10.3233 6.40075L13.5436 3.18043L20.8195 10.4564L17.5992 13.6767Z" fill="#E25E52"/>
<path d="M23.7563 5.98792C23.6534 5.88374 23.5245 5.80898 23.383 5.7714C23.2414 5.73381 23.0924 5.73477 22.9514 5.77417L20.2378 6.5148L17.4844 3.76136L18.225 1.04777C18.2634 0.906682 18.2639 0.757944 18.2264 0.61662C18.1888 0.475297 18.1146 0.346408 18.0112 0.24301C17.9078 0.139611 17.7789 0.0653766 17.6376 0.0278248C17.4962 -0.00972697 17.3475 -0.00926167 17.2064 0.0291736L14.4928 0.76933L14.2992 0.575267C14.054 0.330099 13.7214 0.192372 13.3746 0.192372C13.0278 0.192372 12.6953 0.330099 12.45 0.575267L7.71891 5.30683C7.59747 5.42819 7.50114 5.5723 7.43542 5.73091C7.36969 5.88951 7.33586 6.05952 7.33586 6.2312C7.33586 6.40289 7.36969 6.5729 7.43542 6.7315C7.50114 6.89011 7.59747 7.03422 7.71891 7.15558L10.3439 9.78058L8.90157 11.2206C8.83582 11.2866 8.7989 11.376 8.7989 11.4693C8.7989 11.5625 8.83582 11.6519 8.90157 11.7179L9.75 12.5678L5.51532 16.802L5.5111 16.7978C5.47845 16.7651 5.43968 16.7392 5.39702 16.7215C5.35435 16.7038 5.30861 16.6947 5.26243 16.6947C5.21624 16.6947 5.17051 16.7038 5.12784 16.7215C5.08517 16.7392 5.0464 16.7651 5.01375 16.7978L0.452816 21.3601C0.174488 21.6525 0.0214902 22.0421 0.0264858 22.4458C0.0314814 22.8494 0.194075 23.2351 0.479554 23.5206C0.765033 23.806 1.15078 23.9685 1.55443 23.9734C1.95809 23.9783 2.34767 23.8252 2.64 23.5468L7.20235 18.9835C7.26807 18.9176 7.30497 18.8282 7.30497 18.7351C7.30497 18.642 7.26807 18.5527 7.20235 18.4867L7.19719 18.481L11.4314 14.2492L12.2813 15.0976C12.3473 15.1634 12.4367 15.2003 12.5299 15.2003C12.6231 15.2003 12.7125 15.1634 12.7786 15.0976L14.2195 13.6562L16.8445 16.2812C16.9659 16.4026 17.11 16.499 17.2686 16.5647C17.4272 16.6304 17.5972 16.6643 17.7689 16.6643C17.9406 16.6643 18.1106 16.6304 18.2692 16.5647C18.4278 16.499 18.5719 16.4026 18.6933 16.2812L23.4239 11.5492C23.6691 11.3039 23.8068 10.9713 23.8068 10.6246C23.8068 10.2778 23.6691 9.9452 23.4239 9.69995L23.2299 9.50589L23.97 6.79277C24.0095 6.65175 24.0104 6.50274 23.9729 6.36121C23.9353 6.21968 23.8605 6.09079 23.7563 5.98792ZM17.3906 0.707455C17.4121 0.70166 17.4347 0.701631 17.4562 0.707372C17.4777 0.713114 17.4974 0.724422 17.5131 0.740157C17.5288 0.755891 17.5401 0.775496 17.5459 0.796995C17.5516 0.818494 17.5516 0.841127 17.5458 0.862611L16.9125 3.18667L15.0656 1.3398L17.3906 0.707455ZM2.14266 23.05C2.06542 23.1329 1.97226 23.1993 1.86877 23.2455C1.76527 23.2916 1.65354 23.3164 1.54025 23.3184C1.42696 23.3204 1.31442 23.2995 1.20936 23.2571C1.1043 23.2147 1.00886 23.1515 0.928742 23.0714C0.848621 22.9913 0.785458 22.8958 0.743022 22.7908C0.700586 22.6857 0.679746 22.5732 0.681745 22.4599C0.683743 22.3466 0.708541 22.2348 0.754656 22.1313C0.800772 22.0278 0.867262 21.9347 0.95016 21.8575L1.54688 21.2607L2.73938 22.4523L2.14266 23.05ZM3.23672 21.9559L2.04375 20.7648L5.26407 17.545L6.45657 18.7375L3.23672 21.9559ZM6.69985 17.9851L6.01407 17.2993L10.2488 13.0651L10.9341 13.7504L6.69985 17.9851ZM12.5297 14.3518L9.64735 11.4695L10.8398 10.277L13.7222 13.1593L12.5297 14.3518ZM22.9266 11.0518L18.1955 15.7829C18.1394 15.8391 18.0728 15.8837 17.9995 15.9141C17.9262 15.9445 17.8476 15.9601 17.7682 15.9601C17.6888 15.9601 17.6103 15.9445 17.5369 15.9141C17.4636 15.8837 17.397 15.8391 17.3409 15.7829L8.21625 6.65824C8.16009 6.60216 8.11553 6.53556 8.08512 6.46224C8.05472 6.38893 8.03907 6.31034 8.03907 6.23097C8.03907 6.1516 8.05472 6.07301 8.08512 5.9997C8.11553 5.92638 8.16009 5.85978 8.21625 5.8037L12.9473 1.07261C13.0034 1.01644 13.07 0.971882 13.1433 0.941479C13.2167 0.911076 13.2952 0.895427 13.3746 0.895427C13.454 0.895427 13.5326 0.911076 13.6059 0.941479C13.6792 0.971882 13.7458 1.01644 13.8019 1.07261L22.9266 10.1973C22.9827 10.2534 23.0273 10.32 23.0577 10.3933C23.0881 10.4666 23.1038 10.5452 23.1038 10.6246C23.1038 10.7039 23.0881 10.7825 23.0577 10.8558C23.0273 10.9292 22.9827 10.9958 22.9266 11.0518ZM23.2917 6.60855L22.657 8.93355L20.8125 7.08667L23.1384 6.45246C23.1599 6.44666 23.1826 6.44663 23.2041 6.45237C23.2256 6.45811 23.2452 6.46942 23.2609 6.48516C23.2766 6.50089 23.2879 6.5205 23.2937 6.542C23.2994 6.56349 23.2994 6.58613 23.2936 6.60761L23.2917 6.60855Z" fill="white"/>
<path d="M13.2951 4.46361L12.9572 4.80158C12.9211 4.83331 12.8919 4.8721 12.8714 4.91556C12.8508 4.95902 12.8394 5.00622 12.8379 5.05425C12.8363 5.10228 12.8446 5.15012 12.8623 5.19482C12.88 5.23951 12.9066 5.28011 12.9406 5.31411C12.9745 5.34811 13.0151 5.37478 13.0598 5.39248C13.1045 5.41018 13.1523 5.41853 13.2003 5.41702C13.2484 5.41551 13.2956 5.40417 13.339 5.3837C13.3825 5.36322 13.4213 5.33405 13.4531 5.29799L13.7906 4.96002C13.8242 4.92761 13.851 4.88882 13.8694 4.84594C13.8879 4.80306 13.8976 4.75693 13.898 4.71025C13.8985 4.66357 13.8896 4.61727 13.8719 4.57406C13.8543 4.53085 13.8282 4.49158 13.7952 4.45856C13.7622 4.42553 13.723 4.39941 13.6798 4.38171C13.6366 4.36401 13.5903 4.3551 13.5436 4.35548C13.4969 4.35586 13.4508 4.36554 13.4079 4.38394C13.365 4.40235 13.3262 4.42911 13.2937 4.46268L13.2951 4.46361Z" fill="#E25E52"/>
<path d="M14.6419 6.83832C14.7352 6.83826 14.8248 6.80117 14.8908 6.73519L15.2288 6.39722C15.2614 6.36457 15.2873 6.3258 15.305 6.28313C15.3227 6.24046 15.3318 6.19473 15.3318 6.14855C15.3318 6.10237 15.3227 6.05664 15.305 6.01397C15.2873 5.9713 15.2614 5.93253 15.2288 5.89988C15.1961 5.86722 15.1573 5.84132 15.1147 5.82364C15.072 5.80597 15.0263 5.79688 14.9801 5.79688C14.9339 5.79688 14.8882 5.80597 14.8455 5.82364C14.8028 5.84132 14.7641 5.86722 14.7314 5.89988L14.3935 6.23785C14.3444 6.28708 14.311 6.34971 14.2975 6.41787C14.284 6.48603 14.291 6.55667 14.3176 6.62087C14.3441 6.68508 14.3891 6.73999 14.4468 6.77868C14.5045 6.81737 14.5724 6.83812 14.6419 6.83832Z" fill="#E25E52"/>
<path d="M16.0781 8.27191C16.1715 8.27185 16.261 8.23476 16.327 8.16878L16.665 7.83082C16.6976 7.79816 16.7235 7.75939 16.7412 7.71672C16.7589 7.67406 16.768 7.62833 16.768 7.58214C16.768 7.53596 16.7589 7.49023 16.7412 7.44756C16.7235 7.4049 16.6976 7.36613 16.665 7.33347C16.6323 7.30082 16.5936 7.27491 16.5509 7.25724C16.5082 7.23957 16.4625 7.23047 16.4163 7.23047C16.3701 7.23047 16.3244 7.23957 16.2817 7.25724C16.2391 7.27491 16.2003 7.30082 16.1676 7.33347L15.8297 7.67144C15.7806 7.72067 15.7473 7.78331 15.7338 7.85147C15.7203 7.91963 15.7272 7.99026 15.7538 8.05446C15.7804 8.11867 15.8253 8.17358 15.883 8.21227C15.9408 8.25097 16.0086 8.27172 16.0781 8.27191Z" fill="#E25E52"/>
<path d="M17.5144 9.70941C17.5606 9.70948 17.6064 9.70041 17.6491 9.68271C17.6919 9.66501 17.7307 9.63904 17.7633 9.60628L18.1013 9.26832C18.1672 9.20236 18.2043 9.11291 18.2043 9.01964C18.2043 8.92637 18.1672 8.83692 18.1013 8.77097C18.0353 8.70502 17.9459 8.66797 17.8526 8.66797C17.7593 8.66797 17.6699 8.70502 17.6039 8.77097L17.266 9.10894C17.2169 9.15817 17.1835 9.22081 17.17 9.28897C17.1565 9.35713 17.1635 9.42776 17.1901 9.49196C17.2166 9.55617 17.2616 9.61108 17.3193 9.64977C17.377 9.68847 17.4449 9.70922 17.5144 9.70941Z" fill="#E25E52"/>
<path d="M18.9506 11.147C18.9969 11.147 19.0427 11.138 19.0854 11.1203C19.1281 11.1026 19.1669 11.0766 19.1996 11.0439L19.5375 10.7059C19.5711 10.6734 19.5979 10.6346 19.6163 10.5917C19.6347 10.5488 19.6443 10.5027 19.6447 10.456C19.6451 10.4093 19.6362 10.363 19.6185 10.3198C19.6008 10.2766 19.5747 10.2374 19.5416 10.2044C19.5086 10.1714 19.4694 10.1453 19.4261 10.1277C19.3829 10.11 19.3366 10.1011 19.2899 10.1016C19.2433 10.102 19.1971 10.1117 19.1543 10.1302C19.1114 10.1486 19.0726 10.1754 19.0402 10.209L18.7031 10.5479C18.6541 10.5971 18.6207 10.6598 18.6072 10.7279C18.5937 10.7961 18.6007 10.8667 18.6273 10.9309C18.6538 10.9951 18.6988 11.0501 18.7565 11.0887C18.8142 11.1274 18.8821 11.1482 18.9516 11.1484L18.9506 11.147Z" fill="#E25E52"/>
<path d="M11.9433 5.81394L11.6053 6.15191C11.5394 6.21786 11.5023 6.30731 11.5023 6.40058C11.5023 6.49385 11.5394 6.5833 11.6053 6.64925C11.6713 6.71521 11.7607 6.75226 11.854 6.75226C11.9473 6.75226 12.0367 6.71521 12.1027 6.64925L12.4406 6.31128C12.4733 6.27863 12.4992 6.23986 12.5169 6.19719C12.5345 6.15453 12.5436 6.10879 12.5436 6.06261C12.5436 6.01643 12.5345 5.9707 12.5169 5.92803C12.4992 5.88537 12.4733 5.8466 12.4406 5.81394C12.408 5.78128 12.3692 5.75538 12.3265 5.73771C12.2839 5.72003 12.2381 5.71094 12.192 5.71094C12.1458 5.71094 12.1001 5.72003 12.0574 5.73771C12.0147 5.75538 11.9759 5.78128 11.9433 5.81394Z" fill="#E25E52"/>
<path d="M13.3795 7.25144L13.0415 7.58941C12.9756 7.65536 12.9385 7.74481 12.9385 7.83808C12.9385 7.93135 12.9756 8.0208 13.0415 8.08675C13.1075 8.15271 13.1969 8.18976 13.2902 8.18976C13.3835 8.18976 13.4729 8.15271 13.5389 8.08675L13.8769 7.74878C13.9095 7.71613 13.9354 7.67736 13.9531 7.63469C13.9708 7.59203 13.9799 7.5463 13.9799 7.50011C13.9799 7.45393 13.9708 7.4082 13.9531 7.36553C13.9354 7.32287 13.9095 7.2841 13.8769 7.25144C13.8442 7.21878 13.8054 7.19288 13.7628 7.17521C13.7201 7.15753 13.6744 7.14844 13.6282 7.14844C13.582 7.14844 13.5363 7.15753 13.4936 7.17521C13.4509 7.19288 13.4122 7.21878 13.3795 7.25144Z" fill="#E25E52"/>
<path d="M14.8158 8.68503L14.4778 9.023C14.4119 9.08895 14.3748 9.17841 14.3748 9.27168C14.3748 9.36495 14.4119 9.45439 14.4778 9.52035C14.5438 9.5863 14.6332 9.62335 14.7265 9.62335C14.8198 9.62335 14.9092 9.5863 14.9752 9.52035L15.3131 9.18238C15.3458 9.14972 15.3717 9.11095 15.3894 9.06829C15.407 9.02562 15.4161 8.97989 15.4161 8.93371C15.4161 8.88752 15.407 8.84179 15.3894 8.79913C15.3717 8.75646 15.3458 8.71769 15.3131 8.68503C15.2805 8.65238 15.2417 8.62647 15.199 8.6088C15.1564 8.59113 15.1106 8.58203 15.0645 8.58203C15.0183 8.58203 14.9725 8.59113 14.9299 8.6088C14.8872 8.62647 14.8484 8.65238 14.8158 8.68503Z" fill="#E25E52"/>
<path d="M16.252 10.1264L15.914 10.4644C15.8481 10.5304 15.811 10.6198 15.811 10.7131C15.811 10.8064 15.8481 10.8958 15.914 10.9618C15.98 11.0277 16.0694 11.0648 16.1627 11.0648C16.256 11.0648 16.3454 11.0277 16.4114 10.9618L16.7494 10.6238C16.782 10.5911 16.8079 10.5524 16.8256 10.5097C16.8433 10.467 16.8524 10.4213 16.8524 10.3751C16.8524 10.3289 16.8433 10.2832 16.8256 10.2405C16.8079 10.1979 16.782 10.1591 16.7494 10.1264C16.7167 10.0938 16.6779 10.0679 16.6353 10.0502C16.5926 10.0325 16.5469 10.0234 16.5007 10.0234C16.4545 10.0234 16.4088 10.0325 16.3661 10.0502C16.3234 10.0679 16.2847 10.0938 16.252 10.1264Z" fill="#E25E52"/>
<path d="M17.6883 11.56L17.3503 11.898C17.3177 11.9307 17.2918 11.9694 17.2741 12.0121C17.2564 12.0548 17.2473 12.1005 17.2473 12.1467C17.2473 12.1929 17.2564 12.2386 17.2741 12.2813C17.2918 12.3239 17.3177 12.3627 17.3503 12.3953C17.383 12.428 17.4217 12.4539 17.4644 12.4716C17.5071 12.4893 17.5528 12.4983 17.599 12.4983C17.6452 12.4983 17.6909 12.4893 17.7336 12.4716C17.7762 12.4539 17.815 12.428 17.8477 12.3953L18.1856 12.0574C18.2516 11.9914 18.2886 11.902 18.2886 11.8087C18.2886 11.7154 18.2516 11.626 18.1856 11.56C18.1197 11.4941 18.0302 11.457 17.937 11.457C17.8437 11.457 17.7542 11.4941 17.6883 11.56Z" fill="#E25E52"/>
</g>
<defs>
<clipPath id="clip0_368_151">
<rect width="24" height="24" fill="white"/>
</clipPath>
</defs>
</svg>
