<svg width="20" height="20" viewBox="0 0 20 20" fill="none" xmlns="http://www.w3.org/2000/svg">
<g clip-path="url(#clip0_353_8747)">
<path d="M2.1428 8.57031H3.57138C3.76082 8.57031 3.9425 8.64557 4.07645 8.77952C4.21041 8.91348 4.28566 9.09516 4.28566 9.2846V12.856C4.28566 13.0455 4.21041 13.2271 4.07645 13.3611C3.9425 13.4951 3.76082 13.5703 3.57138 13.5703H2.1428C1.76392 13.5703 1.40056 13.4198 1.13265 13.1519C0.864743 12.884 0.714233 12.5206 0.714233 12.1417V9.99888C0.714233 9.62 0.864743 9.25664 1.13265 8.98873C1.40056 8.72082 1.76392 8.57031 2.1428 8.57031V8.57031Z" stroke="white" stroke-width="1.5" stroke-linecap="round" stroke-linejoin="round"/>
<path d="M17.8571 13.5703H16.4285C16.2391 13.5703 16.0574 13.4951 15.9234 13.3611C15.7895 13.2271 15.7142 13.0455 15.7142 12.856V9.2846C15.7142 9.09516 15.7895 8.91348 15.9234 8.77952C16.0574 8.64557 16.2391 8.57031 16.4285 8.57031H17.8571C18.236 8.57031 18.5993 8.72082 18.8672 8.98873C19.1351 9.25664 19.2856 9.62 19.2856 9.99888V12.1417C19.2856 12.5206 19.1351 12.884 18.8672 13.1519C18.5993 13.4198 18.236 13.5703 17.8571 13.5703V13.5703Z" stroke="white" stroke-width="1.5" stroke-linecap="round" stroke-linejoin="round"/>
<path d="M13.5712 17.4989C14.3289 17.4989 15.0557 17.1979 15.5915 16.662C16.1273 16.1262 16.4283 15.3995 16.4283 14.6417V13.5703" stroke="white" stroke-width="1.5" stroke-linecap="round" stroke-linejoin="round"/>
<path d="M11.7856 15.7148C12.2592 15.7148 12.7134 15.903 13.0483 16.2379C13.3832 16.5728 13.5713 17.027 13.5713 17.5006C13.5713 17.9742 13.3832 18.4284 13.0483 18.7632C12.7134 19.0981 12.2592 19.2863 11.7856 19.2863H9.64277C9.16917 19.2863 8.71497 19.0981 8.38008 18.7632C8.04519 18.4284 7.85706 17.9742 7.85706 17.5006C7.85706 17.027 8.04519 16.5728 8.38008 16.2379C8.71497 15.903 9.16917 15.7148 9.64277 15.7148H11.7856Z" stroke="white" stroke-width="1.5" stroke-linecap="round" stroke-linejoin="round"/>
<path d="M3.57141 8.57199V7.14342C3.57141 5.43845 4.2487 3.80332 5.4543 2.59773C6.65989 1.39214 8.29502 0.714844 9.99998 0.714844C11.7049 0.714844 13.3401 1.39214 14.5457 2.59773C15.7513 3.80332 16.4286 5.43845 16.4286 7.14342V8.57199" stroke="white" stroke-width="1.5" stroke-linecap="round" stroke-linejoin="round"/>
<path d="M7.85706 5.71484V7.8577" stroke="white" stroke-width="1.5" stroke-linecap="round" stroke-linejoin="round"/>
<path d="M12.1428 5.71484V7.8577" stroke="white" stroke-width="1.5" stroke-linecap="round" stroke-linejoin="round"/>
<path d="M7.85706 10.7148C7.85706 12.6148 12.1428 12.6148 12.1428 10.7148" stroke="white" stroke-width="1.5" stroke-linecap="round" stroke-linejoin="round"/>
</g>
<defs>
<clipPath id="clip0_353_8747">
<rect width="20" height="20" fill="white"/>
</clipPath>
</defs>
</svg>
