<svg width="60" height="60" viewBox="0 0 60 60" fill="none" xmlns="http://www.w3.org/2000/svg">
<g clip-path="url(#clip0_371_4777)">
<path d="M36.4453 16.8164C35.7462 16.817 35.0759 17.095 34.5816 17.5894C34.0872 18.0837 33.8092 18.754 33.8086 19.4531V21.7969C33.8086 22.4962 34.0864 23.1668 34.5809 23.6613C35.0754 24.1558 35.746 24.4336 36.4453 24.4336C37.1446 24.4336 37.8153 24.1558 38.3098 23.6613C38.8042 23.1668 39.082 22.4962 39.082 21.7969V19.4531C39.0814 18.754 38.8034 18.0837 38.3091 17.5894C37.8147 17.095 37.1444 16.817 36.4453 16.8164ZM37.3242 21.7969C37.3242 22.03 37.2316 22.2535 37.0668 22.4184C36.902 22.5832 36.6784 22.6758 36.4453 22.6758C36.2122 22.6758 35.9887 22.5832 35.8238 22.4184C35.659 22.2535 35.5664 22.03 35.5664 21.7969V19.4531C35.5664 19.22 35.659 18.9965 35.8238 18.8316C35.9887 18.6668 36.2122 18.5742 36.4453 18.5742C36.6784 18.5742 36.902 18.6668 37.0668 18.8316C37.2316 18.9965 37.3242 19.22 37.3242 19.4531V21.7969Z" fill="#E25E52"/>
<path d="M23.5547 16.8164C22.8556 16.817 22.1853 17.095 21.6909 17.5894C21.1966 18.0837 20.9186 18.754 20.918 19.4531V21.7969C20.918 22.4962 21.1958 23.1668 21.6902 23.6613C22.1847 24.1558 22.8554 24.4336 23.5547 24.4336C24.254 24.4336 24.9246 24.1558 25.4191 23.6613C25.9136 23.1668 26.1914 22.4962 26.1914 21.7969V19.4531C26.1908 18.754 25.9128 18.0837 25.4184 17.5894C24.9241 17.095 24.2538 16.817 23.5547 16.8164ZM24.4336 21.7969C24.4336 22.03 24.341 22.2535 24.1762 22.4184C24.0113 22.5832 23.7878 22.6758 23.5547 22.6758C23.3216 22.6758 23.098 22.5832 22.9332 22.4184C22.7684 22.2535 22.6758 22.03 22.6758 21.7969V19.4531C22.6758 19.22 22.7684 18.9965 22.9332 18.8316C23.098 18.6668 23.3216 18.5742 23.5547 18.5742C23.7878 18.5742 24.0113 18.6668 24.1762 18.8316C24.341 18.9965 24.4336 19.22 24.4336 19.4531V21.7969Z" fill="#E25E52"/>
<path d="M59.5311 20.3426C54.3584 17.6344 53.9787 14.3168 53.5779 10.8047C53.3107 8.46096 53.033 6.04103 51.1346 4.12502C46.9322 -0.108966 37.5748 0.86955 35.9518 1.0758C32.1134 -0.3586 27.8862 -0.3586 24.0479 1.0758C22.4248 0.86955 13.0674 -0.108966 8.86738 4.12267C6.96895 6.03752 6.69121 8.45861 6.42402 10.8024C6.02324 14.318 5.64356 17.6321 0.4709 20.3403C0.335812 20.411 0.221443 20.5156 0.139028 20.6439C0.0566131 20.7722 0.00898793 20.9197 0.000831409 21.0719C-0.00732511 21.2242 0.0242677 21.3759 0.0925058 21.5123C0.160744 21.6486 0.26328 21.7649 0.39004 21.8496C0.579884 21.9762 4.37442 24.4758 8.4666 24.4758C9.26858 24.4803 10.0674 24.375 10.8408 24.1629C11.2327 24.0525 11.6152 23.9111 11.9846 23.7399C11.5296 24.7249 10.9348 25.639 10.2186 26.4539L7.77285 29.2348C6.10975 31.126 5.02729 33.4566 4.65521 35.9474C4.28313 38.4382 4.63721 40.9835 5.67502 43.2781C6.71283 45.5728 8.39033 47.5195 10.5065 48.8849C12.6226 50.2503 15.0876 50.9766 17.6061 50.9766H21.833C22.6411 51.5329 23.5144 51.9879 24.4334 52.3313V54.4336C24.4334 55.9099 25.0199 57.3257 26.0638 58.3697C27.1077 59.4136 28.5235 60 29.9998 60C31.4761 60 32.8919 59.4136 33.9359 58.3697C34.9798 57.3257 35.5662 55.9099 35.5662 54.4336V52.3078C36.4625 51.9679 37.3143 51.5209 38.1033 50.9766H42.3936C44.912 50.9766 47.377 50.2503 49.4931 48.8849C51.6093 47.5195 53.2868 45.5728 54.3246 43.2781C55.3624 40.9835 55.7165 38.4382 55.3444 35.9474C54.9723 33.4566 53.8899 31.126 52.2268 29.2348L49.7811 26.4539C49.065 25.6397 48.4702 24.7264 48.015 23.7422C48.3844 23.9134 48.7669 24.0549 49.1588 24.1653C49.9322 24.3774 50.731 24.4827 51.533 24.4781C55.6252 24.4781 59.4197 21.9785 59.6096 21.852C59.7363 21.7672 59.8389 21.651 59.9071 21.5146C59.9753 21.3783 60.0069 21.2265 59.9988 21.0743C59.9906 20.922 59.943 20.7745 59.8606 20.6462C59.7782 20.5179 59.6638 20.4133 59.5287 20.3426H59.5311ZM33.1381 2.08244C33.3201 3.00896 33.4135 3.95071 33.417 4.89494C33.4322 7.42736 32.06 8.62385 30.9338 9.17932C31.2139 7.18713 30.56 5.14572 30.5236 5.03439C30.4628 4.84839 30.3417 4.68799 30.1794 4.57862C30.0172 4.46925 29.823 4.41716 29.6278 4.43062C29.4326 4.44407 29.2474 4.5223 29.1017 4.65289C28.9559 4.78349 28.8579 4.95899 28.8232 5.15158C28.6908 5.884 28.0674 6.26369 27.4486 6.46174C27.7721 5.26525 27.901 3.74533 27.833 1.91721C29.5979 1.66578 31.3931 1.72368 33.1381 2.0883V2.08244ZM10.3721 22.4731C7.55957 23.2641 4.3709 21.9949 2.64473 21.1172C7.36035 18.0938 7.78926 14.3461 8.17012 11.0074C8.42559 8.78088 8.6459 6.84846 10.1166 5.36603C12.7381 2.72111 18.1123 2.49377 21.3584 2.62971C17.4748 5.22072 17.0775 7.23049 16.7576 10.4297C16.5572 12.4149 16.3088 14.8828 14.6482 18.4582C13.6451 20.6039 12.2072 21.9551 10.3721 22.4707V22.4731ZM20.6846 47.107C21.8982 47.485 23.1865 47.5567 24.4346 47.3156V50.434C22.617 49.616 21.2963 48.4395 20.6857 47.1094L20.6846 47.107ZM25.8209 33.784L27.5072 36.3129C27.7806 36.7231 28.1511 37.0594 28.5857 37.2921C29.0203 37.5247 29.5057 37.6464 29.9986 37.6464C30.4916 37.6464 30.9769 37.5247 31.4115 37.2921C31.8462 37.0594 32.2166 36.7231 32.49 36.3129L34.1705 33.7934L34.4752 33.8543L39.7486 34.9453C41.7197 35.3531 43.1471 37.1719 43.1471 39.2649C43.1471 42.811 40.3721 45.6973 36.9607 45.6973C35.9377 45.6913 34.9325 45.4288 34.037 44.934C33.1416 44.4392 32.3845 43.7278 31.835 42.8649L30.7029 41.1176C30.6233 40.9947 30.5142 40.8938 30.3855 40.8238C30.2569 40.7539 30.1128 40.7173 29.9664 40.7173C29.82 40.7173 29.6759 40.7539 29.5473 40.8238C29.4186 40.8938 29.3095 40.9947 29.2299 41.1176L28.0955 42.8625C27.5459 43.7256 26.7886 44.4371 25.8929 44.932C24.9973 45.4268 23.9918 45.6891 22.9686 45.6949C19.5584 45.6949 16.7822 42.8086 16.7822 39.2625C16.7822 37.1672 18.2143 35.3508 20.1807 34.943L25.4541 33.852C25.5775 33.8278 25.7002 33.8043 25.8221 33.7817L25.8209 33.784ZM27.2189 31.5352C27.323 31.3363 27.4799 31.17 27.6724 31.0546C27.8649 30.9392 28.0855 30.8792 28.31 30.8813H31.6873C31.9112 30.8813 32.1309 30.9421 32.3229 31.0571C32.515 31.1721 32.6723 31.3371 32.778 31.5344C32.8837 31.7318 32.9339 31.9541 32.9232 32.1778C32.9125 32.4014 32.8414 32.6179 32.7174 32.8043L31.0275 35.3379C30.9147 35.5073 30.7617 35.6463 30.5822 35.7424C30.4027 35.8385 30.2022 35.8888 29.9986 35.8888C29.795 35.8888 29.5946 35.8385 29.4151 35.7424C29.2356 35.6463 29.0826 35.5073 28.9697 35.3379L27.2811 32.802C27.1552 32.6165 27.0829 32.3999 27.0721 32.176C27.0614 31.9521 27.1126 31.7295 27.2201 31.5328L27.2189 31.5352ZM29.9998 58.2422C28.9901 58.241 28.0221 57.8393 27.3081 57.1253C26.5941 56.4113 26.1925 55.4433 26.1912 54.4336V46.7508C27.574 46.1154 28.7471 45.0992 29.5732 43.8211L29.9693 43.2094L30.3666 43.8211C31.2041 45.1185 32.3996 46.1454 33.8084 46.7778V54.4336C33.8072 55.4433 33.4055 56.4113 32.6915 57.1253C31.9775 57.8393 31.0095 58.241 29.9998 58.2422ZM35.5662 47.3238C36.7958 47.5539 38.063 47.4803 39.2576 47.1094C38.6518 48.4277 37.358 49.5938 35.5697 50.4082L35.5662 47.3238ZM50.9061 30.3961C52.3462 32.0332 53.2837 34.051 53.606 36.2074C53.9283 38.3639 53.6219 40.5675 52.7234 42.5542C51.825 44.5409 50.3726 46.2263 48.5404 47.4084C46.7082 48.5905 44.574 49.219 42.3936 49.2188H39.9959C40.7283 48.3201 41.1979 47.2364 41.3529 46.0875C42.4562 45.3238 43.3567 44.3028 43.9767 43.1128C44.5966 41.9228 44.9172 40.5996 44.9107 39.2578C44.9107 36.3281 42.8904 33.7934 40.1061 33.2168L34.8326 32.1258L34.6838 32.0953C34.6798 31.3037 34.3624 30.5458 33.801 29.9876C33.2397 29.4293 32.4801 29.1161 31.6885 29.1164H28.3111C27.5201 29.1152 26.7607 29.427 26.1988 29.9838C25.6369 30.5407 25.3182 31.2973 25.3123 32.0883L25.1037 32.1305L19.8303 33.2215C17.0471 33.7981 15.0256 36.3387 15.0256 39.2625C15.0202 40.6036 15.3415 41.9258 15.9616 43.1149C16.5816 44.304 17.4819 45.3242 18.5846 46.0875C18.7396 47.2366 19.2097 48.3204 19.9428 49.2188H17.6061C15.4256 49.219 13.2914 48.5905 11.4592 47.4084C9.62704 46.2263 8.17465 44.5409 7.27617 42.5542C6.3777 40.5675 6.07126 38.3639 6.39361 36.2074C6.71595 34.051 7.6534 32.0332 9.09356 30.3961L11.5393 27.6153C12.9672 25.9871 13.97 24.0309 14.4584 21.9211C15.1885 21.1104 15.7889 20.1917 16.2385 19.1977C18.0256 15.3563 18.2916 12.7219 18.5049 10.6043C18.8248 7.42267 18.9877 5.81955 24.5189 2.77736C25.0311 2.57901 25.5538 2.40883 26.0846 2.2676C26.1361 4.46135 25.8689 6.15705 25.3111 7.10041C25.2331 7.2327 25.1911 7.38313 25.1893 7.53672C25.1874 7.69031 25.2259 7.84169 25.3009 7.97578C25.3758 8.10987 25.4845 8.22197 25.6163 8.30093C25.748 8.37989 25.8982 8.42294 26.0518 8.4258C26.9377 8.44338 28.2385 8.23244 29.2252 7.53283C29.2943 8.40939 29.2334 9.3715 28.8338 10.0758C28.7576 10.2094 28.7179 10.3607 28.7186 10.5145C28.7192 10.6683 28.7603 10.8192 28.8377 10.9522C28.9151 11.0851 29.0261 11.1953 29.1595 11.2719C29.2929 11.3484 29.444 11.3886 29.5979 11.3883C29.6318 11.3883 29.6658 11.3883 29.701 11.3824C30.6778 11.2307 31.6113 10.8732 32.4397 10.3336C33.6971 9.5133 35.1924 7.89377 35.1748 4.87971C35.1705 4.11828 35.1153 3.35799 35.0096 2.60392C35.1666 2.659 35.3236 2.72111 35.4783 2.77736C41.0096 5.82424 41.1725 7.42267 41.4924 10.6043C41.7057 12.7219 41.9717 15.3563 43.7588 19.1977C44.2084 20.1917 44.8088 21.1104 45.5389 21.9211C46.0273 24.0309 47.0301 25.9871 48.458 27.6153L50.9061 30.3961ZM49.6275 22.4707C47.7924 21.9551 46.3545 20.6039 45.3549 18.4571C43.6932 14.8828 43.4447 12.4137 43.242 10.4297C42.9197 7.23166 42.5225 5.22189 38.6389 2.62853C41.885 2.4926 47.2592 2.71994 49.8807 5.36486C51.3514 6.84728 51.5717 8.77502 51.8271 11.0063C52.208 14.3449 52.6369 18.0926 57.3525 21.116C55.6275 21.9926 52.4424 23.2617 49.6275 22.4707Z" fill="white"/>
</g>
<defs>
<clipPath id="clip0_371_4777">
<rect width="60" height="60" fill="white"/>
</clipPath>
</defs>
</svg>
