<svg width="30" height="30" viewBox="0 0 30 30" fill="none" xmlns="http://www.w3.org/2000/svg">
<path d="M22.75 3.16379C21.1 2.33879 18.425 1.87629 15 4.27629C11.575 1.87629 8.9 2.33879 7.25 3.16379C4.4125 4.58879 2.5 8.17629 2.5 12.1013C2.5 20.5888 12.55 27.5013 15 27.5013C17.45 27.5013 27.5 20.5888 27.5 12.1013C27.5 8.17629 25.5875 4.58879 22.75 3.16379ZM15.8225 10.7629C15.9959 9.66067 16.775 8.86754 17.5631 8.99129C18.3509 9.11536 18.8494 10.1091 18.6759 11.2116C18.5025 12.3138 17.7234 13.1069 16.9353 12.9832C16.1475 12.8591 15.6494 11.865 15.8225 10.7629ZM12.4369 8.99129C13.2247 8.86754 14.0041 9.66036 14.1775 10.7629C14.3509 11.8654 13.8528 12.8591 13.0647 12.9832C12.2769 13.1072 11.4975 12.3141 11.3241 11.2116C11.1506 10.1091 11.6491 9.11536 12.4369 8.99129ZM10.0578 15.556C9.31219 15.8394 8.38656 15.2238 7.98969 14.181C7.59313 13.1382 7.87594 12.0629 8.62125 11.7791C9.36656 11.4954 10.2925 12.1113 10.6894 13.1541C11.0859 14.1972 10.8031 15.2725 10.0578 15.556ZM15 20.2782C12.4953 20.2782 11.0003 19.381 11.0003 17.8782C11.0003 16.275 12.7475 14.4116 15 14.4116C17.2525 14.4116 18.9997 16.275 18.9997 17.8782C18.9997 19.381 17.5047 20.2782 15 20.2782ZM22.0103 14.181C21.6138 15.2238 20.6878 15.8394 19.9422 15.556C19.1966 15.2725 18.9138 14.1972 19.3106 13.1541C19.7072 12.1113 20.6331 11.4957 21.3788 11.7791C22.1241 12.0629 22.4069 13.1382 22.0103 14.181Z" fill="#E25E52"/>
</svg>
