<svg width="50" height="50" viewBox="0 0 50 50" fill="none" xmlns="http://www.w3.org/2000/svg">
<g clip-path="url(#clip0_334_15504)">
<path d="M10.7666 32.9685C9.35115 31.9096 8.12179 30.6225 7.12887 29.16C7.01635 29.0085 6.84971 28.9063 6.66369 28.8746C6.47767 28.843 6.28661 28.8844 6.13035 28.9901C5.97408 29.0959 5.86467 29.2579 5.82491 29.4424C5.78516 29.6268 5.81813 29.8195 5.91695 29.9803C7.00136 31.5765 8.34316 32.9816 9.88765 34.1385C10.0431 34.255 10.2384 34.3051 10.4307 34.2776C10.623 34.2501 10.7965 34.1474 10.913 33.992C11.0296 33.8366 11.0796 33.6412 11.0522 33.4489C11.0247 33.2567 10.922 33.0831 10.7666 32.9666V32.9685Z" fill="#E25E52"/>
<path d="M12.8701 34.3027C12.7988 34.2655 12.7275 34.2265 12.6572 34.1884C12.4876 34.1019 12.291 34.0848 12.1091 34.1407C11.9271 34.1967 11.7741 34.3213 11.6824 34.4881C11.5908 34.6549 11.5677 34.8509 11.618 35.0345C11.6683 35.2181 11.7882 35.3749 11.9521 35.4716C12.0296 35.5146 12.1077 35.5566 12.1865 35.5976C12.2715 35.6426 12.3645 35.6703 12.4603 35.6793C12.556 35.6883 12.6526 35.6783 12.7445 35.6499C12.8364 35.6215 12.9218 35.5753 12.9958 35.5138C13.0698 35.4524 13.1309 35.377 13.1757 35.2919C13.2663 35.1202 13.285 34.9195 13.2277 34.734C13.1704 34.5485 13.0417 34.3934 12.8701 34.3027Z" fill="#E25E52"/>
<path d="M39.3555 27.0811C40.1361 24.8931 40.5326 22.5867 40.5273 20.2637C40.5273 9.08984 31.4375 0 20.2637 0C9.08984 0 0 9.08984 0 20.2637C0 31.4375 9.08984 40.5273 20.2637 40.5273C22.5867 40.5326 24.8931 40.1361 27.0811 39.3555C27.2401 41.5485 28.0258 43.6496 29.3448 45.4089C30.6638 47.1681 32.4604 48.5113 34.5209 49.2787C36.5815 50.0461 38.8191 50.2053 40.9675 49.7374C43.1159 49.2695 45.0846 48.1942 46.6394 46.6394C48.1942 45.0846 49.2695 43.1159 49.7374 40.9675C50.2053 38.8191 50.0461 36.5815 49.2787 34.5209C48.5113 32.4604 47.1681 30.6638 45.4089 29.3448C43.6496 28.0258 41.5485 27.2401 39.3555 27.0811ZM26.4131 14.1094C27.2512 14.9239 27.9166 15.899 28.3696 16.9763C28.8226 18.0536 29.0539 19.2112 29.0498 20.3799C29.0498 22.7096 28.1243 24.9439 26.477 26.5912C24.8296 28.2386 22.5953 29.1641 20.2656 29.1641C17.9359 29.1641 15.7016 28.2386 14.0543 26.5912C12.4069 24.9439 11.4814 22.7096 11.4814 20.3799C11.4773 19.2112 11.7086 18.0536 12.1617 16.9763C12.6147 15.899 13.2801 14.9239 14.1182 14.1094C14.1879 14.0412 14.2433 13.9597 14.2812 13.8699C14.3191 13.78 14.3387 13.6835 14.3389 13.5859V2.42383C15.1059 2.16816 15.8888 1.96297 16.6826 1.80957V14.4395C16.6825 14.6148 16.643 14.7878 16.5671 14.9458C16.4912 15.1038 16.3809 15.2428 16.2441 15.3525C15.201 16.1867 14.4428 17.3244 14.0743 18.6082C13.7059 19.8921 13.7454 21.2587 14.1873 22.5191C14.6293 23.7795 15.452 24.8715 16.5416 25.6441C17.6312 26.4166 18.9339 26.8316 20.2695 26.8316C21.6052 26.8316 22.9079 26.4166 23.9975 25.6441C25.0871 24.8715 25.9097 23.7795 26.3517 22.5191C26.7937 21.2587 26.8332 19.8921 26.4647 18.6082C26.0963 17.3244 25.3381 16.1867 24.2949 15.3525C24.1582 15.2428 24.0478 15.1038 23.9719 14.9458C23.896 14.7878 23.8566 14.6148 23.8564 14.4395V1.80957C24.6503 1.96297 25.4332 2.16816 26.2002 2.42383V13.5859C26.1994 13.6829 26.2177 13.7791 26.2543 13.869C26.2908 13.9588 26.3448 14.0405 26.4131 14.1094ZM22.3857 1.58496V14.4395C22.3857 14.8335 22.4744 15.2225 22.6454 15.5775C22.8163 15.9325 23.065 16.2445 23.373 16.4902C24.1794 17.1347 24.7656 18.0137 25.0506 19.0059C25.3356 19.998 25.3052 21.0541 24.9638 22.0283C24.6223 23.0024 23.9867 23.8464 23.1447 24.4435C22.3026 25.0406 21.2959 25.3613 20.2637 25.3613C19.2314 25.3613 18.2247 25.0406 17.3827 24.4435C16.5407 23.8464 15.905 23.0024 15.5636 22.0283C15.2221 21.0541 15.1918 19.998 15.4768 19.0059C15.7617 18.0137 16.3479 17.1347 17.1543 16.4902C17.4623 16.2445 17.711 15.9325 17.882 15.5775C18.0529 15.2225 18.1416 14.8335 18.1416 14.4395V1.58496C19.5518 1.4248 20.9756 1.4248 22.3857 1.58496ZM1.46484 20.2637C1.46484 12.5215 6.16992 5.85938 12.8701 2.98145V13.2812C11.0294 15.1836 10.0047 17.7298 10.0146 20.377C10.0969 23.0404 11.2127 25.5672 13.1258 27.4222C15.0389 29.2771 17.599 30.3145 20.2637 30.3145C22.9284 30.3145 25.4884 29.2771 27.4015 27.4222C29.3146 25.5672 30.4305 23.0404 30.5127 20.377C30.5226 17.7298 29.498 15.1836 27.6572 13.2812V2.98145C34.3574 5.85938 39.0625 12.5215 39.0625 20.2637C39.0676 22.5935 38.637 24.9037 37.793 27.0752C35.0102 27.257 32.3884 28.4445 30.4165 30.4165C28.4445 32.3884 27.257 35.0102 27.0752 37.793C24.9037 38.637 22.5935 39.0676 20.2637 39.0625C9.89844 39.0625 1.46484 30.6289 1.46484 20.2637ZM28.5156 38.5254C28.5137 35.994 29.4749 33.5567 31.2041 31.708C32.9282 33.5595 33.8867 35.9955 33.8867 38.5254C33.8867 41.0553 32.9282 43.4913 31.2041 45.3428C29.4749 43.4941 28.5137 41.0568 28.5156 38.5254ZM32.2773 46.3379C34.2521 44.2156 35.3498 41.4243 35.3498 38.5254C35.3498 35.6265 34.2521 32.8352 32.2773 30.7129C34.0501 29.291 36.2548 28.5161 38.5273 28.5161C40.7999 28.5161 43.0045 29.291 44.7773 30.7129C42.8026 32.8352 41.7048 35.6265 41.7048 38.5254C41.7048 41.4243 42.8026 44.2156 44.7773 46.3379C43.0045 47.7598 40.7999 48.5347 38.5273 48.5347C36.2548 48.5347 34.0501 47.7598 32.2773 46.3379ZM45.8516 45.3408C44.1275 43.4893 43.169 41.0534 43.169 38.5234C43.169 35.9935 44.1275 33.5576 45.8516 31.7061C47.5791 33.5558 48.5399 35.9924 48.5399 38.5234C48.5399 41.0544 47.5791 43.491 45.8516 45.3408Z" fill="#3A1916"/>
</g>
<defs>
<clipPath id="clip0_334_15504">
<rect width="50" height="50" fill="white"/>
</clipPath>
</defs>
</svg>
