<svg width="40" height="40" viewBox="0 0 40 40" fill="none" xmlns="http://www.w3.org/2000/svg">
<g clip-path="url(#clip0_368_88)">
<path d="M17.0524 28.756L13.3805 26.6115C13.2909 26.5589 13.189 26.5312 13.0852 26.5312C12.9813 26.5312 12.8794 26.5589 12.7899 26.6115L9.11798 28.756C8.66759 29.0194 8.29375 29.3958 8.03341 29.8479C7.77308 30.3001 7.63527 30.8124 7.63361 31.3341V31.6591C7.63335 32.2521 7.80961 32.8317 8.13993 33.3242C8.47025 33.8166 8.93968 34.1996 9.48842 34.4244C10.0372 34.6491 10.6404 34.7054 11.2212 34.5861C11.8021 34.4668 12.3343 34.1773 12.75 33.7545L13.0805 33.4185L13.411 33.7545C13.8267 34.1773 14.3589 34.4668 14.9397 34.5861C15.5206 34.7054 16.1238 34.6491 16.6725 34.4244C17.2213 34.1996 17.6907 33.8166 18.021 33.3242C18.3514 32.8317 18.5276 32.2521 18.5274 31.6591V31.3349C18.5268 30.8139 18.3905 30.3021 18.1318 29.8499C17.8732 29.3977 17.5011 29.0206 17.0524 28.756ZM17.3609 31.6599C17.3609 32.0202 17.2536 32.3723 17.0528 32.6714C16.852 32.9705 16.5668 33.2031 16.2334 33.3397C15.9001 33.4762 15.5336 33.5105 15.1807 33.4381C14.8278 33.3658 14.5043 33.1901 14.2516 32.9334L13.5039 32.1732C13.4493 32.1178 13.3843 32.0738 13.3125 32.0437C13.2408 32.0137 13.1637 31.9982 13.0859 31.9982C13.0082 31.9982 12.9311 32.0137 12.8594 32.0437C12.7876 32.0738 12.7226 32.1178 12.668 32.1732L11.9203 32.9334C11.6676 33.1901 11.3441 33.3658 10.9912 33.4381C10.6383 33.5105 10.2718 33.4762 9.93846 33.3397C9.60508 33.2031 9.31985 32.9705 9.11907 32.6714C8.91829 32.3723 8.81103 32.0202 8.81095 31.6599V31.3349C8.81106 31.0175 8.89409 30.7057 9.05182 30.4302C9.20954 30.1548 9.43648 29.9253 9.71017 29.7646L13.0859 27.7959L16.4617 29.7646C16.735 29.9251 16.9616 30.154 17.1193 30.4289C17.277 30.7037 17.3603 31.0149 17.3609 31.3318V31.6599Z" fill="#E25E52"/>
<path d="M13.086 25.6203C14.311 25.6203 15.061 23.8922 15.061 22.9516C15.061 22.4278 14.8529 21.9254 14.4825 21.555C14.1121 21.1846 13.6098 20.9766 13.086 20.9766C12.5622 20.9766 12.0598 21.1846 11.6894 21.555C11.319 21.9254 11.111 22.4278 11.111 22.9516C11.111 23.8922 11.861 25.6203 13.086 25.6203ZM13.086 22.1484C13.2989 22.1486 13.5031 22.2333 13.6536 22.3839C13.8042 22.5345 13.8889 22.7386 13.8891 22.9516C13.8891 23.5687 13.3696 24.4484 13.086 24.4484C12.8024 24.4484 12.2828 23.5687 12.2828 22.9516C12.283 22.7386 12.3677 22.5345 12.5183 22.3839C12.6689 22.2333 12.873 22.1486 13.086 22.1484Z" fill="#E25E52"/>
<path d="M17.9469 23.0586C17.4234 23.0592 16.9215 23.2674 16.5513 23.6375C16.1811 24.0075 15.9727 24.5093 15.9719 25.0328C15.9719 25.0906 15.9719 25.1508 15.9719 25.2141C15.9672 25.9531 15.961 26.8727 16.4625 27.3781C16.5656 27.4827 16.6888 27.5653 16.8247 27.621C16.9606 27.6767 17.1063 27.7044 17.2531 27.7023C18.3469 27.7023 19.9227 26.1305 19.9227 25.0328C19.9218 24.5092 19.7134 24.0073 19.343 23.6372C18.9726 23.2671 18.4705 23.059 17.9469 23.0586ZM18.168 25.9492C17.7883 26.3281 17.4328 26.5102 17.275 26.5297C17.136 26.318 17.1414 25.5281 17.143 25.2227C17.143 25.157 17.143 25.0938 17.143 25.0336C17.143 24.8206 17.2276 24.6163 17.3782 24.4657C17.5288 24.3151 17.7331 24.2305 17.9461 24.2305C18.1591 24.2305 18.3634 24.3151 18.514 24.4657C18.6646 24.6163 18.7492 24.8206 18.7492 25.0336C18.75 25.1711 18.5695 25.5453 18.168 25.9484V25.9492Z" fill="#E25E52"/>
<path d="M9.71017 27.3789C10.2117 26.8734 10.2055 25.9539 10.2008 25.2148C10.2008 25.1516 10.2008 25.0914 10.2008 25.0336C10.2008 24.5098 9.99271 24.0074 9.62233 23.6371C9.25194 23.2667 8.7496 23.0586 8.22579 23.0586C7.70199 23.0586 7.19964 23.2667 6.82926 23.6371C6.45887 24.0074 6.25079 24.5098 6.25079 25.0336C6.25079 26.1312 7.82267 27.7031 8.92032 27.7031C9.06703 27.7051 9.21262 27.6774 9.34834 27.6216C9.48407 27.5659 9.60714 27.4834 9.71017 27.3789ZM8.00392 25.9492C7.60236 25.5461 7.42189 25.1719 7.42189 25.0336C7.42189 24.8206 7.5065 24.6163 7.65712 24.4657C7.80773 24.3151 8.01201 24.2305 8.22501 24.2305C8.43801 24.2305 8.64229 24.3151 8.79291 24.4657C8.94352 24.6163 9.02814 24.8206 9.02814 25.0336C9.02814 25.0938 9.02814 25.157 9.02814 25.2227C9.02814 25.5281 9.03517 26.3164 8.89611 26.5297C8.74376 26.5125 8.38595 26.3273 8.00392 25.9492Z" fill="#E25E52"/>
<path d="M30.8203 21.6406C29.1853 21.6387 27.5798 22.0764 26.1719 22.9078V16.2109C26.1719 16.1201 26.1507 16.0305 26.1102 15.9492L23.8281 11.3852V8.39844C23.8281 8.24304 23.7664 8.094 23.6565 7.98412C23.5466 7.87423 23.3976 7.8125 23.2422 7.8125H22.2656V5.85938H24.0234C24.1788 5.85938 24.3279 5.79764 24.4378 5.68776C24.5476 5.57787 24.6094 5.42884 24.6094 5.27344V2.14844C24.6085 1.57889 24.3819 1.03291 23.9792 0.630176C23.5765 0.227445 23.0305 0.00082663 22.4609 0L3.71094 0C3.14139 0.00082663 2.59541 0.227445 2.19268 0.630176C1.78994 1.03291 1.56333 1.57889 1.5625 2.14844V5.27344C1.5625 5.42884 1.62423 5.57787 1.73412 5.68776C1.844 5.79764 1.99304 5.85938 2.14844 5.85938H3.90625V7.8125H2.92969C2.77429 7.8125 2.62525 7.87423 2.51537 7.98412C2.40548 8.094 2.34375 8.24304 2.34375 8.39844V11.3852L0.0617188 15.9492C0.0211354 16.0305 6.14664e-06 16.1201 0 16.2109L0 37.8516C0.00082663 38.4211 0.227445 38.9671 0.630176 39.3698C1.03291 39.7726 1.57889 39.9992 2.14844 40H24.0234C24.4539 39.9995 24.8744 39.8699 25.2304 39.6278C25.5864 39.3857 25.8616 39.0424 26.0203 38.6422C27.2292 39.3842 28.5936 39.836 30.0064 39.9621C31.4193 40.0882 32.8421 39.8851 34.1632 39.3688C35.4844 38.8525 36.6679 38.037 37.6209 36.9864C38.5739 35.9358 39.2704 34.6786 39.6558 33.3135C40.0412 31.9484 40.105 30.5126 39.8422 29.1187C39.5793 27.7248 38.997 26.4108 38.1409 25.2798C37.2849 24.1488 36.1783 23.2316 34.9081 22.6002C33.638 21.9688 32.2388 21.6403 30.8203 21.6406ZM2.73438 2.14844C2.73479 1.88956 2.83781 1.64141 3.02086 1.45836C3.20391 1.27531 3.45206 1.17229 3.71094 1.17188H4.6875V2.53906C4.6875 2.69446 4.74923 2.8435 4.85912 2.95338C4.969 3.06327 5.11804 3.125 5.27344 3.125C5.42884 3.125 5.57787 3.06327 5.68776 2.95338C5.79764 2.8435 5.85938 2.69446 5.85938 2.53906V1.17188H7.8125V2.53906C7.8125 2.69446 7.87423 2.8435 7.98412 2.95338C8.094 3.06327 8.24304 3.125 8.39844 3.125C8.55384 3.125 8.70287 3.06327 8.81276 2.95338C8.92264 2.8435 8.98438 2.69446 8.98438 2.53906V1.17188H10.9375V2.53906C10.9375 2.69446 10.9992 2.8435 11.1091 2.95338C11.219 3.06327 11.368 3.125 11.5234 3.125C11.6788 3.125 11.8279 3.06327 11.9378 2.95338C12.0476 2.8435 12.1094 2.69446 12.1094 2.53906V1.17188H14.0625V2.53906C14.0625 2.69446 14.1242 2.8435 14.2341 2.95338C14.344 3.06327 14.493 3.125 14.6484 3.125C14.8038 3.125 14.9529 3.06327 15.0628 2.95338C15.1726 2.8435 15.2344 2.69446 15.2344 2.53906V1.17188H17.1875V2.53906C17.1875 2.69446 17.2492 2.8435 17.3591 2.95338C17.469 3.06327 17.618 3.125 17.7734 3.125C17.9288 3.125 18.0779 3.06327 18.1878 2.95338C18.2976 2.8435 18.3594 2.69446 18.3594 2.53906V1.17188H20.3125V2.53906C20.3125 2.69446 20.3742 2.8435 20.4841 2.95338C20.594 3.06327 20.743 3.125 20.8984 3.125C21.0538 3.125 21.2029 3.06327 21.3128 2.95338C21.4226 2.8435 21.4844 2.69446 21.4844 2.53906V1.17188H22.4609C22.7198 1.17229 22.968 1.27531 23.151 1.45836C23.3341 1.64141 23.4371 1.88956 23.4375 2.14844V4.6875H2.73438V2.14844ZM5.07812 5.85938H21.0938V7.8125H5.07812V5.85938ZM22.6562 8.98438V10.9375H3.51562V8.98438H22.6562ZM3.29219 12.1094H22.8797L24.6375 15.625H1.53437L3.29219 12.1094ZM24.0234 38.8281H2.14844C1.88956 38.8277 1.64141 38.7247 1.45836 38.5416C1.27531 38.3586 1.17229 38.1104 1.17188 37.8516V16.7969H25V23.7273C23.9504 24.5873 23.1047 25.6695 22.5241 26.8959C21.9434 28.1222 21.6422 29.4622 21.6422 30.8191C21.6422 32.176 21.9434 33.516 22.5241 34.7424C23.1047 35.9688 23.9504 37.051 25 37.9109C24.9847 38.1594 24.8751 38.3927 24.6936 38.5632C24.5121 38.7336 24.2724 38.8284 24.0234 38.8281ZM30.8203 38.8281C29.2365 38.8281 27.6883 38.3585 26.3714 37.4786C25.0545 36.5987 24.0282 35.348 23.4221 33.8848C22.816 32.4215 22.6574 30.8114 22.9664 29.2581C23.2754 27.7047 24.038 26.2778 25.1579 25.1579C26.2778 24.038 27.7047 23.2754 29.2581 22.9664C30.8114 22.6574 32.4215 22.816 33.8848 23.4221C35.348 24.0282 36.5987 25.0545 37.4786 26.3714C38.3585 27.6883 38.8281 29.2365 38.8281 30.8203C38.8259 32.9434 37.9814 34.9789 36.4802 36.4802C34.9789 37.9814 32.9434 38.8259 30.8203 38.8281Z" fill="white"/>
<path d="M30.8203 25.5469C30.1472 25.5477 29.5018 25.8155 29.0258 26.2915C28.5499 26.7675 28.2821 27.4128 28.2812 28.0859V33.5547C28.2813 34.2281 28.5488 34.8739 29.0249 35.3501C29.5011 35.8262 30.1469 36.0938 30.8203 36.0938C31.4937 36.0938 32.1395 35.8262 32.6157 35.3501C33.0919 34.8739 33.3594 34.2281 33.3594 33.5547V28.0859C33.3585 27.4128 33.0908 26.7675 32.6148 26.2915C32.1388 25.8155 31.4935 25.5477 30.8203 25.5469ZM30.8203 26.7188C31.1828 26.7192 31.5303 26.8633 31.7866 27.1196C32.0429 27.376 32.1871 27.7235 32.1875 28.0859V30.2344H29.4531V28.0859C29.4535 27.7235 29.5977 27.376 29.854 27.1196C30.1103 26.8633 30.4578 26.7192 30.8203 26.7188ZM30.8203 34.9219C30.4578 34.9215 30.1103 34.7773 29.854 34.521C29.5977 34.2647 29.4535 33.9172 29.4531 33.5547V31.4062H32.1875V33.5547C32.1871 33.9172 32.0429 34.2647 31.7866 34.521C31.5303 34.7773 31.1828 34.9215 30.8203 34.9219Z" fill="#E25E52"/>
</g>
<defs>
<clipPath id="clip0_368_88">
<rect width="40" height="40" fill="white"/>
</clipPath>
</defs>
</svg>
