<svg width="40" height="40" viewBox="0 0 40 40" fill="none" xmlns="http://www.w3.org/2000/svg">
<path d="M33.6719 4.29688C33.8273 4.29688 33.9763 4.23514 34.0862 4.12526C34.1961 4.01537 34.2578 3.86634 34.2578 3.71094V1.75781C34.2574 1.29174 34.0721 0.844872 33.7425 0.515308C33.4129 0.185744 32.9661 0.000413737 32.5 0L7.5 0C7.03393 0.000413737 6.58706 0.185744 6.2575 0.515308C5.92793 0.844872 5.7426 1.29174 5.74219 1.75781V3.71094C5.74219 3.86634 5.80392 4.01537 5.9138 4.12526C6.02369 4.23514 6.17272 4.29688 6.32812 4.29688H6.91406V35.7031H6.32812C6.17272 35.7031 6.02369 35.7649 5.9138 35.8747C5.80392 35.9846 5.74219 36.1337 5.74219 36.2891V38.2422C5.7426 38.7083 5.92793 39.1551 6.2575 39.4847C6.58706 39.8143 7.03393 39.9996 7.5 40H32.5C32.9661 39.9996 33.4129 39.8143 33.7425 39.4847C34.0721 39.1551 34.2574 38.7083 34.2578 38.2422V36.2891C34.2578 36.1337 34.1961 35.9846 34.0862 35.8747C33.9763 35.7649 33.8273 35.7031 33.6719 35.7031H33.0859V4.29688H33.6719ZM6.91406 1.75781C6.91406 1.60241 6.9758 1.45338 7.08568 1.34349C7.19556 1.23361 7.3446 1.17188 7.5 1.17188H32.5C32.6554 1.17188 32.8044 1.23361 32.9143 1.34349C33.0242 1.45338 33.0859 1.60241 33.0859 1.75781V3.125H6.91406V1.75781ZM31.9141 32.6953H8.08594V7.30469H31.9141V32.6953ZM33.0859 38.2422C33.0859 38.3976 33.0242 38.5466 32.9143 38.6565C32.8044 38.7664 32.6554 38.8281 32.5 38.8281H7.5C7.3446 38.8281 7.19556 38.7664 7.08568 38.6565C6.9758 38.5466 6.91406 38.3976 6.91406 38.2422V36.875H33.0859V38.2422ZM8.08594 35.7031V33.8672H31.9141V35.7031H8.08594ZM31.9141 6.13281H8.08594V4.29688H31.9141V6.13281Z" fill="white"/>
<path d="M20 30.7422C25.9234 30.7422 30.7422 25.9234 30.7422 20C30.7422 14.0766 25.9234 9.25781 20 9.25781C14.0766 9.25781 9.25781 14.0766 9.25781 20C9.25781 25.9234 14.0766 30.7422 20 30.7422ZM20 10.4297C21.8928 10.4297 23.7431 10.991 25.317 12.0426C26.8908 13.0942 28.1175 14.5889 28.8418 16.3376C29.5662 18.0863 29.7557 20.0106 29.3864 21.8671C29.0172 23.7235 28.1057 25.4288 26.7672 26.7672C25.4288 28.1057 23.7235 29.0172 21.8671 29.3864C20.0106 29.7557 18.0863 29.5662 16.3376 28.8418C14.5889 28.1175 13.0942 26.8908 12.0426 25.317C10.991 23.7431 10.4297 21.8928 10.4297 20C10.4324 17.4626 11.4415 15.0299 13.2357 13.2357C15.0299 11.4415 17.4626 10.4324 20 10.4297Z" fill="#E25E52"/>
<path d="M23.5078 20.7638L20.2953 18.8888C20.2058 18.8363 20.1038 18.8086 20 18.8086C19.8962 18.8086 19.7942 18.8363 19.7047 18.8888L16.4922 20.7638C16.0883 21.0016 15.7534 21.3407 15.5205 21.7474C15.2875 22.1542 15.1647 22.6146 15.1641 23.0834V23.3685C15.1641 23.9017 15.3228 24.4228 15.6199 24.8655C15.9171 25.3082 16.3392 25.6525 16.8326 25.8546C17.326 26.0566 17.8684 26.1073 18.3907 26.0002C18.913 25.893 19.3916 25.6329 19.7656 25.2529L20 25.0115L20.2344 25.2529C20.6084 25.6329 21.087 25.893 21.6093 26.0002C22.1316 26.1073 22.674 26.0566 23.1674 25.8546C23.6608 25.6525 24.0829 25.3082 24.3801 24.8655C24.6772 24.4228 24.8359 23.9017 24.8359 23.3685V23.0834C24.8353 22.6146 24.7125 22.1542 24.4795 21.7474C24.2466 21.3407 23.9117 21.0016 23.5078 20.7638ZM23.6641 23.3685C23.6641 23.6691 23.5746 23.963 23.4071 24.2126C23.2395 24.4622 23.0015 24.6564 22.7233 24.7703C22.4451 24.8842 22.1393 24.9128 21.8448 24.8524C21.5503 24.792 21.2804 24.6453 21.0695 24.431L20.4148 23.7654C20.3603 23.71 20.2952 23.666 20.2234 23.6359C20.1517 23.6059 20.0747 23.5904 19.9969 23.5904C19.9191 23.5904 19.8421 23.6059 19.7703 23.6359C19.6986 23.666 19.6335 23.71 19.5789 23.7654L18.9242 24.431C18.7133 24.6453 18.4435 24.792 18.149 24.8524C17.8545 24.9128 17.5487 24.8842 17.2705 24.7703C16.9922 24.6564 16.7542 24.4622 16.5867 24.2126C16.4192 23.963 16.3297 23.6691 16.3297 23.3685V23.0834C16.3302 22.8189 16.3997 22.5591 16.5314 22.3297C16.6631 22.1004 16.8523 21.9093 17.0805 21.7755L20 20.0716L22.9164 21.7755C23.1445 21.9093 23.3338 22.1004 23.4655 22.3297C23.5972 22.5591 23.6667 22.8189 23.6672 23.0834L23.6641 23.3685Z" fill="#E25E52"/>
<path d="M20 18.1555C21.0828 18.1555 21.8015 16.7055 21.8015 15.7469C21.8015 15.2691 21.6117 14.8108 21.2739 14.473C20.936 14.1351 20.4778 13.9453 20 13.9453C19.5222 13.9453 19.0639 14.1351 18.7261 14.473C18.3882 14.8108 18.1984 15.2691 18.1984 15.7469C18.1984 16.7055 18.9172 18.1555 20 18.1555ZM20 15.1172C20.1669 15.1174 20.327 15.1838 20.445 15.3018C20.5631 15.4199 20.6295 15.5799 20.6297 15.7469C20.6297 16.2937 20.1726 16.9836 20 16.9836C19.8273 16.9836 19.3703 16.2961 19.3703 15.7469C19.3705 15.5799 19.4369 15.4199 19.555 15.3018C19.673 15.1838 19.833 15.1174 20 15.1172Z" fill="#E25E52"/>
<path d="M23.6461 19.9781C24.6367 19.9781 26.0547 18.5602 26.0547 17.5695C26.0597 17.3299 26.0168 17.0916 25.9285 16.8687C25.8402 16.6458 25.7083 16.4427 25.5406 16.2715C25.3728 16.1002 25.1726 15.9641 24.9516 15.8712C24.7306 15.7783 24.4932 15.7305 24.2535 15.7305C24.0137 15.7305 23.7764 15.7783 23.5554 15.8712C23.3344 15.9641 23.1341 16.1002 22.9664 16.2715C22.7986 16.4427 22.6668 16.6458 22.5785 16.8687C22.4902 17.0916 22.4473 17.3299 22.4523 17.5695C22.4523 17.6195 22.4523 17.6727 22.4523 17.7258C22.4476 18.386 22.4422 19.2102 22.9023 19.6711C22.9992 19.7697 23.1151 19.8478 23.2429 19.9005C23.3707 19.9533 23.5078 19.9797 23.6461 19.9781ZM23.6234 17.7344C23.6234 17.6766 23.6234 17.6211 23.6234 17.5688C23.6204 17.4843 23.6345 17.4 23.6648 17.3211C23.6951 17.2421 23.7409 17.1701 23.7997 17.1092C23.8584 17.0484 23.9288 17 24.0066 16.967C24.0845 16.9339 24.1681 16.9169 24.2527 16.9169C24.3373 16.9169 24.421 16.9339 24.4988 16.967C24.5766 17 24.647 17.0484 24.7057 17.1092C24.7645 17.1701 24.8103 17.2421 24.8406 17.3211C24.8709 17.4 24.885 17.4843 24.882 17.5688C24.882 17.8961 24.0883 18.7086 23.7101 18.7977C23.6172 18.5758 23.6218 17.975 23.6234 17.7344Z" fill="#E25E52"/>
<path d="M16.3539 19.9766C16.4922 19.9784 16.6294 19.9523 16.7573 19.8998C16.8853 19.8474 17.0013 19.7695 17.0984 19.6711C17.5586 19.2078 17.5531 18.386 17.5484 17.7258C17.5484 17.6711 17.5484 17.618 17.5484 17.5695C17.5534 17.3299 17.5105 17.0916 17.4222 16.8687C17.334 16.6458 17.2021 16.4427 17.0343 16.2715C16.8666 16.1002 16.6663 15.9641 16.4453 15.8712C16.2243 15.7783 15.987 15.7305 15.7472 15.7305C15.5075 15.7305 15.2702 15.7783 15.0492 15.8712C14.8281 15.9641 14.6279 16.1002 14.4601 16.2715C14.2924 16.4427 14.1605 16.6458 14.0723 16.8687C13.984 17.0916 13.9411 17.3299 13.9461 17.5695C13.9453 18.5586 15.3633 19.9766 16.3539 19.9766ZM15.7469 16.9383C15.9137 16.9387 16.0735 17.0052 16.1914 17.1232C16.3092 17.2413 16.3756 17.4012 16.3758 17.568C16.3758 17.6203 16.3758 17.6758 16.3758 17.7336C16.3758 17.9735 16.382 18.5742 16.2906 18.7969C15.9101 18.7078 15.1187 17.8953 15.1187 17.568C15.1189 17.4013 15.1851 17.2415 15.3028 17.1235C15.4205 17.0055 15.5802 16.9389 15.7469 16.9383Z" fill="#E25E52"/>
</svg>
