<svg width="50" height="50" viewBox="0 0 50 50" fill="none" xmlns="http://www.w3.org/2000/svg">
<g clip-path="url(#clip0_682_23184)">
<path d="M42.583 4.87529C42.5076 4.80673 42.4187 4.75465 42.322 4.72237C42.2253 4.69008 42.123 4.67831 42.0215 4.68779C36.7285 5.18584 32.5195 3.93779 29.9199 2.80205C27.0879 1.56768 25.4971 0.194629 25.4814 0.180957C25.348 0.0645977 25.177 0.000488281 25 0.000488281C24.823 0.000488281 24.652 0.0645977 24.5186 0.180957C24.5029 0.194629 22.9092 1.56768 20.0801 2.80205C16.2708 4.44453 12.107 5.09336 7.97852 4.68779C7.87699 4.67828 7.7746 4.69006 7.67789 4.7224C7.58119 4.75473 7.4923 4.80691 7.41692 4.87558C7.34154 4.94425 7.28133 5.0279 7.24014 5.12118C7.19895 5.21446 7.1777 5.31532 7.17773 5.41729V24.2259C7.17731 29.782 8.85245 35.2091 11.9844 39.7983C15.1163 44.3876 19.5594 47.9257 24.7334 49.9505C24.9049 50.0169 25.0951 50.0169 25.2666 49.9505C30.4406 47.9257 34.8837 44.3876 38.0156 39.7983C41.1476 35.2091 42.8227 29.782 42.8223 24.2259V5.41729C42.8223 5.31527 42.801 5.21438 42.7598 5.12105C42.7186 5.02773 42.6584 4.94403 42.583 4.87529ZM41.3574 24.2259C41.3574 34.9749 34.9463 44.4642 25 48.4798C15.0537 44.4642 8.64258 34.9749 8.64258 24.2259V6.20928C12.7794 6.48867 16.9229 5.77202 20.7256 4.11943C22.2384 3.46646 23.6724 2.64416 25 1.66826C26.3276 2.64416 27.7616 3.46646 29.2744 4.11943C33.0769 5.77268 37.2206 6.48935 41.3574 6.20928V24.2259Z" fill="#3A1916"/>
<path d="M25.3916 3.71101C25.2747 3.63727 25.1392 3.59814 25.001 3.59814C24.8627 3.59814 24.7273 3.63727 24.6104 3.71101C22.3086 5.16804 17.458 7.62702 10.8301 7.72956C10.6379 7.73264 10.4546 7.81116 10.3197 7.94818C10.1849 8.08521 10.1094 8.26975 10.1094 8.46198V24.2257C10.1093 28.9891 11.4869 33.651 14.0761 37.6494C16.6653 41.6478 20.3555 44.812 24.7021 46.7608C24.7962 46.8026 24.898 46.8243 25.001 46.8243C25.1039 46.8243 25.2057 46.8026 25.2998 46.7608C29.6466 44.8122 33.3371 41.648 35.9264 37.6496C38.5158 33.6512 39.8935 28.9893 39.8936 24.2257V8.46101C39.8936 8.26877 39.818 8.08423 39.6832 7.94721C39.5484 7.81018 39.3651 7.73166 39.1728 7.72859C32.5439 7.62605 27.6934 5.16706 25.3916 3.71101ZM25.001 45.2882C21.8618 43.8282 19.0892 41.6839 16.8867 39.0128H33.1152C30.9126 41.6836 28.1401 43.8275 25.001 45.2872V45.2882ZM38.4287 24.2257C38.4345 28.8986 37.0254 33.4638 34.3867 37.3204L34.2285 37.5469H15.7715L15.6133 37.3204C12.9753 33.4635 11.5668 28.8984 11.5732 24.2257V9.17292C17.8428 8.91999 22.5293 6.68757 25.001 5.1905C29.073 7.62093 33.69 8.99025 38.4287 9.17292V24.2257Z" fill="#3A1916"/>
<path d="M30.5322 24.4542L25.3691 21.4376C25.2571 21.3723 25.1297 21.3379 25 21.3379C24.8703 21.3379 24.7429 21.3723 24.6309 21.4376L19.4678 24.4542C18.849 24.8172 18.3357 25.3355 17.9786 25.9577C17.6215 26.5799 17.4329 27.2846 17.4316 28.002V28.459C17.4313 29.2747 17.6738 30.072 18.1282 30.7494C18.5826 31.4268 19.2284 31.9536 19.9833 32.2626C20.7381 32.5717 21.5679 32.6491 22.3669 32.485C23.1658 32.3208 23.8979 31.9225 24.4697 31.3409L25 30.8028L25.5303 31.3419C26.1024 31.9231 26.8345 32.321 27.6334 32.4848C28.4323 32.6487 29.2619 32.5711 30.0166 32.262C30.7713 31.9528 31.4169 31.4261 31.8713 30.7489C32.3258 30.0717 32.5684 29.2746 32.5684 28.459V28.002C32.5671 27.2846 32.3785 26.5799 32.0214 25.9577C31.6643 25.3355 31.151 24.8172 30.5322 24.4542ZM31.1035 28.4581C31.1036 28.9829 30.9475 29.496 30.6551 29.9318C30.3627 30.3677 29.9472 30.7067 29.4615 30.9056C28.9758 31.1046 28.4419 31.1545 27.9277 31.0491C27.4136 30.9437 26.9424 30.6876 26.5742 30.3135L25.5225 29.2393C25.4542 29.1701 25.3729 29.115 25.2832 29.0775C25.1935 29.04 25.0972 29.0206 25 29.0206C24.9028 29.0206 24.8065 29.04 24.7168 29.0775C24.6271 29.115 24.5458 29.1701 24.4775 29.2393L23.4258 30.3135C23.0576 30.6876 22.5864 30.9437 22.0723 31.0491C21.5581 31.1545 21.0242 31.1046 20.5385 30.9056C20.0528 30.7067 19.6373 30.3677 19.3449 29.9318C19.0525 29.496 18.8964 28.9829 18.8965 28.4581V28.001C18.8972 27.5393 19.0185 27.0858 19.2484 26.6853C19.4782 26.2848 19.8087 25.9513 20.207 25.7178L25 22.919L29.793 25.7188C30.1913 25.9523 30.5218 26.2858 30.7516 26.6863C30.9815 27.0867 31.1028 27.5403 31.1035 28.002V28.4581Z" fill="#E25E52"/>
<path d="M22.3145 16.2109C22.3145 17.502 23.334 19.873 25 19.873C26.666 19.873 27.6855 17.502 27.6855 16.2109C27.6855 15.4987 27.4026 14.8156 26.899 14.312C26.3953 13.8083 25.7123 13.5254 25 13.5254C24.2877 13.5254 23.6047 13.8083 23.101 14.312C22.5974 14.8156 22.3145 15.4987 22.3145 16.2109ZM25 14.9902C25.3236 14.9908 25.6338 15.1195 25.8626 15.3483C26.0914 15.5772 26.2202 15.8873 26.2207 16.2109C26.2207 17.0732 25.4795 18.4082 25 18.4082C24.5205 18.4082 23.7793 17.0732 23.7793 16.2109C23.7798 15.8873 23.9086 15.5772 24.1374 15.3483C24.3662 15.1195 24.6764 14.9908 25 14.9902Z" fill="#E25E52"/>
<path d="M30.8588 22.8027C32.3305 22.8027 34.521 20.6123 34.521 19.1406C34.521 18.4284 34.238 17.7453 33.7344 17.2417C33.2307 16.738 32.5477 16.4551 31.8354 16.4551C31.1232 16.4551 30.4401 16.738 29.9364 17.2417C29.4328 17.7453 29.1499 18.4284 29.1499 19.1406C29.1499 19.2217 29.1499 19.3066 29.1499 19.3955C29.143 20.418 29.1342 21.6904 29.8129 22.374C29.9495 22.5122 30.1125 22.6214 30.2922 22.695C30.4719 22.7687 30.6646 22.8053 30.8588 22.8027ZM30.6137 19.4062C30.6137 19.3135 30.6137 19.2246 30.6137 19.1406C30.6137 18.8169 30.7423 18.5064 30.9713 18.2775C31.2002 18.0485 31.5107 17.9199 31.8344 17.9199C32.1582 17.9199 32.4687 18.0485 32.6976 18.2775C32.9265 18.5064 33.0551 18.8169 33.0551 19.1406C33.0551 19.8184 31.5356 21.3379 30.8579 21.3379H30.8452C30.602 21.1123 30.6108 19.8301 30.6137 19.4062Z" fill="#E25E52"/>
<path d="M20.1865 22.374C20.8652 21.6904 20.8564 20.4209 20.8496 19.3955C20.8496 19.3066 20.8496 19.2217 20.8496 19.1406C20.8496 18.4284 20.5667 17.7453 20.063 17.2417C19.5594 16.738 18.8763 16.4551 18.1641 16.4551C17.4518 16.4551 16.7687 16.738 16.2651 17.2417C15.7615 17.7453 15.4785 18.4284 15.4785 19.1406C15.4785 20.6123 17.6689 22.8027 19.1406 22.8027C19.3348 22.8053 19.5276 22.7687 19.7073 22.695C19.887 22.6214 20.05 22.5122 20.1865 22.374ZM16.9424 19.1406C16.9424 18.8169 17.071 18.5064 17.2999 18.2775C17.5288 18.0485 17.8393 17.9199 18.1631 17.9199C18.4868 17.9199 18.7973 18.0485 19.0263 18.2775C19.2552 18.5064 19.3838 18.8169 19.3838 19.1406C19.3838 19.2246 19.3838 19.3135 19.3838 19.4062C19.3838 19.8301 19.3955 21.1123 19.1514 21.3379H19.1396C18.4619 21.3379 16.9424 19.8184 16.9424 19.1406Z" fill="#E25E52"/>
</g>
<defs>
<clipPath id="clip0_682_23184">
<rect width="50" height="50" fill="white"/>
</clipPath>
</defs>
</svg>
