<svg width="50" height="50" viewBox="0 0 50 50" fill="none" xmlns="http://www.w3.org/2000/svg">
<g clip-path="url(#clip0_363_2)">
<path d="M18.164 18.7344C17.5676 18.7348 16.9818 18.8913 16.4646 19.1882C15.9475 19.4851 15.517 19.9122 15.216 20.427C14.915 20.9417 14.7538 21.5263 14.7487 22.1226C14.7435 22.7189 14.8944 23.3062 15.1864 23.8262C15.2352 23.913 15.3012 23.989 15.3804 24.0495C15.4596 24.1099 15.5503 24.1535 15.647 24.1777C15.7436 24.2018 15.8442 24.206 15.9425 24.1898C16.0408 24.1737 16.1348 24.1377 16.2187 24.084C16.4425 23.9412 16.6931 23.8456 16.9552 23.803C17.2172 23.7604 17.4852 23.7716 17.7428 23.8361C18.0003 23.9005 18.2421 24.0168 18.4532 24.1778C18.6643 24.3388 18.8403 24.5411 18.9706 24.7725C19.0197 24.8592 19.0859 24.935 19.1652 24.9952C19.2445 25.0555 19.3353 25.099 19.432 25.123C19.5287 25.1471 19.6292 25.1511 19.7276 25.135C19.8259 25.1189 19.9199 25.0829 20.0038 25.0293C20.6252 24.6307 21.1009 24.0416 21.3596 23.3502C21.6183 22.6587 21.6462 21.9021 21.4391 21.1935C21.232 20.4849 20.801 19.8623 20.2106 19.4191C19.6203 18.9758 18.9022 18.7356 18.164 18.7344ZM19.7118 23.3437C19.2698 22.8915 18.7111 22.5707 18.0976 22.4171C17.4842 22.2635 16.8402 22.283 16.2372 22.4736C16.184 22.1539 16.2111 21.826 16.3163 21.5194C16.4214 21.2128 16.6011 20.9372 16.8393 20.7174C17.0775 20.4976 17.3667 20.3405 17.6808 20.2604C17.9948 20.1802 18.3239 20.1794 18.6383 20.2582C18.9527 20.3369 19.2425 20.4927 19.4817 20.7114C19.721 20.9301 19.902 21.2049 20.0085 21.511C20.115 21.8171 20.1436 22.1449 20.0918 22.4649C20.0401 22.7848 19.9095 23.0869 19.7118 23.3437Z" fill="#E25E52"/>
<path d="M14.0137 27.6641C13.4311 27.6646 12.8725 27.8962 12.4605 28.3082C12.0486 28.7202 11.8169 29.2787 11.8164 29.8613V30.8379C11.8164 31.4206 12.0479 31.9795 12.46 32.3916C12.872 32.8037 13.4309 33.0352 14.0137 33.0352C14.5964 33.0352 15.1553 32.8037 15.5674 32.3916C15.9794 31.9795 16.2109 31.4206 16.2109 30.8379V29.8613C16.2104 29.2787 15.9788 28.7202 15.5668 28.3082C15.1548 27.8962 14.5963 27.6646 14.0137 27.6641ZM14.7461 30.8379C14.7461 31.0321 14.6689 31.2184 14.5316 31.3558C14.3942 31.4931 14.2079 31.5703 14.0137 31.5703C13.8194 31.5703 13.6331 31.4931 13.4958 31.3558C13.3584 31.2184 13.2812 31.0321 13.2812 30.8379V29.8613C13.2812 29.6671 13.3584 29.4808 13.4958 29.3434C13.6331 29.2061 13.8194 29.1289 14.0137 29.1289C14.2079 29.1289 14.3942 29.2061 14.5316 29.3434C14.6689 29.4808 14.7461 29.6671 14.7461 29.8613V30.8379Z" fill="#E25E52"/>
<path d="M43.5049 18.2531L44.2588 16.1828C44.8308 16.5398 45.4884 16.7361 46.1625 16.7511C46.8365 16.7661 47.5022 16.5992 48.0895 16.268C48.6768 15.9367 49.164 15.4534 49.4999 14.8688C49.8358 14.2842 50.008 13.6199 49.9984 12.9457C49.9888 12.2715 49.7977 11.6123 49.4453 11.0375C49.0929 10.4627 48.5921 9.99345 47.9957 9.67907C47.3992 9.3647 46.729 9.21683 46.0557 9.251C45.3823 9.28516 44.7305 9.50012 44.1689 9.87325C43.9874 9.25866 43.6515 8.7008 43.1932 8.25283C42.7349 7.80485 42.1696 7.48169 41.551 7.31414C40.9325 7.14658 40.2813 7.14022 39.6596 7.29564C39.0379 7.45107 38.4663 7.76311 37.9994 8.20203C37.5324 8.64096 37.1857 9.19214 36.9921 9.80307C36.7986 10.414 36.7647 11.0643 36.8937 11.692C37.0227 12.3198 37.3103 12.904 37.7291 13.3891C38.1479 13.8741 38.6839 14.2439 39.2861 14.4631C39.5317 14.5527 39.786 14.6162 40.0449 14.6525L39.1914 16.9963C38.8359 16.9641 38.4756 16.9465 38.1113 16.9465C36.3342 16.9449 34.5797 17.3452 32.979 18.1173C31.3784 18.8895 29.9731 20.0136 28.8682 21.4055L26.499 24.3654C26.1936 24.7505 25.8051 25.0615 25.3625 25.2753C24.92 25.489 24.4348 25.6 23.9434 25.5998C23.8955 25.5998 23.8457 25.5998 23.7998 25.5998C24.3612 24.673 24.6853 23.6221 24.7435 22.5401C24.8018 21.4581 24.5923 20.3784 24.1337 19.3967C23.6751 18.415 22.9815 17.5615 22.1143 16.9119C21.2471 16.2622 20.233 15.8364 19.162 15.6722C18.091 15.5079 16.9959 15.6104 15.9739 15.9703C14.9519 16.3303 14.0344 16.9368 13.3027 17.736C12.5711 18.5352 12.0477 19.5024 11.7791 20.5522C11.5105 21.6019 11.5048 22.7017 11.7627 23.7541C9.58106 24.6958 7.82434 26.4104 6.83008 28.5686L4.52539 33.5842C4.40183 33.563 4.27672 33.5522 4.15137 33.552H2.19824C1.61549 33.552 1.05661 33.7835 0.644541 34.1955C0.232474 34.6076 0.000976562 35.1665 0.000976562 35.7492C0.000976562 36.332 0.232474 36.8909 0.644541 37.3029C1.05661 37.715 1.61549 37.9465 2.19824 37.9465H8.83887C9.01469 39.2985 9.67654 40.5402 10.7009 41.44C11.7252 42.3397 13.0419 42.8359 14.4053 42.8359C15.7686 42.8359 17.0854 42.3397 18.1097 41.44C19.134 40.5402 19.7959 39.2985 19.9717 37.9465H33.9365C34.1123 39.2985 34.7742 40.5402 35.7985 41.44C36.8228 42.3397 38.1396 42.8359 39.5029 42.8359C40.8663 42.8359 42.183 42.3397 43.2073 41.44C44.2317 40.5402 44.8935 39.2985 45.0693 37.9465H49.2686C49.3652 37.9464 49.4609 37.9271 49.5501 37.8898C49.6393 37.8525 49.7203 37.7979 49.7883 37.7292C49.8563 37.6605 49.91 37.579 49.9463 37.4894C49.9827 37.3998 50.0009 37.3039 50 37.2072V28.9592C50.0032 26.7506 49.399 24.5837 48.2535 22.6955C47.1079 20.8073 45.4652 19.2705 43.5049 18.2531ZM41.6543 13.4358C41.5716 13.3372 41.4645 13.2623 41.3436 13.2184C41.2227 13.1745 41.0924 13.1632 40.9658 13.1858C40.5025 13.2675 40.0252 13.2043 39.599 13.005C39.1728 12.8057 38.8185 12.4798 38.5842 12.0718C38.3499 11.6637 38.2471 11.1934 38.2898 10.7249C38.3325 10.2563 38.5186 9.8123 38.8227 9.45333C39.1269 9.09436 39.5343 8.83787 39.9895 8.71882C40.4446 8.59976 40.9255 8.62392 41.3664 8.788C41.8074 8.95208 42.187 9.24811 42.4537 9.63576C42.7203 10.0234 42.8609 10.4838 42.8564 10.9543C42.8549 11.1058 42.9006 11.254 42.987 11.3784C43.0734 11.5028 43.1964 11.5972 43.3389 11.6486L43.6631 11.7668C43.8053 11.8188 43.9602 11.8253 44.1063 11.7854C44.2524 11.7455 44.3824 11.6612 44.4785 11.5441C44.7777 11.1814 45.1815 10.9197 45.6347 10.7946C46.088 10.6695 46.5688 10.6871 47.0117 10.8449C47.4546 11.0028 47.8382 11.2933 48.1101 11.6769C48.3821 12.0605 48.5292 12.5186 48.5316 12.9888C48.5339 13.459 48.3914 13.9185 48.1233 14.3048C47.8552 14.6911 47.4745 14.9854 47.0332 15.1477C46.5919 15.31 46.1113 15.3324 45.6568 15.2118C45.2023 15.0912 44.796 14.8335 44.4932 14.4738C44.4106 14.3752 44.3035 14.3 44.1826 14.2559C44.0618 14.2118 43.9314 14.2003 43.8047 14.2225C43.678 14.2448 43.5593 14.3001 43.4608 14.3828C43.3622 14.4654 43.2871 14.5726 43.2432 14.6936L42.1611 17.6662C41.6732 17.4865 41.1737 17.3401 40.666 17.2277L41.7812 14.1604C41.8259 14.0391 41.8376 13.9082 41.8153 13.781C41.793 13.6537 41.7375 13.5346 41.6543 13.4358ZM4.88281 36.4748H2.19727C2.00302 36.4748 1.81672 36.3977 1.67937 36.2603C1.54201 36.1229 1.46484 35.9366 1.46484 35.7424C1.46484 35.5481 1.54201 35.3618 1.67937 35.2245C1.81672 35.0871 2.00302 35.01 2.19727 35.01H4.15039C4.34464 35.01 4.53094 35.0871 4.66829 35.2245C4.80565 35.3618 4.88281 35.5481 4.88281 35.7424V36.4748ZM14.4043 41.3576C13.4311 41.3562 12.4893 41.0133 11.743 40.3887C10.9966 39.7641 10.4932 38.8974 10.3203 37.9397H18.4883C18.3154 38.8974 17.8119 39.7641 17.0656 40.3887C16.3193 41.0133 15.3775 41.3562 14.4043 41.3576ZM29.5098 35.2541C29.5103 34.9305 29.6391 34.6203 29.8679 34.3915C30.0967 34.1627 30.4069 34.0339 30.7305 34.0334H36.5723C36.7665 34.0334 36.9528 33.9562 37.0902 33.8189C37.2275 33.6815 37.3047 33.4952 37.3047 33.301C37.3057 32.4596 37.6404 31.6529 38.2354 31.0579C38.8304 30.4629 39.6371 30.1282 40.4785 30.1272C41.5789 30.1285 42.6338 30.5661 43.4119 31.3442C44.1899 32.1223 44.6276 33.1772 44.6289 34.2775V36.4748H30.7305C30.4069 36.4743 30.0967 36.3455 29.8679 36.1167C29.6391 35.8879 29.5103 35.5777 29.5098 35.2541ZM39.502 41.3576C38.5288 41.3562 37.5869 41.0133 36.8406 40.3887C36.0943 39.7641 35.5908 38.8974 35.418 37.9397H43.5859C43.4131 38.8974 42.9096 39.7641 42.1633 40.3887C41.417 41.0133 40.4751 41.3562 39.502 41.3576ZM48.5352 36.4748H46.0938V34.2775C46.0922 32.7888 45.5001 31.3614 44.4474 30.3087C43.3946 29.256 41.9673 28.6639 40.4785 28.6623C39.3755 28.6638 38.3091 29.0575 37.4698 29.7732C36.6305 30.4888 36.0732 31.4797 35.8975 32.5686H30.7305C30.0185 32.5696 29.3361 32.8529 28.8326 33.3563C28.3292 33.8597 28.046 34.5422 28.0449 35.2541C28.0438 35.6786 28.1442 36.0971 28.3379 36.4748H6.34766V35.7424C6.34788 35.2113 6.15488 34.6983 5.80469 34.299L8.16016 29.174C8.61906 28.1754 9.27523 27.28 10.0892 26.5415C10.9031 25.8031 11.8581 25.237 12.8965 24.8772C12.9886 24.8455 13.0736 24.7959 13.1463 24.731C13.219 24.6662 13.278 24.5875 13.3199 24.4996C13.3619 24.4116 13.3858 24.3162 13.3904 24.2189C13.395 24.1216 13.3801 24.0243 13.3467 23.9328C13.0356 23.081 12.956 22.1618 13.116 21.2692C13.276 20.3765 13.6698 19.5422 14.2574 18.8514C14.8449 18.1606 15.6052 17.638 16.4606 17.3369C17.316 17.0357 18.236 16.9668 19.1268 17.1372C20.0175 17.3075 20.8471 17.7111 21.531 18.3066C22.215 18.9022 22.7287 19.6685 23.0199 20.5273C23.3111 21.3862 23.3693 22.3069 23.1886 23.1956C23.0079 24.0843 22.5947 24.9092 21.9912 25.5861C21.9123 25.6749 21.8561 25.7815 21.8275 25.8967C21.7989 26.012 21.7988 26.1325 21.8272 26.2478C21.8555 26.3631 21.9115 26.4698 21.9903 26.5587C22.069 26.6476 22.1682 26.716 22.2793 26.758C23.2145 27.1116 24.2379 27.1588 25.2018 26.8929C26.1656 26.627 27.02 26.0616 27.6416 25.2785L30.0107 22.3195C30.9791 21.1001 32.2106 20.1153 33.6132 19.4388C35.0158 18.7624 36.5532 18.4118 38.1104 18.4133C43.8584 18.4084 48.5352 23.1447 48.5352 28.9592V36.4748Z" fill="#3A1916"/>
</g>
<defs>
<clipPath id="clip0_363_2">
<rect width="50" height="50" fill="white"/>
</clipPath>
</defs>
</svg>
