<svg width="50" height="50" viewBox="0 0 50 50" fill="none" xmlns="http://www.w3.org/2000/svg">
<circle cx="25" cy="25" r="25" fill="#E25E52"/>
<path d="M20.6664 21.3186C22.6521 20.6177 23.495 17.7999 22.549 15.0248C21.603 12.2497 19.2263 10.5682 17.2405 11.269C15.2548 11.9699 14.4119 14.7877 15.3579 17.5628C16.3039 20.3379 18.6806 22.0194 20.6664 21.3186Z" fill="#FFFDF9"/>
<path d="M14.1208 26.4954C15.5287 25.5605 15.6467 23.207 14.3844 21.2388C13.122 19.2707 10.9573 18.4331 9.54932 19.3681C8.14137 20.3031 8.02336 22.6566 9.28573 24.6247C10.5481 26.5929 12.7128 27.4304 14.1208 26.4954Z" fill="#FFFDF9"/>
<path d="M34.6422 17.5699C35.5883 14.7948 34.7454 11.977 32.7596 11.2761C30.7739 10.5752 28.3972 12.2567 27.4512 15.0318C26.5052 17.807 27.3481 20.6248 29.3338 21.3256C31.3196 22.0265 33.6962 20.345 34.6422 17.5699Z" fill="#FFFDF9"/>
<path d="M40.7144 24.6322C41.9768 22.664 41.8588 20.3106 40.4509 19.3756C39.0429 18.4406 36.8782 19.2782 35.6158 21.2463C34.3534 23.2145 34.4714 25.568 35.8794 26.5029C37.2873 27.4379 39.4521 26.6004 40.7144 24.6322Z" fill="#FFFDF9"/>
<path d="M25.0274 23.3495C18.1792 23.3495 12.6284 31.3255 12.6284 37.1893C12.6284 41.99 16.351 39.4136 21.4609 38.3213C21.3794 38.2592 21.2963 38.197 21.2132 38.1366C14.8874 33.5481 17.8299 29.6033 17.8299 29.6033H17.8349C18.5896 28.366 19.9362 27.5411 21.4727 27.548C22.9753 27.5532 24.2897 28.3504 25.0461 29.5481C25.8109 28.3574 27.1321 27.5705 28.633 27.5756C29.8201 27.5791 30.8936 28.0795 31.6636 28.8802C31.6636 28.8802 31.7586 28.9717 31.8976 29.1443C31.9163 29.1667 31.9333 29.1908 31.9519 29.2133C31.9858 29.2581 32.0214 29.3082 32.0588 29.3617C32.2877 29.6809 32.4743 30.033 32.6116 30.4109C32.6303 30.4592 32.6472 30.511 32.6659 30.5627C32.6778 30.5973 32.6896 30.6318 32.6998 30.668C33.2171 32.3281 33.0373 35.0218 29.0129 38.2367C28.9535 38.2833 28.8958 38.3316 28.8382 38.3782C33.8208 39.4965 37.4264 41.9176 37.4264 37.1927C37.4264 31.3289 31.8756 23.353 25.0274 23.353V23.3495Z" fill="#FFFDF9"/>
</svg>
