<svg width="120" height="120" viewBox="0 0 120 120" fill="none" xmlns="http://www.w3.org/2000/svg">
<path d="M54.2215 56.1657C56.8692 55.2474 57.9931 51.555 56.7317 47.9186C55.4703 44.2823 52.3014 42.0789 49.6537 42.9973C47.0061 43.9157 45.8822 47.608 47.1436 51.2444C48.4049 54.8808 51.5739 57.0841 54.2215 56.1657Z" fill="#E25E52"/>
<path d="M45.4944 62.9491C47.3717 61.724 47.5291 58.6401 45.8459 56.0611C44.1627 53.4821 41.2764 52.3846 39.3991 53.6098C37.5218 54.8349 37.3645 57.9188 39.0477 60.4978C40.7308 63.0768 43.6172 64.1743 45.4944 62.9491Z" fill="#E25E52"/>
<path d="M72.8563 51.2532C74.1176 47.6169 72.9938 43.9245 70.3461 43.0061C67.6984 42.0878 64.5295 44.2911 63.2682 47.9275C62.0068 51.5639 63.1306 55.2562 65.7783 56.1746C68.426 57.093 71.5949 54.8896 72.8563 51.2532Z" fill="#E25E52"/>
<path d="M80.9523 60.5073C82.6354 57.9283 82.4781 54.8444 80.6008 53.6193C78.7235 52.3941 75.8372 53.4916 74.154 56.0706C72.4709 58.6496 72.6282 61.7334 74.5055 62.9586C76.3828 64.1837 79.2691 63.0862 80.9523 60.5073Z" fill="#E25E52"/>
<path d="M60.0366 58.8262C50.9056 58.8262 43.5045 69.2775 43.5045 76.9612C43.5045 83.2519 48.468 79.8759 55.2812 78.4445C55.1726 78.3631 55.0618 78.2817 54.951 78.2026C46.5165 72.19 50.4398 67.0208 50.4398 67.0208H50.4466C51.4529 65.3995 53.2483 64.3187 55.297 64.3277C57.3005 64.3345 59.053 65.3792 60.0615 66.9485C61.0813 65.3882 62.8428 64.3571 64.844 64.3639C66.4269 64.3684 67.8583 65.0242 68.8849 66.0734C68.8849 66.0734 69.0116 66.1932 69.197 66.4194C69.2219 66.4487 69.2445 66.4804 69.2693 66.5098C69.3146 66.5686 69.3621 66.6342 69.4118 66.7043C69.7171 67.1226 69.9658 67.5839 70.149 68.0791C70.1738 68.1424 70.1965 68.2102 70.2213 68.2781C70.2372 68.3233 70.253 68.3685 70.2666 68.416C70.9562 70.5913 70.7165 74.1211 65.3506 78.3337C65.2714 78.3948 65.1945 78.4581 65.1177 78.5191C71.7613 79.9844 76.5687 83.1569 76.5687 76.9657C76.5687 69.2821 69.1676 58.8307 60.0366 58.8307V58.8262Z" fill="#E25E52"/>
<path d="M65.0418 10.4925C64.2473 10.4016 63.5522 10.1402 62.9566 9.70835C62.3719 9.26786 61.9357 8.66247 61.6481 7.89216C61.3702 7.12297 61.2942 6.19989 61.42 5.12291C61.513 4.32731 61.6994 3.62595 61.9791 3.01885C62.2686 2.41286 62.6448 1.91512 63.1078 1.52562C63.5818 1.12754 64.1365 0.84684 64.7718 0.683525C65.4083 0.510508 66.1337 0.47055 66.9478 0.563651C67.5658 0.634317 68.1115 0.770462 68.5849 0.972084C69.0693 1.16512 69.4727 1.41282 69.7952 1.71517C70.1189 2.00781 70.3578 2.34485 70.512 2.72627C70.6662 3.1077 70.7173 3.52157 70.6651 3.96788L68.3538 4.3525C68.3871 3.98269 68.3345 3.66696 68.1961 3.40533C68.0577 3.1437 67.8493 2.92814 67.5709 2.75866C67.3024 2.59029 66.9866 2.48536 66.6237 2.44386C66.1234 2.38665 65.6831 2.45429 65.3028 2.64677C64.9334 2.83066 64.6283 3.14482 64.3875 3.58922C64.1565 4.03475 64.0002 4.6068 63.9185 5.30538C63.8584 5.81962 63.8542 6.28124 63.9058 6.69026C63.9683 7.0907 64.0873 7.43368 64.2626 7.7192C64.438 8.00472 64.6649 8.23223 64.9433 8.40171C65.2315 8.57232 65.5816 8.68118 65.9935 8.72829C66.3957 8.77428 66.7513 8.75103 67.0603 8.65855C67.3704 8.55637 67.6285 8.38924 67.8346 8.15716C68.0418 7.91539 68.1729 7.60101 68.2281 7.21403L66.5213 7.01886L66.7153 5.35973L70.7467 5.82075L70.5307 7.66907L70.1565 10.8709L68.538 10.6858L68.7927 8.25198L68.5131 8.22001C68.2893 8.77451 68.0217 9.23551 67.7103 9.60303C67.4099 9.96197 67.0418 10.2198 66.6061 10.3764C66.1714 10.5233 65.65 10.562 65.0418 10.4925Z" fill="#3A1916"/>
<path d="M76.0416 12.8682C75.4148 12.6587 74.8866 12.3894 74.4571 12.0603C74.0275 11.7311 73.6981 11.353 73.4688 10.9258C73.2426 10.4894 73.1181 10.0148 73.0952 9.502C73.0849 8.98307 73.1809 8.42749 73.3831 7.83529C73.5791 7.26159 73.845 6.75766 74.1809 6.32352C74.5168 5.88937 74.9039 5.54963 75.342 5.30431C75.7927 5.05285 76.2851 4.90812 76.8192 4.87012C77.3565 4.82287 77.9245 4.89928 78.5232 5.09937C79.1125 5.29633 79.5985 5.567 79.9812 5.91138C80.3732 6.25889 80.6557 6.66773 80.8286 7.13791C81.0015 7.60808 81.0618 8.13339 81.0095 8.71385C80.9603 9.28505 80.7985 9.89595 80.5242 10.5466L74.738 8.67468L75.141 7.4949L79.5894 8.93514L78.642 9.2371C78.8623 8.80558 78.9607 8.42607 78.9371 8.09858C78.9259 7.76496 78.8272 7.48967 78.6407 7.27271C78.4636 7.05888 78.2394 6.90664 77.9681 6.81597C77.6313 6.70342 77.3113 6.69441 77.008 6.78894C76.7048 6.88347 76.4261 7.07384 76.172 7.36006C75.9272 7.64941 75.7227 8.03467 75.5583 8.51583C75.3023 9.26535 75.2795 9.866 75.49 10.3178C75.7005 10.7696 76.063 11.0815 76.5775 11.2534C76.8301 11.3378 77.0469 11.3742 77.2281 11.3626C77.4186 11.3541 77.5827 11.3161 77.7203 11.2487C77.8705 11.1752 77.9958 11.0831 78.0962 10.9723C78.1997 10.8522 78.2923 10.7337 78.374 10.6167L80.2198 11.6665C80.0374 11.987 79.8176 12.2641 79.5606 12.4978C79.3068 12.7222 79.0079 12.8955 78.6639 13.0177C78.3231 13.1306 77.9372 13.1769 77.5064 13.1567C77.0724 13.1457 76.5841 13.0495 76.0416 12.8682Z" fill="#3A1916"/>
<path d="M84.0628 16.3453C83.242 15.9166 82.7525 15.3904 82.5942 14.7665C82.4493 14.1385 82.6258 13.3582 83.1237 12.4254L84.5622 9.73059L83.5929 9.22438L84.4828 7.65136L85.1246 7.98656C85.4349 8.13753 85.6896 8.20428 85.8887 8.1868C86.1012 8.16525 86.2918 8.03835 86.4604 7.80612L87.0809 7.02018L88.2728 7.64268L87.4637 9.15848L89.1271 10.0272L88.2211 11.7244L86.5577 10.8557L85.2092 13.382C85.0478 13.6843 85.0001 13.941 85.066 14.1522C85.1407 14.3679 85.3265 14.5533 85.6234 14.7084C85.7893 14.795 85.9513 14.8575 86.1094 14.896C86.2763 14.9389 86.4239 14.9553 86.5523 14.945L85.5287 16.8624C85.2119 16.8074 84.9311 16.727 84.6861 16.6211C84.4452 16.5285 84.2375 16.4365 84.0628 16.3453Z" fill="#3A1916"/>
<path d="M94.3197 19.8452L95.5658 18.5106L97.1327 19.9419C97.597 20.366 98.0356 20.5871 98.4486 20.6055C98.8616 20.6238 99.2791 20.4069 99.7012 19.9548C100.076 19.553 100.249 19.1522 100.219 18.7525C100.203 18.3523 99.9662 17.9434 99.5092 17.526L97.877 16.035L99.123 14.7004L100.82 16.251C101.278 16.6684 101.641 17.0999 101.91 17.5455C102.18 17.9911 102.348 18.4441 102.416 18.9045C102.49 19.3578 102.449 19.8122 102.292 20.2676C102.136 20.723 101.853 21.1696 101.445 21.6073C100.922 22.167 100.353 22.5177 99.7366 22.6594C99.1276 22.8078 98.4788 22.7469 97.7902 22.4768C97.1088 22.2133 96.3945 21.7403 95.6473 21.0578L94.3197 19.8452ZM91.196 20.6213L97.8281 13.5176L99.5909 15.1278L92.9588 22.2315L91.196 20.6213Z" fill="#3A1916"/>
<path d="M100.611 30.8355C100.222 30.3061 99.9486 29.7843 99.7906 29.27C99.6325 28.7558 99.5848 28.2589 99.6475 27.7792C99.7181 27.2938 99.894 26.8354 100.175 26.4039C100.47 25.9746 100.873 25.5763 101.384 25.2088C101.88 24.8528 102.391 24.5938 102.919 24.4318C103.447 24.2697 103.961 24.2139 104.462 24.2644C104.977 24.317 105.463 24.4806 105.921 24.7551C106.387 25.0238 106.806 25.411 107.177 25.9167C107.543 26.4145 107.781 26.9133 107.892 27.4132C108.009 27.9209 108 28.416 107.866 28.8985C107.733 29.381 107.475 29.8441 107.093 30.2877C106.719 30.7256 106.23 31.1315 105.625 31.5054L101.999 26.6686L103.017 25.9366L105.805 29.656L104.855 29.3605C105.287 29.1344 105.589 28.8811 105.762 28.6004C105.948 28.3218 106.028 28.0407 106.003 27.7571C105.983 27.4813 105.889 27.2289 105.721 26.9997C105.512 26.7153 105.256 26.5249 104.953 26.4285C104.651 26.3322 104.312 26.3281 103.937 26.4163C103.569 26.5123 103.176 26.7097 102.761 27.0082C102.114 27.4733 101.744 27.9503 101.652 28.4393C101.56 28.9282 101.673 29.39 101.992 29.8246C102.149 30.0379 102.305 30.1917 102.459 30.2858C102.62 30.3878 102.776 30.4507 102.927 30.4745C103.093 30.5004 103.249 30.4969 103.396 30.4639C103.55 30.4252 103.695 30.3815 103.83 30.3327L104.722 32.245C104.386 32.4021 104.045 32.5025 103.699 32.5462C103.36 32.5841 103.015 32.5545 102.663 32.4574C102.319 32.3546 101.977 32.1717 101.637 31.9087C101.29 31.6515 100.948 31.2937 100.611 30.8355Z" fill="#3A1916"/>
<path d="M105.128 38.2563C104.708 37.4375 104.616 36.7282 104.851 36.1285C105.099 35.533 105.699 34.9968 106.65 34.5197L109.397 33.1415L108.902 32.1746L110.547 31.3988L110.875 32.039C111.04 32.3395 111.209 32.5395 111.382 32.639C111.568 32.7428 111.798 32.7481 112.071 32.6548L113.036 32.3677L113.646 33.5567L112.1 34.332L112.951 35.9914L111.22 36.8594L110.37 35.2L107.794 36.492C107.485 36.6466 107.297 36.829 107.227 37.039C107.162 37.2578 107.206 37.5152 107.357 37.8114C107.442 37.9769 107.538 38.1205 107.645 38.2423C107.756 38.3727 107.867 38.4703 107.978 38.5352L106.023 39.5159C105.796 39.29 105.614 39.0639 105.475 38.8375C105.333 38.6243 105.217 38.4305 105.128 38.2563Z" fill="#3A1916"/>
<path d="M109.197 50.3444C109.045 49.5976 109.01 48.9071 109.092 48.2729C109.184 47.6369 109.396 47.0715 109.728 46.5767C110.07 46.0801 110.52 45.6666 111.077 45.3363C111.644 45.004 112.329 44.7578 113.132 44.5975C113.945 44.4354 114.683 44.3978 115.346 44.4849C116.02 44.5796 116.616 44.7894 117.136 45.1142C117.665 45.4371 118.099 45.8588 118.436 46.3793C118.774 46.8998 119.014 47.5095 119.157 48.2084C119.27 48.7637 119.301 49.2857 119.249 49.7742C119.198 50.2627 119.07 50.6968 118.865 51.0764C118.662 51.4655 118.391 51.7887 118.05 52.0459C117.712 52.3127 117.306 52.4934 116.831 52.588L115.829 50.561C116.226 50.4819 116.533 50.3358 116.752 50.1229C116.98 49.908 117.135 49.6578 117.218 49.3722C117.301 49.0867 117.312 48.7955 117.252 48.4987C117.201 48.2498 117.097 48.0115 116.94 47.7838C116.783 47.5561 116.562 47.361 116.277 47.1987C116.003 47.0439 115.66 46.9429 115.248 46.8957C114.835 46.8485 114.343 46.8818 113.772 46.9957C113.037 47.1424 112.452 47.3636 112.019 47.6593C111.597 47.9626 111.312 48.3183 111.164 48.7266C111.017 49.1444 110.99 49.5783 111.082 50.0283C111.183 50.5261 111.368 50.8879 111.635 51.1135C111.912 51.3372 112.227 51.4736 112.58 51.5229C112.942 51.5702 113.297 51.5591 113.646 51.4896L113.742 53.5927C113.218 53.6874 112.713 53.7083 112.229 53.6554C111.747 53.6121 111.304 53.4662 110.901 53.2178C110.499 52.979 110.15 52.6252 109.853 52.1564C109.566 51.6856 109.347 51.0816 109.197 50.3444Z" fill="#3A1916"/>
<path d="M110.146 58.4963C110.148 58.0666 110.233 57.686 110.403 57.3547C110.572 57.0234 110.82 56.7607 111.147 56.5668C111.483 56.3827 111.888 56.2917 112.362 56.2938C112.817 56.2958 113.187 56.3805 113.472 56.5478C113.768 56.7249 113.999 56.9749 114.165 57.298C114.341 57.6308 114.483 58.0222 114.589 58.4719C114.706 58.9217 114.807 59.4301 114.893 59.9969C114.941 60.2999 114.985 60.5492 115.023 60.7447C115.072 60.95 115.145 61.1017 115.243 61.1998C115.342 61.2979 115.48 61.3474 115.658 61.3482C115.914 61.3493 116.127 61.2574 116.296 61.0726C116.474 60.8976 116.564 60.6196 116.566 60.2387C116.567 59.9652 116.519 59.716 116.421 59.4909C116.333 59.2756 116.191 59.0894 115.994 58.9323C115.807 58.7752 115.576 58.6618 115.3 58.5922L115.887 56.5144C116.33 56.6336 116.705 56.8061 117.01 57.0321C117.325 57.2582 117.585 57.5328 117.791 57.856C117.997 58.189 118.144 58.5608 118.231 58.9714C118.327 59.3918 118.375 59.8364 118.373 60.3053C118.369 61.0866 118.238 61.7209 117.979 62.2081C117.72 62.7051 117.323 63.0696 116.789 63.3017C116.265 63.5436 115.588 63.6627 114.758 63.659L113.544 63.6537C113.188 63.6521 112.833 63.6555 112.477 63.6637C112.122 63.6816 111.766 63.6996 111.411 63.7176C111.055 63.7356 110.695 63.7584 110.329 63.7861L110.338 61.7204C110.586 61.6824 110.867 61.6445 111.183 61.6069C111.509 61.579 111.845 61.5561 112.191 61.538L112.192 61.2743C111.807 61.1457 111.458 60.9488 111.143 60.6837C110.828 60.4284 110.583 60.1147 110.407 59.7428C110.231 59.3806 110.144 58.9651 110.146 58.4963ZM111.829 59.5586C111.829 59.7344 111.857 59.9103 111.916 60.0864C111.984 60.2723 112.077 60.4485 112.195 60.6151C112.313 60.7816 112.46 60.9288 112.637 61.0565C112.814 61.194 113.011 61.3024 113.228 61.3814L114.31 61.3569L114.249 61.6643C114.131 61.4977 114.038 61.302 113.97 61.077C113.902 60.8619 113.849 60.637 113.81 60.4024C113.772 60.1776 113.728 59.9527 113.68 59.7279C113.642 59.5128 113.588 59.3173 113.52 59.1412C113.451 58.965 113.358 58.8279 113.24 58.7297C113.122 58.6315 112.954 58.5819 112.737 58.581C112.471 58.5798 112.253 58.6668 112.084 58.8418C111.916 59.0267 111.831 59.2656 111.829 59.5586Z" fill="#3A1916"/>
<path d="M110.042 65.9512L113.68 66.5501L117.757 67.2211L117.436 69.1288L114.772 68.72L114.723 69.009C115.403 69.1903 115.933 69.4061 116.311 69.6565C116.699 69.9085 116.957 70.2184 117.086 70.586C117.212 70.9634 117.233 71.4025 117.149 71.9035C117.133 71.9999 117.112 72.0954 117.086 72.1901C117.058 72.2945 117.019 72.4117 116.967 72.5418L114.471 72.027C114.565 71.884 114.642 71.7234 114.702 71.5452C114.762 71.367 114.804 71.2056 114.828 71.0611C114.89 70.6949 114.87 70.365 114.77 70.0712C114.667 69.787 114.478 69.5429 114.202 69.3391C113.926 69.1352 113.558 68.9755 113.097 68.86L109.649 68.2924L110.042 65.9512Z" fill="#3A1916"/>
<path d="M107.436 76.1011C107.65 75.4816 107.923 74.9598 108.257 74.5357C108.591 74.1116 108.974 73.7867 109.406 73.5609C109.848 73.3382 110.328 73.2162 110.847 73.1948C111.371 73.1858 111.933 73.2821 112.531 73.4836C113.11 73.6788 113.619 73.943 114.057 74.2763C114.495 74.6096 114.838 74.9933 115.085 75.4273C115.338 75.8737 115.483 76.3611 115.52 76.8895C115.567 77.421 115.488 77.9827 115.284 78.5744C115.084 79.1569 114.809 79.637 114.46 80.0146C114.108 80.4015 113.694 80.68 113.218 80.8499C112.742 81.0198 112.211 81.0782 111.624 81.025C111.047 80.975 110.43 80.8135 109.773 80.5406L111.679 74.8217L112.871 75.2232L111.404 79.6198L111.101 78.682C111.537 78.901 111.92 78.9992 112.251 78.9766C112.589 78.9664 112.867 78.8693 113.087 78.6854C113.304 78.5108 113.458 78.2894 113.55 78.0212C113.665 77.6884 113.675 77.3719 113.58 77.0716C113.485 76.7714 113.293 76.4953 113.005 76.2433C112.713 76.0005 112.324 75.7972 111.838 75.6335C111.081 75.3785 110.473 75.3545 110.016 75.5616C109.559 75.7687 109.243 76.1265 109.068 76.6351C108.982 76.8847 108.944 77.0991 108.956 77.2783C108.964 77.4668 109.002 77.6292 109.07 77.7655C109.144 77.9143 109.236 78.0384 109.348 78.138C109.469 78.2407 109.589 78.3325 109.707 78.4136L108.641 80.2368C108.318 80.0556 108.038 79.8376 107.802 79.5828C107.576 79.3312 107.402 79.0351 107.279 78.6946C107.166 78.3572 107.12 77.9754 107.141 77.5493C107.153 77.1201 107.252 76.6373 107.436 76.1011Z" fill="#3A1916"/>
<path d="M103.321 85.8372L111.181 91.5859L109.332 94.0598L101.599 93.4878L101.511 93.6056L106.857 97.37L105.475 99.2195L97.6145 93.4708L99.2964 91.2207L107.473 91.7897L107.57 91.6601L101.929 87.6985L103.321 85.8372Z" fill="#3A1916"/>
<path d="M93.014 97.3671C93.6104 96.8548 94.2401 96.5144 94.903 96.3459C95.5585 96.1838 96.2174 96.2193 96.8798 96.4524C97.5347 96.6918 98.1632 97.1545 98.7653 97.8403C99.3675 98.5261 99.7356 99.206 99.8696 99.88C100.01 100.561 99.9501 101.208 99.6895 101.82C99.428 102.446 99.0028 103.011 98.4138 103.517C97.81 104.036 97.1803 104.376 96.5248 104.539C95.8619 104.707 95.1992 104.675 94.5369 104.442C93.881 104.216 93.252 103.76 92.6498 103.074C92.0347 102.374 91.6607 101.68 91.5276 100.992C91.3946 100.304 91.462 99.6511 91.73 99.0328C92.0045 98.4219 92.4325 97.8667 93.014 97.3671ZM94.0944 98.7093C93.8334 98.9335 93.6653 99.1814 93.59 99.4531C93.5211 99.7322 93.5557 100.032 93.6939 100.353C93.8246 100.681 94.0518 101.029 94.3755 101.398C94.7186 101.789 95.0552 102.075 95.3852 102.257C95.7143 102.453 96.0372 102.538 96.3541 102.512C96.6699 102.499 96.9732 102.368 97.264 102.118C97.5175 101.901 97.6786 101.652 97.7475 101.373C97.8164 101.094 97.7854 100.791 97.6548 100.463C97.5241 100.136 97.2969 99.7874 96.9732 99.4187C96.4422 98.814 95.9322 98.4565 95.4431 98.3463C94.954 98.2361 94.5044 98.3571 94.0944 98.7093Z" fill="#3A1916"/>
<path d="M87.074 102.258L92.375 108.242L90.1719 109.386L86.5584 104.628L86.3223 104.75L88.0344 110.497L85.5428 111.791L81.7064 107.148L81.4572 107.277L83.3922 112.908L81.2416 114.025L79.2714 106.311L82.1695 104.806L85.8135 109.433L86.0495 109.31L84.2152 103.743L87.074 102.258Z" fill="#3A1916"/>
<path d="M70.9983 113.169L72.9359 114.053L71.6524 115.745L71.7068 115.869L73.8431 115.685L73.6285 117.83L71.5709 117.104L71.4977 117.192L72.3386 119.18L70.1718 119.595L70.2034 117.44L70.0876 117.387L68.4951 118.811L67.4416 116.893L69.4818 116.294L69.4856 116.159L67.6715 115.059L69.1369 113.525L70.3832 115.272L70.5141 115.247L70.9983 113.169Z" fill="#3A1916"/>
<path d="M56.3527 109.602C57.1499 109.667 57.8534 109.905 58.4634 110.317C59.0627 110.737 59.5192 111.328 59.8329 112.088C60.1368 112.848 60.2441 113.768 60.1549 114.848C60.0889 115.647 59.9265 116.354 59.6676 116.97C59.3989 117.585 59.0397 118.095 58.5902 118.5C58.1301 118.913 57.5852 119.212 56.9558 119.397C56.3255 119.591 55.602 119.655 54.7851 119.589C54.1651 119.539 53.6151 119.421 53.1351 119.235C52.6444 119.058 52.2328 118.824 51.9002 118.533C51.5668 118.251 51.3165 117.922 51.1494 117.546C50.9823 117.17 50.9173 116.758 50.9543 116.31L53.2512 115.849C53.2305 116.22 53.2937 116.533 53.4409 116.79C53.5882 117.047 53.8038 117.256 54.0877 117.416C54.3619 117.575 54.681 117.669 55.0452 117.699C55.5471 117.739 55.9848 117.657 56.3584 117.452C56.7214 117.256 57.0156 116.932 57.2412 116.48C57.4569 116.027 57.5937 115.45 57.6516 114.749C57.6942 114.233 57.6828 113.772 57.6173 113.365C57.5412 112.966 57.4107 112.628 57.2257 112.348C57.0407 112.068 56.8062 111.849 56.5222 111.689C56.2284 111.528 55.8748 111.43 55.4615 111.397C55.058 111.364 54.7034 111.399 54.3977 111.502C54.0912 111.615 53.8389 111.79 53.6409 112.029C53.442 112.278 53.3216 112.596 53.2796 112.985L54.992 113.123L54.8546 114.788L50.8097 114.461L50.9628 112.606L51.2281 109.394L52.8519 109.525L52.6801 111.966L52.9606 111.989C53.1655 111.427 53.4173 110.958 53.7159 110.58C54.004 110.211 54.3631 109.941 54.7933 109.77C55.2227 109.609 55.7425 109.553 56.3527 109.602Z" fill="#3A1916"/>
<path d="M45.2773 107.593C45.9109 107.781 46.448 108.032 46.8886 108.347C47.3292 108.661 47.6714 109.028 47.9153 109.447C48.1563 109.876 48.297 110.346 48.3375 110.858C48.3656 111.376 48.2888 111.935 48.107 112.533C47.9308 113.113 47.6824 113.626 47.3616 114.071C47.0408 114.516 46.6656 114.869 46.2361 115.129C45.7943 115.395 45.3072 115.556 44.7747 115.612C44.2394 115.677 43.6691 115.62 43.0638 115.44C42.4681 115.263 41.9731 115.009 41.5788 114.678C41.1751 114.344 40.8787 113.944 40.6898 113.48C40.5008 113.016 40.4225 112.493 40.4549 111.911C40.4844 111.339 40.6251 110.723 40.877 110.063L46.7241 111.74L46.3618 112.933L41.8666 111.643L42.803 111.309C42.5976 111.748 42.5123 112.13 42.5472 112.457C42.5698 112.79 42.678 113.062 42.8718 113.272C43.0561 113.48 43.2854 113.625 43.5597 113.706C43.9001 113.807 44.2202 113.805 44.5201 113.701C44.82 113.596 45.0919 113.397 45.3361 113.102C45.5707 112.805 45.762 112.413 45.9097 111.926C46.1398 111.169 46.1419 110.567 45.9161 110.123C45.6902 109.679 45.3172 109.379 44.7971 109.224C44.5418 109.149 44.3238 109.119 44.1431 109.137C43.953 109.152 43.7903 109.196 43.655 109.267C43.5075 109.346 43.3854 109.442 43.2889 109.556C43.1896 109.68 43.1011 109.801 43.0235 109.921L41.1427 108.934C41.314 108.608 41.5241 108.323 41.7729 108.081C42.0189 107.848 42.3117 107.665 42.6513 107.531C42.9881 107.407 43.3721 107.348 43.8033 107.353C44.2375 107.35 44.7288 107.43 45.2773 107.593Z" fill="#3A1916"/>
<path d="M37.1457 104.391C37.9807 104.792 38.488 105.302 38.6676 105.92C38.834 106.543 38.6843 107.329 38.2187 108.278L36.8734 111.019L37.8595 111.493L37.024 113.095L36.3711 112.781C36.0558 112.641 35.799 112.582 35.6006 112.607C35.3889 112.635 35.2028 112.768 35.0423 113.006L34.449 113.812L33.2365 113.23L33.9932 111.688L32.3009 110.876L33.1482 109.149L34.8404 109.962L36.1016 107.392C36.2525 107.084 36.2914 106.826 36.2183 106.617C36.1362 106.404 35.9442 106.225 35.6422 106.08C35.4734 105.999 35.3093 105.942 35.1499 105.909C34.9817 105.871 34.8336 105.86 34.7057 105.874L35.6629 103.924C35.9814 103.968 36.2649 104.039 36.5133 104.137C36.7572 104.221 36.968 104.306 37.1457 104.391Z" fill="#3A1916"/>
<path d="M26.7712 101.231L25.5711 102.607L23.9566 101.228C23.4782 100.82 23.0323 100.613 22.6189 100.609C22.2055 100.604 21.7956 100.835 21.3891 101.3C21.0278 101.714 20.8689 102.121 20.9125 102.519C20.9421 102.919 21.1924 103.319 21.6633 103.721L23.3451 105.157L22.145 106.533L20.3959 105.039C19.925 104.637 19.5474 104.218 19.2629 103.782C18.9785 103.345 18.7948 102.898 18.7118 102.44C18.6224 101.989 18.6481 101.534 18.7889 101.074C18.9298 100.613 19.197 100.158 19.5906 99.7066C20.0938 99.1299 20.651 98.7605 21.2621 98.5984C21.8656 98.43 22.5161 98.4693 23.2136 98.7164C23.9035 98.9571 24.6335 99.4062 25.4034 100.064L26.7712 101.231ZM29.8669 100.352L23.4792 107.672L21.6629 106.121L28.0506 98.8014L29.8669 100.352Z" fill="#3A1916"/>
<path d="M20.1122 90.4563C20.5188 90.9725 20.8099 91.4849 20.9853 91.9935C21.1608 92.5022 21.2254 92.9973 21.1791 93.4788C21.125 93.9662 20.9648 94.4303 20.6985 94.8708C20.4183 95.3097 20.029 95.7213 19.5306 96.1055C19.0477 96.4778 18.5452 96.7536 18.0232 96.9332C17.5012 97.1127 16.989 97.1856 16.4866 97.1518C15.9705 97.1164 15.4788 96.9691 15.0118 96.71C14.537 96.4568 14.1053 96.0838 13.7168 95.5907C13.3344 95.1054 13.0793 94.6148 12.9515 94.1189C12.8177 93.6153 12.8094 93.1202 12.9267 92.6335C13.044 92.1469 13.286 91.6755 13.6527 91.2194C14.0117 90.7693 14.4867 90.3474 15.0779 89.9536L18.8666 94.667L17.8736 95.4325L14.9615 91.8079L15.9204 92.0717C15.4963 92.312 15.203 92.5752 15.0405 92.8615C14.8641 93.1461 14.7933 93.4297 14.8283 93.7123C14.8571 93.9873 14.9595 94.2365 15.1356 94.4599C15.3541 94.7372 15.6162 94.919 15.922 95.0052C16.2278 95.0915 16.5664 95.0843 16.9379 94.9837C17.3032 94.8754 17.6884 94.6651 18.0934 94.3529C18.7243 93.8666 19.0775 93.3776 19.1533 92.8858C19.229 92.394 19.0999 91.9363 18.7661 91.5126C18.6022 91.3046 18.4414 91.1561 18.2837 91.0671C18.1199 90.9705 17.9618 90.9128 17.8094 90.8941C17.6431 90.8737 17.4872 90.8825 17.3418 90.9203C17.1885 90.9641 17.0452 91.0127 16.9119 91.0659L15.9552 89.1844C16.2859 89.0162 16.6235 88.9045 16.9682 88.8493C17.305 88.8002 17.651 88.8182 18.0062 88.9036C18.3535 88.9949 18.7014 89.1663 19.0498 89.4178C19.406 89.6633 19.7601 90.0095 20.1122 90.4563Z" fill="#3A1916"/>
<path d="M15.3445 83.1939C15.7921 83.9982 15.9087 84.704 15.6943 85.3113C15.4665 85.9147 14.8855 86.4707 13.9512 86.9794L11.2523 88.4488L11.7808 89.3986L10.1634 90.229L9.81339 89.6001C9.6381 89.3053 9.4624 89.1111 9.2863 89.0174C9.09679 88.9199 8.86708 88.9224 8.59717 89.0247L7.64209 89.344L6.99217 88.176L8.51033 87.3495L7.6033 85.7195L9.30313 84.794L10.2102 86.4241L12.7404 85.0465C13.0432 84.8816 13.2257 84.6931 13.2879 84.4808C13.3454 84.26 13.2932 84.0041 13.1313 83.7132C13.0408 83.5506 12.9402 83.4103 12.8294 83.2923C12.7139 83.1656 12.5996 83.0717 12.4867 83.0106L14.4071 81.965C14.6412 82.1832 14.8312 82.4031 14.9771 82.6247C15.1268 82.833 15.2493 83.0228 15.3445 83.1939Z" fill="#3A1916"/>
<path d="M10.8659 71.2586C11.0439 71.9998 11.1028 72.6887 11.0425 73.3253C10.9726 73.9641 10.7802 74.5364 10.4652 75.042C10.1406 75.55 9.70563 75.9784 9.1602 76.3274C8.60516 76.6787 7.92895 76.948 7.13157 77.1353C6.32458 77.3249 5.58856 77.3874 4.92351 77.3228C4.24657 77.251 3.64289 77.0615 3.11245 76.7545C2.57241 76.4497 2.12459 76.0429 1.769 75.5342C1.41341 75.0254 1.15232 74.4242 0.985744 73.7305C0.853395 73.1793 0.804508 72.6588 0.839083 72.1688C0.873657 71.6788 0.986651 71.2406 1.17806 70.8544C1.36719 70.4586 1.62742 70.1264 1.95874 69.8578C2.28777 69.5797 2.68766 69.3854 3.1584 69.2748L4.23041 71.2666C3.83653 71.3591 3.53409 71.5155 3.3231 71.7358C3.1025 71.9582 2.95576 72.2136 2.88287 72.5017C2.80998 72.7899 2.80891 73.0813 2.87965 73.3759C2.93898 73.623 3.05114 73.8576 3.21615 74.0799C3.38115 74.3021 3.60885 74.4895 3.89922 74.6422C4.17771 74.7876 4.52392 74.8769 4.93787 74.9101C5.35181 74.9434 5.84219 74.8934 6.40901 74.7602C7.13914 74.5887 7.71562 74.3479 8.13844 74.0377C8.54937 73.7203 8.82197 73.3551 8.95622 72.9421C9.08818 72.5196 9.10054 72.085 8.9933 71.6384C8.87464 71.1442 8.67769 70.7889 8.40244 70.5725C8.11759 70.3583 7.79815 70.2326 7.44413 70.1953C7.0805 70.1603 6.72576 70.1834 6.37991 70.2647L6.2109 68.1661C6.73196 68.0537 7.23537 68.0158 7.72113 68.0522C8.2046 68.0792 8.65211 68.2099 9.06366 68.4445C9.47293 68.6696 9.8341 69.0114 10.1472 69.4699C10.4506 69.9307 10.6902 70.5269 10.8659 71.2586Z" fill="#3A1916"/>
<path d="M9.6381 63.1578C9.65082 63.5873 9.57819 63.9705 9.42022 64.3073C9.26226 64.6441 9.02331 64.9148 8.70337 65.1195C8.37328 65.3148 7.97135 65.4192 7.49759 65.4329C7.04357 65.4461 6.67099 65.3738 6.37984 65.2161C6.07854 65.049 5.83923 64.8067 5.6619 64.4894C5.47442 64.1626 5.31974 63.7763 5.19788 63.3303C5.06615 62.8846 4.94749 62.38 4.8419 61.8163C4.78359 61.5151 4.73181 61.2674 4.68655 61.0733C4.63113 60.8697 4.55263 60.7205 4.45104 60.6257C4.34945 60.531 4.20982 60.4862 4.03216 60.4913C3.77554 60.4987 3.56608 60.5976 3.40378 60.788C3.23132 60.9689 3.15072 61.2497 3.16199 61.6304C3.17008 61.9038 3.2268 62.1513 3.33214 62.373C3.42733 62.5852 3.57594 62.7666 3.77796 62.9171C3.97012 63.0678 4.20538 63.1734 4.48377 63.2337L3.96792 65.3299C3.5203 65.2257 3.14018 65.0657 2.82756 64.85C2.50507 64.6346 2.23543 64.3688 2.01862 64.0526C1.80152 63.7267 1.64249 63.36 1.54153 62.9525C1.4304 62.5356 1.3679 62.0928 1.35403 61.6241C1.33092 60.8431 1.44045 60.2048 1.68262 59.7092C1.92451 59.2039 2.30848 58.8264 2.83452 58.5766C3.35041 58.3174 4.0229 58.1758 4.85198 58.1518L6.066 58.1166C6.42132 58.1063 6.7765 58.0911 7.13153 58.0711C7.48628 58.0413 7.84102 58.0115 8.19577 57.9817C8.55051 57.9518 8.91004 57.917 9.27437 57.8771L9.33548 59.942C9.08989 59.9882 8.80975 60.0354 8.49506 60.0836C8.17021 60.1223 7.83535 60.1564 7.49048 60.186L7.49828 60.4496C7.88697 60.5653 8.24314 60.7504 8.56678 61.0049C8.89013 61.2496 9.14613 61.5549 9.33477 61.9207C9.52313 62.2768 9.62424 62.6891 9.6381 63.1578ZM7.91912 62.1522C7.91392 61.9765 7.87911 61.8016 7.81469 61.6276C7.7401 61.4441 7.64114 61.2711 7.51779 61.1086C7.39443 60.946 7.24205 60.8039 7.06063 60.6821C6.87892 60.5505 6.67834 60.4489 6.45889 60.3771L5.37899 60.4376L5.42911 60.1284C5.55246 60.2909 5.652 60.4835 5.72774 60.706C5.80319 60.9188 5.86412 61.1418 5.91053 61.375C5.95666 61.5984 6.00772 61.8216 6.06372 62.0447C6.10955 62.2584 6.16962 62.4521 6.24391 62.6258C6.3182 62.7995 6.41601 62.9335 6.53734 63.0277C6.65867 63.1219 6.82791 63.1658 7.04505 63.1596C7.31154 63.1518 7.52608 63.0577 7.68867 62.8771C7.85097 62.6867 7.92779 62.4451 7.91912 62.1522Z" fill="#3A1916"/>
<path d="M9.48975 55.6617L5.83351 55.1837L1.73675 54.648L1.99294 52.7308L4.66926 53.0512L4.70808 52.7607C4.0221 52.602 3.48584 52.4038 3.09928 52.1661C2.70293 51.9271 2.4344 51.626 2.29369 51.2628C2.15428 50.8899 2.11821 50.4517 2.1855 49.9482C2.19843 49.8513 2.21627 49.7551 2.239 49.6596C2.26302 49.5544 2.29877 49.4359 2.34625 49.3042L4.85827 49.736C4.76904 49.882 4.69745 50.0451 4.6435 50.2252C4.58955 50.4053 4.55287 50.568 4.53346 50.7133C4.48429 51.0812 4.51501 51.4103 4.62562 51.7007C4.73752 51.9813 4.93485 52.2189 5.21761 52.4135C5.50038 52.6081 5.87411 52.7555 6.33881 52.8557L9.80417 53.3087L9.48975 55.6617Z" fill="#3A1916"/>
<path d="M11.7468 45.4444C11.555 46.0707 11.2995 46.6013 10.9805 47.0364C10.6615 47.4715 10.2898 47.8091 9.86539 48.0493C9.43155 48.2867 8.9559 48.4248 8.43844 48.4635C7.9144 48.4902 7.34998 48.4128 6.74519 48.2315C6.1593 48.0559 5.6417 47.8089 5.19241 47.4905C4.74311 47.1721 4.3876 46.8002 4.12587 46.3748C3.85756 45.9371 3.69577 45.4549 3.64052 44.928C3.57581 44.3984 3.63509 43.8344 3.81837 43.2362C3.99879 42.6473 4.25696 42.1583 4.59286 41.7691C4.93164 41.3705 5.33584 41.0784 5.80548 40.8926C6.27511 40.7068 6.80402 40.6306 7.39221 40.664C7.97095 40.6946 8.59335 40.8353 9.25942 41.0859L7.55061 46.8656L6.34575 46.5044L7.66065 42.061L7.99568 42.9881C7.55268 42.7839 7.16609 42.6986 6.83592 42.7323C6.49916 42.7538 6.2241 42.8602 6.01076 43.0514C5.80028 43.2332 5.65352 43.4597 5.57047 43.7308C5.46737 44.0673 5.46837 44.3839 5.57346 44.6808C5.67855 44.9776 5.87971 45.2472 6.17695 45.4894C6.47706 45.7222 6.8728 45.9123 7.3642 46.0596C8.12964 46.289 8.7373 46.2926 9.18717 46.0702C9.63705 45.8479 9.94074 45.4796 10.0983 44.9655C10.1756 44.7132 10.2055 44.4976 10.188 44.3189C10.1734 44.1308 10.1299 43.9698 10.0575 43.8358C9.97843 43.6896 9.88136 43.5687 9.76624 43.4729C9.64168 43.3744 9.51897 43.2865 9.39813 43.2095L10.4007 41.3515C10.7303 41.5218 11.0172 41.7302 11.2615 41.977C11.4963 42.2208 11.6809 42.5109 11.8152 42.8471C11.94 43.1805 11.999 43.5605 11.9921 43.9871C11.9947 44.4165 11.9129 44.9023 11.7468 45.4444Z" fill="#3A1916"/>
<path d="M15.5235 35.5792L7.47192 30.0957L9.23583 27.5616L16.9836 27.8756L17.0676 27.7549L11.5961 24.1708L12.9148 22.2763L20.9665 27.7598L19.3621 30.0646L11.1703 29.7685L11.0779 29.9012L16.8507 33.6727L15.5235 35.5792Z" fill="#3A1916"/>
<path d="M25.4356 23.7085C24.8569 24.2403 24.2391 24.6014 23.5822 24.7917C22.9326 24.9754 22.2729 24.9618 21.603 24.7509C20.9403 24.5332 20.2965 24.0917 19.6714 23.4262C19.0464 22.7608 18.6555 22.0935 18.4987 21.4243C18.3352 20.748 18.3733 20.0997 18.6129 19.4795C18.8531 18.8455 19.2589 18.266 19.8304 17.7408C20.4163 17.2023 21.0341 16.8412 21.6838 16.6575C22.3406 16.4671 23.004 16.4774 23.6739 16.6884C24.337 16.8922 24.9811 17.3269 25.6062 17.9923C26.2447 18.6721 26.642 19.3535 26.7983 20.0364C26.9546 20.7194 26.9093 21.3743 26.6624 22.0011C26.4088 22.6208 25.9999 23.1899 25.4356 23.7085ZM24.3103 22.4028C24.5635 22.1701 24.7232 21.9168 24.7893 21.6427C24.8486 21.3615 24.8038 21.0627 24.6549 20.7463C24.5132 20.4233 24.2743 20.0828 23.9383 19.7251C23.5821 19.3458 23.236 19.0706 22.9 18.8994C22.5645 18.7145 22.2389 18.6404 21.9231 18.6773C21.6078 18.7004 21.3091 18.8416 21.027 19.1008C20.781 19.3269 20.6284 19.5805 20.569 19.8617C20.5096 20.1429 20.5508 20.445 20.6925 20.7681C20.8342 21.0911 21.0731 21.4315 21.4091 21.7893C21.9603 22.3761 22.4821 22.7164 22.9747 22.8104C23.4673 22.9043 23.9125 22.7684 24.3103 22.4028Z" fill="#3A1916"/>
<path d="M31.2049 18.6235L25.7024 12.8203L27.8651 11.6031L31.6392 16.2383L31.8709 16.1079L29.9635 10.4221L32.4094 9.04545L36.4023 13.5575L36.6469 13.4199L34.5207 7.85721L36.6319 6.66896L38.8645 14.3125L36.0195 15.9137L32.2195 11.4111L31.9878 11.5415L34.0113 17.044L31.2049 18.6235Z" fill="#3A1916"/>
<path d="M46.8929 7.18197L44.9261 6.36458L46.1506 4.62966L46.092 4.50766L43.9633 4.76392L44.104 2.61298L46.1854 3.26916L46.2555 3.17815L45.3467 1.2196L47.4981 0.732776L47.5406 2.88736L47.6581 2.9359L49.2008 1.45962L50.3196 3.3406L48.3011 4.00776L48.302 4.14283L50.1528 5.18182L48.741 6.76376L47.4354 5.06033L47.3054 5.08974L46.8929 7.18197Z" fill="#3A1916"/>
</svg>
