<svg width="40" height="40" viewBox="0 0 40 40" fill="none" xmlns="http://www.w3.org/2000/svg">
<path d="M13.846 18.4619H8.46136C7.82029 18.4619 7.27529 18.2376 6.82653 17.7888C6.37802 17.3401 6.15346 16.7952 6.15346 16.154V15.3851C6.15346 13.6863 6.75454 12.2361 7.95661 11.034C9.15859 9.83238 10.609 9.2313 12.3077 9.2313H13.846C14.2626 9.2313 14.6231 9.07899 14.9277 8.77462C15.2321 8.47008 15.3844 8.10964 15.3844 7.69295V4.61575C15.3844 4.19915 15.2321 3.83837 14.9277 3.53383C14.6232 3.22971 14.2627 3.07715 13.846 3.07715H12.3077C10.6409 3.07715 9.05065 3.40198 7.53605 4.05071C6.02161 4.69986 4.71169 5.57735 3.60578 6.68327C2.49995 7.78868 1.62271 9.09869 0.973642 10.6133C0.324576 12.1277 0 13.7184 0 15.385V32.3077C0 33.5904 0.448512 34.6796 1.34596 35.5774C2.24349 36.4747 3.33349 36.9233 4.61546 36.9233H13.8466C15.1285 36.9233 16.2182 36.4747 17.1158 35.5774C18.0131 34.6796 18.4618 33.5904 18.4618 32.3077V23.0774C18.4618 21.7949 18.0131 20.7057 17.1152 19.8079C16.218 18.9107 15.1279 18.4619 13.846 18.4619Z" fill="#3A1916"/>
<path d="M38.6546 19.8079C37.7574 18.9107 36.6677 18.4619 35.3855 18.4619H30.0009C29.3601 18.4619 28.8146 18.2376 28.3666 17.7888C27.9177 17.3401 27.6936 16.7952 27.6936 16.154V15.3851C27.6936 13.6863 28.2946 12.2361 29.4961 11.034C30.6977 9.83238 32.148 9.2313 33.8475 9.2313H35.3855C35.8022 9.2313 36.1629 9.07899 36.4673 8.77462C36.7715 8.47008 36.9243 8.10964 36.9243 7.69295V4.61575C36.9243 4.19915 36.7716 3.83837 36.4673 3.53383C36.163 3.22971 35.8023 3.07715 35.3855 3.07715H33.8475C32.1798 3.07715 30.5899 3.40198 29.0749 4.05071C27.5607 4.69986 26.2512 5.57735 25.1453 6.68327C24.0394 7.78868 23.1617 9.09869 22.5129 10.6133C21.864 12.1277 21.539 13.7184 21.539 15.385V32.3077C21.539 33.5904 21.9879 34.6796 22.8851 35.5774C23.7824 36.4747 24.8722 36.9233 26.1543 36.9233H35.3849C36.6672 36.9233 37.7568 36.4747 38.654 35.5774C39.5519 34.6796 39.9999 33.5904 39.9999 32.3077V23.0774C40 21.7948 39.5519 20.7057 38.6546 19.8079Z" fill="#3A1916"/>
</svg>
