<svg width="85" height="96" viewBox="0 0 85 96" fill="none" xmlns="http://www.w3.org/2000/svg">
<path d="M84.0536 85.6616L66.5463 74.1971L70.3004 84.662L65.542 95.4284L84.0536 85.6616Z" fill="#E25E52"/>
<path d="M77.263 83.4213C77.2964 83.5716 77.1461 83.7718 76.829 83.9889C76.662 84.1057 76.4617 84.2226 76.228 84.3395C76.1112 84.4063 75.9777 84.473 75.8274 84.5398L75.6104 84.64C75.527 84.6734 75.4602 84.7068 75.3767 84.7402C75.0429 84.8737 74.6757 85.0073 74.2751 85.1409C74.1749 85.1743 74.0748 85.2077 73.958 85.2411C73.8578 85.2745 73.741 85.3079 73.6241 85.3413C73.4071 85.4081 73.1734 85.4582 72.9231 85.525C72.439 85.6419 71.9216 85.7922 71.3541 85.8924C71.0703 85.9425 70.7866 86.0093 70.4861 86.0595C70.3359 86.0929 70.1857 86.1096 70.0355 86.143C69.8852 86.1764 69.735 86.1931 69.5681 86.2098C67.0811 86.5774 64.0433 86.7447 60.7052 86.4948C60.4882 86.4781 60.2879 86.4782 60.0709 86.4448L59.4367 86.3781C59.0027 86.3281 58.5854 86.2948 58.1348 86.2281C57.7008 86.1614 57.2502 86.0947 56.8162 86.028C56.5992 85.9946 56.3656 85.9613 56.1486 85.9279C55.9316 85.8779 55.698 85.8445 55.481 85.7945C55.264 85.7445 55.0303 85.7111 54.8134 85.661C54.5797 85.611 54.3627 85.5777 54.129 85.5109C53.6784 85.4109 53.2278 85.2941 52.7604 85.194C52.6436 85.1606 52.5268 85.144 52.4099 85.1106L52.0928 85.0439C51.8591 84.9771 51.6422 84.9104 51.4085 84.8437C51.1748 84.7769 50.9412 84.7102 50.7242 84.6435C50.4905 84.5767 50.2569 84.4933 50.0399 84.4266C49.8063 84.3598 49.5392 84.2597 49.2555 84.1763C49.1053 84.1263 48.955 84.0762 48.7881 84.0262C48.6212 83.9761 48.4543 83.9094 48.2874 83.8426C47.937 83.7091 47.5531 83.5757 47.1525 83.4255C47.0524 83.3921 46.9522 83.3588 46.8354 83.3087C46.7353 83.2587 46.6184 83.2253 46.5183 83.1752C46.3013 83.0918 46.0843 82.9917 45.8507 82.9083C44.0148 82.1574 41.7783 81.1229 39.3083 79.6878C38.6908 79.3207 38.0566 78.9535 37.4057 78.5363C37.0719 78.3528 36.7548 78.1359 36.421 77.9189C36.1039 77.702 35.7701 77.4684 35.4363 77.2347C35.2694 77.1179 35.1025 77.0011 34.9356 76.8843C34.8522 76.8342 34.7687 76.7675 34.6853 76.7007C34.6019 76.634 34.5184 76.5839 34.435 76.5171C34.1012 76.2668 33.7674 76.0165 33.4169 75.7662C33.25 75.6494 33.0831 75.4992 32.9162 75.3657C32.7494 75.2322 32.5825 75.0987 32.4156 74.9652C32.0818 74.6815 31.7313 74.4144 31.3975 74.114C31.0638 73.8136 30.7133 73.53 30.3628 73.2296C30.2794 73.1628 30.1959 73.0794 30.1125 72.9959C30.029 72.9125 29.9456 72.8457 29.8622 72.7623C29.6953 72.5954 29.5284 72.4452 29.3448 72.2783C29.1779 72.1114 28.9943 71.9612 28.8274 71.7943C28.6606 71.6274 28.4937 71.4605 28.3268 71.2937C28.1599 71.1268 27.993 70.9599 27.8261 70.7763C27.7427 70.6929 27.6592 70.6094 27.5758 70.5093L27.4423 70.3758L27.3255 70.2423C26.9917 69.8918 26.6579 69.5246 26.3242 69.1575C26.2407 69.0573 26.1573 68.9739 26.0738 68.8738C25.9904 68.7736 25.907 68.6902 25.8235 68.5901C25.6566 68.4065 25.5064 68.2062 25.3396 68.0059C25.1727 67.8057 25.0058 67.6221 24.8556 67.4218C24.7054 67.2215 24.5385 67.0213 24.3883 66.821C24.2382 66.6207 24.0713 66.4204 23.9211 66.2035C23.8376 66.1033 23.7542 66.0032 23.6874 65.9031C23.604 65.8029 23.5373 65.6861 23.4538 65.586C23.1534 65.1521 22.8364 64.7348 22.536 64.3009C22.3858 64.0839 22.2356 63.867 22.0854 63.6333C21.9352 63.4163 21.8017 63.1827 21.6516 62.9657C21.0675 62.0645 20.5168 61.1132 19.9829 60.1285C19.4489 59.1438 18.9483 58.1424 18.4978 57.0742C18.0473 56.0227 17.6302 54.9378 17.2798 53.8029C17.1797 53.5191 17.113 53.2354 17.0296 52.9517C16.9461 52.6679 16.8794 52.3842 16.796 52.0838C16.7293 51.8 16.6626 51.4996 16.5958 51.2159C16.5625 51.0657 16.5291 50.9321 16.4957 50.7819C16.4624 50.6317 16.429 50.4815 16.4123 50.3313C16.1955 49.1462 16.0288 47.9445 15.9455 46.726C15.9289 46.4256 15.8955 46.1085 15.8789 45.8081C15.8789 45.5076 15.8623 45.1905 15.8623 44.89C15.829 44.2725 15.8625 43.6549 15.8792 43.0373C15.8793 42.7202 15.9127 42.4197 15.9295 42.1026C15.9462 41.8022 15.9796 41.485 15.9963 41.1679C16.0298 40.8674 16.0632 40.5503 16.1133 40.2332L16.1634 39.7658L16.1802 39.649L16.1969 39.5321L16.2303 39.2984C16.2804 38.9813 16.3305 38.6809 16.3806 38.3637L16.414 38.13C16.4307 38.0466 16.4474 37.9798 16.4641 37.8964L16.5644 37.429C16.6312 37.1285 16.698 36.8114 16.7648 36.511C16.8483 36.2105 16.9318 35.8934 17.0153 35.5929L17.1322 35.1422C17.1823 34.992 17.2324 34.8418 17.2825 34.6916C17.3826 34.3911 17.4828 34.0906 17.583 33.7902C17.6331 33.64 17.6832 33.4897 17.75 33.3395L17.917 32.8888L18.0839 32.4381L18.1674 32.2211C18.2008 32.1544 18.2342 32.0709 18.2676 32.0041C18.4012 31.7037 18.518 31.4199 18.6516 31.1195C18.7184 30.9692 18.7685 30.819 18.852 30.6855L19.069 30.2515C19.2193 29.9677 19.3528 29.6839 19.5031 29.3835C19.6533 29.0997 19.8036 28.8159 19.9705 28.5321C20.6217 27.4137 21.3562 26.3287 22.1909 25.2938C23.0256 24.2755 23.9604 23.3073 25.0288 22.4559C26.0971 21.6045 27.2656 20.8699 28.5508 20.3189C28.6343 20.2855 28.7178 20.2521 28.7845 20.2187L29.0349 20.1186C29.2018 20.0518 29.3521 20.0017 29.519 19.9349C29.8528 19.818 30.22 19.7178 30.6039 19.6343C30.9878 19.5508 31.4218 19.5007 31.8725 19.5173C32.3231 19.5172 32.8071 19.5839 33.2912 19.7508C33.7418 19.9009 34.1924 20.1345 34.6096 20.4516C35.0102 20.7687 35.344 21.1525 35.5943 21.5698C35.8446 21.987 36.0114 22.4043 36.1282 22.8215C36.245 23.2388 36.3117 23.6394 36.345 24.04C36.4117 24.8244 36.3448 25.5589 36.2279 26.2766C36.0942 26.9777 35.9105 27.662 35.6434 28.3297C35.5766 28.4966 35.5098 28.6635 35.443 28.8305L35.3929 28.9473L35.3429 29.0474L35.2427 29.2644L35.0256 29.6985L34.8086 30.1158C34.7418 30.2493 34.6583 30.3995 34.5916 30.5331L34.3578 30.9504C34.2076 31.2341 34.0406 31.5012 33.8737 31.7683C33.2059 32.8533 32.4713 33.905 31.6533 34.8898C30.8353 35.8747 29.9506 36.7929 28.9824 37.6109C25.143 40.9663 19.9352 42.7029 15.0449 41.9525C12.608 41.5856 10.3549 40.5511 8.50238 39.1493C7.56779 38.4484 6.75004 37.6473 6.01575 36.8129C5.28147 35.9784 4.63065 35.0772 4.07997 34.176C2.94524 32.3568 2.12765 30.4374 1.52703 28.5681C0.926417 26.6821 0.526092 24.8127 0.309359 23.0101C0.276008 22.7931 0.259349 22.5595 0.225997 22.3425C0.209323 22.2257 0.209337 22.1255 0.192662 22.0087C0.192678 21.8918 0.176001 21.7917 0.176017 21.6748C0.159356 21.4579 0.142695 21.2409 0.126034 21.0239C0.109373 20.8069 0.0927125 20.5899 0.0927426 20.373C0.0761118 19.939 0.0594784 19.5217 0.0428453 19.1044C0.0429032 18.6872 0.0429611 18.2699 0.043019 17.8526C0.0599368 16.2169 0.176989 14.6646 0.344098 13.2291C0.394219 12.8786 0.444344 12.5114 0.494466 12.1609C0.544587 11.8103 0.611397 11.4765 0.661516 11.1427C0.694921 10.9757 0.711636 10.8089 0.745041 10.6419C0.778446 10.475 0.811849 10.3248 0.845254 10.1579C0.912062 9.84072 0.978869 9.52358 1.04567 9.22313C1.32959 8.00464 1.61349 6.90299 1.94745 5.91816C2.03094 5.66778 2.09773 5.43411 2.18122 5.20042C2.2647 4.96674 2.34819 4.74973 2.41498 4.53273C2.49847 4.31574 2.56526 4.11545 2.64874 3.91515C2.71553 3.71485 2.79902 3.51454 2.8825 3.33093C2.94929 3.14732 3.03277 2.96368 3.09956 2.79676C3.16634 2.62984 3.23313 2.46293 3.31661 2.3127C3.45017 2.01224 3.58374 1.72848 3.70061 1.4781C3.81748 1.22772 3.93435 1.01069 4.03452 0.827074C4.13469 0.643458 4.21817 0.493228 4.30164 0.359687C4.45189 0.125991 4.53536 0.0091428 4.58544 0.00913586C4.61882 0.0258224 4.6021 0.176061 4.5353 0.443128C4.5019 0.576662 4.45181 0.74356 4.38501 0.943863C4.31822 1.14417 4.23474 1.36117 4.16794 1.62824C4.08445 1.87861 4.00095 2.17907 3.90076 2.49621C3.85067 2.66313 3.80057 2.83006 3.75047 2.99698C3.70038 3.1639 3.65028 3.34749 3.58349 3.54779C3.53339 3.7314 3.4666 3.9317 3.4165 4.132C3.3664 4.3323 3.2996 4.5493 3.2495 4.76629C3.1994 4.98328 3.1326 5.20029 3.06581 5.43398C3.0157 5.66766 2.9489 5.90133 2.8988 6.15171C2.66499 7.13652 2.44785 8.23817 2.24739 9.43996C2.19728 9.7404 2.16386 10.0409 2.11374 10.358C2.09703 10.5082 2.06362 10.6751 2.04691 10.8254C2.0302 10.9923 2.01349 11.1425 1.99677 11.3094C1.96334 11.6432 1.91322 11.9604 1.87979 12.3109C1.84637 12.6447 1.82963 12.9952 1.7962 13.3457C1.69586 14.7478 1.66227 16.25 1.71212 17.819C1.72876 18.2196 1.74539 18.6034 1.76203 19.0207C1.79535 19.4213 1.82868 19.8386 1.862 20.2392C1.94535 21.057 2.02868 21.9083 2.17878 22.7428C2.44561 24.4286 2.87933 26.1811 3.51335 27.9002C4.13067 29.636 4.94829 31.355 6.01629 32.9572C7.08429 34.5594 8.40267 36.0448 10.0048 37.1962C10.8059 37.7636 11.6738 38.2475 12.5917 38.6146C12.8254 38.7147 13.0591 38.7815 13.2927 38.8649C13.4096 38.915 13.5264 38.9483 13.6432 38.9817C13.7601 39.015 13.8769 39.0484 14.0104 39.0818C14.2608 39.1485 14.4944 39.1985 14.7448 39.2486C14.9952 39.2819 15.2455 39.332 15.4959 39.3653C17.4987 39.6154 19.6185 39.3647 21.6049 38.6634C22.6064 38.3128 23.5745 37.862 24.4926 37.3111C25.4107 36.7601 26.2787 36.1091 27.0966 35.3745C28.7159 33.9055 30.1182 32.1193 31.2534 30.1496C31.387 29.8992 31.5372 29.6655 31.6708 29.3985C31.8044 29.1481 31.9379 28.8977 32.0548 28.6473L32.2384 28.2634L32.4221 27.8795L32.5056 27.6792L32.5557 27.579L32.5891 27.4956C32.6392 27.3787 32.6892 27.2619 32.7226 27.145C32.8896 26.6777 33.0232 26.1769 33.09 25.6929C33.1736 25.2088 33.1903 24.7247 33.1403 24.2908C33.0903 23.8568 32.9735 23.5063 32.84 23.2893C32.7733 23.1892 32.7065 23.1058 32.6231 23.0557C32.4394 23.1392 32.3393 23.0891 32.2225 23.0558C32.1223 23.0224 31.9888 23.0057 31.8386 23.0057C31.6884 23.0058 31.4881 23.0392 31.2878 23.0726C31.0875 23.1227 30.8538 23.1895 30.6201 23.273L30.2529 23.4232L30.0693 23.49C30.0025 23.5067 29.9524 23.5401 29.8857 23.5735C27.9828 24.4417 26.2968 25.8941 24.9446 27.6301C24.2601 28.4982 23.6591 29.433 23.1082 30.4178C22.9746 30.6682 22.8411 30.9186 22.7075 31.1523C22.5906 31.4027 22.4738 31.6697 22.3402 31.9201L22.1565 32.3041C22.0898 32.4376 22.0397 32.5711 21.9896 32.688C21.8894 32.955 21.7725 33.2054 21.6723 33.4725C21.639 33.5393 21.6222 33.606 21.5889 33.6728L21.5555 33.8731L21.4219 34.2737L21.2883 34.6743C21.2382 34.8078 21.1881 34.9414 21.1547 35.0749C21.0712 35.342 20.9877 35.609 20.9042 35.8761C20.8708 36.0096 20.8207 36.1432 20.7873 36.2767L20.6871 36.6773C20.6203 36.9444 20.5535 37.2115 20.4867 37.4952C20.4199 37.7623 20.3698 38.046 20.3197 38.3131L20.2195 38.697C20.2028 38.7638 20.1861 38.8305 20.1861 38.8973L20.1527 39.0976C20.1026 39.3814 20.0525 39.6484 20.019 39.9155L19.9856 40.1158L19.9689 40.2159L19.9522 40.3161L19.9021 40.7334C19.8687 41.0004 19.8519 41.2842 19.8185 41.5512C19.8018 41.8183 19.7851 42.1021 19.7683 42.3691C19.7516 42.6362 19.7349 42.9199 19.7348 43.187C19.7348 43.7378 19.718 44.2719 19.7513 44.806C19.768 45.0731 19.7679 45.3401 19.7846 45.6072C19.8012 45.8743 19.8346 46.1413 19.8512 46.4084C19.9345 47.4766 20.118 48.5281 20.3181 49.5462C20.3348 49.6798 20.3682 49.7966 20.4015 49.9301C20.4349 50.0637 20.4683 50.1805 20.4849 50.314C20.5517 50.5644 20.6017 50.8147 20.6684 51.0651C20.7352 51.3154 20.8186 51.5658 20.8853 51.8161C20.952 52.0665 21.0188 52.3169 21.1189 52.5505C21.4526 53.5353 21.8196 54.4866 22.2368 55.4045C22.6539 56.3392 23.1212 57.2238 23.6051 58.1083C24.089 58.9762 24.6063 59.8274 25.157 60.6452C25.2905 60.8455 25.424 61.0457 25.5742 61.2627C25.7077 61.4629 25.8579 61.6632 25.9914 61.8635C26.2751 62.2474 26.5587 62.6312 26.8424 63.0151C26.9092 63.1152 26.9759 63.2153 27.0594 63.2988C27.1261 63.3989 27.2096 63.4824 27.2763 63.5825C27.4265 63.7661 27.5767 63.9497 27.7102 64.1333C27.8604 64.3168 28.0106 64.5004 28.1441 64.684C28.2943 64.8509 28.4445 65.0345 28.5947 65.2014C28.7449 65.3682 28.8951 65.5518 29.0453 65.7187C29.112 65.8022 29.1955 65.8856 29.2622 65.9858C29.329 66.0692 29.4124 66.1526 29.4959 66.2361C29.8129 66.5699 30.1133 66.887 30.4137 67.2207L30.5305 67.3376L30.6474 67.4544C30.7308 67.5378 30.7976 67.6046 30.881 67.688C31.0312 67.8382 31.1981 68.0051 31.3483 68.1553C31.4985 68.3055 31.6654 68.4557 31.8156 68.6059C31.9825 68.7561 32.1327 68.8896 32.2996 69.0398C32.4497 69.19 32.6166 69.3235 32.7668 69.4737C32.8503 69.5405 32.917 69.6239 33.0005 69.6907C33.0839 69.7574 33.1507 69.8409 33.2341 69.9076C33.5512 70.1746 33.8683 70.4416 34.1854 70.7087C34.5025 70.9757 34.8196 71.226 35.1367 71.4763C35.2869 71.5931 35.4538 71.7267 35.604 71.8435C35.7542 71.9603 35.9211 72.0938 36.0713 72.1939C36.3884 72.4275 36.7055 72.6445 37.0059 72.8781C37.0893 72.9282 37.1561 72.9949 37.2395 73.045C37.323 73.0951 37.3897 73.1618 37.4732 73.2119C37.6234 73.312 37.7903 73.4288 37.9405 73.5289C38.2409 73.7292 38.558 73.9461 38.8584 74.1464C39.1588 74.33 39.4592 74.5302 39.7596 74.7137C40.3438 75.0976 40.9446 75.4146 41.512 75.7484C43.7985 77.0333 45.8514 77.951 47.5371 78.6351C47.754 78.7185 47.9543 78.8019 48.1546 78.8854C48.2547 78.9187 48.3549 78.9688 48.455 79.0022C48.5552 79.0355 48.6553 79.0689 48.7388 79.1023C49.1226 79.2358 49.4564 79.3692 49.7902 79.486C49.9571 79.5361 50.1073 79.6028 50.2576 79.6529C50.4078 79.7029 50.5413 79.753 50.6748 79.7864C50.9419 79.8698 51.1922 79.9532 51.3925 80.0199C51.6095 80.0867 51.8097 80.1534 52.0267 80.2201C52.2437 80.2869 52.444 80.3369 52.661 80.4037C52.8779 80.4704 53.0782 80.5204 53.2952 80.5872L53.6123 80.6706C53.7124 80.7039 53.8293 80.7206 53.9294 80.754C54.3467 80.8708 54.7639 80.9708 55.1812 81.0709C55.3815 81.121 55.5985 81.171 55.7987 81.2211C55.999 81.2711 56.216 81.3212 56.4163 81.3545C56.6166 81.4046 56.8169 81.4546 57.0171 81.488C57.2174 81.538 57.4177 81.5714 57.618 81.6047C58.0186 81.6881 58.4191 81.7548 58.8197 81.8382C59.2203 81.9049 59.6042 81.9717 60.0047 82.0384L60.5889 82.1384C60.7892 82.1718 60.9728 82.1884 61.1564 82.2218C64.2108 82.672 66.9982 82.8553 69.3516 82.905C69.5018 82.905 69.652 82.9216 69.7855 82.9216C69.9358 82.9216 70.0693 82.9216 70.2195 82.9216C70.4866 82.9215 70.7703 82.9215 71.0374 82.9381C71.5715 82.9548 72.0722 82.938 72.5562 82.9379C72.7899 82.9379 73.0236 82.9379 73.2406 82.9378C73.3574 82.9378 73.4575 82.9378 73.5577 82.9378C73.6578 82.9378 73.758 82.9378 73.8748 82.9377C74.2754 82.9377 74.6593 82.9377 74.9931 82.9543C75.0766 82.9543 75.16 82.9543 75.2435 82.9709C75.3269 82.9709 75.3937 82.9709 75.4771 82.9709C75.6274 82.9709 75.7776 82.9876 75.9111 82.9875C76.1782 83.0042 76.4118 83.0376 76.5954 83.0709C76.996 83.1543 77.2297 83.2711 77.263 83.4213Z" fill="#E25E52"/>
<path d="M63.8596 86.6126C62.8248 86.6127 61.7733 86.5795 60.7051 86.4962C60.6383 86.4962 60.5548 86.4795 60.4881 86.4795C60.3545 86.4795 60.2043 86.4629 60.0708 86.4462L59.4365 86.3795C59.3197 86.3628 59.1862 86.3462 59.0694 86.3462C58.7689 86.3128 58.4518 86.2795 58.1514 86.2461C57.7174 86.1794 57.2835 86.1127 56.8495 86.046C56.766 86.0294 56.6826 86.0294 56.5991 86.0127C56.4489 85.996 56.2987 85.9627 56.1652 85.946C55.9482 85.8959 55.7145 85.8626 55.4976 85.8126C55.314 85.7792 55.1304 85.7458 54.9468 85.7125L54.8299 85.6958C54.7799 85.6791 54.7465 85.6791 54.6964 85.6624C54.5128 85.6291 54.3292 85.5957 54.1456 85.5457L53.5948 85.4122C53.3278 85.3455 53.0441 85.2788 52.777 85.2121C52.7436 85.1954 52.6936 85.1954 52.6602 85.1787C52.5934 85.162 52.51 85.1453 52.4265 85.1286L52.0927 85.0452C51.8757 84.9785 51.6588 84.9284 51.4251 84.8617L51.3917 84.8617C51.1581 84.795 50.9244 84.7283 50.7074 84.6615C50.5572 84.6115 50.407 84.5614 50.2568 84.5114C50.1733 84.4947 50.1066 84.4613 50.0231 84.4279L49.2387 84.1777C49.1385 84.1443 49.0384 84.111 48.9216 84.0776L48.7714 84.0275C48.6712 83.9942 48.5544 83.9441 48.4542 83.9107C48.3875 83.8941 48.3374 83.8607 48.2706 83.844C48.0704 83.7606 47.8534 83.6938 47.6197 83.6104L47.119 83.4269C47.0857 83.4102 47.0523 83.3935 47.0022 83.3935C46.9354 83.3768 46.8687 83.3435 46.8019 83.3101C46.7018 83.26 46.585 83.2267 46.4848 83.1766C46.2678 83.0932 46.0509 82.9931 45.8172 82.9096C44.7657 82.4758 43.781 82.042 42.7796 81.5581C41.5947 80.974 40.4097 80.3566 39.2748 79.7058C39.158 79.6391 39.0411 79.5724 38.9243 79.4889C38.4236 79.1886 37.9063 78.8882 37.3889 78.5544L37.0551 78.3542C36.8381 78.2207 36.6212 78.0705 36.4042 77.937C36.1372 77.7534 35.8701 77.5698 35.6031 77.3863L35.4195 77.2528C35.3361 77.2027 35.2526 77.136 35.1692 77.0859C35.0857 77.0358 35.0023 76.9691 34.9188 76.919C34.8354 76.869 34.752 76.8022 34.6685 76.7355C34.5851 76.6687 34.5016 76.6187 34.4182 76.5519L34.1178 76.3016C33.8841 76.1347 33.6505 75.9511 33.4168 75.7843C33.2833 75.6841 33.1498 75.584 33.0163 75.4672C32.9829 75.4338 32.9495 75.4171 32.9161 75.3837C32.8494 75.3337 32.7659 75.2669 32.6992 75.2169C32.599 75.1334 32.4989 75.05 32.3988 74.9665C32.3153 74.8998 32.2319 74.833 32.1484 74.7496C31.8981 74.5493 31.6311 74.3324 31.3807 74.1154C31.1805 73.9485 30.9802 73.765 30.7799 73.5981L30.346 73.2309C30.2626 73.1642 30.1791 73.0974 30.0957 72.9973C30.0123 72.9139 29.9288 72.8471 29.8454 72.7637C29.7786 72.6969 29.6952 72.6301 29.6284 72.5634C29.5283 72.4632 29.4281 72.3798 29.328 72.2797L28.8107 71.7957C28.6938 71.6789 28.577 71.5454 28.4435 71.4286L28.31 71.295L27.8093 70.7777C27.7259 70.6942 27.6425 70.6108 27.559 70.5107L27.4255 70.3771L27.3087 70.2436L27.1418 70.0601C26.8748 69.7597 26.5911 69.4593 26.3074 69.1422C26.274 69.1088 26.2406 69.0754 26.2239 69.042C26.1739 68.992 26.1071 68.9252 26.0571 68.8584L25.9903 68.7917C25.9235 68.7249 25.8735 68.6582 25.8067 68.5747L25.6732 68.4579C25.5564 68.3077 25.4229 68.1742 25.3061 68.024C25.1392 67.8237 24.9723 67.6402 24.8221 67.4399L24.7554 67.3564C24.6219 67.1895 24.4884 67.0059 24.3382 66.8391L24.1379 66.5887C24.0378 66.4719 23.9544 66.3384 23.8542 66.2216L23.6206 65.9212C23.5705 65.8544 23.5205 65.7876 23.4704 65.7209C23.437 65.6875 23.4203 65.6541 23.387 65.6041C23.2201 65.3871 23.0699 65.1535 22.903 64.9365C22.7528 64.7362 22.6026 64.5192 22.4691 64.319L22.0186 63.6514C21.9351 63.5179 21.8517 63.401 21.7683 63.2675C21.7015 63.1674 21.6514 63.0839 21.5847 62.9838C20.984 62.0492 20.4166 61.0979 19.916 60.1632C19.3987 59.1451 18.8981 58.1104 18.4643 57.109C17.9971 56.0241 17.5967 54.9225 17.2463 53.8377C17.1629 53.604 17.0962 53.3536 17.0294 53.1033C17.0128 53.0532 17.0128 53.0198 16.9961 52.9698C16.9127 52.686 16.8459 52.419 16.7625 52.1352L16.7625 52.1019C16.7125 51.9349 16.6624 51.7347 16.6291 51.5511C16.6124 51.4509 16.579 51.3508 16.5623 51.2506L16.5123 51.0503C16.4956 50.9669 16.4789 50.8834 16.4623 50.8167C16.4456 50.7833 16.4456 50.7332 16.4289 50.6998C16.4122 50.5997 16.3789 50.4829 16.3622 50.3827C16.112 48.9473 15.9619 47.8457 15.8953 46.7775C15.8953 46.6774 15.8787 46.5772 15.8787 46.4771C15.862 46.2768 15.8454 46.0598 15.8454 45.8595L15.8121 44.9248C15.7955 44.4741 15.8123 44.0068 15.8123 43.5728C15.8123 43.4059 15.8291 43.239 15.8291 43.0888C15.8291 42.8718 15.8458 42.6381 15.8625 42.4211C15.8626 42.3544 15.8793 42.2709 15.8793 42.1874C15.5955 42.1541 15.2951 42.1208 15.0114 42.0874C13.8263 41.904 12.6413 41.5703 11.5231 41.0698C10.4382 40.6026 9.42017 40.0018 8.46889 39.2842C8.01828 38.9505 7.58437 38.5666 7.15046 38.1661C6.74992 37.799 6.36609 37.3817 5.98226 36.9478C5.28135 36.1467 4.63052 35.2622 4.04647 34.3109C3.51248 33.443 3.01188 32.5084 2.57806 31.5237C2.1776 30.6391 1.81053 29.6711 1.49354 28.6863C0.909603 26.8838 0.50928 25.0144 0.275868 23.1283C0.259202 22.9447 0.225843 22.7778 0.209177 22.5942C0.209184 22.5442 0.192501 22.4941 0.192508 22.444L0.19252 22.3606C0.17584 22.2771 0.175852 22.1937 0.159173 22.1102C0.159189 21.9934 0.142511 21.8932 0.142527 21.7764C0.125862 21.5928 0.109199 21.3925 0.109225 21.2089L0.109236 21.1255C0.109243 21.0754 0.109249 21.0253 0.0925654 20.9752C0.0758976 20.8083 0.0759212 20.6414 0.0592534 20.4745C0.0592719 20.341 0.042601 20.1907 0.0426195 20.0572C0.0259679 19.7735 0.0260077 19.4897 0.0093561 19.206L0.00952974 17.9541C0.0264314 16.4352 0.126793 14.883 0.310609 13.3307C0.36073 12.9801 0.410855 12.6129 0.460976 12.2624C0.494391 12.0287 0.527802 11.8117 0.577905 11.5947C0.594612 11.4779 0.61132 11.3611 0.628027 11.2442L0.711551 10.7435L0.711556 10.7101C0.744959 10.5599 0.778361 10.4096 0.795073 10.2594L0.845183 9.99234C0.895289 9.75866 0.94539 9.54168 0.978802 9.3247C1.29612 7.95598 1.58001 6.9044 1.88057 6.01973C1.93066 5.88619 1.96406 5.75266 2.01416 5.61912L2.11435 5.30199C2.16444 5.15176 2.23123 4.98484 2.28132 4.8513C2.29802 4.78453 2.33141 4.71775 2.3648 4.63429L2.59856 4.01668C2.64865 3.88314 2.69875 3.74961 2.74884 3.61607C2.78223 3.5493 2.79893 3.49923 2.83232 3.43246C2.88241 3.29892 2.9325 3.18209 2.98259 3.06525L3.04937 2.89832C3.11616 2.7314 3.18295 2.56449 3.26642 2.41426C3.39999 2.1138 3.53356 1.83001 3.65043 1.57963C3.75061 1.34594 3.86747 1.14564 3.96764 0.978719L3.98434 0.928639C4.08451 0.745022 4.16799 0.594793 4.25146 0.461252C4.38502 0.227558 4.48518 0.110708 4.51856 0.110703C4.55194 0.127389 4.53523 0.277596 4.46843 0.544664C4.43503 0.678197 4.38494 0.845127 4.31814 1.04543C4.30144 1.1122 4.26805 1.17897 4.25135 1.26243C4.20126 1.39597 4.15116 1.56288 4.10107 1.7298C4.01758 1.98018 3.93408 2.28063 3.83389 2.59778C3.7838 2.74801 3.7337 2.91493 3.6836 3.09854C3.63351 3.26546 3.58341 3.44906 3.51662 3.64936C3.49992 3.71613 3.48322 3.7829 3.44982 3.86636C3.41642 3.9832 3.38302 4.11673 3.33293 4.23357L3.26614 4.46725C3.23274 4.60079 3.19934 4.73432 3.16594 4.86786C3.14923 4.95132 3.11584 5.03477 3.09914 5.11822C3.06574 5.25176 3.01565 5.38532 2.98224 5.53554L2.81523 6.25327C2.59813 7.12124 2.3977 8.13944 2.16383 9.54152C2.11372 9.84197 2.08029 10.1424 2.03018 10.4596C2.01346 10.6098 1.99675 10.7433 1.96335 10.8935L1.96334 10.9436L1.91321 11.4276C1.86312 11.5445 1.8631 11.6613 1.84639 11.7782C1.82967 11.9785 1.79626 12.1954 1.77954 12.4124C1.74611 12.7463 1.72937 13.0968 1.69594 13.4473C1.59559 14.9662 1.562 16.4684 1.61187 17.9205L1.66177 19.1223C1.67843 19.3727 1.69509 19.623 1.72843 19.8734C1.7451 20.0236 1.76177 20.1905 1.76175 20.3407C1.84509 21.1419 1.92843 21.9931 2.07853 22.8443C2.36203 24.6136 2.81245 26.3494 3.41309 28.0184C3.73009 28.9197 4.09717 29.7876 4.49765 30.5887C4.93149 31.4733 5.39872 32.3078 5.91603 33.0755C7.08416 34.8279 8.41924 36.2464 9.90459 37.3145C10.7224 37.8985 11.5902 38.3658 12.4915 38.7328C12.6417 38.7996 12.8086 38.8497 12.9755 38.9164C13.0423 38.9331 13.1257 38.9664 13.1925 38.9998C13.2926 39.0332 13.3928 39.0665 13.4929 39.0832C13.5096 39.0832 13.5263 39.0999 13.5597 39.0999L13.7099 39.15C13.7766 39.1667 13.8434 39.1833 13.9102 39.2167C14.0604 39.2501 14.2106 39.2834 14.3441 39.3168C14.4442 39.3335 14.5444 39.3668 14.6445 39.3835L14.728 39.4002C14.945 39.4335 15.1619 39.4669 15.3956 39.5003C15.646 39.5336 15.913 39.5503 16.1801 39.5669L16.2135 39.3666L16.2469 39.1663C16.2803 38.9326 16.3304 38.6823 16.3638 38.4486L16.3972 38.2149C16.4139 38.1648 16.4139 38.1147 16.4306 38.0647C16.4307 38.0313 16.4473 38.0146 16.4474 37.9812L16.5476 37.5138C16.5643 37.4137 16.5977 37.2969 16.6144 37.1967C16.6645 36.9964 16.6979 36.7961 16.748 36.5958L16.9985 35.6778L17.1154 35.2104C17.1488 35.1102 17.1822 35.0101 17.2156 34.9099C17.2323 34.8598 17.249 34.8098 17.2657 34.7597L17.3825 34.3925C17.4326 34.2089 17.4994 34.0419 17.5495 33.8583C17.5829 33.7415 17.633 33.6247 17.6664 33.5245C17.6831 33.4911 17.6998 33.4578 17.7165 33.4077L17.8835 32.957L18.1339 32.2893C18.1506 32.2392 18.1673 32.1892 18.2007 32.1391C18.2174 32.1224 18.2174 32.089 18.2341 32.0556C18.3677 31.7551 18.4845 31.4714 18.6181 31.1709C18.6348 31.1209 18.6682 31.0708 18.6849 31.0207C18.7183 30.9205 18.7684 30.8371 18.8185 30.7369L19.0355 30.3029C19.1357 30.1193 19.2192 29.919 19.3193 29.7187L19.4696 29.4349C19.5197 29.3515 19.5698 29.268 19.6032 29.1846C19.7033 28.9843 19.8202 28.7839 19.9371 28.5836C20.271 28.0161 20.6216 27.4485 20.9721 26.9311C21.3394 26.3802 21.7401 25.846 22.1574 25.3452C22.5915 24.811 23.0422 24.3103 23.4929 23.8595C23.977 23.3754 24.4778 22.908 24.9953 22.5073C26.1137 21.6225 27.2988 20.9047 28.5174 20.3704C28.6008 20.337 28.6843 20.3036 28.751 20.2702L29.0014 20.17C29.0515 20.1533 29.1016 20.1366 29.135 20.1199C29.2518 20.0698 29.3686 20.0365 29.4855 19.9864C29.9028 19.8528 30.2366 19.7526 30.5704 19.6858C30.9877 19.6023 31.3883 19.5688 31.7555 19.5688C31.7722 19.5688 31.8056 19.5688 31.8223 19.5688C32.3063 19.5687 32.7903 19.6521 33.241 19.8022C33.725 19.9691 34.1756 20.2027 34.5595 20.5031C34.9433 20.8035 35.2938 21.1873 35.5441 21.6213C35.7777 21.9884 35.9612 22.4224 36.0947 22.873C36.1948 23.2569 36.2782 23.6575 36.3115 24.0914C36.3615 24.8092 36.328 25.5435 36.1944 26.328C36.0607 27.0458 35.8771 27.7135 35.6099 28.3812C35.5264 28.5815 35.4596 28.7317 35.4095 28.8819L35.3595 28.9988L35.2092 29.3159L35.0088 29.7499L34.7918 30.1672C34.7584 30.2173 34.7417 30.2674 34.7083 30.3174C34.6582 30.4009 34.6082 30.5011 34.5581 30.6012L34.3243 31.0185C34.2242 31.2188 34.1073 31.4024 33.9904 31.5861C33.9404 31.6695 33.8903 31.753 33.8402 31.8364C33.1724 32.9382 32.4212 33.9898 31.6199 34.958C30.7852 35.9596 29.8837 36.8777 28.9489 37.679C28.3313 38.2299 27.6636 38.7307 26.9625 39.1815C27.6469 38.7307 28.3146 38.2132 28.9489 37.679C29.8837 36.8777 30.7852 35.9596 31.6199 34.958C32.4212 33.9898 33.1724 32.9382 33.8402 31.8364C33.8903 31.753 33.9404 31.6695 33.9904 31.5861C34.1073 31.4024 34.2242 31.2021 34.3243 31.0185L34.5581 30.6012C34.6081 30.5178 34.6582 30.4176 34.7083 30.3174C34.7417 30.2674 34.7584 30.2173 34.7918 30.1672L35.0088 29.7499L35.3595 28.9988L35.4095 28.8819C35.4763 28.7484 35.5431 28.5815 35.6099 28.3812C35.8604 27.7135 36.0607 27.0458 36.1944 26.328C36.328 25.5435 36.3949 24.8091 36.3282 24.0914C36.2949 23.6575 36.2282 23.2569 36.1114 22.873C35.9779 22.4224 35.7944 22.0051 35.5775 21.6212C35.3105 21.1873 34.9767 20.8035 34.5928 20.5031C34.209 20.2027 33.7751 19.9691 33.2744 19.8022C32.8237 19.6521 32.3397 19.5687 31.8557 19.5688C31.4551 19.5688 31.0211 19.6023 30.5704 19.6858C30.2366 19.7526 29.8861 19.8528 29.4855 19.9864C29.3686 20.0365 29.2518 20.0698 29.135 20.1199C29.1016 20.1366 29.0515 20.1533 29.0014 20.17L28.751 20.2702C28.6676 20.3036 28.6008 20.337 28.534 20.3704C27.2988 20.888 26.097 21.6226 24.9953 22.5073C24.4778 22.908 23.977 23.3754 23.4929 23.8595C23.0422 24.3103 22.5915 24.811 22.1574 25.3452C21.7568 25.846 21.3561 26.3802 20.9721 26.9311C20.6216 27.4485 20.271 28.0161 19.9371 28.5836C19.8202 28.7839 19.72 28.9842 19.6032 29.1846C19.5698 29.268 19.5197 29.3515 19.4696 29.4349L19.3193 29.7187C19.2192 29.9023 19.1524 30.1026 19.0522 30.2862L18.8352 30.7202C18.7851 30.8204 18.7517 30.9038 18.7016 31.004C18.6849 31.0541 18.6515 31.1042 18.6348 31.1542C18.5012 31.438 18.3844 31.7385 18.2508 32.0389C18.2341 32.0556 18.2341 32.089 18.2174 32.1224C18.2007 32.1724 18.1673 32.2225 18.1506 32.2726L18.0671 32.4896L17.9002 32.9403L17.7165 33.4077C17.6998 33.4578 17.6831 33.4911 17.6664 33.5245C17.633 33.6414 17.5829 33.7415 17.5495 33.8583C17.4994 34.0419 17.4326 34.2089 17.3825 34.3925L17.2657 34.7597C17.249 34.8098 17.2323 34.8598 17.2156 34.9099C17.1822 35.0101 17.1488 35.1102 17.1154 35.2104L16.9985 35.6611L16.748 36.5791C16.6979 36.7794 16.6478 36.9964 16.6144 37.1967C16.5977 37.2969 16.5643 37.4137 16.5476 37.5138L16.4474 37.9812C16.4473 38.0146 16.4307 38.0313 16.4306 38.0647C16.4139 38.1147 16.4139 38.1481 16.3972 38.1982L16.3638 38.4319C16.3304 38.6656 16.2803 38.9326 16.2469 39.1663L16.2135 39.3666L16.1801 39.5669C17.4653 39.6502 18.8173 39.4998 20.1359 39.1825L20.1526 39.099L20.186 38.8987C20.186 38.8486 20.2027 38.8152 20.2194 38.7652C20.2194 38.7485 20.2361 38.7151 20.2361 38.6984L20.3196 38.2978C20.3363 38.1977 20.353 38.0975 20.3864 37.9974C20.4198 37.8304 20.4532 37.6468 20.4866 37.4799L20.5033 37.4465C20.5701 37.1795 20.6369 36.9291 20.7037 36.6787L20.8039 36.2781C20.8206 36.1946 20.854 36.1112 20.8874 36.0277C20.9041 35.9777 20.9208 35.9276 20.9375 35.8775L21.0043 35.6605C21.0711 35.4602 21.1212 35.2599 21.188 35.0763C21.2214 34.9761 21.2548 34.876 21.2882 34.7758C21.3049 34.7425 21.3049 34.7091 21.3216 34.6757L21.4552 34.2751L21.6722 33.6742C21.6889 33.6241 21.7056 33.5907 21.7223 33.5406C21.739 33.5239 21.739 33.4906 21.7557 33.4739L22.0729 32.6893C22.0896 32.6393 22.1063 32.5892 22.123 32.5558C22.1564 32.4723 22.1898 32.3889 22.2232 32.3054L22.4069 31.9215C22.5237 31.6711 22.6406 31.4041 22.7742 31.1537C22.8243 31.0702 22.8576 30.9867 22.9077 30.8866C22.9912 30.7364 23.0747 30.5694 23.1582 30.4025C23.7258 29.401 24.3268 28.4495 24.9946 27.6148C25.6957 26.7134 26.4469 25.9288 27.2482 25.2611C28.0995 24.5599 29.0009 23.9756 29.919 23.5582C29.969 23.5248 30.0358 23.5081 30.1026 23.4747L30.2862 23.4079L30.6534 23.2577C30.9205 23.1575 31.1375 23.0907 31.3211 23.0573C31.5381 23.0072 31.7217 22.9905 31.8719 22.9904C31.8886 22.9904 31.9053 22.9904 31.9053 22.9904C32.0221 22.9904 32.1389 23.0071 32.2558 23.0405C32.3726 23.0738 32.4727 23.1239 32.5562 23.1906C32.6396 23.2574 32.7064 23.3241 32.7731 23.4243C32.9233 23.6412 33.0401 24.0084 33.0734 24.4257C33.1234 24.843 33.1067 25.327 33.0232 25.8278C32.9396 26.3285 32.8227 26.8293 32.6558 27.28C32.6224 27.3801 32.5723 27.5136 32.5222 27.6305L32.4888 27.7139L32.3552 27.9977L32.1382 28.3983L31.9545 28.7823C31.8377 29.0159 31.7208 29.2663 31.5872 29.4833L31.5538 29.5334C31.4704 29.7003 31.3702 29.8672 31.27 30.0342C31.2199 30.1176 31.1699 30.2011 31.1365 30.2679C30.5688 31.2527 29.9344 32.2042 29.25 33.0556C28.5489 33.9403 27.781 34.7582 26.9797 35.4761C26.145 36.244 25.2603 36.8951 24.3756 37.4126C23.4576 37.9636 22.4894 38.4143 21.4879 38.765C21.0372 38.9153 20.5699 39.0489 20.1192 39.1658L20.0189 39.9169L19.9688 40.2173L19.9187 40.7348L19.8351 41.5526C19.8184 41.7195 19.8184 41.8698 19.8017 42.0367C19.8017 42.1535 19.7849 42.2537 19.7849 42.3705C19.7849 42.454 19.7682 42.5374 19.7682 42.6209C19.7515 42.8045 19.7515 43.0048 19.7514 43.1884C19.7514 43.3553 19.7514 43.5055 19.7514 43.6557C19.7513 44.0396 19.7346 44.4235 19.7679 44.8074L19.8012 45.6086C19.8178 45.7755 19.8345 45.9424 19.8512 46.1093C19.8679 46.2095 19.8678 46.3096 19.8845 46.4098C19.9845 47.5614 20.1846 48.6964 20.3514 49.5476C20.3681 49.6478 20.3848 49.7312 20.4182 49.8147C20.4348 49.8481 20.4348 49.8814 20.4515 49.9315C20.4849 50.0483 20.5016 50.1652 20.5349 50.282L20.5349 50.3154C20.5516 50.4155 20.585 50.499 20.6016 50.5991C20.635 50.766 20.6851 50.9163 20.7184 51.0832C20.7851 51.3335 20.8686 51.5839 20.9353 51.8342C20.952 51.8843 20.9687 51.9177 20.9687 51.9677C21.0187 52.168 21.0854 52.3683 21.1522 52.5686C21.4692 53.5199 21.8529 54.488 22.2701 55.4226C22.6705 56.3239 23.1378 57.2251 23.6384 58.1264C24.1056 58.9609 24.6229 59.8121 25.1903 60.6632L25.6075 61.2808C25.741 61.481 25.8745 61.6646 26.008 61.8649L26.0246 61.8816C26.2249 62.1653 26.4252 62.4323 26.6254 62.6994L26.8757 63.0331C26.9091 63.0665 26.9258 63.0999 26.9425 63.1333C26.9925 63.2 27.0259 63.2501 27.076 63.3169L27.1594 63.417C27.2095 63.467 27.2595 63.5338 27.2929 63.5839L27.7268 64.1346C27.8102 64.2515 27.9104 64.3683 27.9938 64.4851L28.1607 64.6854C28.2775 64.8189 28.3943 64.9524 28.5112 65.0859L28.628 65.2194C28.7782 65.3863 28.9284 65.5699 29.0786 65.7368C29.1453 65.8035 29.1954 65.8703 29.2621 65.9371L29.3122 65.9871C29.3623 66.0372 29.4123 66.0873 29.4624 66.154C29.4958 66.1874 29.5125 66.2208 29.5458 66.2375C29.8629 66.5712 30.1633 66.905 30.4637 67.2221L30.5805 67.3389L30.6973 67.4558C30.7808 67.5392 30.8475 67.606 30.931 67.6894C31.0478 67.8062 31.1646 67.923 31.2981 68.0399L31.5652 68.3069C31.6653 68.407 31.7654 68.5071 31.8822 68.6073L32.0825 68.7908C32.1826 68.8743 32.2661 68.9577 32.3662 69.0412C32.5164 69.1914 32.6833 69.3249 32.8335 69.4751L33.0671 69.692C33.1506 69.7755 33.234 69.8422 33.3008 69.8923C33.4844 70.0425 33.668 70.2094 33.8515 70.3596L34.2521 70.6933C34.4857 70.8936 34.7194 71.0772 34.953 71.2607C35.0365 71.3275 35.1199 71.3942 35.2033 71.461C35.3202 71.5444 35.4203 71.6279 35.5371 71.728L35.6706 71.8282C35.704 71.8615 35.7374 71.8782 35.7708 71.9116C35.8876 72.0117 36.0211 72.0952 36.1379 72.1953L36.2214 72.262C36.5051 72.479 36.7888 72.6792 37.0725 72.8795C37.1226 72.9129 37.156 72.9462 37.2061 72.9796L37.3062 73.0464C37.3896 73.1131 37.4564 73.1632 37.5398 73.2132C37.69 73.3134 37.8569 73.4302 38.0071 73.5303L38.0572 73.5637C38.3576 73.7639 38.6413 73.9642 38.9251 74.1478L39.2588 74.348C39.4591 74.4648 39.6427 74.5816 39.843 74.6984C40.3103 74.9988 40.7776 75.2658 41.2282 75.5161C41.345 75.5828 41.4786 75.6496 41.5954 75.733C43.5314 76.8177 45.5008 77.7688 47.6204 78.6198L48.238 78.87C48.3381 78.9034 48.4382 78.9535 48.5217 78.9868C48.5884 79.0202 48.6385 79.0369 48.7053 79.0536C48.7387 79.0703 48.772 79.0703 48.8054 79.087C49.1893 79.2204 49.5231 79.3539 49.8569 79.4707C49.9237 79.4874 49.9737 79.5208 50.0238 79.5375C50.1239 79.5708 50.2241 79.6042 50.3075 79.6375C50.4077 79.6709 50.4911 79.7043 50.5746 79.721L50.7248 79.771L50.9584 79.8544C51.142 79.9045 51.2923 79.9713 51.4425 80.0046C51.5259 80.038 51.5927 80.0547 51.6761 80.088C51.8097 80.1381 51.9432 80.1714 52.0767 80.2215C52.1768 80.2549 52.277 80.2882 52.3938 80.3049C52.4939 80.3383 52.6108 80.3717 52.7109 80.405C52.9112 80.4718 53.1282 80.5218 53.3285 80.5885L53.6456 80.6719C53.7123 80.6886 53.7791 80.7053 53.8459 80.722C53.8792 80.7387 53.9293 80.7387 53.9627 80.7554L54.1296 80.8054C54.4801 80.9055 54.8473 80.9889 55.1978 81.089C55.348 81.139 55.5149 81.1724 55.6651 81.2058C55.7152 81.2224 55.7653 81.2225 55.8153 81.2391C56.0156 81.2892 56.2326 81.3392 56.4329 81.3893C56.5497 81.4227 56.6665 81.4393 56.7834 81.4727L57.0504 81.5394C57.1839 81.5728 57.3008 81.5895 57.4343 81.6228C57.5011 81.6395 57.5845 81.6562 57.6513 81.6728L58.2021 81.7896C58.419 81.8396 58.636 81.873 58.853 81.9231C59.0867 81.9564 59.3203 82.0065 59.5373 82.0398C59.7042 82.0732 59.8711 82.0898 60.038 82.1232L60.6222 82.2233C60.739 82.2399 60.8725 82.2566 60.9894 82.2733C61.0561 82.2733 61.1229 82.2899 61.2064 82.3066C62.6251 82.5067 64.0938 82.6734 65.5626 82.7901C66.8311 82.89 68.1163 82.9566 69.4015 82.9898C69.4516 82.9898 69.5184 82.9898 69.5684 82.9898C69.6519 82.9898 69.7353 82.9898 69.8188 82.9898C69.9523 82.9897 70.1192 82.9897 70.2528 82.9897C70.5031 82.9897 70.7368 82.9896 70.9872 83.0063L71.0706 83.0063C71.4044 83.0229 71.7216 83.0062 72.022 83.0061C72.2223 83.0061 72.3892 83.0061 72.5728 83.0061C72.8065 83.006 73.0402 83.006 73.2571 83.006C73.3573 83.0059 73.4574 83.0059 73.5576 83.0059L73.591 83.0059C73.6911 83.0059 73.7912 83.0059 73.9081 83.0059C74.3087 83.0058 74.6926 83.0058 75.0264 83.0224L75.2767 83.0391L75.5104 83.039C75.6606 83.039 75.8108 83.0557 75.9444 83.0557C76.2114 83.0723 76.4451 83.1057 76.6287 83.139C77.0126 83.2058 77.2295 83.3226 77.2629 83.4895C77.2963 83.6397 77.146 83.84 76.8289 84.057C76.6619 84.1739 76.4616 84.2908 76.2279 84.4076C76.1111 84.4744 75.9776 84.5412 75.8273 84.608L75.6103 84.7082C75.5436 84.7415 75.4601 84.7582 75.3933 84.7916L75.3766 84.7916C75.0428 84.9252 74.6756 85.0421 74.275 85.1924L74.1915 85.2258C74.1081 85.2425 74.0413 85.2759 73.9578 85.3092C73.8577 85.3426 73.7408 85.3761 73.624 85.4095C73.3903 85.4762 73.1566 85.5263 72.923 85.5931C72.8395 85.6098 72.7394 85.6432 72.6559 85.6599C72.2386 85.7601 71.8213 85.877 71.3706 85.9606C71.0869 86.0107 70.8031 86.0775 70.5027 86.1276L70.3525 86.1443C70.2523 86.161 70.1522 86.1777 70.052 86.1944C69.9519 86.2111 69.8517 86.2278 69.7516 86.2445C69.7015 86.2445 69.6514 86.2613 69.6014 86.2613C68.2994 86.4617 66.9141 86.5788 65.4953 86.6457C64.9445 86.6124 64.4104 86.6125 63.8596 86.6126ZM15.8793 42.1874C15.8793 42.2709 15.8626 42.3544 15.8625 42.4211C15.8458 42.6381 15.8291 42.8551 15.8291 43.0888C15.8291 43.2557 15.829 43.4226 15.8123 43.5728C15.7956 44.0235 15.7788 44.4741 15.8121 44.9248L15.8287 45.8428C15.8454 46.0431 15.862 46.2601 15.862 46.4604C15.862 46.5605 15.8787 46.6607 15.8786 46.7608C15.9453 47.829 16.0953 48.9306 16.3455 50.366C16.3622 50.4829 16.3788 50.583 16.4122 50.6832C16.4289 50.7165 16.4289 50.7666 16.4456 50.8C16.4623 50.8835 16.4789 50.9502 16.4956 51.0337L16.5457 51.2339C16.5623 51.3341 16.5957 51.4342 16.6124 51.5344C16.6457 51.718 16.7125 51.9183 16.7625 52.1019L16.7625 52.1352C16.8459 52.419 16.896 52.686 16.9794 52.9698C16.9961 53.0198 17.0128 53.0532 17.0294 53.1033C17.0962 53.3369 17.1462 53.5873 17.2296 53.821C17.58 54.9225 17.9804 56.0241 18.4476 57.0923C18.8814 58.1104 19.382 59.1285 19.9327 60.1465C20.4333 61.0812 20.984 62.0325 21.5847 62.9838C21.6514 63.0839 21.7015 63.1674 21.7683 63.2675C21.8517 63.401 21.9351 63.5345 22.0186 63.6514L22.4858 64.319C22.636 64.5192 22.7695 64.7362 22.903 64.9365C23.0699 65.1535 23.2201 65.3871 23.387 65.6041C23.4203 65.6541 23.437 65.6875 23.4704 65.7209C23.5205 65.7876 23.5872 65.8544 23.6373 65.9212L23.8542 66.2216C23.9544 66.3384 24.0378 66.4552 24.1379 66.5887L24.3549 66.8391C24.4884 67.0226 24.6052 67.1895 24.7554 67.3564L24.8221 67.4399C24.989 67.6402 25.1559 67.8237 25.3061 68.024C25.4229 68.1742 25.5564 68.3077 25.6732 68.4579L25.8067 68.6081C25.8735 68.6749 25.9235 68.7416 25.9903 68.8251L26.0571 68.8918C26.1071 68.9586 26.1572 69.0087 26.2239 69.0754C26.2573 69.1088 26.2907 69.1422 26.3074 69.1756C26.5911 69.476 26.8581 69.7597 27.1418 70.0601L27.3087 70.2436L27.4255 70.3939L27.559 70.5107C27.6425 70.5941 27.7259 70.6942 27.8093 70.7777L28.31 71.295L28.4435 71.4286C28.5603 71.5454 28.6938 71.6789 28.8107 71.7957L29.328 72.2797C29.4281 72.3798 29.5283 72.4632 29.6284 72.5634C29.6952 72.6301 29.7786 72.6969 29.8454 72.7637C29.9288 72.8471 30.0123 72.9139 30.0957 72.9973C30.1958 73.0807 30.2793 73.1642 30.346 73.2309L30.7799 73.5981C30.9802 73.765 31.1805 73.9485 31.3807 74.1154C31.6311 74.3324 31.8981 74.5493 32.1484 74.7496C32.2319 74.8163 32.3153 74.8831 32.3988 74.9498C32.4989 75.0333 32.5991 75.1 32.6992 75.1835C32.7659 75.2335 32.8494 75.3003 32.9161 75.3503C32.9495 75.3837 32.9829 75.4004 33.0163 75.4338C33.1498 75.5339 33.2833 75.6507 33.4168 75.7509C33.6505 75.9177 33.8841 76.1013 34.1178 76.2682L34.4349 76.5018C34.5183 76.5686 34.6018 76.6186 34.6852 76.6854C34.7686 76.7521 34.8521 76.8189 34.9355 76.869C35.019 76.919 35.1024 76.9858 35.1859 77.0525C35.2693 77.1026 35.3528 77.1694 35.4362 77.2194L35.6198 77.3529C35.8868 77.5365 36.1539 77.72 36.4209 77.9036C36.6379 78.0371 36.8548 78.1873 37.0718 78.3208L37.4056 78.5377C37.9229 78.8715 38.4403 79.1718 38.941 79.4722C39.0578 79.539 39.1747 79.6057 39.2915 79.6725C40.4264 80.34 41.6114 80.9574 42.7963 81.5247C43.781 82.0086 44.7824 82.4424 45.8339 82.8762C46.0676 82.9764 46.2845 83.0598 46.5015 83.1432C46.6016 83.1933 46.7185 83.2266 46.8186 83.2767C46.8854 83.3101 46.9521 83.3268 47.0189 83.3601C47.0523 83.3768 47.0857 83.3935 47.1357 83.3935L47.6364 83.577C47.8701 83.6604 48.0704 83.7439 48.2873 83.8106C48.3541 83.8273 48.4042 83.8607 48.4709 83.8773C48.5878 83.9274 48.6879 83.9608 48.788 83.9941L48.9383 84.0442C49.0551 84.0776 49.1552 84.1109 49.2554 84.1443L50.0398 84.3946C50.1233 84.4112 50.2067 84.4446 50.2735 84.478C50.4237 84.528 50.5739 84.5781 50.7241 84.6114C50.9578 84.6782 51.1914 84.7449 51.4084 84.8117L51.4418 84.8117C51.6588 84.8784 51.8758 84.9284 52.1094 84.9952L52.4599 85.0952C52.5267 85.1119 52.6101 85.1286 52.6936 85.1453C52.727 85.1453 52.777 85.162 52.8104 85.1787C53.0775 85.2454 53.3612 85.3121 53.6282 85.3788L54.179 85.5123C54.3626 85.5624 54.5462 85.5957 54.7298 85.6291C54.7799 85.6291 54.8133 85.6457 54.8633 85.6624L54.9802 85.6791C55.1638 85.7125 55.3474 85.7458 55.531 85.7959C55.7479 85.8459 55.9816 85.8793 56.1986 85.9293C56.3488 85.9627 56.499 85.9793 56.6325 85.996C56.6993 86.0127 56.7827 86.0127 56.8662 86.0294C57.3001 86.0961 57.7508 86.1627 58.1848 86.2295C58.5019 86.2628 58.8023 86.2961 59.1027 86.3295C59.2196 86.3462 59.3531 86.3628 59.4699 86.3628L60.1042 86.4295C60.221 86.4796 60.3712 86.4795 60.5048 86.4962C60.5715 86.4962 60.655 86.4962 60.7217 86.5129C62.3241 86.6295 63.9097 86.6626 65.4786 86.5956C66.8974 86.5454 68.2828 86.4117 69.5847 86.2279C69.6348 86.2279 69.6848 86.2112 69.7349 86.2112C69.835 86.1945 69.9352 86.1778 70.0353 86.1611C70.1355 86.1443 70.2356 86.1276 70.3358 86.1109L70.486 86.0942C70.7698 86.0441 71.0535 85.9773 71.354 85.9272C71.8046 85.8437 72.2386 85.7435 72.6392 85.6266C72.7394 85.6099 72.8228 85.5765 72.9063 85.5598C73.14 85.493 73.3736 85.4429 73.6073 85.3761C73.7242 85.3427 73.841 85.3093 73.9411 85.2759C74.0246 85.2425 74.0914 85.2258 74.1748 85.1924L74.2583 85.159C74.6589 85.0254 75.0428 84.8918 75.36 84.7583L75.3766 84.7415C75.4601 84.7082 75.5269 84.6915 75.5936 84.6581L75.8106 84.5579C75.9609 84.4911 76.0944 84.4243 76.2112 84.3576C76.4616 84.224 76.6619 84.1071 76.8122 84.007C77.1293 83.7899 77.2796 83.5896 77.2462 83.4394C77.2129 83.2892 76.9959 83.1724 76.612 83.089C76.4284 83.0556 76.1947 83.0222 75.9277 83.0056C75.7942 82.9889 75.6606 82.9889 75.4937 82.989L75.2601 82.989L75.0264 82.9724C74.7593 82.9724 74.4589 82.9558 74.1418 82.9558C74.0583 82.9558 73.9749 82.9558 73.8914 82.9558C73.7913 82.9558 73.6911 82.9559 73.5743 82.9559L73.5409 82.9559C73.4407 82.9559 73.3406 82.9559 73.2405 82.9559C73.0235 82.9559 72.7898 82.956 72.5561 82.956C72.3725 82.956 72.1889 82.9561 72.0053 82.9561C71.7049 82.9561 71.3878 82.9562 71.0539 82.9562L70.9705 82.9562C70.7201 82.9563 70.4864 82.9563 70.2361 82.9396C70.1026 82.9396 69.9523 82.9397 69.8188 82.9397C69.7354 82.9397 69.6352 82.9397 69.5517 82.9397C69.5017 82.9397 69.4349 82.9397 69.3848 82.9397C68.0996 82.9065 66.8144 82.84 65.5459 82.74C64.0772 82.6234 62.6084 82.4567 61.1897 82.2566C61.1229 82.2399 61.0561 82.2399 60.9727 82.2232C60.8559 82.2065 60.7223 82.1898 60.6055 82.1732L60.0213 82.0731C59.8544 82.0397 59.6875 82.0231 59.5206 81.9897C59.3036 81.9564 59.07 81.9063 58.8363 81.873C58.6193 81.8229 58.4024 81.7896 58.1854 81.7396L57.6346 81.6228C57.5678 81.6061 57.4844 81.5894 57.4176 81.5727C57.2841 81.5561 57.1673 81.5227 57.0337 81.4893L56.7667 81.4226C56.6499 81.3892 56.533 81.3726 56.4162 81.3392C56.2159 81.2892 55.9989 81.2391 55.7986 81.2057C55.7486 81.1891 55.6985 81.1891 55.6484 81.1724C55.4982 81.139 55.3313 81.1057 55.1811 81.0556C54.8306 80.9555 54.4634 80.8721 54.1129 80.772L53.946 80.722C53.9126 80.7053 53.8626 80.7053 53.8292 80.6886C53.7624 80.6719 53.6957 80.6553 53.6289 80.6386L53.3118 80.5385C53.1115 80.4717 52.9112 80.4217 52.7109 80.3549C52.6108 80.3216 52.4773 80.2882 52.3771 80.2548C52.277 80.2215 52.1768 80.2048 52.06 80.1714C51.9265 80.1381 51.793 80.088 51.6594 80.0379C51.576 80.0213 51.5092 79.9879 51.4258 79.9712C51.2756 79.9212 51.1087 79.8711 50.9418 79.8044L50.7081 79.7376L50.5579 79.6876C50.4744 79.6542 50.3743 79.6376 50.2908 79.6042C50.1907 79.5708 50.1073 79.5374 50.0071 79.5041C49.957 79.4874 49.8903 79.4707 49.8402 79.4373C49.5231 79.3205 49.1726 79.2037 48.7887 79.0536C48.7554 79.0369 48.722 79.0369 48.6886 79.0202C48.6218 79.0035 48.5718 78.9702 48.505 78.9535C48.4049 78.9201 48.3214 78.87 48.2213 78.8367L47.587 78.6198C45.4507 77.7688 43.4813 76.8177 41.562 75.733C41.4452 75.6663 41.3117 75.5995 41.1948 75.5328C40.7442 75.2658 40.2769 75.0155 39.8096 74.7151C39.626 74.5983 39.4257 74.4815 39.2255 74.3647L38.8917 74.1645C38.608 73.9809 38.3242 73.7806 38.0238 73.5804L37.9738 73.547C37.8236 73.4469 37.6567 73.3301 37.5065 73.2299C37.4397 73.1799 37.3562 73.1298 37.2728 73.0631L37.1727 72.9963C37.1226 72.9629 37.0892 72.9296 37.0392 72.8962C36.7554 72.6959 36.4717 72.479 36.188 72.2787L36.1046 72.212C35.971 72.1285 35.8542 72.0284 35.7374 71.9283C35.704 71.9116 35.6706 71.8782 35.6373 71.8448L35.5037 71.7447C35.3869 71.6613 35.2868 71.5778 35.17 71.4777C35.0865 71.4109 35.0031 71.3442 34.9196 71.2774C34.686 71.0939 34.4523 70.9103 34.2187 70.71L33.8181 70.3763C33.6346 70.2261 33.451 70.0759 33.2674 69.909C33.2007 69.8589 33.1172 69.7922 33.0338 69.6921L32.8001 69.4751C32.6499 69.3416 32.483 69.1914 32.3328 69.0412C32.2494 68.9577 32.1493 68.8743 32.0491 68.7909L31.8655 68.624C31.7654 68.5238 31.6653 68.4237 31.5485 68.3236L31.2814 68.0733C31.1646 67.9564 31.0478 67.8396 30.9143 67.7228C30.8308 67.6393 30.7641 67.5726 30.6806 67.4892L30.5638 67.3556L30.447 67.2388C30.1466 66.9217 29.8295 66.5879 29.5291 66.2541C29.4958 66.2208 29.4791 66.1874 29.4457 66.1707C29.3956 66.1206 29.3456 66.0706 29.2955 66.0038L29.2454 65.9538C29.1787 65.887 29.1286 65.8203 29.0619 65.7535C28.9117 65.5866 28.7615 65.403 28.6113 65.2361L28.4945 65.1026C28.3776 64.9691 28.2608 64.8356 28.144 64.7021L27.9771 64.5018C27.8937 64.385 27.7936 64.2682 27.7101 64.1513L27.2762 63.6006C27.2262 63.5505 27.1761 63.4838 27.1427 63.4337L27.076 63.3169C27.0259 63.2501 26.9592 63.2 26.9258 63.1333C26.9091 63.0999 26.8757 63.0665 26.8423 63.0332L26.592 62.6994C26.3918 62.4323 26.1915 62.1486 25.9913 61.8816L25.9746 61.8649C25.8411 61.6813 25.7076 61.481 25.5741 61.2808L25.1569 60.6799C24.6062 59.8288 24.0722 58.9776 23.605 58.1431C23.1044 57.2418 22.6371 56.3406 22.2367 55.4393C21.8195 54.5047 21.4358 53.5366 21.1188 52.5853C21.0521 52.385 20.9853 52.1847 20.9353 51.9844C20.9186 51.9344 20.9019 51.901 20.9019 51.8509C20.8352 51.6006 20.7518 51.3502 20.685 51.0998C20.635 50.9329 20.6016 50.7827 20.5683 50.6158C20.5516 50.5157 20.5182 50.4322 20.5015 50.3321L20.5015 50.2987C20.4682 50.1819 20.4515 50.065 20.4181 49.9482C20.4181 49.9148 20.4015 49.8814 20.3848 49.848C20.3681 49.7646 20.3347 49.6644 20.318 49.5643C20.1513 48.7131 19.9511 47.5781 19.8511 46.4264C19.8345 46.3263 19.8345 46.2262 19.8178 46.126C19.8011 45.9591 19.7845 45.7922 19.7678 45.6253L19.7345 44.8241C19.7179 44.4402 19.7179 44.0563 19.718 43.6724C19.718 43.5222 19.718 43.3553 19.7181 43.2051C19.7181 43.0215 19.7181 42.8212 19.7348 42.6376C19.7348 42.5541 19.7515 42.4707 19.7515 42.3872C19.7516 42.2704 19.7683 42.1702 19.7683 42.0534C19.4011 42.1035 19.0339 42.1536 18.6667 42.1871C17.7653 42.2706 16.814 42.2708 15.8793 42.1874ZM15.8793 42.1874C16.3466 42.2375 16.8307 42.2374 17.298 42.2373C18.1325 42.2372 18.9671 42.1703 19.8017 42.0367C19.8184 41.8698 19.8184 41.7195 19.8351 41.5526L19.9187 40.7348L19.9688 40.2173L20.0189 39.9169L20.1359 39.1825C19.0509 39.4497 17.966 39.5833 16.9145 39.5835C16.6641 39.5835 16.4137 39.5836 16.1634 39.5669L16.1467 39.7004L16.13 39.8173L16.0798 40.2846C16.0464 40.535 16.013 40.7854 15.9963 41.0191L15.9796 41.2027L15.8793 42.1374C15.8793 42.1541 15.8793 42.1874 15.8793 42.1874ZM4.51856 0.110703C4.48518 0.110708 4.36833 0.22756 4.23477 0.461254C4.16799 0.578102 4.06782 0.745034 3.96765 0.911959L3.95095 0.962039C3.85079 1.12896 3.75061 1.32926 3.63374 1.56295C3.51687 1.81333 3.38331 2.0804 3.24973 2.39755C3.16626 2.56447 3.09947 2.73141 3.03268 2.88164L2.9659 3.04857C2.91581 3.16541 2.86572 3.29894 2.81563 3.41578C2.79893 3.48255 2.76554 3.53262 2.73215 3.59939C2.68206 3.71623 2.63197 3.84978 2.58188 3.98332L2.3648 4.63429C2.3481 4.70106 2.31471 4.76784 2.28132 4.8513C2.23123 4.98484 2.16444 5.15176 2.11435 5.30199L2.01416 5.61912C1.96406 5.75266 1.93066 5.88619 1.88057 6.01973C1.5967 6.9044 1.31281 7.95598 0.978802 9.3247C0.928699 9.54169 0.895286 9.77535 0.845183 9.99234L0.795073 10.2594C0.76167 10.4096 0.728268 10.5599 0.711556 10.7101L0.711551 10.7435L0.628027 11.2442C0.61132 11.3611 0.594612 11.4779 0.577905 11.5947C0.544493 11.8117 0.494388 12.0454 0.460976 12.2624C0.410855 12.6129 0.360732 12.9634 0.310609 13.3307C0.126793 14.883 0.0264314 16.4352 0.00952974 17.9541L0.0093561 19.206C0.00931674 19.4897 0.0259679 19.7735 0.0426195 20.0572C0.042601 20.1907 0.0592719 20.341 0.0592534 20.4745C0.0592302 20.6414 0.0758976 20.8083 0.0925654 20.9752C0.0925585 21.0253 0.0925523 21.0754 0.109236 21.1255L0.109225 21.2089C0.12589 21.3925 0.142553 21.5928 0.142527 21.7764C0.142511 21.8932 0.159189 21.9934 0.159173 22.1102C0.175852 22.1937 0.17584 22.2771 0.19252 22.3606L0.192508 22.444C0.192501 22.4941 0.209184 22.5442 0.209177 22.5942C0.225845 22.7612 0.242511 22.9447 0.275868 23.1283C0.50928 25.0144 0.909603 26.8838 1.49354 28.6863C1.81053 29.6711 2.1776 30.6224 2.57806 31.5237C3.01189 32.4917 3.51248 33.443 4.04647 34.3109C4.63052 35.2622 5.29804 36.1634 5.98226 36.9478C6.36609 37.3817 6.74992 37.799 7.15046 38.1661C7.58437 38.5666 8.01828 38.9505 8.46889 39.2842C10.4215 40.7695 12.6914 41.7372 15.0114 42.0874C15.2951 42.1374 15.5955 42.1708 15.8793 42.1874C15.8793 42.1708 15.8793 42.1541 15.8793 42.1374L15.9462 41.2193L15.9629 41.0357C15.9963 40.7854 16.0297 40.535 16.0464 40.3013L16.1133 39.7171L16.13 39.5836C15.8629 39.5669 15.6126 39.5503 15.3455 39.5169C15.1286 39.4836 14.9116 39.4502 14.6779 39.4169L14.5945 39.4002C14.4943 39.3835 14.3942 39.3502 14.294 39.3335C14.1438 39.3001 14.0103 39.2668 13.8601 39.2334C13.7933 39.2167 13.7266 39.2 13.6598 39.1667L13.543 39.0999C13.5263 39.0999 13.5263 39.0832 13.4929 39.0832C13.3928 39.0498 13.2759 39.0332 13.1758 38.9831C13.109 38.9498 13.0256 38.9331 12.9588 38.8997C12.8086 38.8496 12.6417 38.7829 12.4748 38.7162C11.5735 38.3491 10.7057 37.8819 9.8879 37.2978C8.40255 36.2465 7.06747 34.8112 5.89934 33.0588C5.38203 32.2911 4.9148 31.4566 4.48096 30.572C4.08049 29.7542 3.71341 28.8863 3.3964 27.985C2.79576 26.316 2.34535 24.5802 2.06184 22.8277C1.92843 21.9764 1.8284 21.1252 1.74506 20.324C1.72839 20.1738 1.72841 20.0069 1.71174 19.8567C1.69509 19.6063 1.67843 19.356 1.64509 19.1056L1.59518 17.9038C1.54531 16.4517 1.5789 14.9495 1.67925 13.4306C1.71268 13.0801 1.72942 12.7296 1.76285 12.3958C1.77957 12.1788 1.81298 11.9618 1.8297 11.7615C1.84641 11.6446 1.86312 11.5111 1.86314 11.3943L1.91328 10.9102L1.91328 10.8601C1.93 10.7099 1.94671 10.5764 1.98011 10.4262C2.03022 10.109 2.06365 9.80858 2.11376 9.50813C2.34763 8.12274 2.56475 7.10454 2.76517 6.21988L2.93218 5.50216C2.96558 5.35193 2.99898 5.2184 3.04907 5.08487C3.06577 5.00141 3.09917 4.91796 3.11587 4.8345C3.14927 4.70097 3.18267 4.56743 3.21607 4.4339L3.28287 4.20021C3.31627 4.06668 3.34967 3.94982 3.39975 3.83297C3.41646 3.7662 3.44985 3.68274 3.46655 3.61597C3.51665 3.43236 3.58344 3.24876 3.63353 3.06516C3.68363 2.88155 3.73373 2.71462 3.78382 2.56439C3.88401 2.24724 3.9842 1.96348 4.051 1.69641C4.10109 1.52949 4.15119 1.36258 4.20128 1.22904C4.23468 1.14558 4.25137 1.07884 4.26808 1.01207C4.33487 0.81177 4.38496 0.64484 4.41836 0.511307C4.51854 0.277617 4.56863 0.127387 4.51856 0.110703ZM31.8719 22.9904C31.8552 22.9904 31.8385 23.0071 31.8385 23.0071C31.6883 23.0072 31.5047 23.0406 31.2877 23.074C31.1041 23.1074 30.8871 23.1742 30.62 23.2744L30.2528 23.4246L30.0692 23.4914C30.0024 23.5081 29.9523 23.5415 29.8856 23.5749C28.9675 23.9923 28.0661 24.5599 27.2148 25.2778C26.4135 25.9455 25.6456 26.7468 24.9612 27.6315C24.3101 28.4662 23.6924 29.4177 23.1248 30.4192C23.0413 30.5861 22.9578 30.7363 22.8744 30.9033C22.8243 30.9867 22.7909 31.0702 22.7408 31.1537C22.6239 31.4041 22.507 31.6711 22.3735 31.9215L22.1898 32.3054C22.1564 32.3889 22.123 32.4724 22.0896 32.5558C22.0729 32.6059 22.0562 32.656 22.0396 32.6893L21.7223 33.4739C21.7056 33.4906 21.7056 33.524 21.6889 33.5406C21.6722 33.574 21.6555 33.6241 21.6388 33.6575L21.5554 33.8745L21.4218 34.2751L21.2715 34.6757C21.2548 34.7091 21.2548 34.7425 21.2381 34.7758C21.2047 34.876 21.1713 34.9761 21.1379 35.0763C21.0711 35.2766 21.021 35.4769 20.9542 35.6605L20.8874 35.8608C20.8707 35.9109 20.854 35.961 20.8373 36.011C20.8039 36.0945 20.7872 36.178 20.7539 36.2614L20.6537 36.662C20.5869 36.9124 20.5201 37.1795 20.4533 37.4298L20.4366 37.4632C20.4032 37.6302 20.3697 37.8137 20.3363 37.9807C20.3196 38.0808 20.3029 38.181 20.2695 38.2811L20.2194 38.6984C20.2194 38.7318 20.2194 38.7485 20.2194 38.7652C20.2027 38.8152 20.186 38.8486 20.1693 38.8987L20.1192 39.1991C20.5699 39.0822 21.0372 38.9487 21.4879 38.7984C22.4894 38.4477 23.4576 37.9969 24.3756 37.446C25.2603 36.9117 26.145 36.2607 26.9797 35.5095C27.781 34.7916 28.5489 33.9737 29.25 33.0889C29.9344 32.2209 30.5688 31.2861 31.1365 30.3013C31.1865 30.2178 31.2366 30.1343 31.27 30.0676C31.3702 29.9006 31.4537 29.7337 31.5538 29.5668L31.5872 29.5167C31.7041 29.283 31.8377 29.0493 31.9545 28.8156L32.1382 28.4317L32.4554 27.7473L32.4888 27.6639C32.5389 27.547 32.589 27.4302 32.6224 27.3133C32.7893 26.8459 32.9229 26.3619 32.9898 25.8611C33.0733 25.3604 33.0901 24.8764 33.04 24.4591C33.0067 24.0585 32.8899 23.6746 32.7397 23.4577C32.673 23.3575 32.6062 23.2908 32.5228 23.224C32.4393 23.1406 32.3392 23.0905 32.2224 23.0572C32.1055 23.0238 32.0054 22.9904 31.8719 22.9904Z" fill="#E25E52"/>
</svg>
